<?xml version="1.0" standalone="no"?>
<!DOCTYPE svg PUBLIC "-//W3C//DTD SVG 1.1//EN" "http://www.w3.org/Graphics/SVG/1.1/DTD/svg11.dtd" >
<svg xmlns="http://www.w3.org/2000/svg">
<metadata>
Created by FontPrep 20130207 at Sun Dec 11 04:30:55 2016
 By Maxim Tarasenko
(c) 2015 Apple Inc. All rights reserved.
</metadata>
<defs>
<font id="9fdff28c16dabb2da3ffe9319e6670c2" horiz-adv-x='1024' >
  <font-face 
    font-family="SFUIText-Light"
    font-weight="300"
    font-stretch="normal"
    units-per-em="2048"
    panose-1="0 0 4 0 0 0 0 0 0 0"
    ascent="1638"
    descent="-410"
    x-height="1077"
    cap-height="1443"
    bbox="-561 -549 2661 2138"
    underline-thickness="50"
    underline-position="-25"
    unicode-range="U+0020-FB02"
  />
<missing-glyph horiz-adv-x="1293" 
d="M632 1018q56 0 88 -30q33 -30 33 -74q-1 -44 -21 -72t-86 -74t-91 -97q-26 -51 -22 -140h166v15q0 48 19 76t90 78t101 101q30 50 30 116q0 113 -81 181q-82 68 -220 69q-138 0 -220 -76t-79 -203h169q0 58 34 94t90 36zM501 314q-1 -48 33 -78t88 -30t88 30t33 78
q1 48 -33 78t-88 29q-54 0 -88 -30q-33 -29 -33 -77zM120 0v1365h1053v-1365h-1053z" />
    <glyph glyph-name=".notdef" horiz-adv-x="1293" 
d="M632 1018q56 0 88 -30q33 -30 33 -74q-1 -44 -21 -72t-86 -74t-91 -97q-26 -51 -22 -140h166v15q0 48 19 76t90 78t101 101q30 50 30 116q0 113 -81 181q-82 68 -220 69q-138 0 -220 -76t-79 -203h169q0 58 34 94t90 36zM501 314q-1 -48 33 -78t88 -30t88 30t33 78
q1 48 -33 78t-88 29q-54 0 -88 -30q-33 -29 -33 -77zM120 0v1365h1053v-1365h-1053z" />
    <glyph glyph-name=".null" 
 />
    <glyph glyph-name="nonmarkingreturn" 
 />
    <glyph glyph-name="space" unicode=" " horiz-adv-x="554" 
 />
    <glyph glyph-name="exclam" unicode="!" horiz-adv-x="617" 
d="M192 102q0 50 34 84t83 33q50 1 83 -33t33 -84t-33 -84t-83 -34q-49 0 -83 34t-34 84zM233 1444h150l-11 -987h-127z" />
    <glyph glyph-name="quotedbl" unicode="&#x22;" horiz-adv-x="802" 
d="M629 935h-123v508h123v-508zM296 935h-123v508h123v-508z" />
    <glyph glyph-name="numbersign" unicode="#" horiz-adv-x="1316" 
d="M521 919l-76 -384h341l77 384h-342zM1211 918h-238l-77 -381h234l-23 -111h-233l-88 -426h-112l88 426h-339l-88 -426h-111l87 426h-229l23 111h230l76 381h-225l22 110h226l86 417h111l-85 -417h339l86 417h112l-87 -417h238z" />
    <glyph glyph-name="dollar" unicode="$" horiz-adv-x="1321" 
d="M316 1085q0 -105 71 -167t223 -96v521q-126 -6 -210 -80t-84 -178zM1039 382q0 116 -76 181q-76 66 -249 105v-560q148 6 236 82t89 192zM714 -150h-104v141q-202 13 -330 123t-130 277h130q8 -114 98 -191t232 -90v579l-55 15q-189 48 -279 139t-91 242q0 151 116 257
t309 119v138h104v-137q186 -14 306 -120t123 -262h-130q-4 104 -88 178t-211 85v-544l59 -15q210 -52 304 -144t94 -254q1 -162 -123 -272q-124 -108 -334 -122v-142z" />
    <glyph glyph-name="percent" unicode="%" horiz-adv-x="1610" 
d="M398 885q78 0 127 66q48 67 48 175t-47 173q-46 65 -126 65t-128 -66t-48 -174t48 -174t126 -65zM347 0h-143l1065 1443h141zM399 784q-131 0 -215 95t-83 245q-1 150 83 245t215 95t215 -94t83 -246q1 -150 -83 -245t-215 -95zM1212 -21q-132 0 -216 95t-83 245
q-1 150 83 245t216 95q132 -1 214 -95q83 -94 83 -244t-83 -246q-82 -95 -214 -95zM1212 79q78 1 126 67t48 174t-47 174q-47 64 -127 64t-128 -65t-48 -173t48 -175q50 -66 128 -66z" />
    <glyph glyph-name="ampersand" unicode="&#x26;" horiz-adv-x="1472" 
d="M866 1158q0 86 -64 145t-160 59t-162 -60t-66 -138q0 -77 38 -140t140 -165q146 73 210 143t64 156zM258 385q0 -129 97 -211t252 -82q107 0 213 45t172 118l-436 469q-3 -1 -27 -14t-47 -24q-224 -117 -224 -301zM596 -25q-210 1 -342 113t-132 289q0 243 281 392
q5 3 39 20t38 20q-110 113 -154 191t-43 158q1 134 103 224t255 90t253 -89t101 -211q-1 -122 -77 -212q-76 -89 -251 -179l400 -427q92 163 92 403v46h128v-46q0 -299 -130 -495l248 -262h-172l-158 168q-93 -91 -219 -142t-260 -51z" />
    <glyph glyph-name="quotesingle" unicode="'" horiz-adv-x="469" 
d="M296 935h-123v508h123v-508z" />
    <glyph glyph-name="parenleft" unicode="(" horiz-adv-x="711" 
d="M188 598q0 252 67 458q67 204 210 386h114q-115 -140 -185 -372t-71 -471q0 -457 254 -867h-119q-130 162 -200 388t-70 478z" />
    <glyph glyph-name="parenright" unicode=")" horiz-adv-x="711" 
d="M387 599q0 240 -70 471t-185 372h115q143 -182 209 -386t66 -456t-70 -478t-199 -390h-120q254 410 254 867z" />
    <glyph glyph-name="asterisk" unicode="*" horiz-adv-x="1052" 
d="M609 1076l261 -137l-53 -91l-249 157l11 -294h-106l11 294l-249 -157l-53 91l261 137l-261 138l53 92l249 -160l-11 297h106l-11 -297l249 160l53 -92z" />
    <glyph glyph-name="plus" unicode="+" horiz-adv-x="1321" 
d="M718 523v-456h-115v456h-444v114h444v448h115v-448h443v-114h-443z" />
    <glyph glyph-name="comma" unicode="," horiz-adv-x="607" 
d="M248 -339h-115l85 531h162z" />
    <glyph glyph-name="hyphen" unicode="-" horiz-adv-x="975" 
d="M815 520h-656v124h656v-124z" />
    <glyph glyph-name="period" unicode="." horiz-adv-x="593" 
d="M296 -10q-46 0 -78 32t-32 78t32 78t78 32t78 -32t33 -78q-1 -46 -33 -78t-78 -32z" />
    <glyph glyph-name="slash" unicode="/" horiz-adv-x="695" 
d="M184 -327h-117l443 1770h118z" />
    <glyph glyph-name="zero" unicode="0" horiz-adv-x="1282" 
d="M642 90q176 0 273 166t97 465t-98 465t-272 166q-176 0 -274 -166t-98 -466q0 -298 98 -464t274 -166zM641 -30q-241 0 -375 198t-134 552t136 554t374 199q238 0 372 -200q134 -199 135 -553q0 -354 -134 -552t-374 -198z" />
    <glyph glyph-name="one" unicode="1" horiz-adv-x="913" 
d="M503 0v1293h-13q-20 -11 -188 -129t-188 -131v145q6 4 167 117t222 150h136v-1445h-136z" />
    <glyph glyph-name="two" unicode="2" horiz-adv-x="1222" 
d="M605 1473q190 1 319 -115t129 -286q0 -112 -64 -221t-242 -299l-390 -416v-12h732v-124h-929v96l504 545q152 161 202 247t50 193t-90 189t-227 83q-136 1 -224 -85t-90 -223v-1h-133v1q2 123 60 221t161 152t232 55z" />
    <glyph glyph-name="three" unicode="3" horiz-adv-x="1260" 
d="M443 686v118h169q140 0 228 78t87 198q0 121 -87 197t-221 76q-133 1 -221 -73t-98 -197h-133q13 177 137 283t314 107q190 0 319 -109q129 -108 129 -252t-71 -234t-197 -117v-13q154 -18 244 -114t90 -244q0 -178 -145 -299t-355 -121t-350 112q-138 112 -145 287h132
q9 -123 111 -201t254 -78t254 86t103 220q0 134 -100 212t-273 78h-175z" />
    <glyph glyph-name="four" unicode="4" horiz-adv-x="1312" 
d="M262 448h582v866h-9q-324 -443 -573 -857v-9zM844 0v326h-725v125q223 377 662 994h196v-996h216v-123h-216v-326h-133z" />
    <glyph glyph-name="five" unicode="5" horiz-adv-x="1256" 
d="M648 936q215 0 348 -134t133 -346t-140 -349q-141 -137 -349 -137t-342 114t-146 289h134q11 -121 109 -201q97 -80 245 -81q148 0 250 102t102 261t-102 261t-257 102q-107 -1 -195 -49t-134 -131h-130l78 806h787v-123h-679l-48 -526h13q108 142 323 142z" />
    <glyph glyph-name="six" unicode="6" horiz-adv-x="1288" 
d="M662 92q154 0 258 106t104 264t-102 262q-102 103 -257 103q-156 -1 -261 -103t-105 -258q1 -156 105 -265t258 -109zM665 -29q-147 1 -259 71t-180 204q-96 169 -96 445q0 368 144 575t401 207q179 0 305 -100t156 -269h-140q-26 114 -114 180t-209 66q-194 0 -301 -174
t-109 -496h12q47 122 159 194t252 72q204 0 340 -136t136 -348q0 -211 -140 -351t-357 -140z" />
    <glyph glyph-name="seven" unicode="7" horiz-adv-x="1161" 
d="M905 1320h-782v123h920v-128l-661 -1315h-146l669 1308v12z" />
    <glyph glyph-name="eight" unicode="8" horiz-adv-x="1294" 
d="M648 817q142 1 230 73t89 192q0 120 -89 196t-231 77q-142 -1 -231 -77t-89 -196t89 -192q90 -73 232 -73zM647 88q166 0 270 86t104 222q1 136 -103 220t-270 83q-166 1 -270 -83t-104 -220t104 -222t269 -86zM648 -30q-226 0 -370 117q-142 117 -142 302q0 140 86 242
t229 127v12q-119 28 -189 116t-70 205q0 167 128 275t328 107q200 0 326 -107q128 -107 128 -275q0 -117 -70 -205t-188 -116v-12q141 -26 228 -128t87 -241q-1 -187 -143 -303t-368 -116z" />
    <glyph glyph-name="nine" unicode="9" horiz-adv-x="1288" 
d="M622 617q156 1 262 103q105 102 105 258q-1 156 -105 264q-104 110 -258 110t-258 -107t-104 -265t101 -260t257 -103zM1019 763h-6q-47 -121 -159 -193t-252 -72q-208 0 -342 136t-134 346q0 212 140 352t357 141q147 1 259 -71t180 -206q96 -168 96 -444
q0 -368 -144 -574t-401 -207q-181 0 -305 100t-156 268h140q28 -112 114 -179t209 -67q190 1 296 167t114 470q1 6 -3 18t-3 15z" />
    <glyph glyph-name="colon" unicode=":" horiz-adv-x="593" 
d="M296 763q-46 1 -78 33t-32 78t32 78t78 32t78 -32t33 -78q-1 -46 -33 -78t-78 -33zM296 -10q-46 0 -78 32t-32 78t32 78t78 32t78 -32t33 -78q-1 -46 -33 -78t-78 -32z" />
    <glyph glyph-name="semicolon" unicode=";" horiz-adv-x="593" 
d="M296 763q-46 1 -78 33t-32 78t32 78t78 32t78 -32t33 -78q-1 -46 -33 -78t-78 -33zM248 -339h-115l85 531h162z" />
    <glyph glyph-name="less" unicode="&#x3c;" horiz-adv-x="1321" 
d="M1093 134v-143l-865 531v109l865 531v-143l-733 -437v-12z" />
    <glyph glyph-name="equal" unicode="=" horiz-adv-x="1321" 
d="M1158 714h-995v115h995v-115zM1158 331h-995v115h995v-115z" />
    <glyph glyph-name="greater" unicode="&#x3e;" horiz-adv-x="1321" 
d="M228 134l732 436v12l-732 437v143l865 -531v-109l-865 -531v143z" />
    <glyph glyph-name="question" unicode="?" horiz-adv-x="1020" 
d="M478 -16q-50 0 -84 34q-33 34 -33 84t33 84q34 34 84 33q50 1 83 -33t33 -84t-33 -84t-83 -34zM496 1456q184 0 300 -102t115 -256q0 -206 -211 -341q-98 -63 -133 -115t-35 -137v-75h-133v94q-1 99 45 169t147 135q101 66 140 124t39 152t-77 164q-77 69 -197 69
t-197 -70t-87 -188h-130q9 165 120 271q110 106 294 106z" />
    <glyph glyph-name="at" unicode="@" horiz-adv-x="1871" 
d="M958 1434q236 0 418 -94t284 -264q101 -170 101 -398q0 -230 -94 -370t-257 -140q-94 0 -156 51t-70 133h-13q-34 -85 -101 -131t-158 -46q-155 0 -252 117t-97 303q-1 186 97 302t252 116q84 0 152 -44t96 -117h13v141h116v-575q1 -72 37 -110t104 -38q103 0 162 113
t59 305t-88 338t-247 228q-159 81 -337 81t-309 -55t-224 -152q-93 -98 -146 -234t-53 -294q0 -331 199 -532t526 -201q223 0 332 44v-99q-132 -44 -333 -44q-377 0 -605 228t-228 608q0 242 104 431t292 294t424 105zM930 906q-110 0 -178 -86q-66 -86 -66 -226
q0 -142 66 -226t176 -84t177 86q66 86 66 228q1 142 -65 225t-176 83z" />
    <glyph glyph-name="A" unicode="A" horiz-adv-x="1363" 
d="M675 1264l-255 -704h524l-256 704h-13zM1145 0l-160 442h-606l-160 -442h-145l540 1443h136l539 -1443h-144z" />
    <glyph glyph-name="B" unicode="B" horiz-adv-x="1319" 
d="M322 121h374q181 0 276 73t95 211q0 139 -100 211t-288 72h-357v-567zM322 1322v-515h323q168 1 259 67t91 189q-1 123 -85 191t-232 68h-356zM715 0h-530v1443h519q199 1 314 -95t115 -261q0 -121 -74 -209t-190 -109v-13q153 -17 245 -113t93 -244q0 -189 -129 -294
t-363 -105z" />
    <glyph glyph-name="C" unicode="C" horiz-adv-x="1455" 
d="M763 -30q-294 0 -465 202t-171 549t171 549t464 203q148 -1 272 -61t204 -168t100 -242h-139q-31 152 -153 248t-284 96q-227 0 -361 -170t-134 -456t134 -454t362 -169q167 0 287 86t149 228h139q-30 -199 -188 -320t-387 -121z" />
    <glyph glyph-name="D" unicode="D" horiz-adv-x="1471" 
d="M322 1319v-1195h330q263 0 408 158t145 439t-145 439t-408 159h-330zM185 1443h475q327 0 506 -191q179 -190 179 -530q-1 -340 -179 -531t-506 -191h-475v1443z" />
    <glyph glyph-name="E" unicode="E" horiz-adv-x="1197" 
d="M1057 124v-124h-872v1443h872v-124h-735v-519h698v-122h-698v-554h735z" />
    <glyph glyph-name="F" unicode="F" horiz-adv-x="1155" 
d="M322 0h-137v1443h856v-124h-719v-542h661v-122h-661v-655z" />
    <glyph glyph-name="G" unicode="G" horiz-adv-x="1506" 
d="M1375 559q0 -269 -164 -429q-163 -160 -447 -160t-460 206t-177 545q0 340 176 546t467 206q232 0 392 -123t199 -329h-139q-45 155 -163 240t-289 85q-229 0 -366 -170t-137 -454q-1 -284 137 -455q138 -170 360 -170q222 -1 348 123q127 124 127 328v50h-440v121h576
v-160z" />
    <glyph glyph-name="H" unicode="H" horiz-adv-x="1488" 
d="M1303 0h-137v677h-844v-677h-137v1443h137v-642h844v642h137v-1443z" />
    <glyph glyph-name="I" unicode="I" horiz-adv-x="507" 
d="M322 0h-137v1443h137v-1443z" />
    <glyph glyph-name="J" unicode="J" horiz-adv-x="1088" 
d="M501 97q121 1 193 79t72 222v1045h137v-1050q0 -197 -110 -310q-111 -113 -293 -113t-294 100t-114 260h136q5 -103 78 -168t195 -65z" />
    <glyph glyph-name="K" unicode="K" horiz-adv-x="1311" 
d="M322 0h-137v1443h137v-746h12l683 746h171l-578 -623l637 -820h-177l-555 725l-193 -210v-515z" />
    <glyph glyph-name="L" unicode="L" horiz-adv-x="1139" 
d="M1044 124v-124h-859v1443h137v-1319h722z" />
    <glyph glyph-name="M" unicode="M" horiz-adv-x="1761" 
d="M314 0h-129v1443h157l533 -1256h12l531 1256h158v-1443h-128v1177h-10l-498 -1170h-119l-498 1170h-9v-1177z" />
    <glyph glyph-name="N" unicode="N" horiz-adv-x="1494" 
d="M320 0h-135v1443h135l841 -1198h13v1198h135v-1443h-132l-844 1199h-13v-1199z" />
    <glyph glyph-name="O" unicode="O" horiz-adv-x="1561" 
d="M782 1346q-236 0 -376 -168q-139 -168 -139 -456q0 -286 138 -456q137 -170 375 -169q238 -1 376 169t137 456q1 286 -137 456q-138 168 -374 168zM782 1473q302 0 476 -202t175 -549q-1 -348 -175 -550t-478 -202t-478 202q-175 202 -175 550q0 346 176 548
q177 202 479 203z" />
    <glyph glyph-name="P" unicode="P" horiz-adv-x="1272" 
d="M322 1321v-655h343q167 0 261 86t95 241q1 154 -93 241t-263 87h-343zM185 1443h513q206 0 334 -125q128 -126 128 -326t-129 -324t-335 -124h-374v-544h-137v1443z" />
    <glyph glyph-name="Q" unicode="Q" horiz-adv-x="1561" 
d="M782 97q104 0 192 35l-194 263h155l148 -198q101 73 155 209t55 315q-1 287 -139 456t-374 169t-374 -169q-139 -169 -139 -457t139 -455q139 -168 376 -168zM781 -30q-304 0 -479 201t-175 549t176 551q175 202 477 202q302 -1 478 -203t175 -549q0 -219 -70 -384
t-200 -253l183 -253h-154l-140 191q-122 -52 -271 -52z" />
    <glyph glyph-name="R" unicode="R" horiz-adv-x="1309" 
d="M322 591v-591h-137v1443h517q211 -1 336 -115t125 -307q0 -153 -82 -261t-227 -147l350 -613h-160l-332 591h-390zM322 1321v-608h369q157 0 245 80t87 223q0 143 -90 224t-248 81h-363z" />
    <glyph glyph-name="S" unicode="S" horiz-adv-x="1284" 
d="M655 95q163 0 268 80q105 79 105 191t-78 180t-244 109l-165 42q-203 49 -294 139t-91 252t138 273q138 112 350 112q212 -1 351 -109t150 -274h-138q-17 116 -115 187t-249 71t-249 -76t-98 -183q0 -105 72 -165t237 -101l143 -36q224 -55 322 -149t98 -247
q0 -189 -144 -305t-373 -116q-231 0 -377 112t-159 293h138q15 -124 127 -202t275 -78z" />
    <glyph glyph-name="T" unicode="T" horiz-adv-x="1280" 
d="M708 0h-136v1319h-484v124h1104v-124h-484v-1319z" />
    <glyph glyph-name="U" unicode="U" horiz-adv-x="1494" 
d="M325 1443v-934q0 -183 114 -296t308 -113t308 113t114 296v934h137v-943q0 -238 -151 -382t-407 -144t-408 144q-151 144 -151 382v943h136z" />
    <glyph glyph-name="V" unicode="V" horiz-adv-x="1363" 
d="M750 0h-136l-540 1443h144l457 -1264h13l457 1264h144z" />
    <glyph glyph-name="W" unicode="W" horiz-adv-x="1956" 
d="M973 1205l-354 -1205h-127l-397 1443h142l317 -1230h9l347 1230h136l347 -1230h9l317 1230h142l-397 -1443h-127l-354 1205h-10z" />
    <glyph glyph-name="X" unicode="X" horiz-adv-x="1366" 
d="M95 0l504 724l-500 719h165l418 -609h11l422 609h156l-508 -724l500 -719h-164l-416 606h-11l-421 -606h-156z" />
    <glyph glyph-name="Y" unicode="Y" horiz-adv-x="1321" 
d="M729 0h-136v624l-518 819h157l423 -680h12l423 680h156l-517 -819v-624z" />
    <glyph glyph-name="Z" unicode="Z" horiz-adv-x="1328" 
d="M138 0v99l863 1208v12h-834v124h1011v-100l-860 -1207v-12h872v-124h-1052z" />
    <glyph glyph-name="bracketleft" unicode="[" horiz-adv-x="733" 
d="M188 1444h417v-106h-288v-1472h301v-104h-430v1682z" />
    <glyph glyph-name="backslash" unicode="\" horiz-adv-x="695" 
d="M512 -327l-445 1770h118l443 -1770h-116z" />
    <glyph glyph-name="bracketright" unicode="]" horiz-adv-x="733" 
d="M544 1444v-1682h-429v104h302v1472h-289v106h416z" />
    <glyph glyph-name="asciicircum" unicode="^" horiz-adv-x="947" 
d="M468 1318l-236 -531h-126l298 645h140l298 -645h-127l-235 531h-12z" />
    <glyph glyph-name="underscore" unicode="_" horiz-adv-x="919" 
d="M927 -222h-935v100h935v-100z" />
    <glyph glyph-name="grave" unicode="`" horiz-adv-x="999" 
d="M709 1267h-149l-269 327h168z" />
    <glyph glyph-name="a" unicode="a" horiz-adv-x="1125" 
d="M106 296q0 142 100 222t288 94l337 22v104q-1 116 -69 178t-189 62t-197 -44t-94 -123h-133q19 128 133 206t294 78q180 1 284 -93t103 -263v-739h-126v185h-12q-105 -203 -377 -203q-140 0 -240 86q-102 86 -102 228zM508 98q128 0 226 88t97 215v126l-319 -23
q-271 -19 -271 -204q0 -92 70 -147q69 -55 197 -55z" />
    <glyph glyph-name="b" unicode="b" horiz-adv-x="1252" 
d="M658 977q-159 1 -255 -119t-96 -319t96 -319t255 -119t252 119t93 320t-93 319q-93 118 -252 118zM685 -18q-124 0 -222 62t-146 171h-13v-215h-125v1506h131v-638h12q45 105 143 166t220 61q205 0 329 -152q124 -151 124 -403t-124 -405t-329 -153z" />
    <glyph glyph-name="c" unicode="c" horiz-adv-x="1145" 
d="M600 977q-162 0 -256 -118q-94 -119 -94 -319t95 -320t255 -119q120 0 202 55t106 154h133q-25 -148 -142 -238t-298 -90q-223 0 -355 152t-131 406q-1 255 131 405t354 150q180 -1 298 -95t144 -240h-133q-25 96 -107 156t-202 61z" />
    <glyph glyph-name="d" unicode="d" horiz-adv-x="1256" 
d="M598 977q-160 0 -254 -119q-94 -120 -94 -320t94 -318t254 -119q160 0 255 119t95 318t-96 319t-254 120zM571 -18q-206 0 -331 152t-125 404q-1 250 125 404t331 153q123 0 220 -61t143 -167h12v639h131v-1506h-126v215h-12q-49 -109 -147 -171t-221 -62z" />
    <glyph glyph-name="e" unicode="e" horiz-adv-x="1174" 
d="M597 -18q-222 0 -352 150t-130 406q1 254 131 406t348 151q218 0 341 -143q124 -143 124 -390v-58h-809v-6q6 -183 100 -291t250 -108q114 -1 194 43t115 124h133q-40 -132 -158 -208t-287 -76zM594 979q-146 -1 -240 -101t-103 -266h671q-2 167 -92 267t-236 100z" />
    <glyph glyph-name="f" unicode="f" horiz-adv-x="718" 
d="M545 1381q-173 0 -173 -188v-116h254v-111h-254v-966h-131v966h-174v111h174v119q0 297 297 297q45 0 98 -10v-111q-38 9 -91 9z" />
    <glyph glyph-name="g" unicode="g" horiz-adv-x="1242" 
d="M620 -404q-198 0 -315 76t-138 202h139q18 -75 98 -119t219 -44t229 76t91 207v242h-13q-48 -107 -142 -166t-219 -59q-207 1 -331 149t-123 392q0 244 124 394t330 149q123 0 223 -63t144 -168h12v213h126v-1093q0 -176 -128 -282t-326 -106zM945 550q1 192 -95 310
q-96 117 -256 117q-160 1 -252 -115t-92 -310t92 -308q92 -116 254 -116q160 0 254 115t95 307z" />
    <glyph glyph-name="h" unicode="h" horiz-adv-x="1224" 
d="M933 667q0 310 -285 310q-152 0 -245 -94t-93 -243v-640h-131v1506h131v-623h12q44 100 138 156t222 56q182 0 282 -104t100 -291v-700h-131v667z" />
    <glyph glyph-name="i" unicode="i" horiz-adv-x="480" 
d="M240 1317q-40 0 -68 29t-29 69q1 41 29 69t68 28t69 -28t29 -70q0 -40 -29 -68t-69 -29zM175 0v1077h131v-1077h-131z" />
    <glyph glyph-name="j" unicode="j" horiz-adv-x="480" 
d="M240 1317q-40 0 -68 29t-29 69q1 41 29 69t68 28t69 -28t29 -70q0 -40 -29 -68t-69 -29zM306 1077v-1158q0 -156 -75 -227t-233 -71h-30v113h27q98 0 139 42t41 140v1161h131z" />
    <glyph glyph-name="k" unicode="k" horiz-adv-x="1092" 
d="M310 0h-131v1506h131v-933h12l526 504h164l-481 -462l503 -615h-168l-434 531l-122 -113v-418z" />
    <glyph glyph-name="l" unicode="l" horiz-adv-x="489" 
d="M179 0v1506h131v-1506h-131z" />
    <glyph glyph-name="m" unicode="m" horiz-adv-x="1772" 
d="M169 0v1077h125v-194h13q35 99 117 155t194 57q110 -1 190 -57t115 -155h13q42 98 132 155t204 57q162 1 252 -93t89 -265v-737h-131v707q0 132 -64 201t-186 69q-122 1 -199 -83t-77 -211v-683h-131v721q0 116 -68 186q-69 70 -183 70t-194 -92t-80 -224v-661h-131z" />
    <glyph glyph-name="n" unicode="n" horiz-adv-x="1206" 
d="M169 0v1077h125v-194h13q43 100 138 156t223 56q180 1 279 -103t99 -292v-700h-131v667q0 310 -281 310q-150 -1 -242 -93t-92 -244v-640h-131z" />
    <glyph glyph-name="o" unicode="o" horiz-adv-x="1208" 
d="M604 -18q-226 0 -358 150t-131 407q-1 258 131 407t358 149t358 -149t132 -407q0 -257 -132 -407t-358 -150zM604 101q166 1 260 117t94 321t-94 321t-260 117q-166 -1 -260 -117t-94 -321t94 -321t260 -117z" />
    <glyph glyph-name="p" unicode="p" horiz-adv-x="1242" 
d="M647 101q159 0 253 118q94 117 93 319q1 202 -93 320t-252 119q-158 0 -256 -120q-96 -120 -96 -318t96 -318t255 -120zM675 1095q205 -1 329 -153t124 -403t-124 -404t-329 -153q-125 0 -221 60t-142 163h-12v-556h-131v1428h125v-220h12q50 111 148 175t221 63z" />
    <glyph glyph-name="q" unicode="q" horiz-adv-x="1246" 
d="M596 101q160 -1 256 119t96 318t-96 319q-96 120 -255 120t-253 -119q-94 -120 -94 -320t94 -318q92 -118 252 -119zM570 1095q122 -1 222 -65t146 -173h12v220h127v-1428h-133v556h-12q-50 -107 -144 -165t-218 -58q-205 0 -330 153t-125 403t125 404q125 153 330 153z
" />
    <glyph glyph-name="r" unicode="r" horiz-adv-x="754" 
d="M169 0v1077h125v-177h13q27 88 110 142t169 53q86 0 122 -9v-131q-45 13 -117 13q-125 0 -208 -84t-83 -212v-672h-131z" />
    <glyph glyph-name="s" unicode="s" horiz-adv-x="1058" 
d="M144 800q0 120 112 208q112 87 276 87q164 1 271 -75t125 -204h-129q-17 76 -89 122t-178 45q-106 0 -182 -53q-74 -53 -74 -126t52 -114t162 -67l148 -35q159 -38 234 -106t75 -196q0 -126 -119 -215t-296 -89t-291 78t-130 210h136q22 -82 97 -129q74 -47 192 -47
t197 55t79 132t-51 121t-160 69l-163 39q-152 38 -223 104t-71 186z" />
    <glyph glyph-name="t" unicode="t" horiz-adv-x="724" 
d="M237 1353h131v-276h256v-111h-256v-668q0 -100 40 -144t131 -44q47 0 80 3v-112q-40 -7 -94 -7q-155 0 -221 64t-67 210v698h-174v111h174v276z" />
    <glyph glyph-name="u" unicode="u" horiz-adv-x="1207" 
d="M1038 1077v-1077h-125v194h-12q-41 -100 -135 -156t-223 -56q-179 0 -281 105t-102 290v700h131v-667q-1 -150 73 -229t218 -79t235 91q90 91 90 244v640h131z" />
    <glyph glyph-name="v" unicode="v" horiz-adv-x="1078" 
d="M67 1077h140l326 -934h12l325 934h141l-402 -1077h-140z" />
    <glyph glyph-name="w" unicode="w" horiz-adv-x="1566" 
d="M1499 1077l-307 -1077h-139l-265 894h-13l-265 -894h-138l-305 1077h133l239 -914h12l266 914h131l266 -914h12l241 914h132z" />
    <glyph glyph-name="x" unicode="x" horiz-adv-x="1049" 
d="M529 440h-12l-294 -440h-150l380 542l-383 535h158l293 -430h12l291 430h151l-378 -530l382 -547h-157z" />
    <glyph glyph-name="y" unicode="y" horiz-adv-x="1079" 
d="M247 -375q-40 0 -61 4v113q22 -3 78 -3t102 42t83 145l22 67l-404 1084h142l326 -934h12l325 934h140l-419 -1129q-71 -190 -142 -256t-204 -67z" />
    <glyph glyph-name="z" unicode="z" horiz-adv-x="1082" 
d="M131 0v100l660 854v12h-659v111h816v-101l-658 -853v-12h660v-111h-819z" />
    <glyph glyph-name="braceleft" unicode="{" horiz-adv-x="809" 
d="M434 374v-360q0 -118 58 -174t183 -56h54v-109h-56q-188 0 -276 82t-88 258v309q0 120 -39 168t-138 48v158q98 0 138 48t39 170v268q0 172 87 252t277 79h56v-109h-54q-127 0 -184 -54t-57 -177v-313q0 -216 -174 -234v-17q174 -16 174 -237z" />
    <glyph glyph-name="bar" unicode="|" horiz-adv-x="661" 
d="M388 -328h-115v1771h115v-1771z" />
    <glyph glyph-name="braceright" unicode="}" horiz-adv-x="809" 
d="M375 862v313q-1 123 -57 177t-184 54h-53v109h56q189 1 277 -79t87 -252v-268q0 -122 39 -170t137 -48v-158q-98 0 -137 -48t-39 -168v-309q0 -176 -88 -258t-276 -82h-56v109h53q125 0 183 56t58 174v360q0 221 175 237v17q-175 18 -175 234z" />
    <glyph glyph-name="asciitilde" unicode="~" horiz-adv-x="1204" 
d="M391 755q-67 1 -107 -51t-44 -145h-123q1 148 75 235t202 87q110 1 234 -119q64 -62 104 -86t78 -24q68 0 110 53t47 147h122q1 -146 -77 -236t-204 -90q-64 0 -118 28t-121 92q-65 64 -103 86t-75 23z" />
    <glyph glyph-name="nonbreakingspace" unicode="&#xa0;" horiz-adv-x="554" 
 />
    <glyph glyph-name="exclamdown" unicode="&#xa1;" horiz-adv-x="617" 
d="M192 1002q0 51 34 84t83 33q50 0 83 -33t33 -84t-33 -84t-83 -33q-49 0 -83 33t-34 84zM233 -340l12 986h127l11 -986h-150z" />
    <glyph glyph-name="cent" unicode="&#xa2;" horiz-adv-x="1321" 
d="M747 -29h-131v189q-200 22 -326 172t-126 382t126 379q126 148 326 170v183h131v-182q159 -16 273 -108t137 -224h-133q-32 99 -124 158t-217 59q-165 1 -275 -119t-109 -316q0 -196 110 -319q109 -122 259 -122t240 57t115 153h133q-24 -135 -135 -223t-274 -102v-187z
" />
    <glyph glyph-name="sterling" unicode="&#xa3;" horiz-adv-x="1321" 
d="M446 1086q0 -118 72 -309h467v-112h-429q32 -103 32 -199t-62 -189t-168 -147v-12h830v-118h-1063v116q143 36 235 134t93 225q0 86 -33 190h-280v112h241q-74 199 -74 303q0 182 134 289t358 107q164 0 309 -51v-122q-138 51 -302 51t-262 -75t-98 -193z" />
    <glyph glyph-name="currency" unicode="&#xa4;" horiz-adv-x="1321" 
d="M1047 655q0 -127 -76 -228l168 -168l-82 -82l-168 168q-103 -75 -229 -75t-227 76l-169 -169l-82 82l168 169q-75 102 -75 228t75 228l-168 168l82 82l168 -168q100 76 228 76t229 -76l168 168l82 -82l-167 -168q75 -102 75 -229zM375 656q0 -118 84 -202t202 -84t202 84
t84 202t-84 202t-202 84t-202 -84t-84 -202z" />
    <glyph glyph-name="yen" unicode="&#xa5;" horiz-adv-x="1321" 
d="M1033 310h-304v-310h-137v310h-304v105h304v184h-304v106h259l-472 738h156l423 -670h13l423 670h156l-472 -738h259v-106h-304v-184h304v-105z" />
    <glyph glyph-name="brokenbar" unicode="&#xa6;" horiz-adv-x="661" 
d="M388 -328h-115v680h115v-680zM388 765h-115v678h115v-678z" />
    <glyph glyph-name="section" unicode="&#xa7;" horiz-adv-x="1037" 
d="M526 -250q-170 0 -280 80q-111 80 -122 207h134q11 -78 86 -126t187 -48q111 0 183 51q72 50 72 124t-53 118t-169 72l-129 33q-167 43 -245 113t-78 172t64 172t178 97v12q-230 79 -230 268q0 133 108 217t276 83q168 1 273 -75q106 -76 123 -204h-132q-12 76 -84 122
t-181 45q-111 -1 -181 -51t-70 -124t52 -117q52 -44 168 -73l129 -34q166 -42 243 -110t77 -172q-1 -104 -73 -181t-190 -99v-12q254 -60 254 -257q0 -133 -110 -218t-280 -85zM790 572q0 147 -211 193l-81 18q-107 -1 -179 -61t-72 -149q0 -145 212 -193l81 -18
q108 1 179 61t71 149z" />
    <glyph glyph-name="dieresis" unicode="&#xa8;" horiz-adv-x="998" 
d="M682 1252q-42 0 -73 30q-30 30 -30 72t30 72q31 30 73 30t72 -30t29 -72q1 -42 -29 -72t-72 -30zM318 1252q-42 0 -73 30q-30 30 -30 72t30 72q31 30 73 30t72 -30t29 -72q1 -42 -29 -72t-72 -30z" />
    <glyph glyph-name="copyright" unicode="&#xa9;" horiz-adv-x="1742" 
d="M864 955q-112 1 -190 -87t-78 -239t78 -241t192 -89q114 -1 179 45t84 124h109q-21 -122 -117 -194t-257 -72q-162 0 -270 116t-108 311t108 309t286 115q141 -1 239 -77t119 -196h-108q-21 79 -88 127q-66 48 -178 48zM848 -49q164 0 288 52q124 51 214 141t142 215
t52 267t-52 268t-141 214q-89 90 -214 142t-266 51q-141 1 -265 -51t-214 -142t-142 -214q-52 -126 -52 -292t88 -320q88 -155 244 -243q154 -88 318 -88zM872 -158q-164 0 -309 60t-249 165q-104 103 -165 249t-61 310t60 310t165 250q103 104 249 164t310 60t308 -60
q145 -60 249 -164q105 -104 165 -250t60 -310t-60 -310t-165 -249q-104 -105 -249 -165q-144 -60 -308 -60z" />
    <glyph glyph-name="ordfeminine" unicode="&#xaa;" horiz-adv-x="957" 
d="M386 532q-114 0 -196 74t-82 193t84 187t244 79l265 18v83q-1 87 -59 136t-152 49t-152 -36q-57 -36 -69 -98h-126q13 111 105 177t244 66t242 -80t91 -218v-609h-119v142h-12q-82 -163 -308 -163zM448 638q101 0 178 68t77 170v114l-250 -19q-216 -17 -216 -167
q0 -74 55 -120t156 -46z" />
    <glyph glyph-name="guillemotleft" unicode="&#xab;" horiz-adv-x="1363" 
d="M344 572v-13l357 -410h-157l-359 414v6l359 414h157zM795 572v-13l357 -410h-158l-358 414v6l359 414h157z" />
    <glyph glyph-name="logicalnot" unicode="&#xac;" horiz-adv-x="1321" 
d="M1137 677v-532h-114v418h-840v114h954z" />
    <glyph glyph-name="registered" unicode="&#xae;" horiz-adv-x="1260" 
d="M647 981q110 0 110 89t-108 89h-132v-178h130zM517 717h-80v515h232q77 0 127 -44t49 -109q0 -65 -33 -105t-89 -51l145 -206h-98l-138 195h-115v-195zM630 532q181 0 306 126t125 306q0 181 -125 306t-306 125q-181 1 -306 -125t-125 -306t125 -306t306 -126zM630 448
q-215 0 -365 150t-150 365q1 142 69 261t186 187t242 68q124 -1 220 -41t164 -108t108 -164t41 -220q0 -124 -68 -242q-69 -118 -187 -188q-118 -68 -260 -68z" />
    <glyph glyph-name="macron" unicode="&#xaf;" horiz-adv-x="986" 
d="M824 1292h-662v106h662v-106z" />
    <glyph glyph-name="degree" unicode="&#xb0;" horiz-adv-x="859" 
d="M429 941q91 0 151 62q60 61 60 149t-60 149t-150 61t-150 -61t-60 -149t59 -149q59 -62 150 -62zM429 841q-133 0 -221 90q-88 91 -89 221q0 130 89 220t221 91q131 -1 221 -91t90 -220t-89 -221q-89 -90 -222 -90z" />
    <glyph glyph-name="plusminus" unicode="&#xb1;" horiz-adv-x="1321" 
d="M718 671v-317h-115v317h-444v105h444v309h115v-309h443v-105h-443zM1161 112h-1002v114h1002v-114z" />
    <glyph glyph-name="two.sups" unicode="&#xb2;" horiz-adv-x="801" 
d="M395 1810q131 0 213 -71t82 -181q0 -68 -41 -136t-155 -183l-216 -220v-12h432v-105h-606v85l306 318q92 94 125 145t33 110t-50 104t-126 45q-77 1 -126 -47t-51 -124v-1h-117v1q1 120 84 196t213 76z" />
    <glyph glyph-name="three.sups" unicode="&#xb3;" horiz-adv-x="827" 
d="M298 1310v96h105q79 0 129 42t49 110q0 66 -49 108q-50 42 -126 41q-76 1 -126 -41t-54 -110h-117q5 116 87 184t210 68t212 -66t84 -156q0 -89 -46 -145t-124 -71v-13q96 -7 152 -65t56 -161t-94 -177t-232 -74q-140 0 -230 72t-94 186h120q5 -68 61 -111t142 -43
t143 46t57 120q1 74 -55 117t-153 43h-107z" />
    <glyph glyph-name="acute" unicode="&#xb4;" horiz-adv-x="999" 
d="M273 1267l250 327h168l-269 -327h-149z" />
    <glyph glyph-name="paragraph" unicode="&#xb6;" horiz-adv-x="1316" 
d="M984 -195v1638h137v-1638h-137zM826 -195h-137v770h-20q-205 0 -339 122t-135 311t133 312t342 123h156v-1638z" />
    <glyph glyph-name="periodcentered" unicode="&#xb7;" horiz-adv-x="630" 
d="M316 597q-62 0 -102 40t-40 102t40 102t102 40t100 -40q40 -40 40 -102t-40 -102q-38 -40 -100 -40z" />
    <glyph glyph-name="cedilla" unicode="&#xb8;" horiz-adv-x="999" 
d="M363 -224v67l64 157h106l-57 -142q100 0 156 -42t57 -120q0 -80 -63 -130q-62 -50 -154 -50t-157 20v87q51 -18 119 -18t104 24t36 66q0 81 -155 81h-56z" />
    <glyph glyph-name="one.sups" unicode="&#xb9;" horiz-adv-x="625" 
d="M436 902h-119v766h-12q-17 -11 -117 -81t-109 -75v119q169 116 238 161h119v-890z" />
    <glyph glyph-name="ordmasculine" unicode="&#xba;" horiz-adv-x="1032" 
d="M516 532q-189 0 -299 124t-110 340q1 214 111 339t298 125t300 -124q110 -124 110 -340t-110 -340t-300 -124zM516 644q130 0 204 93t74 259t-74 260q-74 93 -204 93q-130 1 -203 -93q-74 -94 -74 -260t74 -259q73 -93 203 -93z" />
    <glyph glyph-name="guillemotright" unicode="&#xbb;" horiz-adv-x="1363" 
d="M1019 572l-357 411h157l359 -414v-6l-359 -414h-157l357 410v13zM568 572l-357 411h157l359 -414v-6l-358 -414h-158l357 410v13z" />
    <glyph glyph-name="onequarter" unicode="&#xbc;" horiz-adv-x="1945" 
d="M514 0l637 1443h128l-637 -1443h-128zM436 553h-119v766h-12q-17 -11 -117 -81t-109 -75v119q169 116 238 161h119v-890zM1253 285h341v505h-5q-234 -326 -336 -498v-7zM1712 890v-602h128v-102h-128v-186h-120v186h-456v108q95 161 400 596h176z" />
    <glyph glyph-name="onehalf" unicode="&#xbd;" horiz-adv-x="1945" 
d="M514 0l637 1443h128l-637 -1443h-128zM436 553h-119v766h-12q-17 -11 -117 -81t-109 -75v119q169 116 238 161h119v-890zM1519 908q131 0 213 -71t82 -181q0 -68 -41 -136t-155 -183l-216 -220v-12h432v-105h-606v85l306 318q92 94 125 145t33 110t-50 104t-126 45
q-77 1 -126 -47t-51 -124v-1h-117v1q1 120 84 196t213 76z" />
    <glyph glyph-name="threequarters" unicode="&#xbe;" horiz-adv-x="2134" 
d="M704 0l637 1443h128l-637 -1443h-128zM1443 285h341v505h-5q-234 -326 -336 -498v-7zM1902 890v-602h128v-102h-128v-186h-120v186h-456v108q95 161 400 596h176zM298 961v96h105q79 1 129 43t49 108q0 66 -49 108q-50 42 -126 42t-126 -42t-54 -109h-117q5 115 87 183
t210 69q128 -1 212 -67t84 -155t-46 -145t-124 -71v-13q96 -8 152 -66t56 -160t-94 -176t-232 -75q-140 0 -230 72t-94 186h120q5 -68 61 -111t142 -43q86 1 143 47t57 120q1 74 -55 116q-56 43 -153 43h-107z" />
    <glyph glyph-name="questiondown" unicode="&#xbf;" horiz-adv-x="1019" 
d="M542 884q-50 0 -84 33t-33 83q-1 50 33 84t84 34t83 -34t33 -84t-33 -83t-83 -33zM522 -357q-184 1 -298 103q-115 102 -115 257q0 204 210 340q98 63 133 115t35 136v76h133v-95q2 -98 -44 -168t-146 -135t-140 -124t-40 -153q0 -93 76 -163t198 -70q120 0 197 70
t87 189h130q-8 -165 -120 -271t-296 -107z" />
    <glyph glyph-name="Agrave" unicode="&#xc0;" horiz-adv-x="1363" 
d="M457 1874l309 -297h-157l-326 297h174zM675 1264l-255 -704h524l-256 704h-13zM1145 0l-160 442h-606l-160 -442h-145l540 1443h136l539 -1443h-144z" />
    <glyph glyph-name="Aacute" unicode="&#xc1;" horiz-adv-x="1363" 
d="M595 1577l310 297h174l-326 -297h-158zM675 1264l-255 -704h524l-256 704h-13zM1145 0l-160 442h-606l-160 -442h-145l540 1443h136l539 -1443h-144z" />
    <glyph glyph-name="Acircumflex" unicode="&#xc2;" horiz-adv-x="1363" 
d="M744 1874l289 -297h-155l-190 202h-12l-190 -202h-155l289 297h124zM675 1264l-255 -704h524l-256 704h-13zM1145 0l-160 442h-606l-160 -442h-145l540 1443h136l539 -1443h-144z" />
    <glyph glyph-name="Atilde" unicode="&#xc3;" horiz-adv-x="1363" 
d="M540 1742q-97 0 -101 -154h-106q-1 120 55 188t145 68t149 -58q25 -24 47 -50q53 -58 95 -58q43 0 71 38t31 116h105q0 -115 -56 -185t-142 -70q-86 1 -144 59q-23 24 -45 48q-52 58 -104 58zM675 1264l-255 -704h524l-256 704h-13zM1145 0l-160 442h-606l-160 -442h-145
l540 1443h136l539 -1443h-144z" />
    <glyph glyph-name="Adieresis" unicode="&#xc4;" horiz-adv-x="1363" 
d="M864 1568q-42 0 -72 30t-30 72t30 72t72 30t72 -30t30 -72t-30 -72t-72 -30zM500 1568q-42 0 -72 30t-30 72t30 72t72 30t72 -30t30 -72t-30 -72t-72 -30zM675 1264l-255 -704h524l-256 704h-13zM1145 0l-160 442h-606l-160 -442h-145l540 1443h136l539 -1443h-144z" />
    <glyph glyph-name="Aring" unicode="&#xc5;" horiz-adv-x="1363" 
d="M682 1655q53 1 89 37t36 89t-36 89t-89 36t-89 -36t-36 -89t36 -89t89 -37zM682 1570q-89 0 -151 61t-62 149t62 150q62 61 151 61t151 -61q62 -62 62 -150t-62 -149t-151 -61zM675 1264l-255 -704h524l-256 704h-13zM1145 0l-160 442h-606l-160 -442h-145l540 1443h136
l539 -1443h-144z" />
    <glyph glyph-name="AE" unicode="&#xc6;" horiz-adv-x="1955" 
d="M1002 0v443h-581l-208 -443h-139l678 1443h1063v-124h-677v-526h640v-122h-640v-547h677v-124h-813zM1002 1327h-161l-365 -766h526v766z" />
    <glyph glyph-name="Ccedilla" unicode="&#xc7;" horiz-adv-x="1455" 
d="M762 1346q-227 0 -361 -170t-134 -456t134 -454t362 -169q167 0 287 86t149 228h139q-28 -187 -170 -306t-352 -133l-46 -114q100 0 156 -42t57 -120q0 -80 -63 -130q-62 -50 -154 -50t-157 20v87q51 -18 119 -18t104 24t36 66q0 81 -155 81h-56v67l53 129
q-271 18 -427 218t-156 539t171 541t464 203q148 -1 272 -61t204 -168t100 -242h-139q-31 152 -153 248t-284 96z" />
    <glyph glyph-name="Egrave" unicode="&#xc8;" horiz-adv-x="1197" 
d="M1057 124v-124h-872v1443h872v-124h-735v-519h698v-122h-698v-554h735zM396 1874l309 -297h-157l-326 297h174z" />
    <glyph glyph-name="Eacute" unicode="&#xc9;" horiz-adv-x="1197" 
d="M1057 124v-124h-872v1443h872v-124h-735v-519h698v-122h-698v-554h735zM534 1577l310 297h174l-326 -297h-158z" />
    <glyph glyph-name="Ecircumflex" unicode="&#xca;" horiz-adv-x="1197" 
d="M1057 124v-124h-872v1443h872v-124h-735v-519h698v-122h-698v-554h735zM683 1874l289 -297h-155l-190 202h-12l-190 -202h-155l289 297h124z" />
    <glyph glyph-name="Edieresis" unicode="&#xcb;" horiz-adv-x="1197" 
d="M1057 124v-124h-872v1443h872v-124h-735v-519h698v-122h-698v-554h735zM804 1568q-42 0 -73 30q-30 30 -30 72t30 72q31 30 73 30t72 -30t29 -72q1 -42 -29 -72t-72 -30zM440 1568q-42 0 -73 30q-30 30 -30 72t30 72q31 30 73 30t72 -30t29 -72q1 -42 -29 -72t-72 -30z
" />
    <glyph glyph-name="Igrave" unicode="&#xcc;" horiz-adv-x="507" 
d="M29 1874l309 -297h-157l-326 297h174zM322 0h-137v1443h137v-1443z" />
    <glyph glyph-name="Iacute" unicode="&#xcd;" horiz-adv-x="507" 
d="M167 1577l310 297h174l-326 -297h-158zM322 0h-137v1443h137v-1443z" />
    <glyph glyph-name="Icircumflex" unicode="&#xce;" horiz-adv-x="507" 
d="M316 1874l289 -297h-155l-190 202h-12l-190 -202h-155l289 297h124zM322 0h-137v1443h137v-1443z" />
    <glyph glyph-name="Idieresis" unicode="&#xcf;" horiz-adv-x="507" 
d="M436 1568q-42 0 -72 30t-30 72t30 72t72 30t72 -30t30 -72t-30 -72t-72 -30zM72 1568q-42 0 -72 30t-30 72t30 72t72 30t72 -30t30 -72t-30 -72t-72 -30zM322 0h-137v1443h137v-1443z" />
    <glyph glyph-name="Eth" unicode="&#xd0;" horiz-adv-x="1447" 
d="M185 1443h475q327 0 506 -191q179 -190 179 -530q-1 -340 -179 -531t-506 -191h-475v681h-173v124h173v638zM322 124h330q263 0 408 158t145 439t-145 439t-408 159h-330v-514h262v-124h-262v-557z" />
    <glyph glyph-name="Ntilde" unicode="&#xd1;" horiz-adv-x="1494" 
d="M320 0h-135v1443h135l841 -1198h13v1198h135v-1443h-132l-844 1199h-13v-1199zM398 1588q0 120 56 188t144 68q89 0 149 -58q25 -24 47 -50q53 -58 95 -58q43 0 71 38t31 116h105q0 -115 -56 -185t-142 -70q-86 1 -144 59q-24 24 -46 48q-52 58 -103 58q-97 0 -101 -154
h-106z" />
    <glyph glyph-name="Ograve" unicode="&#xd2;" horiz-adv-x="1561" 
d="M782 1346q-236 0 -376 -168q-139 -168 -139 -456q0 -286 138 -456q137 -170 375 -169q238 -1 376 169t137 456q1 286 -137 456q-138 168 -374 168zM782 1473q302 0 476 -202t175 -549q-1 -348 -175 -550t-478 -202t-478 202q-175 202 -175 550q0 346 176 548
q177 202 479 203zM556 1874l309 -297h-157l-326 297h174z" />
    <glyph glyph-name="Oacute" unicode="&#xd3;" horiz-adv-x="1561" 
d="M782 1346q-236 0 -376 -168q-139 -168 -139 -456q0 -286 138 -456q137 -170 375 -169q238 -1 376 169t137 456q1 286 -137 456q-138 168 -374 168zM782 1473q302 0 476 -202t175 -549q-1 -348 -175 -550t-478 -202t-478 202q-175 202 -175 550q0 346 176 548
q177 202 479 203zM694 1577l310 297h174l-326 -297h-158z" />
    <glyph glyph-name="Ocircumflex" unicode="&#xd4;" horiz-adv-x="1561" 
d="M782 1346q-236 0 -376 -168q-139 -168 -139 -456q0 -286 138 -456q137 -170 375 -169q238 -1 376 169t137 456q1 286 -137 456q-138 168 -374 168zM782 1473q302 0 476 -202t175 -549q-1 -348 -175 -550t-478 -202t-478 202q-175 202 -175 550q0 346 176 548
q177 202 479 203zM843 1874l289 -297h-155l-190 202h-12l-190 -202h-155l289 297h124z" />
    <glyph glyph-name="Otilde" unicode="&#xd5;" horiz-adv-x="1561" 
d="M432 1588q0 120 56 188t144 68q89 0 149 -58q25 -24 47 -50q53 -58 95 -58q43 0 71 38t31 116h105q0 -115 -56 -185t-142 -70q-86 1 -144 59q-24 24 -46 48q-52 58 -103 58q-97 0 -101 -154h-106zM782 1346q-236 0 -376 -168q-139 -168 -139 -456q0 -286 138 -456
q137 -170 375 -169q238 -1 376 169t137 456q1 286 -137 456q-138 168 -374 168zM782 1473q302 0 476 -202t175 -549q-1 -348 -175 -550t-478 -202t-478 202q-175 202 -175 550q0 346 176 548q177 202 479 203z" />
    <glyph glyph-name="Odieresis" unicode="&#xd6;" horiz-adv-x="1561" 
d="M782 1346q-236 0 -376 -168q-139 -168 -139 -456q0 -286 138 -456q137 -170 375 -169q238 -1 376 169t137 456q1 286 -137 456q-138 168 -374 168zM782 1473q302 0 476 -202t175 -549q-1 -348 -175 -550t-478 -202t-478 202q-175 202 -175 550q0 346 176 548
q177 202 479 203zM964 1568q-42 0 -73 30q-30 30 -30 72t30 72q31 30 73 30t72 -30t29 -72q1 -42 -29 -72t-72 -30zM600 1568q-42 0 -73 30q-30 30 -30 72t30 72q31 30 73 30t72 -30t29 -72q1 -42 -29 -72t-72 -30z" />
    <glyph glyph-name="multiply" unicode="&#xd7;" horiz-adv-x="1321" 
d="M661 499l-315 -314l-80 80l313 315l-313 314l80 81l314 -314l314 313l81 -80l-313 -314l313 -314l-81 -81z" />
    <glyph glyph-name="Oslash" unicode="&#xd8;" horiz-adv-x="1530" 
d="M1433 726q-1 -352 -175 -554t-477 -202q-254 0 -423 146l-142 -186l-79 59l152 198q-162 201 -162 541t176 542t478 203q236 0 399 -127l128 166l78 -55l-136 -177q183 -202 183 -554zM781 1346q-236 0 -375 -168t-139 -440q0 -271 111 -436l719 935q-127 109 -316 109z
M797 97q221 -1 359 169t137 452q0 282 -129 449l-722 -941q134 -129 355 -129z" />
    <glyph glyph-name="Ugrave" unicode="&#xd9;" horiz-adv-x="1494" 
d="M325 1443v-934q0 -183 114 -296t308 -113t308 113t114 296v934h137v-943q0 -238 -151 -382t-407 -144t-408 144q-151 144 -151 382v943h136zM522 1874l309 -297h-157l-326 297h174z" />
    <glyph glyph-name="Uacute" unicode="&#xda;" horiz-adv-x="1494" 
d="M325 1443v-934q0 -183 114 -296t308 -113t308 113t114 296v934h137v-943q0 -238 -151 -382t-407 -144t-408 144q-151 144 -151 382v943h136zM660 1577l310 297h174l-326 -297h-158z" />
    <glyph glyph-name="Ucircumflex" unicode="&#xdb;" horiz-adv-x="1494" 
d="M325 1443v-934q0 -183 114 -296t308 -113t308 113t114 296v934h137v-943q0 -238 -151 -382t-407 -144t-408 144q-151 144 -151 382v943h136zM809 1874l289 -297h-155l-190 202h-12l-190 -202h-155l289 297h124z" />
    <glyph glyph-name="Udieresis" unicode="&#xdc;" horiz-adv-x="1494" 
d="M325 1443v-934q0 -183 114 -296t308 -113t308 113t114 296v934h137v-943q0 -238 -151 -382t-407 -144t-408 144q-151 144 -151 382v943h136zM930 1568q-42 0 -73 30q-30 30 -30 72t30 72q31 30 73 30t72 -30t29 -72q1 -42 -29 -72t-72 -30zM566 1568q-42 0 -73 30
q-30 30 -30 72t30 72q31 30 73 30t72 -30t29 -72q1 -42 -29 -72t-72 -30z" />
    <glyph glyph-name="Yacute" unicode="&#xdd;" horiz-adv-x="1321" 
d="M574 1577l310 297h174l-326 -297h-158zM729 0h-136v624l-518 819h157l423 -680h12l423 680h156l-517 -819v-624z" />
    <glyph glyph-name="Thorn" unicode="&#xde;" horiz-adv-x="1270" 
d="M322 1046v-576h352q149 0 237 76t88 212q0 138 -88 213t-237 75h-352zM185 1443h137v-274h386q184 0 308 -111t123 -299q-1 -127 -59 -221t-156 -142t-217 -48h-385v-348h-137v1443z" />
    <glyph glyph-name="germandbls" unicode="&#xdf;" horiz-adv-x="1229" 
d="M341 0h-130v1101q-1 181 109 287t290 105t292 -103t112 -262q0 -122 -67 -216t-169 -124v-13q156 -15 252 -114t96 -269t-126 -289t-325 -119q-86 0 -155 14v119q61 -16 147 -16q149 0 239 84t90 219t-100 218t-274 83h-77v129h70q120 0 195 78t75 198q0 122 -74 194
t-200 72t-198 -76t-72 -213v-1087z" />
    <glyph glyph-name="agrave" unicode="&#xe0;" horiz-adv-x="1125" 
d="M664 1267h-149l-269 327h168zM106 296q0 142 100 222t288 94l337 22v104q-1 116 -69 178t-189 62t-197 -44t-94 -123h-133q19 128 133 206t294 78q180 1 284 -93t103 -263v-739h-126v185h-12q-105 -203 -377 -203q-140 0 -240 86q-102 86 -102 228zM508 98q128 0 226 88
t97 215v126l-319 -23q-271 -19 -271 -204q0 -92 70 -147q69 -55 197 -55z" />
    <glyph glyph-name="aacute" unicode="&#xe1;" horiz-adv-x="1125" 
d="M478 1267l250 327h168l-269 -327h-149zM106 296q0 142 100 222t288 94l337 22v104q-1 116 -69 178t-189 62t-197 -44t-94 -123h-133q19 128 133 206t294 78q180 1 284 -93t103 -263v-739h-126v185h-12q-105 -203 -377 -203q-140 0 -240 86q-102 86 -102 228zM508 98
q128 0 226 88t97 215v126l-319 -23q-271 -19 -271 -204q0 -92 70 -147q69 -55 197 -55z" />
    <glyph glyph-name="acircumflex" unicode="&#xe2;" horiz-adv-x="1125" 
d="M644 1560l275 -332h-153l-193 243h-12l-193 -243h-153l275 332h154zM106 296q0 142 100 222t288 94l337 22v104q-1 116 -69 178t-189 62t-197 -44t-94 -123h-133q19 128 133 206t294 78q180 1 284 -93t103 -263v-739h-126v185h-12q-105 -203 -377 -203q-140 0 -240 86
q-102 86 -102 228zM508 98q128 0 226 88t97 215v126l-319 -23q-271 -19 -271 -204q0 -92 70 -147q69 -55 197 -55z" />
    <glyph glyph-name="atilde" unicode="&#xe3;" horiz-adv-x="1125" 
d="M431 1388q-104 0 -104 -158h-111q0 122 56 192t144 70t148 -56q24 -23 47 -46q54 -56 93 -56q104 0 104 158h110q0 -122 -56 -192t-145 -70t-147 56q-24 23 -46 46q-54 56 -93 56zM106 296q0 142 100 222t288 94l337 22v104q-1 116 -69 178t-189 62t-197 -44t-94 -123
h-133q19 128 133 206t294 78q180 1 284 -93t103 -263v-739h-126v185h-12q-105 -203 -377 -203q-140 0 -240 86q-102 86 -102 228zM508 98q128 0 226 88t97 215v126l-319 -23q-271 -19 -271 -204q0 -92 70 -147q69 -55 197 -55z" />
    <glyph glyph-name="adieresis" unicode="&#xe4;" horiz-adv-x="1125" 
d="M750 1228q-42 0 -73 30q-30 30 -30 72t30 72q31 30 73 30t72 -30t29 -72q1 -42 -29 -72t-72 -30zM386 1228q-42 0 -73 30q-30 30 -30 72t30 72q31 30 73 30t72 -30t29 -72q1 -42 -29 -72t-72 -30zM106 296q0 142 100 222t288 94l337 22v104q-1 116 -69 178t-189 62
t-197 -44t-94 -123h-133q19 128 133 206t294 78q180 1 284 -93t103 -263v-739h-126v185h-12q-105 -203 -377 -203q-140 0 -240 86q-102 86 -102 228zM508 98q128 0 226 88t97 215v126l-319 -23q-271 -19 -271 -204q0 -92 70 -147q69 -55 197 -55z" />
    <glyph glyph-name="aring" unicode="&#xe5;" horiz-adv-x="1125" 
d="M567 1313q53 1 89 37t36 89t-36 89t-89 36t-89 -36t-36 -89t36 -89t89 -37zM567 1228q-89 0 -151 61t-62 149t62 150q62 61 151 61t151 -61q62 -62 62 -150t-62 -149t-151 -61zM106 296q0 142 100 222t288 94l337 22v104q-1 116 -69 178t-189 62t-197 -44t-94 -123h-133
q19 128 133 206t294 78q180 1 284 -93t103 -263v-739h-126v185h-12q-105 -203 -377 -203q-140 0 -240 86q-102 86 -102 228zM508 98q128 0 226 88t97 215v126l-319 -23q-271 -19 -271 -204q0 -92 70 -147q69 -55 197 -55z" />
    <glyph glyph-name="ae" unicode="&#xe6;" horiz-adv-x="1880" 
d="M511 98q128 0 224 90t96 219v111l-321 -21q-269 -19 -269 -199q0 -92 71 -146t199 -54zM1302 979q-146 0 -238 -97t-102 -260h667q-2 158 -92 258t-235 99zM1326 -18q-152 0 -262 72t-154 191h-12q-48 -123 -158 -193t-268 -70t-262 86t-104 226t100 219t287 91l338 21
v113q-1 116 -69 178t-189 62t-197 -44t-94 -123h-133q19 128 133 206t268 78q152 -1 245 -61t123 -164h13q47 99 149 162t231 63q211 1 333 -139t122 -383v-58h-804v-15q5 -182 101 -292t253 -109q226 0 300 167h133q-40 -134 -155 -209q-116 -75 -268 -75z" />
    <glyph glyph-name="ccedilla" unicode="&#xe7;" horiz-adv-x="1145" 
d="M600 977q-162 0 -256 -118q-94 -119 -94 -319t95 -320t255 -119q120 0 202 55t106 154h133q-23 -134 -123 -222t-258 -103l-51 -127q101 0 157 -42t56 -120q0 -80 -63 -130t-155 -50t-156 20v87q50 -18 118 -18t105 24q36 24 36 66q0 81 -155 81h-56v67l57 141
q-202 16 -320 166t-118 398q-1 248 131 397q132 150 354 150q180 -1 298 -95t144 -240h-133q-25 96 -107 156t-202 61z" />
    <glyph glyph-name="egrave" unicode="&#xe8;" horiz-adv-x="1174" 
d="M597 -18q-222 0 -352 150t-130 406q1 254 131 406t348 151q218 0 341 -143q124 -143 124 -390v-58h-809v-6q6 -183 100 -291t250 -108q114 -1 194 43t115 124h133q-40 -132 -158 -208t-287 -76zM594 979q-146 -1 -240 -101t-103 -266h671q-2 167 -92 267t-236 100z
M692 1267h-149l-269 327h168z" />
    <glyph glyph-name="eacute" unicode="&#xe9;" horiz-adv-x="1174" 
d="M597 -18q-222 0 -352 150t-130 406q1 254 131 406t348 151q218 0 341 -143q124 -143 124 -390v-58h-809v-6q6 -183 100 -291t250 -108q114 -1 194 43t115 124h133q-40 -132 -158 -208t-287 -76zM594 979q-146 -1 -240 -101t-103 -266h671q-2 167 -92 267t-236 100z
M506 1267l250 327h168l-269 -327h-149z" />
    <glyph glyph-name="ecircumflex" unicode="&#xea;" horiz-adv-x="1174" 
d="M597 -18q-222 0 -352 150t-130 406q1 254 131 406t348 151q218 0 341 -143q124 -143 124 -390v-58h-809v-6q6 -183 100 -291t250 -108q114 -1 194 43t115 124h133q-40 -132 -158 -208t-287 -76zM594 979q-146 -1 -240 -101t-103 -266h671q-2 167 -92 267t-236 100z
M672 1560l275 -332h-153l-193 243h-12l-193 -243h-153l275 332h154z" />
    <glyph glyph-name="edieresis" unicode="&#xeb;" horiz-adv-x="1174" 
d="M778 1228q-42 0 -73 30q-30 30 -30 72t30 72q31 30 73 30t72 -30t29 -72q1 -42 -29 -72t-72 -30zM414 1228q-42 0 -73 30q-30 30 -30 72t30 72q31 30 73 30t72 -30t29 -72q1 -42 -29 -72t-72 -30zM597 -18q-222 0 -352 150t-130 406q1 254 131 406t348 151
q218 0 341 -143q124 -143 124 -390v-58h-809v-6q6 -183 100 -291t250 -108q114 -1 194 43t115 124h133q-40 -132 -158 -208t-287 -76zM594 979q-146 -1 -240 -101t-103 -266h671q-2 167 -92 267t-236 100z" />
    <glyph glyph-name="igrave" unicode="&#xec;" horiz-adv-x="489" 
d="M179 0v1077h131v-1077h-131zM341 1267h-149l-269 327h168z" />
    <glyph glyph-name="iacute" unicode="&#xed;" horiz-adv-x="489" 
d="M179 0v1077h131v-1077h-131zM155 1267l250 327h168l-269 -327h-149z" />
    <glyph glyph-name="icircumflex" unicode="&#xee;" horiz-adv-x="489" 
d="M179 0v1077h131v-1077h-131zM321 1560l275 -332h-153l-193 243h-12l-193 -243h-153l275 332h154z" />
    <glyph glyph-name="idieresis" unicode="&#xef;" horiz-adv-x="489" 
d="M426 1228q-42 0 -72 30t-30 72t30 72t72 30t72 -30t30 -72t-30 -72t-72 -30zM62 1228q-42 0 -72 30t-30 72t30 72t72 30t72 -30t30 -72t-30 -72t-72 -30zM179 0v1077h131v-1077h-131z" />
    <glyph glyph-name="eth" unicode="&#xf0;" horiz-adv-x="1192" 
d="M600 937q-158 1 -254 -113t-96 -302t96 -304t254 -117q158 0 253 115q95 114 95 304t-96 304q-94 114 -252 113zM1075 566q0 -268 -128 -426q-129 -158 -349 -158t-352 148t-131 388q1 242 127 390t329 147q112 0 207 -53t137 -140h12q-51 220 -200 393l-283 -102l-29 88
l247 89q-74 78 -215 180h164q95 -66 166 -141l257 92l29 -88l-225 -81q237 -296 237 -726z" />
    <glyph glyph-name="ntilde" unicode="&#xf1;" horiz-adv-x="1206" 
d="M169 0v1077h125v-194h13q43 100 138 156t223 56q180 1 279 -103t99 -292v-700h-131v667q0 310 -281 310q-150 -1 -242 -93t-92 -244v-640h-131zM492 1388q-104 0 -104 -158h-111q0 122 56 192t144 70q89 0 149 -56q24 -23 46 -46q54 -56 93 -56q104 0 104 158h110
q0 -122 -56 -192t-145 -70t-147 56q-24 23 -46 46q-54 56 -93 56z" />
    <glyph glyph-name="ograve" unicode="&#xf2;" horiz-adv-x="1208" 
d="M604 -18q-226 0 -358 150t-131 407q-1 258 131 407t358 149t358 -149t132 -407q0 -257 -132 -407t-358 -150zM604 101q166 1 260 117t94 321t-94 321t-260 117q-166 -1 -260 -117t-94 -321t94 -321t260 -117zM701 1267h-149l-269 327h168z" />
    <glyph glyph-name="oacute" unicode="&#xf3;" horiz-adv-x="1208" 
d="M604 -18q-226 0 -358 150t-131 407q-1 258 131 407t358 149t358 -149t132 -407q0 -257 -132 -407t-358 -150zM604 101q166 1 260 117t94 321t-94 321t-260 117q-166 -1 -260 -117t-94 -321t94 -321t260 -117zM515 1267l250 327h168l-269 -327h-149z" />
    <glyph glyph-name="ocircumflex" unicode="&#xf4;" horiz-adv-x="1208" 
d="M604 -18q-226 0 -358 150t-131 407q-1 258 131 407t358 149t358 -149t132 -407q0 -257 -132 -407t-358 -150zM604 101q166 1 260 117t94 321t-94 321t-260 117q-166 -1 -260 -117t-94 -321t94 -321t260 -117zM681 1560l275 -332h-153l-193 243h-12l-193 -243h-153
l275 332h154z" />
    <glyph glyph-name="otilde" unicode="&#xf5;" horiz-adv-x="1208" 
d="M604 -18q-226 0 -358 150t-131 407q-1 258 131 407t358 149t358 -149t132 -407q0 -257 -132 -407t-358 -150zM604 101q166 1 260 117t94 321t-94 321t-260 117q-166 -1 -260 -117t-94 -321t94 -321t260 -117zM468 1388q-104 0 -104 -158h-111q0 122 56 192t144 70
q89 0 149 -56q24 -23 46 -46q54 -56 93 -56q104 0 104 158h110q0 -122 -56 -192t-145 -70t-147 56q-24 23 -46 46q-54 56 -93 56z" />
    <glyph glyph-name="odieresis" unicode="&#xf6;" horiz-adv-x="1208" 
d="M604 -18q-226 0 -358 150t-131 407q-1 258 131 407t358 149t358 -149t132 -407q0 -257 -132 -407t-358 -150zM604 101q166 1 260 117t94 321t-94 321t-260 117q-166 -1 -260 -117t-94 -321t94 -321t260 -117zM786 1228q-42 0 -72 30t-30 72t30 72t72 30t72 -30t30 -72
t-30 -72t-72 -30zM422 1228q-42 0 -72 30t-30 72t30 72t72 30t72 -30t30 -72t-30 -72t-72 -30z" />
    <glyph glyph-name="divide" unicode="&#xf7;" horiz-adv-x="1321" 
d="M660 116q-46 0 -76 30t-30 77t30 77t76 30t76 -30t31 -77q-1 -47 -31 -77t-76 -30zM660 822q-46 0 -76 30t-30 77q0 46 30 76t76 30t76 -30t31 -76q-1 -47 -31 -77t-76 -30zM1152 523h-983v114h983v-114z" />
    <glyph glyph-name="oslash" unicode="&#xf8;" horiz-adv-x="1208" 
d="M1094 544q0 -262 -132 -412t-358 -150q-164 0 -282 82l-85 -121l-82 55l93 131q-133 152 -133 410q-1 258 131 407t358 149q159 0 276 -77l82 116l79 -51l-89 -126q142 -150 142 -413zM604 977q-166 -1 -260 -117t-94 -311t77 -309l480 676q-84 61 -203 61zM604 101
q166 1 260 117t94 315t-83 314l-480 -680q86 -66 209 -66z" />
    <glyph glyph-name="ugrave" unicode="&#xf9;" horiz-adv-x="1211" 
d="M1038 1077v-1077h-125v194h-12q-41 -100 -135 -156t-223 -56q-179 0 -281 105t-102 290v700h131v-667q-1 -150 73 -229t218 -79t235 91q90 91 90 244v640h131zM700 1267h-149l-269 327h168z" />
    <glyph glyph-name="uacute" unicode="&#xfa;" horiz-adv-x="1211" 
d="M1038 1077v-1077h-125v194h-12q-41 -100 -135 -156t-223 -56q-179 0 -281 105t-102 290v700h131v-667q-1 -150 73 -229t218 -79t235 91q90 91 90 244v640h131zM514 1267l250 327h168l-269 -327h-149z" />
    <glyph glyph-name="ucircumflex" unicode="&#xfb;" horiz-adv-x="1211" 
d="M1038 1077v-1077h-125v194h-12q-41 -100 -135 -156t-223 -56q-179 0 -281 105t-102 290v700h131v-667q-1 -150 73 -229t218 -79t235 91q90 91 90 244v640h131zM680 1560l275 -332h-153l-193 243h-12l-193 -243h-153l275 332h154z" />
    <glyph glyph-name="udieresis" unicode="&#xfc;" horiz-adv-x="1211" 
d="M786 1228q-42 0 -73 30q-30 30 -30 72t30 72q31 30 73 30t72 -30t29 -72q1 -42 -29 -72t-72 -30zM422 1228q-42 0 -73 30q-30 30 -30 72t30 72q31 30 73 30t72 -30t29 -72q1 -42 -29 -72t-72 -30zM1038 1077v-1077h-125v194h-12q-41 -100 -135 -156t-223 -56
q-179 0 -281 105t-102 290v700h131v-667q-1 -150 73 -229t218 -79t235 91q90 91 90 244v640h131z" />
    <glyph glyph-name="yacute" unicode="&#xfd;" horiz-adv-x="1079" 
d="M447 1267l250 327h168l-269 -327h-149zM247 -375q-40 0 -61 4v113q22 -3 78 -3t102 42t83 145l22 67l-404 1084h142l326 -934h12l325 934h140l-419 -1129q-71 -190 -142 -256t-204 -67z" />
    <glyph glyph-name="thorn" unicode="&#xfe;" horiz-adv-x="1252" 
d="M657 101q159 0 253 118q94 117 93 319q1 202 -93 320t-252 119q-158 0 -256 -120q-96 -120 -96 -318t96 -318t255 -120zM685 1095q205 -1 329 -153t124 -403t-124 -404t-329 -153q-125 0 -221 60t-142 163h-12v-576h-131v1867h125v-639h12q50 111 148 175t221 63z" />
    <glyph glyph-name="ydieresis" unicode="&#xff;" horiz-adv-x="1079" 
d="M718 1228q-42 0 -72 30t-30 72t30 72t72 30t72 -30t30 -72t-30 -72t-72 -30zM354 1228q-42 0 -72 30t-30 72t30 72t72 30t72 -30t30 -72t-30 -72t-72 -30zM247 -375q-40 0 -61 4v113q22 -3 78 -3t102 42t83 145l22 67l-404 1084h142l326 -934h12l325 934h140l-419 -1129
q-71 -190 -142 -256t-204 -67z" />
    <glyph glyph-name="Amacron" unicode="&#x100;" horiz-adv-x="1363" 
d="M1004 1619h-644v105h644v-105zM675 1264l-255 -704h524l-256 704h-13zM1145 0l-160 442h-606l-160 -442h-145l540 1443h136l539 -1443h-144z" />
    <glyph glyph-name="amacron" unicode="&#x101;" horiz-adv-x="1125" 
d="M898 1292h-662v106h662v-106zM106 296q0 142 100 222t288 94l337 22v104q-1 116 -69 178t-189 62t-197 -44t-94 -123h-133q19 128 133 206t294 78q180 1 284 -93t103 -263v-739h-126v185h-12q-105 -203 -377 -203q-140 0 -240 86q-102 86 -102 228zM508 98q128 0 226 88
t97 215v126l-319 -23q-271 -19 -271 -204q0 -92 70 -147q69 -55 197 -55z" />
    <glyph glyph-name="Abreve" unicode="&#x102;" horiz-adv-x="1363" 
d="M352 1851h118q0 -81 58 -129t154 -47q96 -1 154 47t58 129h118q0 -126 -89 -200t-241 -74t-241 74t-89 200zM675 1264l-255 -704h524l-256 704h-13zM1145 0l-160 442h-606l-160 -442h-145l540 1443h136l539 -1443h-144z" />
    <glyph glyph-name="abreve" unicode="&#x103;" horiz-adv-x="1125" 
d="M236 1538h119q-1 -90 55 -144t156 -54t156 54t55 144h119q0 -134 -88 -216t-242 -82t-242 82t-88 216zM106 296q0 142 100 222t288 94l337 22v104q-1 116 -69 178t-189 62t-197 -44t-94 -123h-133q19 128 133 206t294 78q180 1 284 -93t103 -263v-739h-126v185h-12
q-105 -203 -377 -203q-140 0 -240 86q-102 86 -102 228zM508 98q128 0 226 88t97 215v126l-319 -23q-271 -19 -271 -204q0 -92 70 -147q69 -55 197 -55z" />
    <glyph glyph-name="Aogonek" unicode="&#x104;" horiz-adv-x="1363" 
d="M1214 -420q-90 0 -150 56t-61 147q0 130 135 237l-153 422h-606l-160 -442h-145l540 1443h136l536 -1434q-157 -85 -157 -208q0 -53 35 -85q36 -32 88 -32t90 16v-97q-38 -23 -128 -23zM675 1264l-255 -704h524l-256 704h-13z" />
    <glyph glyph-name="aogonek" unicode="&#x105;" horiz-adv-x="1125" 
d="M810 -193q0 -55 34 -89t89 -34t84 15v-97q-43 -23 -126 -23q-83 -1 -143 55t-59 145q0 137 148 241v165h-12q-47 -95 -143 -149t-236 -54t-240 89t-100 232t101 224t292 94l332 22v95q-1 116 -69 178t-189 62t-197 -44t-94 -123h-133q19 128 133 206t294 78
q180 1 284 -93t103 -263v-727q-153 -90 -153 -205zM508 98q128 0 226 88q97 88 97 215v134l-316 -20q-133 -9 -203 -63t-71 -146t69 -150t198 -58z" />
    <glyph glyph-name="Cacute" unicode="&#x106;" horiz-adv-x="1455" 
d="M763 -30q-294 0 -465 202t-171 549t171 549t464 203q148 -1 272 -61t204 -168t100 -242h-139q-31 152 -153 248t-284 96q-227 0 -361 -170t-134 -456t134 -454t362 -169q167 0 287 86t149 228h139q-30 -199 -188 -320t-387 -121zM675 1578l310 297h174l-326 -297h-158z
" />
    <glyph glyph-name="cacute" unicode="&#x107;" horiz-adv-x="1145" 
d="M509 1267l250 327h168l-269 -327h-149zM600 977q-162 0 -256 -118q-94 -119 -94 -319t95 -320t255 -119q120 0 202 55t106 154h133q-25 -148 -142 -238t-298 -90q-223 0 -355 152t-131 406q-1 255 131 405t354 150q180 -1 298 -95t144 -240h-133q-25 96 -107 156t-202 61
z" />
    <glyph glyph-name="Ccircumflex" unicode="&#x108;" horiz-adv-x="1455" 
d="M824 1875l289 -297h-155l-190 202h-12l-190 -202h-155l289 297h124zM763 -30q-294 0 -465 202t-171 549t171 549t464 203q148 -1 272 -61t204 -168t100 -242h-139q-31 152 -153 248t-284 96q-227 0 -361 -170t-134 -456t134 -454t362 -169q167 0 287 86t149 228h139
q-30 -199 -188 -320t-387 -121z" />
    <glyph glyph-name="ccircumflex" unicode="&#x109;" horiz-adv-x="1145" 
d="M600 977q-162 0 -256 -118q-94 -119 -94 -319t95 -320t255 -119q120 0 202 55t106 154h133q-25 -148 -142 -238t-298 -90q-223 0 -355 152t-131 406q-1 255 131 405t354 150q180 -1 298 -95t144 -240h-133q-25 96 -107 156t-202 61zM675 1560l275 -332h-153l-193 243h-12
l-193 -243h-153l275 332h154z" />
    <glyph glyph-name="Cdotaccent" unicode="&#x10a;" horiz-adv-x="1455" 
d="M763 -30q-294 0 -465 202t-171 549t171 549t464 203q148 -1 272 -61t204 -168t100 -242h-139q-31 152 -153 248t-284 96q-227 0 -361 -170t-134 -456t134 -454t362 -169q167 0 287 86t149 228h139q-30 -199 -188 -320t-387 -121zM762 1578q-44 0 -74 30t-31 74
q1 44 31 74t74 31q44 -1 74 -31t31 -74q-1 -44 -31 -74t-74 -30z" />
    <glyph glyph-name="cdotaccent" unicode="&#x10b;" horiz-adv-x="1145" 
d="M598 1280q-45 0 -77 32t-32 78q0 45 32 77t77 32t77 -32t32 -77q0 -46 -32 -78t-77 -32zM600 977q-162 0 -256 -118q-94 -119 -94 -319t95 -320t255 -119q120 0 202 55t106 154h133q-25 -148 -142 -238t-298 -90q-223 0 -355 152t-131 406q-1 255 131 405t354 150
q180 -1 298 -95t144 -240h-133q-25 96 -107 156t-202 61z" />
    <glyph glyph-name="Ccaron" unicode="&#x10c;" horiz-adv-x="1455" 
d="M826 1578h-128l-287 297h155l190 -203h12l190 203h155zM763 -30q-294 0 -465 202t-171 549t171 549t464 203q148 -1 272 -61t204 -168t100 -242h-139q-31 152 -153 248t-284 96q-227 0 -361 -170t-134 -456t134 -454t362 -169q167 0 287 86t149 228h139
q-30 -199 -188 -320t-387 -121z" />
    <glyph glyph-name="ccaron" unicode="&#x10d;" horiz-adv-x="1145" 
d="M600 977q-162 0 -256 -118q-94 -119 -94 -319t95 -320t255 -119q120 0 202 55t106 154h133q-25 -148 -142 -238t-298 -90q-223 0 -355 152t-131 406q-1 255 131 405t354 150q180 -1 298 -95t144 -240h-133q-25 96 -107 156t-202 61zM675 1228h-154l-275 332h153l193 -243
h12l193 243h153z" />
    <glyph glyph-name="Dcaron" unicode="&#x10e;" horiz-adv-x="1471" 
d="M322 1319v-1195h330q263 0 408 158t145 439t-145 439t-408 159h-330zM185 1443h475q327 0 506 -191q179 -190 179 -530q-1 -340 -179 -531t-506 -191h-475v1443zM655 1577h-128l-287 297h155l190 -203h12l190 203h155z" />
    <glyph glyph-name="dcaron" unicode="&#x10f;" horiz-adv-x="1324" 
d="M598 977q-160 0 -254 -119q-94 -120 -94 -320t94 -318t254 -119q160 0 255 119t95 318t-96 319t-254 120zM571 -18q-206 0 -331 152t-125 404q-1 250 125 404t331 153q123 0 220 -61t143 -167h12v639h131v-1506h-126v215h-12q-49 -109 -147 -171t-221 -62zM1202 1506h130
l-37 -444h-93v444z" />
    <glyph glyph-name="Dcroat" unicode="&#x110;" horiz-adv-x="1447" 
d="M185 1443h475q327 0 506 -191q179 -190 179 -530q-1 -340 -179 -531t-506 -191h-475v681h-173v124h173v638zM322 124h330q263 0 408 158t145 439t-145 439t-408 159h-330v-514h262v-124h-262v-557z" />
    <glyph glyph-name="dcroat" unicode="&#x111;" horiz-adv-x="1256" 
d="M1209 1383v-98h-132v-1285h-125v215h-13q-48 -109 -146 -171t-222 -62q-206 0 -331 152t-125 404q-1 250 125 404t331 153q124 1 221 -61t142 -167h12v418h-273v98h273v163h131v-163h132zM598 101q160 0 255 119t95 318t-96 319t-254 120q-160 0 -254 -119
q-94 -120 -94 -320t94 -318t254 -119z" />
    <glyph glyph-name="Emacron" unicode="&#x112;" horiz-adv-x="1197" 
d="M943 1619h-644v105h644v-105zM1057 124v-124h-872v1443h872v-124h-735v-519h698v-122h-698v-554h735z" />
    <glyph glyph-name="emacron" unicode="&#x113;" horiz-adv-x="1174" 
d="M926 1292h-662v106h662v-106zM597 -18q-222 0 -352 150t-130 406q1 254 131 406t348 151q218 0 341 -143q124 -143 124 -390v-58h-809v-6q6 -183 100 -291t250 -108q114 -1 194 43t115 124h133q-40 -132 -158 -208t-287 -76zM594 979q-146 -1 -240 -101t-103 -266h671
q-2 167 -92 267t-236 100z" />
    <glyph glyph-name="Ebreve" unicode="&#x114;" horiz-adv-x="1197" 
d="M291 1851h118q-1 -81 57 -129t155 -47q97 -1 155 47t57 129h118q0 -126 -89 -200t-241 -74t-241 74t-89 200zM1057 124v-124h-872v1443h872v-124h-735v-519h698v-122h-698v-554h735z" />
    <glyph glyph-name="ebreve" unicode="&#x115;" horiz-adv-x="1174" 
d="M264 1538h119q-1 -90 55 -144t156 -54t156 54t55 144h119q0 -134 -88 -216t-242 -82t-242 82t-88 216zM597 -18q-222 0 -352 150t-130 406q1 254 131 406t348 151q218 0 341 -143q124 -143 124 -390v-58h-809v-6q6 -183 100 -291t250 -108q114 -1 194 43t115 124h133
q-40 -132 -158 -208t-287 -76zM594 979q-146 -1 -240 -101t-103 -266h671q-2 167 -92 267t-236 100z" />
    <glyph glyph-name="Edotaccent" unicode="&#x116;" horiz-adv-x="1197" 
d="M1057 124v-124h-872v1443h872v-124h-735v-519h698v-122h-698v-554h735zM621 1577q-45 1 -75 31t-30 73t31 74t74 31t74 -31t31 -74t-30 -73t-75 -31z" />
    <glyph glyph-name="edotaccent" unicode="&#x117;" horiz-adv-x="1174" 
d="M597 -18q-222 0 -352 150t-130 406q1 254 131 406t348 151q218 0 341 -143q124 -143 124 -390v-58h-809v-6q6 -183 100 -291t250 -108q114 -1 194 43t115 124h133q-40 -132 -158 -208t-287 -76zM594 979q-146 -1 -240 -101t-103 -266h671q-2 167 -92 267t-236 100z
M595 1280q-45 0 -77 32t-32 78q0 45 32 77t77 32t77 -32t32 -77q0 -46 -32 -78t-77 -32z" />
    <glyph glyph-name="Eogonek" unicode="&#x118;" horiz-adv-x="1197" 
d="M185 0v1443h872v-124h-735v-519h698v-122h-698v-554h735v-98q-184 -94 -184 -219q-1 -57 33 -90t92 -33t84 15v-97q-40 -23 -128 -23q-88 1 -148 55t-59 145q0 131 129 221h-691z" />
    <glyph glyph-name="eogonek" unicode="&#x119;" horiz-adv-x="1174" 
d="M594 979q-146 -1 -240 -101t-103 -266h671q-2 167 -92 267t-236 100zM580 -233q0 113 111 211v12q-35 -8 -94 -8q-221 0 -351 150t-131 405q1 255 131 407t347 151q217 0 341 -143t125 -390v-58h-809v-6q4 -184 100 -292t254 -107q229 0 305 167h133q-19 -60 -60 -112
t-123 -122q-159 -134 -159 -235q0 -51 32 -82t86 -31t90 15v-97q-38 -23 -125 -23q-87 1 -145 53t-58 135z" />
    <glyph glyph-name="Ecaron" unicode="&#x11a;" horiz-adv-x="1197" 
d="M1057 124v-124h-872v1443h872v-124h-735v-519h698v-122h-698v-554h735zM685 1577h-128l-287 297h155l190 -203h12l190 203h155z" />
    <glyph glyph-name="ecaron" unicode="&#x11b;" horiz-adv-x="1174" 
d="M597 -18q-222 0 -352 150t-130 406q1 254 131 406t348 151q218 0 341 -143q124 -143 124 -390v-58h-809v-6q6 -183 100 -291t250 -108q114 -1 194 43t115 124h133q-40 -132 -158 -208t-287 -76zM594 979q-146 -1 -240 -101t-103 -266h671q-2 167 -92 267t-236 100z
M672 1228h-154l-275 332h153l193 -243h12l193 243h153z" />
    <glyph glyph-name="Gcircumflex" unicode="&#x11c;" horiz-adv-x="1506" 
d="M1375 559q0 -269 -164 -429q-163 -160 -447 -160t-460 206t-177 545q0 340 176 546t467 206q232 0 392 -123t199 -329h-139q-45 155 -163 240t-289 85q-229 0 -366 -170t-137 -454q-1 -284 137 -455q138 -170 360 -170q222 -1 348 123q127 124 127 328v50h-440v121h576
v-160zM832 1874l289 -297h-155l-190 202h-12l-190 -202h-155l289 297h124z" />
    <glyph glyph-name="gcircumflex" unicode="&#x11d;" horiz-adv-x="1242" 
d="M620 -404q-198 0 -315 76t-138 202h139q18 -75 98 -119t219 -44t229 76t91 207v242h-13q-48 -107 -142 -166t-219 -59q-207 1 -331 149t-123 392q0 244 124 394t330 149q123 0 223 -63t144 -168h12v213h126v-1093q0 -176 -128 -282t-326 -106zM945 550q1 192 -95 310
q-96 117 -256 117q-160 1 -252 -115t-92 -310t92 -308q92 -116 254 -116q160 0 254 115t95 307zM682 1560l275 -332h-153l-193 243h-12l-193 -243h-153l275 332h154z" />
    <glyph glyph-name="Gbreve" unicode="&#x11e;" horiz-adv-x="1506" 
d="M440 1851h118q0 -81 58 -129t154 -47q96 -1 154 47t58 129h118q0 -126 -89 -200t-241 -74t-241 74t-89 200zM1375 559q0 -269 -164 -429q-163 -160 -447 -160t-460 206t-177 545q0 340 176 546t467 206q232 0 392 -123t199 -329h-139q-45 155 -163 240t-289 85
q-229 0 -366 -170t-137 -454q-1 -284 137 -455q138 -170 360 -170q222 -1 348 123q127 124 127 328v50h-440v121h576v-160z" />
    <glyph glyph-name="gbreve" unicode="&#x11f;" horiz-adv-x="1242" 
d="M620 -404q-198 0 -315 76t-138 202h139q18 -75 98 -119t219 -44t229 76t91 207v242h-13q-48 -107 -142 -166t-219 -59q-207 1 -331 149t-123 392q0 244 124 394t330 149q123 0 223 -63t144 -168h12v213h126v-1093q0 -176 -128 -282t-326 -106zM945 550q1 192 -95 310
q-96 117 -256 117q-160 1 -252 -115t-92 -310t92 -308q92 -116 254 -116q160 0 254 115t95 307zM274 1538h119q-1 -90 55 -144t156 -54t156 54t55 144h119q0 -134 -88 -216t-242 -82t-242 82t-88 216z" />
    <glyph glyph-name="Gdotaccent" unicode="&#x120;" horiz-adv-x="1506" 
d="M1375 559q0 -269 -164 -429q-163 -160 -447 -160t-460 206t-177 545q0 340 176 546t467 206q232 0 392 -123t199 -329h-139q-45 155 -163 240t-289 85q-229 0 -366 -170t-137 -454q-1 -284 137 -455q138 -170 360 -170q222 -1 348 123q127 124 127 328v50h-440v121h576
v-160zM770 1577q-44 1 -74 31t-31 73q1 43 31 74t74 31t74 -31t31 -74q-1 -43 -31 -73t-74 -31z" />
    <glyph glyph-name="gdotaccent" unicode="&#x121;" horiz-adv-x="1242" 
d="M620 -404q-198 0 -315 76t-138 202h139q18 -75 98 -119t219 -44t229 76t91 207v242h-13q-48 -107 -142 -166t-219 -59q-207 1 -331 149t-123 392q0 244 124 394t330 149q123 0 223 -63t144 -168h12v213h126v-1093q0 -176 -128 -282t-326 -106zM945 550q1 192 -95 310
q-96 117 -256 117q-160 1 -252 -115t-92 -310t92 -308q92 -116 254 -116q160 0 254 115t95 307zM605 1280q-45 0 -77 32t-32 78q0 45 32 77t77 32t77 -32t32 -77q0 -46 -32 -78t-77 -32z" />
    <glyph glyph-name="Gcommaaccent" unicode="&#x122;" horiz-adv-x="1506" 
d="M1375 559q0 -269 -164 -429q-163 -160 -447 -160t-460 206t-177 545q0 340 176 546t467 206q232 0 392 -123t199 -329h-139q-45 155 -163 240t-289 85q-229 0 -366 -170t-137 -454q-1 -284 137 -455q138 -170 360 -170q222 -1 348 123q127 124 127 328v50h-440v121h576
v-160zM752 -506h-127l102 364h141z" />
    <glyph glyph-name="gcommaaccent" unicode="&#x123;" horiz-adv-x="1242" 
d="M620 -404q-198 0 -315 76t-138 202h139q18 -75 98 -119t219 -44t229 76t91 207v242h-13q-48 -107 -142 -166t-219 -59q-207 1 -331 149t-123 392q0 244 124 394t330 149q123 0 223 -63t144 -168h12v213h126v-1093q0 -176 -128 -282t-326 -106zM945 550q1 192 -95 310
q-96 117 -256 117q-160 1 -252 -115t-92 -310t92 -308q92 -116 254 -116q160 0 254 115t95 307zM617 1647h127l-102 -364h-141z" />
    <glyph glyph-name="Hcircumflex" unicode="&#x124;" horiz-adv-x="1488" 
d="M806 1874l289 -297h-155l-190 202h-12l-190 -202h-155l289 297h124zM1303 0h-137v677h-844v-677h-137v1443h137v-642h844v642h137v-1443z" />
    <glyph glyph-name="hcircumflex" unicode="&#x125;" horiz-adv-x="1224" 
d="M306 1937l289 -297h-155l-190 202h-12l-190 -202h-155l289 297h124zM933 667q0 310 -285 310q-152 0 -245 -94t-93 -243v-640h-131v1506h131v-623h12q44 100 138 156t222 56q182 0 282 -104t100 -291v-700h-131v667z" />
    <glyph glyph-name="Hbar" unicode="&#x126;" horiz-adv-x="1452" 
d="M1429 1206v-111h-144v-1095h-137v677h-844v-677h-137v1095h-144v111h144v237h137v-237h844v237h137v-237h144zM1148 801v294h-844v-294h844z" />
    <glyph glyph-name="hbar" unicode="&#x127;" horiz-adv-x="1231" 
d="M310 883h12q40 99 136 155t222 57q182 -1 286 -105t105 -290v-700h-131v669q0 148 -78 228t-222 80t-237 -93t-93 -244v-640h-131v1285h-132v98h132v163h131v-163h272v-98h-272v-402z" />
    <glyph glyph-name="Itilde" unicode="&#x128;" horiz-adv-x="507" 
d="M-95 1588q-1 120 55 188t145 68t149 -58q25 -24 47 -50q53 -58 95 -58q43 0 71 38t31 116h105q0 -115 -56 -185t-142 -70q-86 1 -144 59q-23 24 -45 48q-52 58 -104 58q-97 0 -101 -154h-106zM322 0h-137v1443h137v-1443z" />
    <glyph glyph-name="itilde" unicode="&#x129;" horiz-adv-x="489" 
d="M108 1388q-104 0 -104 -158h-111q0 122 56 192t144 70q89 0 149 -56q24 -23 46 -46q54 -56 93 -56q104 0 104 158h110q0 -122 -56 -192t-145 -70t-147 56q-24 23 -46 46q-54 56 -93 56zM179 0v1077h131v-1077h-131z" />
    <glyph glyph-name="Imacron" unicode="&#x12a;" horiz-adv-x="507" 
d="M576 1619h-644v105h644v-105zM322 0h-137v1443h137v-1443z" />
    <glyph glyph-name="imacron" unicode="&#x12b;" horiz-adv-x="489" 
d="M575 1292h-662v106h662v-106zM179 0v1077h131v-1077h-131z" />
    <glyph glyph-name="Ibreve" unicode="&#x12c;" horiz-adv-x="507" 
d="M-76 1851h118q0 -81 58 -129t154 -47q96 -1 154 47t58 129h118q0 -126 -89 -200t-241 -74t-241 74t-89 200zM322 0h-137v1443h137v-1443z" />
    <glyph glyph-name="ibreve" unicode="&#x12d;" horiz-adv-x="489" 
d="M-87 1538h119q0 -90 56 -144t155 -54t155 54t56 144h119q-1 -134 -89 -216t-241 -82t-241 82t-89 216zM179 0v1077h131v-1077h-131z" />
    <glyph glyph-name="Iogonek" unicode="&#x12e;" horiz-adv-x="507" 
d="M251 -421q-83 -1 -143 55t-59 145q0 135 136 239v1425h137v-1437q-152 -95 -152 -202q0 -56 34 -88t89 -32q54 0 87 15v-97q-46 -23 -129 -23z" />
    <glyph glyph-name="iogonek" unicode="&#x12f;" horiz-adv-x="489" 
d="M236 -421q-82 -1 -141 55t-59 145q0 135 139 240v1058h131v-1064q-150 -93 -150 -209q0 -56 35 -88t88 -32t88 15v-97q-49 -23 -131 -23zM240 1317q-40 0 -68 29t-29 69q1 41 29 69t68 28t69 -28t29 -70q0 -40 -29 -68t-69 -29z" />
    <glyph glyph-name="Idotaccent" unicode="&#x130;" horiz-adv-x="507" 
d="M254 1577q-44 1 -74 31t-31 73q1 43 31 74t74 31t74 -31t31 -74q-1 -43 -31 -73t-74 -31zM322 0h-137v1443h137v-1443z" />
    <glyph glyph-name="dotlessi" unicode="&#x131;" horiz-adv-x="489" 
d="M179 0v1077h131v-1077h-131z" />
    <glyph glyph-name="u0132" unicode="&#x132;" horiz-adv-x="1595" 
d="M1008 97q122 1 194 79t71 222v1045h137v-1050q0 -197 -110 -310t-292 -113t-296 100q-112 100 -113 260h136q5 -103 78 -168t195 -65zM322 0h-137v1443h137v-1443z" />
    <glyph glyph-name="u0133" unicode="&#x133;" horiz-adv-x="977" 
d="M730 1317q-40 0 -70 29q-28 29 -28 69q0 41 28 69t69 28q40 0 69 -28t29 -70q-1 -40 -29 -68t-68 -29zM795 1077v-1158q0 -156 -75 -227t-233 -71h-30v113h27q98 0 139 42t41 140v1161h131zM240 1317q-40 0 -68 29t-29 69q1 41 29 69t68 28t69 -28t29 -70q0 -40 -29 -68
t-69 -29zM175 0v1077h131v-1077h-131z" />
    <glyph glyph-name="Jcircumflex" unicode="&#x134;" horiz-adv-x="1088" 
d="M897 1874l289 -297h-155l-190 202h-12l-190 -202h-155l289 297h124zM501 97q121 1 193 79t72 222v1045h137v-1050q0 -197 -110 -310q-111 -113 -293 -113t-294 100t-114 260h136q5 -103 78 -168t195 -65z" />
    <glyph glyph-name="jcircumflex" unicode="&#x135;" horiz-adv-x="480" 
d="M319 1560l275 -332h-153l-193 243h-12l-193 -243h-153l275 332h154zM302 1077v-1158q0 -156 -75 -227t-233 -71h-30v113h27q98 0 139 42t41 140v1161h131z" />
    <glyph glyph-name="Kcommaaccent" unicode="&#x136;" horiz-adv-x="1311" 
d="M616 -506h-127l102 364h141zM322 0h-137v1443h137v-746h12l683 746h171l-578 -623l637 -820h-177l-555 725l-193 -210v-515z" />
    <glyph glyph-name="kcommaaccent" unicode="&#x137;" horiz-adv-x="1092" 
d="M561 -506h-127l102 364h141zM310 0h-131v1506h131v-933h12l526 504h164l-481 -462l503 -615h-168l-434 531l-122 -113v-418z" />
    <glyph glyph-name="Lacute" unicode="&#x139;" horiz-adv-x="1139" 
d="M1044 124v-124h-859v1443h137v-1319h722zM167 1577l310 297h174l-326 -297h-158z" />
    <glyph glyph-name="lacute" unicode="&#x13a;" horiz-adv-x="489" 
d="M179 0v1506h131v-1506h-131zM157 1640l310 297h174l-326 -297h-158z" />
    <glyph glyph-name="Lcommaaccent" unicode="&#x13b;" horiz-adv-x="1139" 
d="M1044 124v-124h-859v1443h137v-1319h722zM594 -506h-127l102 364h141z" />
    <glyph glyph-name="lcommaaccent" unicode="&#x13c;" horiz-adv-x="489" 
d="M179 0v1506h131v-1506h-131zM223 -506h-127l102 364h141z" />
    <glyph glyph-name="Lcaron" unicode="&#x13d;" horiz-adv-x="1139" 
d="M1044 124v-124h-859v1443h137v-1319h722zM550 1443h130l-36 -473h-94v473z" />
    <glyph glyph-name="lcaron" unicode="&#x13e;" horiz-adv-x="557" 
d="M179 0v1506h131v-1506h-131zM436 1506h129l-37 -444h-92v444z" />
    <glyph glyph-name="Lslash" unicode="&#x141;" horiz-adv-x="1105" 
d="M322 124h722v-124h-859v727l-168 -82v111l168 82v605h137v-538l315 153v-111l-315 -153v-670z" />
    <glyph glyph-name="lslash" unicode="&#x142;" horiz-adv-x="489" 
d="M310 0h-131v727l-137 -72v113l137 71v667h131v-598l137 71v-112l-137 -72v-795z" />
    <glyph glyph-name="Nacute" unicode="&#x143;" horiz-adv-x="1494" 
d="M320 0h-135v1443h135l841 -1198h13v1198h135v-1443h-132l-844 1199h-13v-1199zM660 1577l310 297h174l-326 -297h-158z" />
    <glyph glyph-name="nacute" unicode="&#x144;" horiz-adv-x="1206" 
d="M169 0v1077h125v-194h13q43 100 138 156t223 56q180 1 279 -103t99 -292v-700h-131v667q0 310 -281 310q-150 -1 -242 -93t-92 -244v-640h-131zM539 1267l250 327h168l-269 -327h-149z" />
    <glyph glyph-name="Ncommaaccent" unicode="&#x145;" horiz-adv-x="1494" 
d="M320 0h-135v1443h135l841 -1198h13v1198h135v-1443h-132l-844 1199h-13v-1199zM726 -506h-127l102 364h141z" />
    <glyph glyph-name="ncommaaccent" unicode="&#x146;" horiz-adv-x="1206" 
d="M169 0v1077h125v-194h13q43 100 138 156t223 56q180 1 279 -103t99 -292v-700h-131v667q0 310 -281 310q-150 -1 -242 -93t-92 -244v-640h-131zM581 -506h-127l102 364h141z" />
    <glyph glyph-name="Ncaron" unicode="&#x147;" horiz-adv-x="1494" 
d="M320 0h-135v1443h135l841 -1198h13v1198h135v-1443h-132l-844 1199h-13v-1199zM811 1577h-128l-287 297h155l190 -203h12l190 203h155z" />
    <glyph glyph-name="ncaron" unicode="&#x148;" horiz-adv-x="1206" 
d="M169 0v1077h125v-194h13q43 100 138 156t223 56q180 1 279 -103t99 -292v-700h-131v667q0 310 -281 310q-150 -1 -242 -93t-92 -244v-640h-131zM705 1228h-154l-275 332h153l193 -243h12l193 243h153z" />
    <glyph glyph-name="Omacron" unicode="&#x14c;" horiz-adv-x="1561" 
d="M1103 1619h-644v105h644v-105zM782 1346q-236 0 -376 -168q-139 -168 -139 -456q0 -286 138 -456q137 -170 375 -169q238 -1 376 169t137 456q1 286 -137 456q-138 168 -374 168zM782 1473q302 0 476 -202t175 -549q-1 -348 -175 -550t-478 -202t-478 202
q-175 202 -175 550q0 346 176 548q177 202 479 203z" />
    <glyph glyph-name="omacron" unicode="&#x14d;" horiz-adv-x="1208" 
d="M604 -18q-226 0 -358 150t-131 407q-1 258 131 407t358 149t358 -149t132 -407q0 -257 -132 -407t-358 -150zM604 101q166 1 260 117t94 321t-94 321t-260 117q-166 -1 -260 -117t-94 -321t94 -321t260 -117zM935 1292h-662v106h662v-106z" />
    <glyph glyph-name="Obreve" unicode="&#x14e;" horiz-adv-x="1561" 
d="M451 1851h118q-1 -81 57 -129t155 -47q97 -1 155 47t57 129h118q0 -126 -89 -200t-241 -74t-241 74t-89 200zM782 1346q-236 0 -376 -168q-139 -168 -139 -456q0 -286 138 -456q137 -170 375 -169q238 -1 376 169t137 456q1 286 -137 456q-138 168 -374 168zM782 1473
q302 0 476 -202t175 -549q-1 -348 -175 -550t-478 -202t-478 202q-175 202 -175 550q0 346 176 548q177 202 479 203z" />
    <glyph glyph-name="obreve" unicode="&#x14f;" horiz-adv-x="1208" 
d="M604 -18q-226 0 -358 150t-131 407q-1 258 131 407t358 149t358 -149t132 -407q0 -257 -132 -407t-358 -150zM604 101q166 1 260 117t94 321t-94 321t-260 117q-166 -1 -260 -117t-94 -321t94 -321t260 -117zM273 1538h119q0 -90 56 -144t155 -54t155 54t56 144h119
q-1 -134 -89 -216t-241 -82t-241 82t-89 216z" />
    <glyph glyph-name="Ohungarumlaut" unicode="&#x150;" horiz-adv-x="1561" 
d="M782 1346q-236 0 -376 -168q-139 -168 -139 -456q0 -286 138 -456q137 -170 375 -169q238 -1 376 169t137 456q1 286 -137 456q-138 168 -374 168zM782 1473q302 0 476 -202t175 -549q-1 -348 -175 -550t-478 -202t-478 202q-175 202 -175 550q0 346 176 548
q177 202 479 203zM468 1577l309 297h174l-326 -297h-157zM831 1577l309 297h174l-325 -297h-158z" />
    <glyph glyph-name="ohungarumlaut" unicode="&#x151;" horiz-adv-x="1208" 
d="M604 -18q-226 0 -358 150t-131 407q-1 258 131 407t358 149t358 -149t132 -407q0 -257 -132 -407t-358 -150zM604 101q166 1 260 117t94 321t-94 321t-260 117q-166 -1 -260 -117t-94 -321t94 -321t260 -117zM325 1264l250 330h161l-271 -330h-140zM677 1264l250 330h161
l-271 -330h-140z" />
    <glyph glyph-name="OE" unicode="&#x152;" horiz-adv-x="2321" 
d="M1309 0v302h-12q-66 -152 -207 -242t-316 -90q-299 0 -473 202t-174 549q1 346 175 549t472 203q173 0 315 -88t208 -237h12v295h872v-124h-748v-519h711v-122h-711v-554h748v-124h-872zM785 1346q-237 0 -377 -168t-141 -456q0 -288 140 -457q139 -168 377 -168t374 168
t136 457q0 288 -136 456t-373 168z" />
    <glyph glyph-name="oe" unicode="&#x153;" horiz-adv-x="2018" 
d="M604 101q166 0 260 116t94 321t-94 322t-260 117q-166 -1 -260 -117t-94 -321t94 -321t260 -117zM1438 979q-146 0 -240 -100t-103 -266h671q-2 164 -92 265t-236 101zM1452 -18q-158 0 -272 78t-148 203h-12q-35 -125 -150 -203t-266 -78q-226 0 -358 150t-131 407
q-1 257 131 407t358 150q148 0 260 -77t156 -208h13q43 131 153 207t253 77q214 1 339 -143t125 -390v-57h-808v-6q4 -182 99 -291t250 -109q114 -1 194 43t115 124h133q-40 -132 -158 -208t-276 -76z" />
    <glyph glyph-name="Racute" unicode="&#x154;" horiz-adv-x="1309" 
d="M322 591v-591h-137v1443h517q211 -1 336 -115t125 -307q0 -153 -82 -261t-227 -147l350 -613h-160l-332 591h-390zM322 1321v-608h369q157 0 245 80t87 223q0 143 -90 224t-248 81h-363zM504 1577l310 297h174l-326 -297h-158z" />
    <glyph glyph-name="racute" unicode="&#x155;" horiz-adv-x="754" 
d="M169 0v1077h125v-177h13q27 88 110 142t169 53q86 0 122 -9v-131q-45 13 -117 13q-125 0 -208 -84t-83 -212v-672h-131zM285 1267l250 327h168l-269 -327h-149z" />
    <glyph glyph-name="Rcommaaccent" unicode="&#x156;" horiz-adv-x="1309" 
d="M579 -506h-127l102 364h141zM322 591v-591h-137v1443h517q211 -1 336 -115t125 -307q0 -153 -82 -261t-227 -147l350 -613h-160l-332 591h-390zM322 1321v-608h369q157 0 245 80t87 223q0 143 -90 224t-248 81h-363z" />
    <glyph glyph-name="rcommaaccent" unicode="&#x157;" horiz-adv-x="754" 
d="M213 -506h-127l102 364h141zM169 0v1077h125v-177h13q27 88 110 142t169 53q86 0 122 -9v-131q-45 13 -117 13q-125 0 -208 -84t-83 -212v-672h-131z" />
    <glyph glyph-name="Rcaron" unicode="&#x158;" horiz-adv-x="1309" 
d="M655 1577h-128l-287 297h155l190 -203h12l190 203h155zM322 591v-591h-137v1443h517q211 -1 336 -115t125 -307q0 -153 -82 -261t-227 -147l350 -613h-160l-332 591h-390zM322 1321v-608h369q157 0 245 80t87 223q0 143 -90 224t-248 81h-363z" />
    <glyph glyph-name="rcaron" unicode="&#x159;" horiz-adv-x="754" 
d="M169 0v1077h125v-177h13q27 88 110 142t169 53q86 0 122 -9v-131q-45 13 -117 13q-125 0 -208 -84t-83 -212v-672h-131zM451 1228h-154l-275 332h153l193 -243h12l193 243h153z" />
    <glyph glyph-name="Sacute" unicode="&#x15a;" horiz-adv-x="1284" 
d="M655 95q163 0 268 80q105 79 105 191t-78 180t-244 109l-165 42q-203 49 -294 139t-91 252t138 273q138 112 350 112q212 -1 351 -109t150 -274h-138q-17 116 -115 187t-249 71t-249 -76t-98 -183q0 -105 72 -165t237 -101l143 -36q224 -55 322 -149t98 -247
q0 -189 -144 -305t-373 -116q-231 0 -377 112t-159 293h138q15 -124 127 -202t275 -78zM563 1577l310 297h174l-326 -297h-158z" />
    <glyph glyph-name="sacute" unicode="&#x15b;" horiz-adv-x="1058" 
d="M441 1267l250 327h168l-269 -327h-149zM144 800q0 120 112 208q112 87 276 87q164 1 271 -75t125 -204h-129q-17 76 -89 122t-178 45q-106 0 -182 -53q-74 -53 -74 -126t52 -114t162 -67l148 -35q159 -38 234 -106t75 -196q0 -126 -119 -215t-296 -89t-291 78t-130 210
h136q22 -82 97 -129q74 -47 192 -47t197 55t79 132t-51 121t-160 69l-163 39q-152 38 -223 104t-71 186z" />
    <glyph glyph-name="Scircumflex" unicode="&#x15c;" horiz-adv-x="1284" 
d="M712 1874l289 -297h-155l-190 202h-12l-190 -202h-155l289 297h124zM655 95q163 0 268 80q105 79 105 191t-78 180t-244 109l-165 42q-203 49 -294 139t-91 252t138 273q138 112 350 112q212 -1 351 -109t150 -274h-138q-17 116 -115 187t-249 71t-249 -76t-98 -183
q0 -105 72 -165t237 -101l143 -36q224 -55 322 -149t98 -247q0 -189 -144 -305t-373 -116q-231 0 -377 112t-159 293h138q15 -124 127 -202t275 -78z" />
    <glyph glyph-name="scircumflex" unicode="&#x15d;" horiz-adv-x="1058" 
d="M144 800q0 120 112 208q112 87 276 87q164 1 271 -75t125 -204h-129q-17 76 -89 122t-178 45q-106 0 -182 -53q-74 -53 -74 -126t52 -114t162 -67l148 -35q159 -38 234 -106t75 -196q0 -126 -119 -215t-296 -89t-291 78t-130 210h136q22 -82 97 -129q74 -47 192 -47
t197 55t79 132t-51 121t-160 69l-163 39q-152 38 -223 104t-71 186zM607 1560l275 -332h-153l-193 243h-12l-193 -243h-153l275 332h154z" />
    <glyph glyph-name="Scedilla" unicode="&#x15e;" horiz-adv-x="1284" 
d="M1168 379q0 -165 -128 -279t-341 -128l-46 -114q101 0 157 -42t56 -120q0 -80 -63 -130t-155 -50t-156 20v87q50 -18 118 -18t105 24q36 24 36 66q0 81 -155 81h-56v67l52 129q-203 14 -334 124t-143 279h138q15 -124 127 -202t275 -78t268 80q105 79 105 191t-78 180
t-244 109l-165 42q-203 49 -294 139t-91 252t138 273q138 112 350 112q212 -1 351 -109t150 -274h-138q-17 116 -115 187t-249 71t-249 -76t-98 -183q0 -105 72 -165t237 -101l143 -36q224 -55 322 -149t98 -259z" />
    <glyph glyph-name="scedilla" unicode="&#x15f;" horiz-adv-x="1058" 
d="M947 292q0 -120 -100 -206t-257 -101l-51 -127q101 0 157 -42t56 -120q0 -80 -63 -130t-155 -50t-156 20v87q50 -18 118 -18t105 24q36 24 36 66q0 81 -155 81h-56v67l57 141q-157 11 -257 87t-115 199h136q22 -82 97 -129q74 -47 192 -47t197 55t79 132t-51 121t-160 69
l-163 39q-152 38 -223 104t-71 186t112 208q112 87 276 87q164 1 271 -75t125 -204h-129q-17 76 -89 122t-178 45q-106 0 -182 -53q-74 -53 -74 -126t52 -114t162 -67l148 -35q159 -38 234 -106q75 -70 75 -190z" />
    <glyph glyph-name="Scaron" unicode="&#x160;" horiz-adv-x="1284" 
d="M714 1577h-128l-287 297h155l190 -203h12l190 203h155zM655 95q163 0 268 80q105 79 105 191t-78 180t-244 109l-165 42q-203 49 -294 139t-91 252t138 273q138 112 350 112q212 -1 351 -109t150 -274h-138q-17 116 -115 187t-249 71t-249 -76t-98 -183q0 -105 72 -165
t237 -101l143 -36q224 -55 322 -149t98 -247q0 -189 -144 -305t-373 -116q-231 0 -377 112t-159 293h138q15 -124 127 -202t275 -78z" />
    <glyph glyph-name="scaron" unicode="&#x161;" horiz-adv-x="1058" 
d="M144 800q0 120 112 208q112 87 276 87q164 1 271 -75t125 -204h-129q-17 76 -89 122t-178 45q-106 0 -182 -53q-74 -53 -74 -126t52 -114t162 -67l148 -35q159 -38 234 -106t75 -196q0 -126 -119 -215t-296 -89t-291 78t-130 210h136q22 -82 97 -129q74 -47 192 -47
t197 55t79 132t-51 121t-160 69l-163 39q-152 38 -223 104t-71 186zM607 1228h-154l-275 332h153l193 -243h12l193 243h153z" />
    <glyph glyph-name="Tcedilla" unicode="&#x162;" horiz-adv-x="1280" 
d="M1192 1319h-484v-1319h1l-57 -142q100 0 156 -42t57 -120q0 -80 -63 -130q-62 -50 -154 -50t-157 20v87q51 -18 119 -18t104 24t36 66q0 81 -155 81h-56v67l64 157h-31v1319h-484v124h1104v-124z" />
    <glyph glyph-name="tcedilla" unicode="&#x163;" horiz-adv-x="724" 
d="M237 268v698h-174v111h174v276h131v-276h256v-111h-256v-668q0 -100 40 -144t131 -44q47 0 80 3v-112q-40 -7 -79 -7t-77 4l-55 -140q100 0 156 -42t57 -120q1 -80 -63 -130t-156 -50t-155 20v87q51 -18 119 -18t104 24t35 66q0 81 -154 81h-56v67l71 176
q-129 52 -129 249z" />
    <glyph glyph-name="Tcaron" unicode="&#x164;" horiz-adv-x="1280" 
d="M708 0h-136v1319h-484v124h1104v-124h-484v-1319zM704 1577h-128l-287 297h155l190 -203h12l190 203h155z" />
    <glyph glyph-name="tcaron" unicode="&#x165;" horiz-adv-x="724" 
d="M237 1353h131v-276h256v-111h-256v-668q0 -100 40 -144t131 -44q47 0 80 3v-112q-40 -7 -94 -7q-155 0 -221 64t-67 210v698h-174v111h174v276zM498 1233v444h130l-37 -444h-93z" />
    <glyph glyph-name="Tbar" unicode="&#x166;" horiz-adv-x="1280" 
d="M1192 1319h-484v-531h304v-110h-304v-678h-136v678h-304v110h304v531h-484v124h1104v-124z" />
    <glyph glyph-name="tbar" unicode="&#x167;" horiz-adv-x="705" 
d="M624 966h-256v-316h255v-111h-255v-241q0 -100 40 -144t131 -44q47 0 80 3v-112q-40 -7 -94 -7q-155 0 -221 64t-67 210v271h-172v111h172v316h-174v111h174v276h131v-276h256v-111z" />
    <glyph glyph-name="Utilde" unicode="&#x168;" horiz-adv-x="1494" 
d="M398 1588q0 120 56 188t144 68q89 0 149 -58q25 -24 47 -50q53 -58 95 -58q43 0 71 38t31 116h105q0 -115 -56 -185t-142 -70q-86 1 -144 59q-24 24 -46 48q-52 58 -103 58q-97 0 -101 -154h-106zM325 1443v-934q0 -183 114 -296t308 -113t308 113t114 296v934h137v-943
q0 -238 -151 -382t-407 -144t-408 144q-151 144 -151 382v943h136z" />
    <glyph glyph-name="utilde" unicode="&#x169;" horiz-adv-x="1211" 
d="M467 1388q-104 0 -104 -158h-111q0 122 56 192t144 70t148 -56q24 -23 47 -46q54 -56 93 -56q104 0 104 158h110q0 -122 -56 -192t-145 -70t-147 56q-24 23 -46 46q-54 56 -93 56zM1038 1077v-1077h-125v194h-12q-41 -100 -135 -156t-223 -56q-179 0 -281 105t-102 290
v700h131v-667q-1 -150 73 -229t218 -79t235 91q90 91 90 244v640h131z" />
    <glyph glyph-name="Umacron" unicode="&#x16a;" horiz-adv-x="1494" 
d="M1069 1619h-644v105h644v-105zM325 1443v-934q0 -183 114 -296t308 -113t308 113t114 296v934h137v-943q0 -238 -151 -382t-407 -144t-408 144q-151 144 -151 382v943h136z" />
    <glyph glyph-name="umacron" unicode="&#x16b;" horiz-adv-x="1211" 
d="M934 1292h-662v106h662v-106zM1038 1077v-1077h-125v194h-12q-41 -100 -135 -156t-223 -56q-179 0 -281 105t-102 290v700h131v-667q-1 -150 73 -229t218 -79t235 91q90 91 90 244v640h131z" />
    <glyph glyph-name="Ubreve" unicode="&#x16c;" horiz-adv-x="1494" 
d="M417 1851h118q-1 -81 57 -129t155 -47q97 -1 155 47t57 129h118q0 -126 -89 -200t-241 -74t-241 74t-89 200zM325 1443v-934q0 -183 114 -296t308 -113t308 113t114 296v934h137v-943q0 -238 -151 -382t-407 -144t-408 144q-151 144 -151 382v943h136z" />
    <glyph glyph-name="ubreve" unicode="&#x16d;" horiz-adv-x="1211" 
d="M272 1538h119q-1 -90 55 -144t156 -54t156 54t55 144h119q0 -134 -88 -216t-242 -82t-242 82t-88 216zM1038 1077v-1077h-125v194h-12q-41 -100 -135 -156t-223 -56q-179 0 -281 105t-102 290v700h131v-667q-1 -150 73 -229t218 -79t235 91q90 91 90 244v640h131z" />
    <glyph glyph-name="Uring" unicode="&#x16e;" horiz-adv-x="1494" 
d="M325 1443v-934q0 -183 114 -296t308 -113t308 113t114 296v934h137v-943q0 -238 -151 -382t-407 -144t-408 144q-151 144 -151 382v943h136zM747 1655q53 1 89 37t36 89t-36 89t-89 36t-89 -36t-36 -89t36 -89t89 -37zM747 1570q-89 0 -151 61t-62 149t62 150
q62 61 151 61t151 -61q62 -62 62 -150t-62 -149t-151 -61z" />
    <glyph glyph-name="uring" unicode="&#x16f;" horiz-adv-x="1211" 
d="M603 1313q53 1 89 37t36 89t-36 89t-89 36t-89 -36t-36 -89t36 -89t89 -37zM603 1228q-89 0 -151 61t-62 149t62 150q62 61 151 61t151 -61q62 -62 62 -150t-62 -149t-151 -61zM1038 1077v-1077h-125v194h-12q-41 -100 -135 -156t-223 -56q-179 0 -281 105t-102 290v700
h131v-667q-1 -150 73 -229t218 -79t235 91q90 91 90 244v640h131z" />
    <glyph glyph-name="Uhungarumlaut" unicode="&#x170;" horiz-adv-x="1494" 
d="M434 1577l309 297h174l-326 -297h-157zM797 1577l309 297h174l-325 -297h-158zM325 1443v-934q0 -183 114 -296t308 -113t308 113t114 296v934h137v-943q0 -238 -151 -382t-407 -144t-408 144q-151 144 -151 382v943h136z" />
    <glyph glyph-name="uhungarumlaut" unicode="&#x171;" horiz-adv-x="1211" 
d="M1038 1077v-1077h-125v194h-12q-41 -100 -135 -156t-223 -56q-179 0 -281 105t-102 290v700h131v-667q-1 -150 73 -229t218 -79t235 91q90 91 90 244v640h131zM324 1264l250 330h161l-271 -330h-140zM676 1264l250 330h161l-271 -330h-140z" />
    <glyph glyph-name="Uogonek" unicode="&#x172;" horiz-adv-x="1494" 
d="M962 -421q-84 -1 -144 55t-59 142q0 115 113 205v13q-54 -20 -125 -20q-254 0 -406 144t-152 382v943h136v-934q-1 -185 115 -297t308 -112t306 112q115 112 115 297v934h137v-943q0 -187 -75 -288q-75 -100 -183 -180q-46 -34 -84 -66q-84 -72 -84 -165q0 -53 35 -85
t87 -32t88 15v-97q-44 -23 -128 -23z" />
    <glyph glyph-name="uogonek" unicode="&#x173;" horiz-adv-x="1211" 
d="M976 -421q-96 0 -156 56t-59 145q0 139 152 240v174h-12q-41 -100 -135 -156t-223 -56q-179 0 -281 105t-102 290v700h131v-667q0 -150 73 -229t218 -79t235 91t90 244v640h131v-1064q-156 -86 -156 -205q0 -56 34 -90t82 -34t72 11v-99q-44 -17 -94 -17z" />
    <glyph glyph-name="Wcircumflex" unicode="&#x174;" horiz-adv-x="1956" 
d="M973 1205l-354 -1205h-127l-397 1443h142l317 -1230h9l347 1230h136l347 -1230h9l317 1230h142l-397 -1443h-127l-354 1205h-10zM1040 1874l289 -297h-155l-190 202h-12l-190 -202h-155l289 297h124z" />
    <glyph glyph-name="wcircumflex" unicode="&#x175;" horiz-adv-x="1566" 
d="M1499 1077l-307 -1077h-139l-265 894h-13l-265 -894h-138l-305 1077h133l239 -914h12l266 914h131l266 -914h12l241 914h132zM859 1560l275 -332h-153l-193 243h-12l-193 -243h-153l275 332h154z" />
    <glyph glyph-name="Ycircumflex" unicode="&#x176;" horiz-adv-x="1321" 
d="M723 1874l289 -297h-155l-190 202h-12l-190 -202h-155l289 297h124zM729 0h-136v624l-518 819h157l423 -680h12l423 680h156l-517 -819v-624z" />
    <glyph glyph-name="ycircumflex" unicode="&#x177;" horiz-adv-x="1079" 
d="M613 1560l275 -332h-153l-193 243h-12l-193 -243h-153l275 332h154zM247 -375q-40 0 -61 4v113q22 -3 78 -3t102 42t83 145l22 67l-404 1084h142l326 -934h12l325 934h140l-419 -1129q-71 -190 -142 -256t-204 -67z" />
    <glyph glyph-name="Ydieresis" unicode="&#x178;" horiz-adv-x="1321" 
d="M844 1568q-42 0 -73 30q-30 30 -30 72t30 72q31 30 73 30t72 -30t29 -72q1 -42 -29 -72t-72 -30zM480 1568q-42 0 -73 30q-30 30 -30 72t30 72q31 30 73 30t72 -30t29 -72q1 -42 -29 -72t-72 -30zM729 0h-136v624l-518 819h157l423 -680h12l423 680h156l-517 -819v-624z
" />
    <glyph glyph-name="Zacute" unicode="&#x179;" horiz-adv-x="1328" 
d="M138 0v99l863 1208v12h-834v124h1011v-100l-860 -1207v-12h872v-124h-1052zM577 1577l310 297h174l-326 -297h-158z" />
    <glyph glyph-name="zacute" unicode="&#x17a;" horiz-adv-x="1082" 
d="M131 0v100l660 854v12h-659v111h816v-101l-658 -853v-12h660v-111h-819zM447 1267l250 327h168l-269 -327h-149z" />
    <glyph glyph-name="Zdotaccent" unicode="&#x17b;" horiz-adv-x="1328" 
d="M138 0v99l863 1208v12h-834v124h1011v-100l-860 -1207v-12h872v-124h-1052zM664 1577q-44 1 -74 31t-31 73q1 43 31 74t74 31t74 -31t31 -74q-1 -43 -31 -73t-74 -31z" />
    <glyph glyph-name="zdotaccent" unicode="&#x17c;" horiz-adv-x="1082" 
d="M131 0v100l660 854v12h-659v111h816v-101l-658 -853v-12h660v-111h-819zM536 1280q-45 0 -77 32t-32 78q0 45 32 77t77 32t77 -32t32 -77q0 -46 -32 -78t-77 -32z" />
    <glyph glyph-name="Zcaron" unicode="&#x17d;" horiz-adv-x="1328" 
d="M728 1577h-128l-287 297h155l190 -203h12l190 203h155zM138 0v99l863 1208v12h-834v124h1011v-100l-860 -1207v-12h872v-124h-1052z" />
    <glyph glyph-name="zcaron" unicode="&#x17e;" horiz-adv-x="1082" 
d="M131 0v100l660 854v12h-659v111h816v-101l-658 -853v-12h660v-111h-819zM613 1228h-154l-275 332h153l193 -243h12l193 243h153z" />
    <glyph glyph-name="florin" unicode="&#x192;" horiz-adv-x="1321" 
d="M286 -22q-102 0 -198 23v127q90 -29 187 -29q218 0 253 224l64 418h-362v111h378l42 265q26 169 125 259t258 90q109 0 195 -20v-120q-71 20 -180 20q-230 0 -266 -238l-40 -256h395v-111h-412l-66 -429q-51 -334 -373 -334z" />
    <glyph glyph-name="Ohorn" unicode="&#x1a0;" horiz-adv-x="1609" 
d="M781 1346q-236 0 -375 -169t-139 -455t139 -456q138 -169 374 -169t374 169t139 456q0 288 -138 456t-374 168zM1433 722q0 -348 -175 -550t-477 -202t-478 202t-176 549q1 348 177 550t478 202q102 1 190 -25t137 -56q132 -81 197 -81q108 0 108 161v150h122v-183
q0 -111 -46 -171t-134 -60q-26 0 -52 13l-9 -10q138 -197 138 -489z" />
    <glyph glyph-name="ohorn" unicode="&#x1a1;" horiz-adv-x="1322" 
d="M1094 539q0 -257 -132 -407t-358 -150t-358 150t-131 408q-1 258 131 406q132 149 360 149q136 0 233 -56q39 -23 73 -47q81 -57 136 -56q54 0 81 34t27 114v163h122v-209q0 -98 -46 -154t-127 -56q-36 0 -63 12l-9 -10q61 -135 61 -291zM250 539q0 -205 94 -321
t260 -117q166 1 260 117t94 321t-94 321t-260 117q-166 -1 -260 -117t-94 -321z" />
    <glyph glyph-name="Uhorn" unicode="&#x1af;" horiz-adv-x="1715" 
d="M1399 1298q67 0 97 39t31 128v144h122v-179q1 -112 -61 -176t-152 -64t-130 30v-720q0 -238 -152 -382t-407 -144q-254 0 -406 144t-152 382v943h136v-934q-1 -185 115 -297t308 -112t306 112q115 112 115 297v934h137v-115q26 -30 93 -30z" />
    <glyph glyph-name="uhorn" unicode="&#x1b0;" horiz-adv-x="1381" 
d="M1165 827q-90 0 -127 31v-858h-125v194h-12q-41 -100 -135 -156t-223 -56q-179 0 -281 105t-102 290v700h131v-667q-1 -150 73 -229t218 -79t235 91q90 91 90 244v640h131v-111q28 -30 92 -30q65 0 95 39t30 128v144h122v-179q0 -111 -61 -176t-151 -65z" />
    <glyph glyph-name="u01C4" unicode="&#x1c4;" horiz-adv-x="2799" 
d="M2199 1577h-128l-287 297h155l190 -203h12l190 203h155zM1609 0v99l863 1208v12h-834v124h1011v-100l-860 -1207v-12h872v-124h-1052zM322 1319v-1195h330q263 0 408 158t145 439t-145 439t-408 159h-330zM185 1443h475q327 0 506 -191q179 -190 179 -530
q-1 -340 -179 -531t-506 -191h-475v1443z" />
    <glyph glyph-name="u01C5" unicode="&#x1c5;" horiz-adv-x="2553" 
d="M1602 0v100l660 854v12h-659v111h816v-101l-658 -853v-12h660v-111h-819zM2084 1228h-154l-275 332h153l193 -243h12l193 243h153zM322 1319v-1195h330q263 0 408 158t145 439t-145 439t-408 159h-330zM185 1443h475q327 0 506 -191q179 -190 179 -530q-1 -340 -179 -531
t-506 -191h-475v1443z" />
    <glyph glyph-name="u01C6" unicode="&#x1c6;" horiz-adv-x="2337" 
d="M1387 0v100l660 854v12h-659v111h816v-101l-658 -853v-12h660v-111h-819zM1869 1228h-154l-275 332h153l193 -243h12l193 243h153zM598 977q-160 0 -254 -119q-94 -120 -94 -320t94 -318t254 -119q160 0 255 119t95 318t-96 319t-254 120zM571 -18q-206 0 -331 152
t-125 404q-1 250 125 404t331 153q123 0 220 -61t143 -167h12v639h131v-1506h-126v215h-12q-49 -109 -147 -171t-221 -62z" />
    <glyph glyph-name="u01C7" unicode="&#x1c7;" horiz-adv-x="2227" 
d="M1044 124v-124h-859v1443h137v-1319h722zM1640 97q122 1 194 79t71 222v1045h137v-1050q0 -197 -110 -310t-292 -113t-296 100q-112 100 -113 260h136q5 -103 78 -168t195 -65z" />
    <glyph glyph-name="u01C8" unicode="&#x1c8;" horiz-adv-x="1627" 
d="M1044 124v-124h-859v1443h137v-1319h722zM1380 1317q-40 0 -70 29q-28 29 -28 69q0 41 28 69t69 28q40 0 69 -28t29 -70q-1 -40 -29 -68t-68 -29zM1445 1077v-1158q0 -156 -75 -227t-233 -71h-30v113h27q98 0 139 42t41 140v1161h131z" />
    <glyph glyph-name="u01C9" unicode="&#x1c9;" horiz-adv-x="977" 
d="M179 0v1506h131v-1506h-131zM730 1317q-40 0 -70 29q-28 29 -28 69q0 41 28 69t69 28q40 0 69 -28t29 -70q-1 -40 -29 -68t-68 -29zM795 1077v-1158q0 -156 -75 -227t-233 -71h-30v113h27q98 0 139 42t41 140v1161h131z" />
    <glyph glyph-name="u01CA" unicode="&#x1ca;" horiz-adv-x="2582" 
d="M320 0h-135v1443h135l841 -1198h13v1198h135v-1443h-132l-844 1199h-13v-1199zM1995 97q121 1 193 79t72 222v1045h137v-1050q0 -197 -110 -310q-111 -113 -293 -113t-294 100t-114 260h136q5 -103 78 -168t195 -65z" />
    <glyph glyph-name="u01CB" unicode="&#x1cb;" horiz-adv-x="1983" 
d="M320 0h-135v1443h135l841 -1198h13v1198h135v-1443h-132l-844 1199h-13v-1199zM1734 1317q-40 0 -68 29t-29 69q1 41 29 69t68 28t69 -28t29 -70q0 -40 -29 -68t-69 -29zM1800 1077v-1158q0 -156 -75 -227t-233 -71h-30v113h27q98 0 139 42t41 140v1161h131z" />
    <glyph glyph-name="u01CC" unicode="&#x1cc;" horiz-adv-x="1699" 
d="M169 0v1077h125v-194h13q43 100 138 156t223 56q180 1 279 -103t99 -292v-700h-131v667q0 310 -281 310q-150 -1 -242 -93t-92 -244v-640h-131zM1450 1317q-40 0 -68 29t-29 69q1 41 29 69t68 28t69 -28t29 -70q0 -40 -29 -68t-69 -29zM1516 1077v-1158q0 -156 -75 -227
t-233 -71h-30v113h27q98 0 139 42t41 140v1161h131z" />
    <glyph glyph-name="Acaron" unicode="&#x1cd;" horiz-adv-x="1363" 
d="M746 1577h-128l-287 297h155l190 -203h12l190 203h155zM675 1264l-255 -704h524l-256 704h-13zM1145 0l-160 442h-606l-160 -442h-145l540 1443h136l539 -1443h-144z" />
    <glyph glyph-name="acaron" unicode="&#x1ce;" horiz-adv-x="1125" 
d="M644 1228h-154l-275 332h153l193 -243h12l193 243h153zM106 296q0 142 100 222t288 94l337 22v104q-1 116 -69 178t-189 62t-197 -44t-94 -123h-133q19 128 133 206t294 78q180 1 284 -93t103 -263v-739h-126v185h-12q-105 -203 -377 -203q-140 0 -240 86
q-102 86 -102 228zM508 98q128 0 226 88t97 215v126l-319 -23q-271 -19 -271 -204q0 -92 70 -147q69 -55 197 -55z" />
    <glyph glyph-name="Icaron" unicode="&#x1cf;" horiz-adv-x="507" 
d="M318 1577h-128l-287 297h155l190 -203h12l190 203h155zM322 0h-137v1443h137v-1443z" />
    <glyph glyph-name="icaron" unicode="&#x1d0;" horiz-adv-x="489" 
d="M179 0v1077h131v-1077h-131zM321 1228h-154l-275 332h153l193 -243h12l193 243h153z" />
    <glyph glyph-name="Ocaron" unicode="&#x1d1;" horiz-adv-x="1561" 
d="M782 1346q-236 0 -376 -168q-139 -168 -139 -456q0 -286 138 -456q137 -170 375 -169q238 -1 376 169t137 456q1 286 -137 456q-138 168 -374 168zM782 1473q302 0 476 -202t175 -549q-1 -348 -175 -550t-478 -202t-478 202q-175 202 -175 550q0 346 176 548
q177 202 479 203zM845 1577h-128l-287 297h155l190 -203h12l190 203h155z" />
    <glyph glyph-name="ocaron" unicode="&#x1d2;" horiz-adv-x="1208" 
d="M604 -18q-226 0 -358 150t-131 407q-1 258 131 407t358 149t358 -149t132 -407q0 -257 -132 -407t-358 -150zM604 101q166 1 260 117t94 321t-94 321t-260 117q-166 -1 -260 -117t-94 -321t94 -321t260 -117zM681 1228h-154l-275 332h153l193 -243h12l193 243h153z" />
    <glyph glyph-name="Ucaron" unicode="&#x1d3;" horiz-adv-x="1494" 
d="M325 1443v-934q0 -183 114 -296t308 -113t308 113t114 296v934h137v-943q0 -238 -151 -382t-407 -144t-408 144q-151 144 -151 382v943h136zM811 1577h-128l-287 297h155l190 -203h12l190 203h155z" />
    <glyph glyph-name="ucaron" unicode="&#x1d4;" horiz-adv-x="1211" 
d="M1038 1077v-1077h-125v194h-12q-41 -100 -135 -156t-223 -56q-179 0 -281 105t-102 290v700h131v-667q-1 -150 73 -229t218 -79t235 91q90 91 90 244v640h131zM680 1228h-154l-275 332h153l193 -243h12l193 243h153z" />
    <glyph glyph-name="Udieresismacron" unicode="&#x1d5;" horiz-adv-x="1494" 
d="M929 1580q-41 0 -70 29t-29 70t29 70t70 29t70 -29t29 -70t-29 -70t-70 -29zM565 1580q-41 0 -70 29t-29 70t29 70t70 29t70 -29t29 -70t-29 -70t-70 -29zM428 1915v101h638v-101h-638zM325 1443v-934q0 -183 114 -296t308 -113t308 113t114 296v934h137v-943
q0 -238 -151 -382t-407 -144t-408 144q-151 144 -151 382v943h136z" />
    <glyph glyph-name="udieresismacron" unicode="&#x1d6;" horiz-adv-x="1211" 
d="M936 1614h-662v106h662v-106zM785 1240q-41 0 -70 29t-29 71t29 70t70 28t70 -28t29 -70t-29 -71t-70 -29zM421 1240q-41 0 -70 29t-29 71t29 70t70 28t70 -28t29 -70t-29 -71t-70 -29zM1038 1077v-1077h-125v194h-12q-41 -100 -135 -156t-223 -56q-179 0 -281 105
t-102 290v700h131v-667q-1 -150 73 -229t218 -79t235 91q90 91 90 244v640h131z" />
    <glyph glyph-name="Udieresisacute" unicode="&#x1d7;" horiz-adv-x="1494" 
d="M325 1443v-934q0 -183 114 -296t308 -113t308 113t114 296v934h137v-943q0 -238 -151 -382t-407 -144t-408 144q-151 144 -151 382v943h136zM930 1568q-42 0 -73 30q-30 30 -30 72t30 72q31 30 73 30t72 -30t29 -72q1 -42 -29 -72t-72 -30zM566 1568q-42 0 -73 30
q-30 30 -30 72t30 72q31 30 73 30t72 -30t29 -72q1 -42 -29 -72t-72 -30zM673 1839l231 217h174l-267 -217h-138z" />
    <glyph glyph-name="udieresisacute" unicode="&#x1d8;" horiz-adv-x="1211" 
d="M1038 1077v-1077h-125v194h-12q-41 -100 -135 -156t-223 -56q-179 0 -281 105t-102 290v700h131v-667q-1 -150 73 -229t218 -79t235 91q90 91 90 244v640h131zM786 1228q-42 0 -73 30q-30 30 -30 72t30 72q31 30 73 30t72 -30t29 -72q1 -42 -29 -72t-72 -30zM422 1228
q-42 0 -73 30q-30 30 -30 72t30 72q31 30 73 30t72 -30t29 -72q1 -42 -29 -72t-72 -30zM521 1554l207 296h154l-229 -296h-132z" />
    <glyph glyph-name="Udieresiscaron" unicode="&#x1d9;" horiz-adv-x="1494" 
d="M325 1443v-934q0 -183 114 -296t308 -113t308 113t114 296v934h137v-943q0 -238 -151 -382t-407 -144t-408 144q-151 144 -151 382v943h136zM820 1832h-146l-285 224h172l180 -146h12l180 146h172zM929 1580q-41 0 -70 29t-29 70t29 70t70 29t70 -29t29 -70t-29 -70
t-70 -29zM565 1580q-41 0 -70 29t-29 70t29 70t70 29t70 -29t29 -70t-29 -70t-70 -29z" />
    <glyph glyph-name="udieresiscaron" unicode="&#x1da;" horiz-adv-x="1211" 
d="M1038 1077v-1077h-125v194h-12q-41 -100 -135 -156t-223 -56q-179 0 -281 105t-102 290v700h131v-667q-1 -150 73 -229t218 -79t235 91q90 91 90 244v640h131zM680 1548h-154l-275 306h154l192 -217h12l192 217h154zM785 1228q-41 0 -70 29t-29 71t29 70q29 29 70 29
t70 -29q29 -28 29 -70t-29 -71t-70 -29zM421 1228q-41 0 -70 29t-29 71t29 70q29 29 70 29t70 -29q29 -28 29 -70t-29 -71t-70 -29z" />
    <glyph glyph-name="Udieresisgrave" unicode="&#x1db;" horiz-adv-x="1494" 
d="M325 1443v-934q0 -183 114 -296t308 -113t308 113t114 296v934h137v-943q0 -238 -151 -382t-407 -144t-408 144q-151 144 -151 382v943h136zM930 1568q-42 0 -73 30q-30 30 -30 72t30 72q31 30 73 30t72 -30t29 -72q1 -42 -29 -72t-72 -30zM566 1568q-42 0 -73 30
q-30 30 -30 72t30 72q31 30 73 30t72 -30t29 -72q1 -42 -29 -72t-72 -30zM833 1839h-138l-267 217h175z" />
    <glyph glyph-name="udieresisgrave" unicode="&#x1dc;" horiz-adv-x="1211" 
d="M1038 1077v-1077h-125v194h-12q-41 -100 -135 -156t-223 -56q-179 0 -281 105t-102 290v700h131v-667q-1 -150 73 -229t218 -79t235 91q90 91 90 244v640h131zM786 1228q-42 0 -73 30q-30 30 -30 72t30 72q31 30 73 30t72 -30t29 -72q1 -42 -29 -72t-72 -30zM422 1228
q-42 0 -73 30q-30 30 -30 72t30 72q31 30 73 30t72 -30t29 -72q1 -42 -29 -72t-72 -30zM685 1554h-132l-229 296h154z" />
    <glyph glyph-name="Adieresismacron" unicode="&#x1de;" horiz-adv-x="1363" 
d="M864 1580q-41 0 -70 29t-29 70t29 70t70 29t70 -29t29 -70t-29 -70t-70 -29zM500 1580q-41 0 -70 29t-29 70t29 70t70 29t70 -29t29 -70t-29 -70t-70 -29zM363 1915v101h638v-101h-638zM675 1264l-255 -704h524l-256 704h-13zM1145 0l-160 442h-606l-160 -442h-145
l540 1443h136l539 -1443h-144z" />
    <glyph glyph-name="adieresismacron" unicode="&#x1df;" horiz-adv-x="1125" 
d="M900 1614h-662v106h662v-106zM749 1240q-41 0 -70 29t-29 71t29 70t70 28t70 -28t29 -70t-29 -71t-70 -29zM385 1240q-41 0 -70 29t-29 71t29 70t70 28t70 -28t29 -70t-29 -71t-70 -29zM106 296q0 142 100 222t288 94l337 22v104q-1 116 -69 178t-189 62t-197 -44
t-94 -123h-133q19 128 133 206t294 78q180 1 284 -93t103 -263v-739h-126v185h-12q-105 -203 -377 -203q-140 0 -240 86q-102 86 -102 228zM508 98q128 0 226 88t97 215v126l-319 -23q-271 -19 -271 -204q0 -92 70 -147q69 -55 197 -55z" />
    <glyph glyph-name="Adotmacron" unicode="&#x1e0;" horiz-adv-x="1363" 
d="M1004 1915h-644v101h644v-101zM682 1578q-44 0 -74 30t-30 74t30 74t74 30t74 -30t30 -74t-30 -74t-74 -30zM675 1264l-255 -704h524l-256 704h-13zM1145 0l-160 442h-606l-160 -442h-145l540 1443h136l539 -1443h-144z" />
    <glyph glyph-name="adotmacron" unicode="&#x1e1;" horiz-adv-x="1125" 
d="M897 1585h-662v106h662v-106zM564 1228q-44 0 -74 30t-29 73q-1 43 29 73t74 30t74 -30t29 -73q1 -43 -29 -73t-74 -30zM106 296q0 142 100 222t288 94l337 22v104q-1 116 -69 178t-189 62t-197 -44t-94 -123h-133q19 128 133 206t294 78q180 1 284 -93t103 -263v-739
h-126v185h-12q-105 -203 -377 -203q-140 0 -240 86q-102 86 -102 228zM508 98q128 0 226 88t97 215v126l-319 -23q-271 -19 -271 -204q0 -92 70 -147q69 -55 197 -55z" />
    <glyph glyph-name="AEmacron" unicode="&#x1e2;" horiz-adv-x="1955" 
d="M1727 1619h-644v105h644v-105zM1002 0v443h-581l-208 -443h-139l678 1443h1063v-124h-677v-526h640v-122h-640v-547h677v-124h-813zM1002 1327h-161l-365 -766h526v766z" />
    <glyph glyph-name="aemacron" unicode="&#x1e3;" horiz-adv-x="1880" 
d="M1281 1292h-662v106h662v-106zM511 98q128 0 224 90t96 219v111l-321 -21q-269 -19 -269 -199q0 -92 71 -146t199 -54zM1302 979q-146 0 -238 -97t-102 -260h667q-2 158 -92 258t-235 99zM1326 -18q-152 0 -262 72t-154 191h-12q-48 -123 -158 -193t-268 -70t-262 86
t-104 226t100 219t287 91l338 21v113q-1 116 -69 178t-189 62t-197 -44t-94 -123h-133q19 128 133 206t268 78q152 -1 245 -61t123 -164h13q47 99 149 162t231 63q211 1 333 -139t122 -383v-58h-804v-15q5 -182 101 -292t253 -109q226 0 300 167h133q-40 -134 -155 -209
q-116 -75 -268 -75z" />
    <glyph glyph-name="Gcaron" unicode="&#x1e6;" horiz-adv-x="1506" 
d="M1375 559q0 -269 -164 -429q-163 -160 -447 -160t-460 206t-177 545q0 340 176 546t467 206q232 0 392 -123t199 -329h-139q-45 155 -163 240t-289 85q-229 0 -366 -170t-137 -454q-1 -284 137 -455q138 -170 360 -170q222 -1 348 123q127 124 127 328v50h-440v121h576
v-160zM834 1577h-128l-287 297h155l190 -203h12l190 203h155z" />
    <glyph glyph-name="gcaron" unicode="&#x1e7;" horiz-adv-x="1242" 
d="M620 -404q-198 0 -315 76t-138 202h139q18 -75 98 -119t219 -44t229 76t91 207v242h-13q-48 -107 -142 -166t-219 -59q-207 1 -331 149t-123 392q0 244 124 394t330 149q123 0 223 -63t144 -168h12v213h126v-1093q0 -176 -128 -282t-326 -106zM945 550q1 192 -95 310
q-96 117 -256 117q-160 1 -252 -115t-92 -310t92 -308q92 -116 254 -116q160 0 254 115t95 307zM682 1228h-154l-275 332h153l193 -243h12l193 243h153z" />
    <glyph glyph-name="Kcaron" unicode="&#x1e8;" horiz-adv-x="1311" 
d="M701 1577h-128l-287 297h155l190 -203h12l190 203h155zM322 0h-137v1443h137v-746h12l683 746h171l-578 -623l637 -820h-177l-555 725l-193 -210v-515z" />
    <glyph glyph-name="kcaron" unicode="&#x1e9;" horiz-adv-x="1092" 
d="M308 1640h-128l-287 297h155l190 -203h12l190 203h155zM310 0h-131v1506h131v-933h12l526 504h164l-481 -462l503 -615h-168l-434 531l-122 -113v-418z" />
    <glyph glyph-name="Oogonek" unicode="&#x1ea;" horiz-adv-x="1561" 
d="M781 1346q-236 0 -375 -169t-139 -456t139 -455t374 -169t374 169t139 456t-138 456q-138 168 -374 168zM1008 -421q-86 0 -144 56t-57 142q0 118 109 201v12q-63 -20 -135 -20q-303 0 -479 202t-175 548q0 348 176 550q175 202 477 203q302 0 478 -202t175 -565
q0 -363 -211 -564q-57 -54 -129 -111t-101 -87q-64 -65 -64 -129q0 -65 34 -98t86 -33q50 0 87 15v-97q-41 -23 -127 -23z" />
    <glyph glyph-name="oogonek" unicode="&#x1eb;" horiz-adv-x="1208" 
d="M604 101q166 1 260 117t94 321t-94 321t-260 117q-166 -1 -260 -117t-94 -321t94 -321t260 -117zM766 -421q-80 0 -138 52t-58 134q0 115 110 213v12q-37 -8 -78 -8q-225 0 -356 150t-131 407q-1 257 131 407t358 149q226 1 358 -149t132 -406q0 -303 -209 -477
q-111 -101 -153 -157t-42 -110t34 -82q34 -30 88 -30t86 15v-97q-52 -23 -132 -23z" />
    <glyph glyph-name="Oogonekmacron" unicode="&#x1ec;" horiz-adv-x="1561" 
d="M1103 1619h-644v105h644v-105zM781 1346q-236 0 -375 -169t-139 -456t139 -455t374 -169t374 169t139 456t-138 456q-138 168 -374 168zM1008 -421q-86 0 -144 56t-57 142q0 118 109 201v12q-63 -20 -135 -20q-303 0 -479 202t-175 548q0 348 176 550q175 202 477 203
q302 0 478 -202t175 -565q0 -363 -211 -564q-57 -54 -129 -111t-101 -87q-64 -65 -64 -129q0 -65 34 -98t86 -33q50 0 87 15v-97q-41 -23 -127 -23z" />
    <glyph glyph-name="oogonekmacron" unicode="&#x1ed;" horiz-adv-x="1208" 
d="M935 1292h-662v106h662v-106zM604 101q166 1 260 117t94 321t-94 321t-260 117q-166 -1 -260 -117t-94 -321t94 -321t260 -117zM766 -421q-80 0 -138 52t-58 134q0 115 110 213v12q-37 -8 -78 -8q-225 0 -356 150t-131 407q-1 257 131 407t358 149q226 1 358 -149
t132 -406q0 -303 -209 -477q-111 -101 -153 -157t-42 -110t34 -82q34 -30 88 -30t86 15v-97q-52 -23 -132 -23z" />
    <glyph glyph-name="u01F1" unicode="&#x1f1;" horiz-adv-x="2799" 
d="M322 1319v-1195h330q263 0 408 158t145 439t-145 439t-408 159h-330zM185 1443h475q327 0 506 -191q179 -190 179 -530q-1 -340 -179 -531t-506 -191h-475v1443zM1609 0v99l863 1208v12h-834v124h1011v-100l-860 -1207v-12h872v-124h-1052z" />
    <glyph glyph-name="u01F2" unicode="&#x1f2;" horiz-adv-x="2553" 
d="M322 1319v-1195h330q263 0 408 158t145 439t-145 439t-408 159h-330zM185 1443h475q327 0 506 -191q179 -190 179 -530q-1 -340 -179 -531t-506 -191h-475v1443zM1602 0v100l660 854v12h-659v111h816v-101l-658 -853v-12h660v-111h-819z" />
    <glyph glyph-name="u01F3" unicode="&#x1f3;" horiz-adv-x="2337" 
d="M598 977q-160 0 -254 -119q-94 -120 -94 -320t94 -318t254 -119q160 0 255 119t95 318t-96 319t-254 120zM571 -18q-206 0 -331 152t-125 404q-1 250 125 404t331 153q123 0 220 -61t143 -167h12v639h131v-1506h-126v215h-12q-49 -109 -147 -171t-221 -62zM1387 0v100
l660 854v12h-659v111h816v-101l-658 -853v-12h660v-111h-819z" />
    <glyph glyph-name="Gacute" unicode="&#x1f4;" horiz-adv-x="1506" 
d="M1375 559q0 -269 -164 -429q-163 -160 -447 -160t-460 206t-177 545q0 340 176 546t467 206q232 0 392 -123t199 -329h-139q-45 155 -163 240t-289 85q-229 0 -366 -170t-137 -454q-1 -284 137 -455q138 -170 360 -170q222 -1 348 123q127 124 127 328v50h-440v121h576
v-160zM683 1577l310 297h174l-326 -297h-158z" />
    <glyph glyph-name="gacute" unicode="&#x1f5;" horiz-adv-x="1242" 
d="M620 -404q-198 0 -315 76t-138 202h139q18 -75 98 -119t219 -44t229 76t91 207v242h-13q-48 -107 -142 -166t-219 -59q-207 1 -331 149t-123 392q0 244 124 394t330 149q123 0 223 -63t144 -168h12v213h126v-1093q0 -176 -128 -282t-326 -106zM945 550q1 192 -95 310
q-96 117 -256 117q-160 1 -252 -115t-92 -310t92 -308q92 -116 254 -116q160 0 254 115t95 307zM516 1267l250 327h168l-269 -327h-149z" />
    <glyph glyph-name="Ngrave" unicode="&#x1f8;" horiz-adv-x="1494" 
d="M320 0h-135v1443h135l841 -1198h13v1198h135v-1443h-132l-844 1199h-13v-1199zM522 1874l309 -297h-157l-326 297h174z" />
    <glyph glyph-name="ngrave" unicode="&#x1f9;" horiz-adv-x="1206" 
d="M169 0v1077h125v-194h13q43 100 138 156t223 56q180 1 279 -103t99 -292v-700h-131v667q0 310 -281 310q-150 -1 -242 -93t-92 -244v-640h-131zM725 1267h-149l-269 327h168z" />
    <glyph glyph-name="Aringacute" unicode="&#x1fa;" horiz-adv-x="1363" 
d="M767 2138h147l-165 -169h-126zM682 1538q-78 0 -132 54q-55 54 -55 132t55 130q55 54 133 54q79 0 133 -54t54 -130q0 -78 -55 -132t-133 -54zM577 1723q1 -45 31 -76t74 -31t76 31q30 31 30 76t-30 75t-76 31q-44 -1 -74 -31t-31 -75zM675 1264l-255 -704h524l-256 704
h-13zM1145 0l-160 442h-606l-160 -442h-145l540 1443h136l539 -1443h-144z" />
    <glyph glyph-name="aringacute" unicode="&#x1fb;" horiz-adv-x="1125" 
d="M499 1669l164 206h157l-189 -206h-132zM456 1396q0 -46 31 -78t77 -31q46 -1 77 31t31 78t-31 78t-77 32t-77 -32t-31 -78zM564 1209q-80 1 -136 55t-55 133q-1 79 55 133t136 55q80 -1 136 -55t55 -133q1 -79 -55 -133t-136 -55zM106 296q0 142 100 222t288 94l337 22
v104q-1 116 -69 178t-189 62t-197 -44t-94 -123h-133q19 128 133 206t294 78q180 1 284 -93t103 -263v-739h-126v185h-12q-105 -203 -377 -203q-140 0 -240 86q-102 86 -102 228zM508 98q128 0 226 88t97 215v126l-319 -23q-271 -19 -271 -204q0 -92 70 -147q69 -55 197 -55
z" />
    <glyph glyph-name="AEacute" unicode="&#x1fc;" horiz-adv-x="1955" 
d="M1002 0v443h-581l-208 -443h-139l678 1443h1063v-124h-677v-526h640v-122h-640v-547h677v-124h-813zM1002 1327h-161l-365 -766h526v766zM1318 1577l310 297h174l-326 -297h-158z" />
    <glyph glyph-name="aeacute" unicode="&#x1fd;" horiz-adv-x="1880" 
d="M511 98q128 0 224 90t96 219v111l-321 -21q-269 -19 -269 -199q0 -92 71 -146t199 -54zM1302 979q-146 0 -238 -97t-102 -260h667q-2 158 -92 258t-235 99zM1326 -18q-152 0 -262 72t-154 191h-12q-48 -123 -158 -193t-268 -70t-262 86t-104 226t100 219t287 91l338 21
v113q-1 116 -69 178t-189 62t-197 -44t-94 -123h-133q19 128 133 206t268 78q152 -1 245 -61t123 -164h13q47 99 149 162t231 63q211 1 333 -139t122 -383v-58h-804v-15q5 -182 101 -292t253 -109q226 0 300 167h133q-40 -134 -155 -209q-116 -75 -268 -75zM861 1267
l250 327h168l-269 -327h-149z" />
    <glyph glyph-name="Oslashacute" unicode="&#x1fe;" horiz-adv-x="1530" 
d="M1433 726q-1 -352 -175 -554t-477 -202q-254 0 -423 146l-142 -186l-79 59l152 198q-162 201 -162 541t176 542t478 203q236 0 399 -127l128 166l78 -55l-136 -177q183 -202 183 -554zM781 1346q-236 0 -375 -168t-139 -440q0 -271 111 -436l719 935q-127 109 -316 109z
M797 97q221 -1 359 169t137 452q0 282 -129 449l-722 -941q134 -129 355 -129zM1162 1874l-326 -297h-158l310 297h174z" />
    <glyph glyph-name="oslashacute" unicode="&#x1ff;" horiz-adv-x="1208" 
d="M1094 544q0 -262 -132 -412t-358 -150q-164 0 -282 82l-85 -121l-82 55l93 131q-133 152 -133 410q-1 258 131 407t358 149q159 0 276 -77l82 116l79 -51l-89 -126q142 -150 142 -413zM604 977q-166 -1 -260 -117t-94 -311t77 -309l480 676q-84 61 -203 61zM604 101
q166 1 260 117t94 315t-83 314l-480 -680q86 -66 209 -66zM908 1594l-269 -327h-149l250 327h168z" />
    <glyph glyph-name="Adblgrave" unicode="&#x200;" horiz-adv-x="1363" 
d="M968 1577h-158l-326 297h174zM604 1577h-157l-326 297h174zM675 1264l-255 -704h524l-256 704h-13zM1145 0l-160 442h-606l-160 -442h-145l540 1443h136l539 -1443h-144z" />
    <glyph glyph-name="adblgrave" unicode="&#x201;" horiz-adv-x="1125" 
d="M831 1267h-140l-271 327h161zM489 1267h-141l-271 327h161zM106 296q0 142 100 222t288 94l337 22v104q-1 116 -69 178t-189 62t-197 -44t-94 -123h-133q19 128 133 206t294 78q180 1 284 -93t103 -263v-739h-126v185h-12q-105 -203 -377 -203q-140 0 -240 86
q-102 86 -102 228zM508 98q128 0 226 88t97 215v126l-319 -23q-271 -19 -271 -204q0 -92 70 -147q69 -55 197 -55z" />
    <glyph glyph-name="Ainvertedbreve" unicode="&#x202;" horiz-adv-x="1363" 
d="M350 1577q0 125 90 199t242 75q152 -1 242 -75t90 -199h-118q0 80 -58 128t-156 48t-156 -48t-58 -128h-118zM675 1264l-255 -704h524l-256 704h-13zM1145 0l-160 442h-606l-160 -442h-145l540 1443h136l539 -1443h-144z" />
    <glyph glyph-name="ainvertedbreve" unicode="&#x203;" horiz-adv-x="1125" 
d="M235 1228q-1 134 89 216t243 82t243 -82t89 -216h-118q0 90 -57 144t-157 54t-157 -54t-57 -144h-118zM106 296q0 142 100 222t288 94l337 22v104q-1 116 -69 178t-189 62t-197 -44t-94 -123h-133q19 128 133 206t294 78q180 1 284 -93t103 -263v-739h-126v185h-12
q-105 -203 -377 -203q-140 0 -240 86q-102 86 -102 228zM508 98q128 0 226 88t97 215v126l-319 -23q-271 -19 -271 -204q0 -92 70 -147q69 -55 197 -55z" />
    <glyph glyph-name="Edblgrave" unicode="&#x204;" horiz-adv-x="1197" 
d="M1057 124v-124h-872v1443h872v-124h-735v-519h698v-122h-698v-554h735zM907 1577h-158l-326 297h174zM543 1577h-157l-326 297h174z" />
    <glyph glyph-name="edblgrave" unicode="&#x205;" horiz-adv-x="1174" 
d="M859 1267h-140l-271 327h161zM517 1267h-141l-271 327h161zM597 -18q-222 0 -352 150t-130 406q1 254 131 406t348 151q218 0 341 -143q124 -143 124 -390v-58h-809v-6q6 -183 100 -291t250 -108q114 -1 194 43t115 124h133q-40 -132 -158 -208t-287 -76zM594 979
q-146 -1 -240 -101t-103 -266h671q-2 167 -92 267t-236 100z" />
    <glyph glyph-name="Einvertedbreve" unicode="&#x206;" horiz-adv-x="1197" 
d="M289 1577q-1 125 89 199t243 75q153 -1 243 -75t89 -199h-118q0 80 -58 128t-156 48t-156 -48t-58 -128h-118zM1057 124v-124h-872v1443h872v-124h-735v-519h698v-122h-698v-554h735z" />
    <glyph glyph-name="einvertedbreve" unicode="&#x207;" horiz-adv-x="1174" 
d="M263 1228q-1 134 89 216t243 82t243 -82t89 -216h-118q0 90 -57 144t-157 54t-157 -54t-57 -144h-118zM597 -18q-222 0 -352 150t-130 406q1 254 131 406t348 151q218 0 341 -143q124 -143 124 -390v-58h-809v-6q6 -183 100 -291t250 -108q114 -1 194 43t115 124h133
q-40 -132 -158 -208t-287 -76zM594 979q-146 -1 -240 -101t-103 -266h671q-2 167 -92 267t-236 100z" />
    <glyph glyph-name="Idblgrave" unicode="&#x208;" horiz-adv-x="507" 
d="M540 1577h-158l-326 297h174zM176 1577h-157l-326 297h174zM322 0h-137v1443h137v-1443z" />
    <glyph glyph-name="idblgrave" unicode="&#x209;" horiz-adv-x="489" 
d="M508 1267h-140l-271 327h161zM166 1267h-141l-271 327h161zM179 0v1077h131v-1077h-131z" />
    <glyph glyph-name="Iinvertedbreve" unicode="&#x20a;" horiz-adv-x="507" 
d="M-78 1577q0 125 90 199t242 75q152 -1 242 -75t90 -199h-118q0 80 -58 128t-156 48t-156 -48t-58 -128h-118zM322 0h-137v1443h137v-1443z" />
    <glyph glyph-name="iinvertedbreve" unicode="&#x20b;" horiz-adv-x="489" 
d="M-88 1228q0 134 90 216t242 82t242 -82t90 -216h-118q0 90 -57 144t-157 54t-157 -54t-57 -144h-118zM179 0v1077h131v-1077h-131z" />
    <glyph glyph-name="Odblgrave" unicode="&#x20c;" horiz-adv-x="1561" 
d="M782 1346q-236 0 -376 -168q-139 -168 -139 -456q0 -286 138 -456q137 -170 375 -169q238 -1 376 169t137 456q1 286 -137 456q-138 168 -374 168zM782 1473q302 0 476 -202t175 -549q-1 -348 -175 -550t-478 -202t-478 202q-175 202 -175 550q0 346 176 548
q177 202 479 203zM1067 1577h-158l-326 297h174zM703 1577h-157l-326 297h174z" />
    <glyph glyph-name="odblgrave" unicode="&#x20d;" horiz-adv-x="1208" 
d="M868 1267h-140l-271 327h161zM526 1267h-141l-271 327h161zM604 -18q-226 0 -358 150t-131 407q-1 258 131 407t358 149t358 -149t132 -407q0 -257 -132 -407t-358 -150zM604 101q166 1 260 117t94 321t-94 321t-260 117q-166 -1 -260 -117t-94 -321t94 -321t260 -117z
" />
    <glyph glyph-name="Oinvertedbreve" unicode="&#x20e;" horiz-adv-x="1561" 
d="M782 1346q-236 0 -376 -168q-139 -168 -139 -456q0 -286 138 -456q137 -170 375 -169q238 -1 376 169t137 456q1 286 -137 456q-138 168 -374 168zM782 1473q302 0 476 -202t175 -549q-1 -348 -175 -550t-478 -202t-478 202q-175 202 -175 550q0 346 176 548
q177 202 479 203zM449 1577q-1 125 89 199t243 75q153 -1 243 -75t89 -199h-118q0 80 -58 128t-156 48t-156 -48t-58 -128h-118z" />
    <glyph glyph-name="oinvertedbreve" unicode="&#x20f;" horiz-adv-x="1208" 
d="M272 1228q0 134 90 216t242 82t242 -82t90 -216h-118q0 90 -57 144t-157 54t-157 -54t-57 -144h-118zM604 -18q-226 0 -358 150t-131 407q-1 258 131 407t358 149t358 -149t132 -407q0 -257 -132 -407t-358 -150zM604 101q166 1 260 117t94 321t-94 321t-260 117
q-166 -1 -260 -117t-94 -321t94 -321t260 -117z" />
    <glyph glyph-name="Rdblgrave" unicode="&#x210;" horiz-adv-x="1309" 
d="M322 591v-591h-137v1443h517q211 -1 336 -115t125 -307q0 -153 -82 -261t-227 -147l350 -613h-160l-332 591h-390zM322 1321v-608h369q157 0 245 80t87 223q0 143 -90 224t-248 81h-363zM877 1577h-158l-326 297h174zM513 1577h-157l-326 297h174z" />
    <glyph glyph-name="rdblgrave" unicode="&#x211;" horiz-adv-x="754" 
d="M638 1267h-140l-271 327h161zM296 1267h-141l-271 327h161zM169 0v1077h125v-177h13q27 88 110 142t169 53q86 0 122 -9v-131q-45 13 -117 13q-125 0 -208 -84t-83 -212v-672h-131z" />
    <glyph glyph-name="Rinvertedbreve" unicode="&#x212;" horiz-adv-x="1309" 
d="M259 1577q-1 125 89 199t243 75q153 -1 243 -75t89 -199h-118q0 80 -58 128t-156 48t-156 -48t-58 -128h-118zM322 591v-591h-137v1443h517q211 -1 336 -115t125 -307q0 -153 -82 -261t-227 -147l350 -613h-160l-332 591h-390zM322 1321v-608h369q157 0 245 80t87 223
q0 143 -90 224t-248 81h-363z" />
    <glyph glyph-name="rinvertedbreve" unicode="&#x213;" horiz-adv-x="754" 
d="M42 1228q0 134 90 216t242 82t242 -82t90 -216h-118q0 90 -57 144t-157 54t-157 -54t-57 -144h-118zM169 0v1077h125v-177h13q27 88 110 142t169 53q86 0 122 -9v-131q-45 13 -117 13q-125 0 -208 -84t-83 -212v-672h-131z" />
    <glyph glyph-name="Udblgrave" unicode="&#x214;" horiz-adv-x="1494" 
d="M325 1443v-934q0 -183 114 -296t308 -113t308 113t114 296v934h137v-943q0 -238 -151 -382t-407 -144t-408 144q-151 144 -151 382v943h136zM1033 1577h-158l-326 297h174zM669 1577h-157l-326 297h174z" />
    <glyph glyph-name="udblgrave" unicode="&#x215;" horiz-adv-x="1211" 
d="M867 1267h-140l-271 327h161zM525 1267h-141l-271 327h161zM1038 1077v-1077h-125v194h-12q-41 -100 -135 -156t-223 -56q-179 0 -281 105t-102 290v700h131v-667q-1 -150 73 -229t218 -79t235 91q90 91 90 244v640h131z" />
    <glyph glyph-name="Uinvertedbreve" unicode="&#x216;" horiz-adv-x="1494" 
d="M415 1577q-1 125 89 199t243 75q153 -1 243 -75t89 -199h-118q0 80 -58 128t-156 48t-156 -48t-58 -128h-118zM325 1443v-934q0 -183 114 -296t308 -113t308 113t114 296v934h137v-943q0 -238 -151 -382t-407 -144t-408 144q-151 144 -151 382v943h136z" />
    <glyph glyph-name="uinvertedbreve" unicode="&#x217;" horiz-adv-x="1211" 
d="M271 1228q-1 134 89 216t243 82t243 -82t89 -216h-118q0 90 -57 144t-157 54t-157 -54t-57 -144h-118zM1038 1077v-1077h-125v194h-12q-41 -100 -135 -156t-223 -56q-179 0 -281 105t-102 290v700h131v-667q-1 -150 73 -229t218 -79t235 91q90 91 90 244v640h131z" />
    <glyph glyph-name="Scommaaccent" unicode="&#x218;" horiz-adv-x="1284" 
d="M624 -506h-127l102 364h141zM655 95q163 0 268 80q105 79 105 191t-78 180t-244 109l-165 42q-203 49 -294 139t-91 252t138 273q138 112 350 112q212 -1 351 -109t150 -274h-138q-17 116 -115 187t-249 71t-249 -76t-98 -183q0 -105 72 -165t237 -101l143 -36
q224 -55 322 -149t98 -247q0 -189 -144 -305t-373 -116q-231 0 -377 112t-159 293h138q15 -124 127 -202t275 -78z" />
    <glyph glyph-name="scommaaccent" unicode="&#x219;" horiz-adv-x="1058" 
d="M510 -506h-127l102 364h141zM144 800q0 120 112 208q112 87 276 87q164 1 271 -75t125 -204h-129q-17 76 -89 122t-178 45q-106 0 -182 -53q-74 -53 -74 -126t52 -114t162 -67l148 -35q159 -38 234 -106t75 -196q0 -126 -119 -215t-296 -89t-291 78t-130 210h136
q22 -82 97 -129q74 -47 192 -47t197 55t79 132t-51 121t-160 69l-163 39q-152 38 -223 104t-71 186z" />
    <glyph glyph-name="Tcommaaccent" unicode="&#x21a;" horiz-adv-x="1280" 
d="M708 0h-136v1319h-484v124h1104v-124h-484v-1319zM619 -506h-127l102 364h141z" />
    <glyph glyph-name="tcommaaccent" unicode="&#x21b;" horiz-adv-x="724" 
d="M237 1353h131v-276h256v-111h-256v-668q0 -100 40 -144t131 -44q47 0 80 3v-112q-40 -7 -94 -7q-155 0 -221 64t-67 210v698h-174v111h174v276zM382 -506h-127l102 364h141z" />
    <glyph glyph-name="Hcaron" unicode="&#x21e;" horiz-adv-x="1488" 
d="M808 1577h-128l-287 297h155l190 -203h12l190 203h155zM1303 0h-137v677h-844v-677h-137v1443h137v-642h844v642h137v-1443z" />
    <glyph glyph-name="hcaron" unicode="&#x21f;" horiz-adv-x="1224" 
d="M308 1640h-128l-287 297h155l190 -203h12l190 203h155zM933 667q0 310 -285 310q-152 0 -245 -94t-93 -243v-640h-131v1506h131v-623h12q44 100 138 156t222 56q182 0 282 -104t100 -291v-700h-131v667z" />
    <glyph glyph-name="Adotaccent" unicode="&#x226;" horiz-adv-x="1363" 
d="M682 1577q-44 1 -74 31t-31 73q1 43 31 74t74 31t74 -31t31 -74q-1 -43 -31 -73t-74 -31zM675 1264l-255 -704h524l-256 704h-13zM1145 0l-160 442h-606l-160 -442h-145l540 1443h136l539 -1443h-144z" />
    <glyph glyph-name="adotaccent" unicode="&#x227;" horiz-adv-x="1125" 
d="M567 1280q-45 0 -77 32t-32 78q0 45 32 77t77 32t77 -32t32 -77q0 -46 -32 -78t-77 -32zM106 296q0 142 100 222t288 94l337 22v104q-1 116 -69 178t-189 62t-197 -44t-94 -123h-133q19 128 133 206t294 78q180 1 284 -93t103 -263v-739h-126v185h-12
q-105 -203 -377 -203q-140 0 -240 86q-102 86 -102 228zM508 98q128 0 226 88t97 215v126l-319 -23q-271 -19 -271 -204q0 -92 70 -147q69 -55 197 -55z" />
    <glyph glyph-name="Ecedilla" unicode="&#x228;" horiz-adv-x="1197" 
d="M1057 1319h-735v-519h698v-122h-698v-554h735v-124h-371l-57 -142q101 0 157 -42t56 -120q0 -80 -63 -130t-155 -50t-156 20v87q50 -18 118 -18t105 24q36 24 36 66q0 81 -155 81h-56v67l64 157h-395v1443h872v-124z" />
    <glyph glyph-name="ecedilla" unicode="&#x229;" horiz-adv-x="1174" 
d="M1059 504h-809v-6q6 -183 100 -291t250 -108q114 -1 194 43t115 124h133q-36 -120 -138 -194t-247 -87l-51 -127q100 0 156 -42t57 -120q0 -80 -63 -130q-62 -50 -154 -50t-157 20v87q51 -18 119 -18t104 24t36 66q0 81 -155 81h-56v67l57 141q-201 16 -318 164t-117 396
q1 248 131 400t348 151q218 0 341 -143q124 -143 124 -390v-58zM594 979q-146 -1 -240 -101t-103 -266h671q-2 167 -92 267t-236 100z" />
    <glyph glyph-name="Odieresismacron" unicode="&#x22a;" horiz-adv-x="1561" 
d="M963 1580q-41 0 -70 29t-29 70t29 70t70 29t70 -29t29 -70t-29 -70t-70 -29zM599 1580q-41 0 -70 29t-29 70t29 70t70 29t70 -29t29 -70t-29 -70t-70 -29zM462 1915v101h638v-101h-638zM782 1346q-236 0 -376 -168q-139 -168 -139 -456q0 -286 138 -456
q137 -170 375 -169q238 -1 376 169t137 456q1 286 -137 456q-138 168 -374 168zM782 1473q302 0 476 -202t175 -549q-1 -348 -175 -550t-478 -202t-478 202q-175 202 -175 550q0 346 176 548q177 202 479 203z" />
    <glyph glyph-name="odieresismacron" unicode="&#x22b;" horiz-adv-x="1208" 
d="M604 -18q-226 0 -358 150t-131 407q-1 258 131 407t358 149t358 -149t132 -407q0 -257 -132 -407t-358 -150zM604 101q166 1 260 117t94 321t-94 321t-260 117q-166 -1 -260 -117t-94 -321t94 -321t260 -117zM937 1614h-662v106h662v-106zM786 1240q-41 0 -70 29t-29 71
t29 70t70 28t70 -28t29 -70t-29 -71t-70 -29zM422 1240q-41 0 -70 29t-29 71t29 70t70 28t70 -28t29 -70t-29 -71t-70 -29z" />
    <glyph glyph-name="Otildemacron" unicode="&#x22c;" horiz-adv-x="1561" 
d="M782 1346q-236 0 -376 -168q-139 -168 -139 -456q0 -286 138 -456q137 -170 375 -169q238 -1 376 169t137 456q1 286 -137 456q-138 168 -374 168zM782 1473q302 0 476 -202t175 -549q-1 -348 -175 -550t-478 -202t-478 202q-175 202 -175 550q0 346 176 548
q177 202 479 203zM648 1710q-96 0 -100 -122h-106q0 98 56 160t141 62q87 0 139 -48q22 -20 40 -40q46 -48 92 -48t74 32t31 90h105q0 -97 -56 -160t-142 -63q-86 1 -138 49q-22 20 -40 40q-46 48 -96 48zM1103 1915h-644v101h644v-101z" />
    <glyph glyph-name="otildemacron" unicode="&#x22d;" horiz-adv-x="1208" 
d="M604 -18q-226 0 -358 150t-131 407q-1 258 131 407t358 149t358 -149t132 -407q0 -257 -132 -407t-358 -150zM604 101q166 1 260 117t94 321t-94 321t-260 117q-166 -1 -260 -117t-94 -321t94 -321t260 -117zM937 1618h-662v106h662v-106zM467 1388q-104 0 -104 -158
h-111q0 122 56 192t144 70t148 -56q24 -23 47 -46q54 -56 93 -56q104 0 104 158h110q0 -122 -56 -192t-145 -70t-147 56q-24 23 -46 46q-54 56 -93 56z" />
    <glyph glyph-name="Odotaccent" unicode="&#x22e;" horiz-adv-x="1561" 
d="M782 1346q-236 0 -376 -168q-139 -168 -139 -456q0 -286 138 -456q137 -170 375 -169q238 -1 376 169t137 456q1 286 -137 456q-138 168 -374 168zM782 1473q302 0 476 -202t175 -549q-1 -348 -175 -550t-478 -202t-478 202q-175 202 -175 550q0 346 176 548
q177 202 479 203zM781 1577q-45 1 -75 31t-30 73t31 74t74 31t74 -31t31 -74t-30 -73t-75 -31z" />
    <glyph glyph-name="odotaccent" unicode="&#x22f;" horiz-adv-x="1208" 
d="M604 -18q-226 0 -358 150t-131 407q-1 258 131 407t358 149t358 -149t132 -407q0 -257 -132 -407t-358 -150zM604 101q166 1 260 117t94 321t-94 321t-260 117q-166 -1 -260 -117t-94 -321t94 -321t260 -117zM604 1280q-45 0 -77 32t-32 78q0 45 32 77t77 32t77 -32
t32 -77q0 -46 -32 -78t-77 -32z" />
    <glyph glyph-name="Odotaccentmacron" unicode="&#x230;" horiz-adv-x="1561" 
d="M782 1346q-236 0 -376 -168q-139 -168 -139 -456q0 -286 138 -456q137 -170 375 -169q238 -1 376 169t137 456q1 286 -137 456q-138 168 -374 168zM782 1473q302 0 476 -202t175 -549q-1 -348 -175 -550t-478 -202t-478 202q-175 202 -175 550q0 346 176 548
q177 202 479 203zM1103 1915h-644v101h644v-101zM781 1578q-43 0 -73 30t-31 74q1 44 31 74t73 30t73 -30t31 -74q-1 -44 -31 -74t-73 -30z" />
    <glyph glyph-name="odotaccentmacron" unicode="&#x231;" horiz-adv-x="1208" 
d="M937 1585h-662v106h662v-106zM604 1228q-44 0 -74 30t-29 73q-1 43 29 73t74 30t74 -30t29 -73q1 -43 -29 -73t-74 -30zM604 -18q-226 0 -358 150t-131 407q-1 258 131 407t358 149t358 -149t132 -407q0 -257 -132 -407t-358 -150zM604 101q166 1 260 117t94 321t-94 321
t-260 117q-166 -1 -260 -117t-94 -321t94 -321t260 -117z" />
    <glyph glyph-name="Ymacron" unicode="&#x232;" horiz-adv-x="1321" 
d="M983 1619h-644v105h644v-105zM729 0h-136v624l-518 819h157l423 -680h12l423 680h156l-517 -819v-624z" />
    <glyph glyph-name="ymacron" unicode="&#x233;" horiz-adv-x="1079" 
d="M867 1292h-662v106h662v-106zM247 -375q-40 0 -61 4v113q22 -3 78 -3t102 42t83 145l22 67l-404 1084h142l326 -934h12l325 934h140l-419 -1129q-71 -190 -142 -256t-204 -67z" />
    <glyph glyph-name="dotlessj" unicode="&#x237;" horiz-adv-x="480" 
d="M306 1077v-1158q0 -156 -75 -227t-233 -71h-30v113h27q98 0 139 42t41 140v1161h131z" />
    <glyph glyph-name="circumflex" unicode="&#x2c6;" horiz-adv-x="1000" 
d="M577 1560l275 -332h-153l-193 243h-12l-193 -243h-153l275 332h154z" />
    <glyph glyph-name="caron" unicode="&#x2c7;" horiz-adv-x="1000" 
d="M577 1228h-154l-275 332h153l193 -243h12l193 243h153z" />
    <glyph glyph-name="breve" unicode="&#x2d8;" horiz-adv-x="986" 
d="M163 1538h119q0 -90 56 -144t155 -54t155 54t56 144h119q-1 -134 -89 -216t-241 -82t-241 82t-89 216z" />
    <glyph glyph-name="dotaccent" unicode="&#x2d9;" horiz-adv-x="986" 
d="M493 1280q-45 0 -77 32t-32 78q0 45 32 77t77 32t77 -32t32 -77q0 -46 -32 -78t-77 -32z" />
    <glyph glyph-name="ring" unicode="&#x2da;" horiz-adv-x="1000" 
d="M500 1313q53 1 89 37t36 89t-36 89t-89 36t-89 -36t-36 -89t36 -89t89 -37zM500 1228q-89 0 -151 61t-62 149t62 150q62 61 151 61t151 -61q62 -62 62 -150t-62 -149t-151 -61z" />
    <glyph glyph-name="ogonek" unicode="&#x2db;" horiz-adv-x="887" 
d="M480 -421q-86 1 -144 53t-58 135q0 154 168 285l94 -17q-65 -52 -103 -115t-38 -118q-1 -54 31 -86t86 -32t91 15v-97q-41 -23 -127 -23z" />
    <glyph glyph-name="tilde" unicode="&#x2dc;" horiz-adv-x="999" 
d="M363 1410q-104 0 -104 -158h-111q0 122 56 192t144 70t148 -56q24 -23 47 -46q54 -56 93 -56q104 0 104 158h110q0 -122 -56 -192t-145 -70t-147 56q-24 23 -46 46q-54 56 -93 56z" />
    <glyph glyph-name="hungarumlaut" unicode="&#x2dd;" horiz-adv-x="986" 
d="M107 1264l250 330h161l-271 -330h-140zM459 1264l250 330h161l-271 -330h-140z" />
    <glyph glyph-name="gravecmb" unicode="&#x300;" 
d="M97 1267h-149l-269 327h168z" />
    <glyph glyph-name="acutecmb" unicode="&#x301;" 
d="M-89 1267l250 327h168l-269 -327h-149z" />
    <glyph glyph-name="circumflexcmb" unicode="&#x302;" 
d="M77 1560l275 -332h-153l-193 243h-12l-193 -243h-153l275 332h154z" />
    <glyph glyph-name="tildecmb" unicode="&#x303;" 
d="M-136 1388q-104 0 -104 -158h-111q0 122 56 192t144 70q89 0 149 -56q24 -23 46 -46q54 -56 93 -56q104 0 104 158h110q0 -122 -56 -192t-145 -70t-147 56q-24 23 -46 46q-54 56 -93 56z" />
    <glyph glyph-name="macroncmb" unicode="&#x304;" 
d="M331 1292h-662v106h662v-106z" />
    <glyph glyph-name="brevecmb" unicode="&#x306;" 
d="M-331 1538h119q0 -90 56 -144t155 -54t155 54t56 144h119q-1 -134 -89 -216t-241 -82t-241 82t-89 216z" />
    <glyph glyph-name="dotaccentcmb" unicode="&#x307;" 
d="M0 1280q-45 0 -77 32t-32 78q0 45 32 77t77 32t77 -32t32 -77q0 -46 -32 -78t-77 -32z" />
    <glyph glyph-name="dieresiscmb" unicode="&#x308;" 
d="M182 1228q-42 0 -72 30t-30 72t30 72t72 30t72 -30t30 -72t-30 -72t-72 -30zM-182 1228q-42 0 -72 30t-30 72t30 72t72 30t72 -30t30 -72t-30 -72t-72 -30z" />
    <glyph glyph-name="hookabovecmb" unicode="&#x309;" 
d="M0 1563q84 -1 137 -45q54 -44 54 -113q1 -69 -43 -122t-114 -79l-60 77q46 15 74 45t28 64t-29 56t-83 22t-99 -24v97q51 22 135 22z" />
    <glyph glyph-name="ringcmb" unicode="&#x30a;" 
d="M0 1313q53 1 89 37t36 89t-36 89t-89 36t-89 -36t-36 -89t36 -89t89 -37zM0 1228q-89 0 -151 61t-62 149t62 150q62 61 151 61t151 -61q62 -62 62 -150t-62 -149t-151 -61z" />
    <glyph glyph-name="hungarumlautcmb" unicode="&#x30b;" 
d="M-279 1264l250 330h161l-271 -330h-140zM73 1264l250 330h161l-271 -330h-140z" />
    <glyph glyph-name="caroncmb" unicode="&#x30c;" 
d="M77 1228h-154l-275 332h153l193 -243h12l193 243h153z" />
    <glyph glyph-name="dblgravecmb" unicode="&#x30f;" 
d="M264 1267h-140l-271 327h161zM-78 1267h-141l-271 327h161z" />
    <glyph glyph-name="invertedbrevecmb" unicode="&#x311;" 
d="M-332 1228q0 134 90 216t242 82t242 -82t90 -216h-118q0 90 -57 144t-157 54t-157 -54t-57 -144h-118z" />
    <glyph glyph-name="horncmb" unicode="&#x31b;" 
d="M90 1074q128 0 128 169v142h122v-177q0 -110 -64 -176t-171 -66q-67 0 -105 30v108q28 -30 90 -30z" />
    <glyph glyph-name="dotbelowcmb" unicode="&#x323;" 
d="M0 -364q-44 0 -74 31t-31 74q0 43 31 73t74 31q43 -1 74 -31t31 -73q-1 -43 -31 -74t-74 -31z" />
    <glyph glyph-name="dieresisbelowcmb" unicode="&#x324;" 
d="M182 -392q-42 0 -72 30t-30 72t30 72t72 30t72 -30t30 -72t-30 -72t-72 -30zM-182 -392q-42 0 -72 30t-30 72t30 72t72 30t72 -30t30 -72t-30 -72t-72 -30z" />
    <glyph glyph-name="ringbelowcmb" unicode="&#x325;" 
d="M0 -464q53 0 89 36t36 90q0 53 -36 89t-89 36t-89 -36t-36 -89q0 -54 36 -90t89 -36zM0 -549q-89 0 -151 61q-62 62 -62 150t62 149t151 61t151 -61t62 -149t-62 -150q-62 -61 -151 -61z" />
    <glyph glyph-name="commabelowcmb" unicode="&#x326;" 
d="M-21 -506h-127l102 364h141z" />
    <glyph glyph-name="cedillacmb" unicode="&#x327;" 
d="M-105 -224v67l64 157h106l-57 -142q100 0 156 -42t57 -120q0 -80 -63 -130q-62 -50 -154 -50t-157 20v87q51 -18 119 -18t104 24t36 66q0 81 -155 81h-56z" />
    <glyph glyph-name="ogonekcmb" unicode="&#x328;" 
d="M-4 -421q-86 1 -144 53t-57 135q0 154 168 285l94 -17q-65 -52 -103 -115t-38 -118q0 -54 32 -86t86 -32t90 15v-97q-42 -23 -128 -23z" />
    <glyph glyph-name="circumflexbelowcmb" unicode="&#x32d;" 
d="M62 -143l289 -289h-155l-190 197h-12l-190 -197h-155l289 289h124z" />
    <glyph glyph-name="brevebelowcmb" unicode="&#x32e;" 
d="M-330 -137h118q0 -81 58 -129t154 -47q96 -1 154 47t58 129h118q0 -126 -89 -200t-241 -74t-241 74t-89 200z" />
    <glyph glyph-name="tildebelowcmb" unicode="&#x330;" 
d="M-349 -386q-1 119 55 187t145 68t149 -58q25 -25 47 -49q53 -58 95 -58q43 0 71 38t31 115h105q0 -115 -56 -185t-142 -70t-144 58q-23 24 -45 50q-51 59 -104 58q-97 0 -101 -154h-106z" />
    <glyph glyph-name="macronbelowcmb" unicode="&#x331;" 
d="M322 -309h-644v105h644v-105z" />
    <glyph glyph-name="greekquestionmark" unicode="&#x37e;" horiz-adv-x="593" 
d="M296 763q-46 1 -78 33t-32 78t32 78t78 32t78 -32t33 -78q-1 -46 -33 -78t-78 -33zM248 -339h-115l85 531h162z" />
    <glyph glyph-name="tonosgreek" unicode="&#x384;" horiz-adv-x="827" 
d="M273 1252l88 328h158l-125 -328h-121z" />
    <glyph glyph-name="dieresistonosgreek" unicode="&#x385;" horiz-adv-x="1210" 
d="M517 1252l41 328h151l-77 -328h-115zM892 1252q-42 0 -73 30q-30 30 -30 72t30 72q31 30 73 30t72 -30t29 -72q1 -42 -29 -72t-72 -30zM316 1252q-42 0 -72 30t-30 72t30 72t72 30t72 -30t30 -72t-30 -72t-72 -30z" />
    <glyph glyph-name="Alphatonosgreek" unicode="&#x386;" horiz-adv-x="1363" 
d="M133 1116l88 327h158l-125 -327h-121zM675 1264l-255 -704h524l-256 704h-13zM1145 0l-160 442h-606l-160 -442h-145l540 1443h136l539 -1443h-144z" />
    <glyph glyph-name="anoteleia" unicode="&#x387;" horiz-adv-x="608" 
d="M304 841q-52 -1 -84 33q-34 34 -34 85t34 85t84 33q52 1 85 -33t33 -85t-33 -85t-85 -33z" />
    <glyph glyph-name="Epsilontonosgreek" unicode="&#x388;" horiz-adv-x="1533" 
d="M1393 124v-124h-872v1443h872v-124h-735v-519h698v-122h-698v-554h735zM90 1116l88 327h158l-125 -327h-121z" />
    <glyph glyph-name="Etatonosgreek" unicode="&#x389;" horiz-adv-x="1824" 
d="M1639 0h-137v677h-844v-677h-137v1443h137v-642h844v642h137v-1443zM90 1116l88 327h158l-125 -327h-121z" />
    <glyph glyph-name="Iotatonosgreek" unicode="&#x38a;" horiz-adv-x="843" 
d="M90 1116l88 327h158l-125 -327h-121zM658 0h-137v1443h137v-1443z" />
    <glyph glyph-name="Omicrontonosgreek" unicode="&#x38c;" horiz-adv-x="1772" 
d="M90 1116l88 327h158l-125 -327h-121zM994 1346q-236 0 -376 -168q-139 -168 -139 -456q0 -286 138 -456q137 -170 375 -169q238 -1 376 169t137 456q1 286 -137 456q-138 168 -374 168zM994 1473q302 0 476 -202t175 -549q-1 -348 -175 -550t-478 -202t-478 202
q-175 202 -175 550q0 346 176 548q177 202 479 203z" />
    <glyph glyph-name="Upsilontonosgreek" unicode="&#x38e;" horiz-adv-x="1656" 
d="M1064 0h-136v624l-518 819h157l423 -680h12l423 680h156l-517 -819v-624zM90 1116l88 327h158l-125 -327h-121z" />
    <glyph glyph-name="Omegatonosgreek" unicode="&#x38f;" horiz-adv-x="1789" 
d="M90 1116l88 327h158l-125 -327h-121zM347 0v124h366v12q-175 90 -270 262t-95 381t82 365t232 243q150 86 342 86q292 0 474 -190t182 -496q0 -217 -96 -389t-269 -262v-12h366v-124h-527v161q386 199 386 623q0 256 -140 409t-376 153t-376 -153t-140 -409
q0 -424 386 -623v-161h-527z" />
    <glyph glyph-name="iotadieresistonosgreek" unicode="&#x390;" horiz-adv-x="603" 
d="M169 1252l41 328h151l-77 -328h-115zM544 1252q-42 0 -73 30q-30 30 -30 72t30 72q31 30 73 30t72 -30t29 -72q1 -42 -29 -72t-72 -30zM-32 1252q-42 0 -72 30t-30 72t30 72t72 30t72 -30t30 -72t-30 -72t-72 -30zM442 -9q-153 1 -219 65t-66 212v809h131v-780
q0 -101 40 -145t129 -45q48 0 92 6v-112q-47 -10 -107 -10z" />
    <glyph glyph-name="Alphagreek" unicode="&#x391;" horiz-adv-x="1363" 
d="M675 1264l-255 -704h524l-256 704h-13zM1145 0l-160 442h-606l-160 -442h-145l540 1443h136l539 -1443h-144z" />
    <glyph glyph-name="Betagreek" unicode="&#x392;" horiz-adv-x="1319" 
d="M322 121h374q181 0 276 73t95 211q0 139 -100 211t-288 72h-357v-567zM322 1322v-515h323q168 1 259 67t91 189q-1 123 -85 191t-232 68h-356zM715 0h-530v1443h519q199 1 314 -95t115 -261q0 -121 -74 -209t-190 -109v-13q153 -17 245 -113t93 -244q0 -189 -129 -294
t-363 -105z" />
    <glyph glyph-name="Gammagreek" unicode="&#x393;" horiz-adv-x="1128" 
d="M185 0v1443h836v-124h-699v-1319h-137z" />
    <glyph glyph-name="Deltagreek" unicode="&#x394;" horiz-adv-x="1377" 
d="M253 124h870v12l-429 1135h-12l-429 -1135v-12zM97 0v97l523 1346h136l524 -1346v-97h-1183z" />
    <glyph glyph-name="Epsilongreek" unicode="&#x395;" horiz-adv-x="1197" 
d="M1057 124v-124h-872v1443h872v-124h-735v-519h698v-122h-698v-554h735z" />
    <glyph glyph-name="Zetagreek" unicode="&#x396;" horiz-adv-x="1328" 
d="M138 0v99l863 1208v12h-834v124h1011v-100l-860 -1207v-12h872v-124h-1052z" />
    <glyph glyph-name="Etagreek" unicode="&#x397;" horiz-adv-x="1488" 
d="M1303 0h-137v677h-844v-677h-137v1443h137v-642h844v642h137v-1443z" />
    <glyph glyph-name="Thetagreek" unicode="&#x398;" horiz-adv-x="1575" 
d="M788 -30q-306 0 -484 199q-177 199 -177 553t178 552t483 199q305 -1 482 -199t177 -552q-1 -354 -177 -553t-482 -199zM787 97q240 0 380 166q140 165 140 459t-140 459t-379 165t-380 -165t-141 -459t140 -459q140 -166 380 -166zM468 661v124h639v-124h-639z" />
    <glyph glyph-name="Iotagreek" unicode="&#x399;" horiz-adv-x="507" 
d="M322 0h-137v1443h137v-1443z" />
    <glyph glyph-name="Kappagreek" unicode="&#x39a;" horiz-adv-x="1311" 
d="M322 0h-137v1443h137v-746h12l683 746h171l-578 -623l637 -820h-177l-555 725l-193 -210v-515z" />
    <glyph glyph-name="Lambdagreek" unicode="&#x39b;" horiz-adv-x="1351" 
d="M88 0l519 1443h136l520 -1443h-145l-437 1256h-12l-437 -1256h-144z" />
    <glyph glyph-name="Mugreek" unicode="&#x39c;" horiz-adv-x="1761" 
d="M314 0h-129v1443h157l533 -1256h12l531 1256h158v-1443h-128v1177h-10l-498 -1170h-119l-498 1170h-9v-1177z" />
    <glyph glyph-name="Nugreek" unicode="&#x39d;" horiz-adv-x="1494" 
d="M320 0h-135v1443h135l841 -1198h13v1198h135v-1443h-132l-844 1199h-13v-1199z" />
    <glyph glyph-name="Xigreek" unicode="&#x39e;" horiz-adv-x="1323" 
d="M140 1315v128h1042v-128h-1042zM218 675v127h887v-127h-887zM140 0v128h1042v-128h-1042z" />
    <glyph glyph-name="Omicrongreek" unicode="&#x39f;" horiz-adv-x="1561" 
d="M782 1346q-236 0 -376 -168q-139 -168 -139 -456q0 -286 138 -456q137 -170 375 -169q238 -1 376 169t137 456q1 286 -137 456q-138 168 -374 168zM782 1473q302 0 476 -202t175 -549q-1 -348 -175 -550t-478 -202t-478 202q-175 202 -175 550q0 346 176 548
q177 202 479 203z" />
    <glyph glyph-name="Pigreek" unicode="&#x3a0;" horiz-adv-x="1468" 
d="M185 0v1443h1098v-1443h-137v1319h-824v-1319h-137z" />
    <glyph glyph-name="Rhogreek" unicode="&#x3a1;" horiz-adv-x="1272" 
d="M322 1321v-655h343q167 0 261 86t95 241q1 154 -93 241t-263 87h-343zM185 1443h513q206 0 334 -125q128 -126 128 -326t-129 -324t-335 -124h-374v-544h-137v1443z" />
    <glyph glyph-name="Sigmagreek" unicode="&#x3a3;" horiz-adv-x="1301" 
d="M145 0v102l441 628l-423 597v116h981v-124h-804v-12l390 -555v-25l-411 -591v-12h851v-124h-1025z" />
    <glyph glyph-name="Taugreek" unicode="&#x3a4;" horiz-adv-x="1280" 
d="M708 0h-136v1319h-484v124h1104v-124h-484v-1319z" />
    <glyph glyph-name="Upsilongreek" unicode="&#x3a5;" horiz-adv-x="1321" 
d="M729 0h-136v624l-518 819h157l423 -680h12l423 680h156l-517 -819v-624z" />
    <glyph glyph-name="Phigreek" unicode="&#x3a6;" horiz-adv-x="1691" 
d="M1436 720q0 242 -140 377q-140 136 -383 142v-1038q243 5 383 141t140 378zM254 720q0 -242 140 -378t383 -141v1038q-243 -6 -383 -142q-140 -135 -140 -377zM777 -58v136q-305 9 -484 180q-179 172 -179 462t179 461t484 181v133h136v-133q305 -10 484 -181t179 -461
t-179 -462t-484 -180v-136h-136z" />
    <glyph glyph-name="Chigreek" unicode="&#x3a7;" horiz-adv-x="1366" 
d="M95 0l504 724l-500 719h165l418 -609h11l422 609h156l-508 -724l500 -719h-164l-416 606h-11l-421 -606h-156z" />
    <glyph glyph-name="Psigreek" unicode="&#x3a8;" horiz-adv-x="1633" 
d="M748 0v345q-268 1 -422 151t-154 408v539h136v-535q0 -210 114 -322t326 -115v972h137v-972q213 3 327 115t113 322v535h136v-539q-1 -259 -155 -409t-421 -150v-345h-137z" />
    <glyph glyph-name="Omegagreek" unicode="&#x3a9;" horiz-adv-x="1584" 
d="M135 0v124h366v12q-175 90 -270 262t-95 381t82 365t232 243q150 86 342 86q292 0 474 -190t182 -496q0 -217 -96 -389t-269 -262v-12h366v-124h-527v161q386 199 386 623q0 256 -140 409t-376 153t-376 -153t-140 -409q0 -424 386 -623v-161h-527z" />
    <glyph glyph-name="Iotadieresisgreek" unicode="&#x3aa;" horiz-adv-x="507" 
d="M436 1568q-42 0 -72 30t-30 72t30 72t72 30t72 -30t30 -72t-30 -72t-72 -30zM72 1568q-42 0 -72 30t-30 72t30 72t72 30t72 -30t30 -72t-30 -72t-72 -30zM322 0h-137v1443h137v-1443z" />
    <glyph glyph-name="Upsilondieresisgreek" unicode="&#x3ab;" horiz-adv-x="1321" 
d="M844 1568q-42 0 -73 30q-30 30 -30 72t30 72q31 30 73 30t72 -30t29 -72q1 -42 -29 -72t-72 -30zM480 1568q-42 0 -73 30q-30 30 -30 72t30 72q31 30 73 30t72 -30t29 -72q1 -42 -29 -72t-72 -30zM729 0h-136v624l-518 819h157l423 -680h12l423 680h156l-517 -819v-624z
" />
    <glyph glyph-name="alphatonosgreek" unicode="&#x3ac;" horiz-adv-x="1284" 
d="M497 1252l88 328h158l-125 -328h-121zM562 101q152 -1 248 121q97 122 97 316t-93 316q-94 122 -246 123q-152 0 -246 -119t-93 -318t91 -319t242 -120zM550 -18q-204 0 -330 153t-126 403t125 404q125 153 330 153q125 1 215 -65t133 -187h13v234h126v-834
q0 -77 24 -107t72 -30q46 0 73 6v-112q-31 -10 -87 -10q-196 0 -208 190l-1 44h-12q-45 -118 -135 -180t-212 -62z" />
    <glyph glyph-name="epsilontonosgreek" unicode="&#x3ad;" horiz-adv-x="1110" 
d="M549 -19q-192 1 -310 83t-118 224q0 192 202 249v12q-181 52 -181 237q0 140 115 224t306 84t307 -82t141 -232h-133q-22 92 -104 144t-214 52q-131 0 -211 -52t-80 -140t69 -132q69 -46 200 -46h151v-118h-151q-134 0 -208 -50t-74 -143q0 -91 80 -143t216 -52
q138 0 230 56t116 154h133q-26 -145 -158 -237t-324 -92zM514 1252l88 328h158l-125 -328h-121z" />
    <glyph glyph-name="etatonosgreek" unicode="&#x3ae;" horiz-adv-x="1285" 
d="M523 1252l88 328h158l-125 -328h-121zM261 0v834q0 76 -25 106q-26 30 -74 31q-48 0 -70 -5v111q33 10 87 10q186 0 205 -171l2 -32h12q42 97 136 154t214 57q180 1 280 -103t100 -292v-1071h-131v1038q0 310 -284 310q-141 0 -231 -95t-90 -244v-638h-131z" />
    <glyph glyph-name="iotatonosgreek" unicode="&#x3af;" horiz-adv-x="603" 
d="M174 1252l88 328h158l-125 -328h-121zM442 -9q-153 1 -219 65t-66 212v809h131v-780q0 -101 40 -145t129 -45q48 0 92 6v-112q-47 -10 -107 -10z" />
    <glyph glyph-name="upsilondieresistonosgreek" unicode="&#x3b0;" horiz-adv-x="1161" 
d="M581 -18q-206 0 -315 112t-109 320v663h131v-657q0 -318 284 -318q152 0 239 116t87 302t-22 306q-22 119 -80 251h135q47 -94 75 -238t28 -287q0 -262 -124 -416t-329 -154zM474 1252l41 328h151l-77 -328h-115zM848 1252q-42 0 -72 30t-30 72t30 72t72 30t72 -30
t30 -72t-30 -72t-72 -30zM274 1252q-42 0 -73 30q-30 30 -30 72t30 72q31 30 73 30t72 -30t29 -72q1 -42 -29 -72t-72 -30z" />
    <glyph glyph-name="alphagreek" unicode="&#x3b1;" horiz-adv-x="1277" 
d="M562 101q152 -1 248 121q97 122 97 316t-93 316q-94 122 -246 123q-152 0 -246 -119t-93 -318t91 -319t242 -120zM550 -18q-204 0 -330 153t-126 403t125 404q125 153 330 153q125 1 215 -65t133 -187h13v234h126v-834q0 -77 24 -107t72 -30q46 0 73 6v-112
q-31 -10 -87 -10q-196 0 -208 190l-1 44h-12q-45 -118 -135 -180t-212 -62z" />
    <glyph glyph-name="betagreek" unicode="&#x3b2;" horiz-adv-x="1250" 
d="M669 101q161 0 251 92q90 93 90 241t-102 234t-289 86h-109v118h111q138 0 215 70t77 194q1 124 -77 196t-223 73q-145 0 -227 -99t-83 -292v-497q1 -192 103 -304t263 -112zM172 -371v1400q0 235 118 365t324 130t318 -101t112 -276q0 -111 -60 -195t-163 -121v-13
q156 -34 240 -134t84 -255q0 -199 -126 -323t-324 -124q-133 0 -235 60t-145 163h-12v-576h-131z" />
    <glyph glyph-name="gammagreek" unicode="&#x3b3;" horiz-adv-x="1123" 
d="M452 -351v332l-379 1096h140l314 -958h13q165 229 244 409t79 354q0 111 -20 195h124q21 -89 21 -195q0 -202 -97 -413t-308 -490v-330h-131z" />
    <glyph glyph-name="deltagreek" unicode="&#x3b4;" horiz-adv-x="1175" 
d="M585 98q159 0 255 109t97 294t-103 297t-256 112t-248 -112q-98 -112 -98 -294q0 -184 97 -295t256 -111zM582 -18q-218 0 -350 140q-134 140 -134 357q0 215 110 351t295 164v15q-119 53 -173 115t-54 146q0 116 97 185t284 69t306 -80v-117q-150 81 -336 81
q-106 0 -163 -36t-57 -101q0 -63 53 -107q54 -44 236 -125q376 -167 375 -544q1 -225 -135 -369t-354 -144z" />
    <glyph glyph-name="epsilongreek" unicode="&#x3b5;" horiz-adv-x="1098" 
d="M549 -18q-192 0 -310 82t-118 225q0 192 202 249v12q-181 52 -181 237q0 140 115 224t306 84q191 1 307 -81t141 -233h-133q-22 92 -104 144t-214 52q-131 0 -211 -52q-80 -51 -80 -139t69 -134t200 -45h151v-118h-151q-134 -1 -208 -51t-74 -142t80 -144t216 -51
q138 1 230 57t116 153h133q-26 -145 -158 -237t-324 -92z" />
    <glyph glyph-name="zetagreek" unicode="&#x3b6;" horiz-adv-x="916" 
d="M779 -154q0 76 -46 115q-46 38 -191 88q-248 83 -346 199t-98 328t152 422t417 377v12h-485v119h704v-118q-653 -373 -653 -818q-1 -162 75 -246t272 -152t262 -130t65 -176q0 -114 -93 -238l-106 36q71 106 71 182z" />
    <glyph glyph-name="etagreek" unicode="&#x3b7;" horiz-adv-x="1285" 
d="M261 0v834q0 76 -25 106q-26 30 -74 31q-48 0 -70 -5v111q33 10 87 10q186 0 205 -171l2 -32h12q42 97 136 154t214 57q180 1 280 -103t100 -292v-1071h-131v1038q0 310 -284 310q-141 0 -231 -95t-90 -244v-638h-131z" />
    <glyph glyph-name="thetagreek" unicode="&#x3b8;" horiz-adv-x="1226" 
d="M613 1405q-337 0 -353 -585h706q-16 585 -353 585zM614 101q342 0 353 601h-708q13 -601 355 -601zM613 -18q-237 0 -363 196t-125 576q0 378 126 574q125 196 361 196t362 -196t127 -575t-125 -575t-363 -196z" />
    <glyph glyph-name="iotagreek" unicode="&#x3b9;" horiz-adv-x="603" 
d="M442 -9q-153 1 -219 65t-66 212v809h131v-780q0 -101 40 -145t129 -45q48 0 92 6v-112q-47 -10 -107 -10z" />
    <glyph glyph-name="kappagreek" unicode="&#x3ba;" horiz-adv-x="1184" 
d="M172 0v1077h131v-614h12l402 467q77 91 133 124t114 33q60 0 96 -10v-111q-30 5 -74 5q-44 1 -82 -25q-39 -26 -103 -102l-161 -188l449 -656h-151l-380 562l-255 -283v-279h-131z" />
    <glyph glyph-name="lambdagreek" unicode="&#x3bb;" horiz-adv-x="1168" 
d="M220 1407q-38 0 -63 -6v113q33 10 85 10q120 0 186 -67t135 -264l348 -981q36 -106 123 -106q41 0 71 6v-112q-33 -10 -106 -10t-121 40t-89 153l-236 677h-12l-349 -860h-141l440 1027l-52 139q-56 153 -91 190q-34 36 -62 44t-66 7z" />
    <glyph glyph-name="mugreek" unicode="&#x3bc;" horiz-adv-x="1299" 
d="M303 414q1 -312 285 -312q142 0 232 92t89 243v640h131v-834q0 -77 24 -107t70 -30t75 6v-112q-33 -10 -111 -10t-124 40q-47 40 -58 135l-2 28h-12q-41 -103 -126 -157q-84 -54 -190 -54q-212 0 -271 158h-12v-511h-131v1448h131v-663z" />
    <glyph glyph-name="nugreek" unicode="&#x3bd;" horiz-adv-x="1123" 
d="M863 882q0 114 -20 195h124q21 -90 21 -193q0 -198 -93 -404t-296 -480h-153l-373 1077h140l314 -959h13q166 231 244 411t79 353z" />
    <glyph glyph-name="xigreek" unicode="&#x3be;" horiz-adv-x="946" 
d="M779 -150q1 76 -45 112t-246 105t-295 156t-95 225t82 226q82 89 230 121v11q-129 44 -189 114t-60 177q0 105 72 181t193 98v11h-262v119h711v-107l-107 -11q-251 -25 -367 -95t-116 -195q0 -229 396 -229h120v-118h-121q-216 1 -332 -73t-116 -210q0 -74 30 -121
t106 -87t242 -99q167 -58 232 -119t65 -168q0 -63 -21 -118t-73 -128l-106 36q72 111 72 186z" />
    <glyph glyph-name="omicrongreek" unicode="&#x3bf;" horiz-adv-x="1184" 
d="M592 101q162 1 256 117t94 320t-95 322q-95 117 -255 117t-255 -117q-94 -118 -94 -322t94 -320t255 -117zM592 -18q-222 0 -352 150q-132 150 -132 407q0 258 132 407t352 149q221 0 353 -149t132 -407q1 -257 -131 -407t-354 -150z" />
    <glyph glyph-name="pigreek" unicode="&#x3c0;" horiz-adv-x="1363" 
d="M1036 243q0 -137 98 -137q46 0 74 6v-112q-38 -10 -87 -10q-113 0 -163 60t-50 191v718h-501v-959h-128v959h-199v118h1173v-118h-217v-716z" />
    <glyph glyph-name="rhogreek" unicode="&#x3c1;" horiz-adv-x="1215" 
d="M626 101q160 1 253 119t93 324t-92 320t-256 113q-164 0 -256 -118q-92 -119 -92 -319t96 -320q94 -120 254 -119zM148 -371v917q0 257 128 403t351 146t351 -148q128 -147 129 -403q-1 -256 -125 -409t-336 -153q-122 0 -216 60t-139 163h-12v-576h-131z" />
    <glyph glyph-name="sigmafinalgreek" unicode="&#x3c2;" horiz-adv-x="1125" 
d="M789 -152q0 76 -46 114t-192 88q-245 83 -344 199t-99 307q0 245 134 392t351 147q170 -1 286 -91t142 -244h-133q-28 104 -106 160t-193 57q-153 1 -249 -113t-97 -302q-1 -78 15 -132t57 -102q73 -85 272 -154t265 -131q66 -63 65 -177q0 -114 -93 -237l-106 36
q71 107 71 183z" />
    <glyph glyph-name="sigmagreek" unicode="&#x3c3;" horiz-adv-x="1281" 
d="M590 101q162 1 256 117t95 315t-93 312t-254 113t-256 -116t-95 -313q0 -198 93 -313q92 -115 254 -115zM587 -18q-219 0 -349 150t-130 400q0 252 140 398t383 147h573v-118h-327v-13q91 -55 141 -163t51 -245q0 -252 -132 -404t-350 -152z" />
    <glyph glyph-name="taugreek" unicode="&#x3c4;" horiz-adv-x="1050" 
d="M552 298q0 -191 160 -191q78 0 122 6v-112q-47 -10 -118 -10q-161 0 -228 64t-67 213v691h-354v118h899v-118h-414v-661z" />
    <glyph glyph-name="upsilongreek" unicode="&#x3c5;" horiz-adv-x="1158" 
d="M581 -18q-206 0 -315 112t-109 320v663h131v-657q0 -318 284 -318q152 0 239 116t87 302t-22 306q-22 119 -80 251h135q47 -94 75 -238t28 -287q0 -262 -124 -416t-329 -154z" />
    <glyph glyph-name="phigreek" unicode="&#x3c6;" horiz-adv-x="1492" 
d="M1258 538q0 196 -121 315q-121 120 -328 130v-892q209 11 329 131t120 316zM234 538q0 -196 120 -316t329 -131v892q-207 -10 -328 -130q-121 -119 -121 -315zM683 -371v352q-269 11 -425 161t-157 396q1 246 157 396t425 161v282h126v-282q269 -11 425 -161t157 -396
q-1 -246 -157 -396t-425 -161v-352h-126z" />
    <glyph glyph-name="chigreek" unicode="&#x3c7;" horiz-adv-x="1135" 
d="M118 971q-42 0 -69 -5v111q33 10 104 10q71 1 121 -37t101 -143l214 -428h12l319 598h141l-406 -731l249 -498q54 -113 142 -113q42 0 71 6v-112q-33 -10 -101 -10q-68 -1 -120 35q-50 36 -97 129l-220 437h-12l-316 -591h-140l403 723l-251 504q-32 66 -67 90
q-36 24 -78 25z" />
    <glyph glyph-name="psigreek" unicode="&#x3c8;" horiz-adv-x="1442" 
d="M656 -371v353q-236 0 -368 114t-131 318v663h131v-650q0 -157 95 -241t273 -84v1275h127v-1275q194 2 297 116t103 326q0 310 -103 533h135q43 -89 73 -234t30 -276q0 -275 -141 -429t-394 -156v-353h-127z" />
    <glyph glyph-name="omegagreek" unicode="&#x3c9;" horiz-adv-x="1564" 
d="M118 504q0 167 50 323t134 250h145q-194 -232 -194 -571q0 -198 60 -301t171 -103q112 0 172 84t60 232v340h132v-340q0 -148 60 -232t172 -84q110 0 170 102t61 302q0 339 -194 571h145q84 -94 134 -250t50 -323q0 -250 -94 -386t-267 -136q-220 0 -297 234h-12
q-77 -234 -297 -234q-173 0 -267 136t-94 386z" />
    <glyph glyph-name="iotadieresisgreek" unicode="&#x3ca;" horiz-adv-x="603" 
d="M410 1228q-42 0 -72 30t-30 72t30 72t72 30t72 -30t30 -72t-30 -72t-72 -30zM46 1228q-42 0 -72 30t-30 72t30 72t72 30t72 -30t30 -72t-30 -72t-72 -30zM442 -9q-153 1 -219 65t-66 212v809h131v-780q0 -101 40 -145t129 -45q48 0 92 6v-112q-47 -10 -107 -10z" />
    <glyph glyph-name="upsilondieresisgreek" unicode="&#x3cb;" horiz-adv-x="1161" 
d="M581 -18q-206 0 -315 112t-109 320v663h131v-657q0 -318 284 -318q152 0 239 116t87 302t-22 306q-22 119 -80 251h135q47 -94 75 -238t28 -287q0 -262 -124 -416t-329 -154zM734 1228q-42 0 -72 30t-30 72t30 72t72 30t72 -30t30 -72t-30 -72t-72 -30zM370 1228
q-42 0 -72 30t-30 72t30 72t72 30t72 -30t30 -72t-30 -72t-72 -30z" />
    <glyph glyph-name="omicrontonosgreek" unicode="&#x3cc;" horiz-adv-x="1184" 
d="M521 1252l88 328h158l-125 -328h-121zM592 101q162 1 256 117t94 320t-95 322q-95 117 -255 117t-255 -117q-94 -118 -94 -322t94 -320t255 -117zM592 -18q-222 0 -352 150q-132 150 -132 407q0 258 132 407t352 149q221 0 353 -149t132 -407q1 -257 -131 -407t-354 -150
z" />
    <glyph glyph-name="upsilontonosgreek" unicode="&#x3cd;" horiz-adv-x="1161" 
d="M581 -18q-206 0 -315 112t-109 320v663h131v-657q0 -318 284 -318q152 0 239 116t87 302t-22 306q-22 119 -80 251h135q47 -94 75 -238t28 -287q0 -262 -124 -416t-329 -154zM474 1252l88 328h158l-125 -328h-121z" />
    <glyph glyph-name="omegatonosgreek" unicode="&#x3ce;" horiz-adv-x="1576" 
d="M715 1252l88 328h158l-125 -328h-121zM118 504q0 167 50 323t134 250h145q-194 -232 -194 -571q0 -198 60 -301t171 -103q112 0 172 84t60 232v340h132v-340q0 -148 60 -232t172 -84q110 0 170 102t61 302q0 339 -194 571h145q84 -94 134 -250t50 -323q0 -250 -94 -386
t-267 -136q-220 0 -297 234h-12q-77 -234 -297 -234q-173 0 -267 136t-94 386z" />
    <glyph glyph-name="Iocyrillic" unicode="&#x401;" horiz-adv-x="1217" 
d="M1067 124v-124h-872v1443h872v-124h-735v-519h698v-122h-698v-554h735zM814 1568q-42 0 -73 30q-30 30 -30 72t30 72q31 30 73 30t72 -30t29 -72q1 -42 -29 -72t-72 -30zM450 1568q-42 0 -73 30q-30 30 -30 72t30 72q31 30 73 30t72 -30t29 -72q1 -42 -29 -72t-72 -30z
" />
    <glyph glyph-name="Djecyrillic" unicode="&#x402;" horiz-adv-x="1701" 
d="M1092 766q-249 0 -374 -198v-568h-136v1320h-484v123h1104v-123h-484v-579h14q139 149 368 149q149 0 256 -62q210 -123 210 -395q0 -199 -114 -323t-306 -124q-76 0 -121 15v123q40 -13 119 -13q126 0 206 85t79 233q1 149 -87 243t-250 94z" />
    <glyph glyph-name="Gjecyrillic" unicode="&#x403;" horiz-adv-x="1153" 
d="M333 0h-138v1443h843v-125h-705v-1318zM496 1577l310 297h174l-326 -297h-158z" />
    <glyph glyph-name="Ecyrillic" unicode="&#x404;" horiz-adv-x="1491" 
d="M781 -30q-298 0 -471 202t-173 548q-1 346 173 550q174 203 470 203q150 -1 276 -61t207 -168t100 -242h-138q-31 152 -155 248t-290 96q-212 0 -346 -146t-153 -399h681v-124h-683q11 -267 145 -423t357 -157q171 0 293 86t151 228h138q-30 -199 -190 -320t-392 -121z
" />
    <glyph glyph-name="Dzecyrillic" unicode="&#x405;" horiz-adv-x="1304" 
d="M665 95q163 0 268 80q105 79 105 191t-78 180t-244 109l-165 42q-203 49 -294 139t-91 252t138 273q138 112 350 112q212 -1 351 -109t150 -274h-138q-17 116 -115 187t-249 71t-249 -76t-98 -183q0 -105 72 -165t237 -101l143 -36q224 -55 322 -149t98 -247
q0 -189 -144 -305t-373 -116q-231 0 -377 112t-159 293h138q15 -124 127 -202t275 -78z" />
    <glyph glyph-name="Icyrillic" unicode="&#x406;" horiz-adv-x="527" 
d="M332 0h-137v1443h137v-1443z" />
    <glyph glyph-name="Yicyrillic" unicode="&#x407;" horiz-adv-x="527" 
d="M446 1568q-42 0 -72 30t-30 72t30 72t72 30t72 -30t30 -72t-30 -72t-72 -30zM82 1568q-42 0 -72 30t-30 72t30 72t72 30t72 -30t30 -72t-30 -72t-72 -30zM332 0h-137v1443h137v-1443z" />
    <glyph glyph-name="Jecyrillic" unicode="&#x408;" horiz-adv-x="1108" 
d="M511 97q121 1 193 79t72 222v1045h137v-1050q0 -197 -110 -310q-111 -113 -293 -113t-294 100t-114 260h136q5 -103 78 -168t195 -65z" />
    <glyph glyph-name="Ljecyrillic" unicode="&#x409;" horiz-adv-x="2148" 
d="M1202 124h336q168 0 262 84t94 234t-94 235t-262 85h-336v-638zM132 -9q-60 0 -90 10v123q20 -7 66 -7t86 29q100 72 117 371l54 926h837v-558h368q208 -1 336 -123t128 -320t-128 -320t-335 -122h-506v1319h-574l-50 -809q-22 -388 -186 -483q-63 -36 -123 -36z" />
    <glyph glyph-name="Njecyrillic" unicode="&#x40a;" horiz-adv-x="2229" 
d="M329 677v-677h-137v1443h137v-642h810v642h137v-642h367q207 -1 335 -109t129 -287q0 -179 -128 -292t-334 -113h-506v677h-810zM1276 124h336q167 0 261 76t94 205q0 130 -94 201t-261 71h-336v-553z" />
    <glyph glyph-name="Tshecyrillic" unicode="&#x40b;" horiz-adv-x="1736" 
d="M732 743q136 147 380 147q132 0 238 -64q212 -128 213 -423v-403h-137v392q0 170 -89 272t-261 102t-286 -110q-46 -45 -72 -88v-568h-136v1319h-484v124h1104v-124h-484v-576h14z" />
    <glyph glyph-name="Kjecyrillic" unicode="&#x40c;" horiz-adv-x="1332" 
d="M339 793h40l655 650h174l-711 -697l774 -746h-184l-708 684h-40v-684h-137v1443h137v-650zM534 1577l310 297h174l-326 -297h-158z" />
    <glyph glyph-name="Ushortcyrillic" unicode="&#x40e;" horiz-adv-x="1293" 
d="M331 117q84 -1 143 51t111 156l-501 1119h148l419 -965h12l403 965h142l-453 -1044q-117 -266 -209 -337q-92 -72 -208 -72q-58 0 -82 12v124q36 -9 75 -9zM340 1851h120q0 -83 54 -133t141 -49q87 -1 141 49t54 133h120q0 -128 -86 -201t-230 -73t-228 73
q-86 73 -86 201z" />
    <glyph glyph-name="Dzhecyrillic" unicode="&#x40f;" horiz-adv-x="1490" 
d="M681 0h-486v1443h137v-1319h826v1319h137v-1443h-486v-285h-128v285z" />
    <glyph glyph-name="Acyrillic" unicode="&#x410;" horiz-adv-x="1383" 
d="M685 1264l-255 -704h524l-256 704h-13zM1155 0l-160 442h-606l-160 -442h-145l540 1443h136l539 -1443h-144z" />
    <glyph glyph-name="Becyrillic" unicode="&#x411;" horiz-adv-x="1281" 
d="M332 124h333q167 0 261 80t94 221q0 143 -94 223t-261 80h-333v-604zM1160 425q0 -189 -128 -307t-335 -118h-502v1443h830v-124h-693v-467h364q206 0 335 -118t129 -309z" />
    <glyph glyph-name="Vecyrillic" unicode="&#x412;" horiz-adv-x="1339" 
d="M332 121h374q181 0 276 73t95 211q0 139 -100 211t-288 72h-357v-567zM332 1322v-515h323q168 1 259 67t91 189q-1 123 -85 191t-232 68h-356zM725 0h-530v1443h519q199 1 314 -95t115 -261q0 -121 -74 -209t-190 -109v-13q153 -17 245 -113t93 -244q0 -189 -129 -294
t-363 -105z" />
    <glyph glyph-name="Gecyrillic" unicode="&#x413;" horiz-adv-x="1153" 
d="M333 0h-138v1443h843v-125h-705v-1318z" />
    <glyph glyph-name="Decyrillic" unicode="&#x414;" horiz-adv-x="1478" 
d="M168 0v-285h-128v409h102q75 39 111 135t45 249l57 935h867v-1319h183v-409h-127v285h-1110zM319 124h767v1195h-608l-50 -816q-8 -135 -32 -223t-77 -146v-10z" />
    <glyph glyph-name="Iecyrillic" unicode="&#x415;" horiz-adv-x="1217" 
d="M1067 124v-124h-872v1443h872v-124h-735v-519h698v-122h-698v-554h735z" />
    <glyph glyph-name="Zhecyrillic" unicode="&#x416;" horiz-adv-x="2017" 
d="M939 791v652h137v-652h40l599 652h170l-655 -696l716 -747h-180l-650 685h-40v-685h-137v685h-39l-651 -685h-177l713 744l-657 699h172l600 -652h39z" />
    <glyph glyph-name="Zecyrillic" unicode="&#x417;" horiz-adv-x="1247" 
d="M414 681v122h186q147 0 237 78q90 77 90 199t-86 196q-85 74 -231 75q-146 0 -238 -73t-103 -195h-133q12 177 142 283t331 107q202 1 329 -107t127 -272q-1 -124 -75 -216t-200 -120v-12q154 -12 248 -108t94 -261t-147 -286t-367 -121t-362 112q-143 112 -151 287h133
q8 -120 114 -198t269 -78q163 1 267 85t104 216t-102 210q-102 77 -285 77h-191z" />
    <glyph glyph-name="Iicyrillic" unicode="&#x418;" horiz-adv-x="1514" 
d="M1184 0v1218h-13l-841 -1218h-135v1443h135v-1221h13l841 1221h135v-1443h-135z" />
    <glyph glyph-name="Iishortcyrillic" unicode="&#x419;" horiz-adv-x="1514" 
d="M1184 0v1218h-13l-841 -1218h-135v1443h135v-1221h13l841 1221h135v-1443h-135zM434 1851h120q0 -83 54 -133t141 -49q87 -1 141 49t54 133h120q0 -128 -86 -201t-230 -73t-228 73q-86 73 -86 201z" />
    <glyph glyph-name="Kacyrillic" unicode="&#x41a;" horiz-adv-x="1335" 
d="M332 793h40l655 650h174l-711 -697l774 -746h-184l-708 684h-40v-684h-137v1443h137v-650z" />
    <glyph glyph-name="Elcyrillic" unicode="&#x41b;" horiz-adv-x="1396" 
d="M1201 0h-136v1319h-578l-50 -809q-21 -389 -185 -483q-62 -36 -124 -36q-60 0 -90 10v123q20 -7 66 -7t86 29q100 72 117 371l55 926h839v-1443z" />
    <glyph glyph-name="Emcyrillic" unicode="&#x41c;" horiz-adv-x="1781" 
d="M324 0h-129v1443h157l533 -1256h12l531 1256h158v-1443h-128v1177h-10l-498 -1170h-119l-498 1170h-9v-1177z" />
    <glyph glyph-name="Encyrillic" unicode="&#x41d;" horiz-adv-x="1508" 
d="M1313 0h-137v677h-844v-677h-137v1443h137v-642h844v642h137v-1443z" />
    <glyph glyph-name="Ocyrillic" unicode="&#x41e;" horiz-adv-x="1581" 
d="M792 1346q-236 0 -376 -168q-139 -168 -139 -456q0 -286 138 -456q137 -170 375 -169q238 -1 376 169t137 456q1 286 -137 456q-138 168 -374 168zM792 1473q302 0 476 -202t175 -549q-1 -348 -175 -550t-478 -202t-478 202q-175 202 -175 550q0 346 176 548
q177 202 479 203z" />
    <glyph glyph-name="Pecyrillic" unicode="&#x41f;" horiz-adv-x="1490" 
d="M1295 0h-135v1318h-827v-1318h-138v1443h1100v-1443z" />
    <glyph glyph-name="Ercyrillic" unicode="&#x420;" horiz-adv-x="1292" 
d="M332 1321v-655h343q167 0 261 86t95 241q1 154 -93 241t-263 87h-343zM195 1443h513q206 0 334 -125q128 -126 128 -326t-129 -324t-335 -124h-374v-544h-137v1443z" />
    <glyph glyph-name="Escyrillic" unicode="&#x421;" horiz-adv-x="1491" 
d="M773 -30q-294 0 -465 202t-171 549t171 549t464 203q148 -1 272 -61t204 -168t100 -242h-139q-31 152 -153 248t-284 96q-227 0 -361 -170t-134 -456t134 -454t362 -169q167 0 287 86t149 228h139q-30 -199 -188 -320t-387 -121z" />
    <glyph glyph-name="Tecyrillic" unicode="&#x422;" horiz-adv-x="1300" 
d="M718 0h-136v1319h-484v124h1104v-124h-484v-1319z" />
    <glyph glyph-name="Ucyrillic" unicode="&#x423;" horiz-adv-x="1293" 
d="M331 117q84 -1 143 51t111 156l-501 1119h148l419 -965h12l403 965h142l-453 -1044q-117 -266 -209 -337q-92 -72 -208 -72q-58 0 -82 12v124q36 -9 75 -9z" />
    <glyph glyph-name="Efcyrillic" unicode="&#x424;" horiz-adv-x="1671" 
d="M122 725q0 268 176 425t470 163v147h135v-147q295 -5 470 -163t175 -426t-176 -425t-469 -162v-154h-135v154q-294 5 -470 163t-176 425zM1410 725q0 210 -137 335t-370 130v-930q231 5 369 130t138 335zM260 725q0 -210 137 -335t371 -130v930q-232 -5 -370 -130
t-138 -335z" />
    <glyph glyph-name="Xacyrillic" unicode="&#x425;" horiz-adv-x="1386" 
d="M105 0l504 724l-500 719h165l418 -609h11l422 609h156l-508 -724l500 -719h-164l-416 606h-11l-421 -606h-156z" />
    <glyph glyph-name="Tsecyrillic" unicode="&#x426;" horiz-adv-x="1549" 
d="M1476 -285h-128v285h-1153v1443h137v-1319h824v1319h137v-1319h183v-409z" />
    <glyph glyph-name="Checyrillic" unicode="&#x427;" horiz-adv-x="1381" 
d="M1185 0h-136v704h-12q-65 -66 -163 -108t-225 -43q-235 1 -371 143t-136 365v382h137v-372q0 -175 99 -283q98 -108 258 -108t267 63t146 142v558h136v-1443z" />
    <glyph glyph-name="Shacyrillic" unicode="&#x428;" horiz-adv-x="1936" 
d="M195 0v1443h137v-1319h568v1319h136v-1319h568v1319h137v-1443h-1546z" />
    <glyph glyph-name="Shchacyrillic" unicode="&#x429;" horiz-adv-x="1997" 
d="M1924 -285h-128v285h-1601v1443h137v-1319h568v1319h136v-1319h568v1319h137v-1319h183v-409z" />
    <glyph glyph-name="Hardsigncyrillic" unicode="&#x42a;" horiz-adv-x="1514" 
d="M567 124h337q167 0 261 84t94 234q-1 150 -95 235t-260 85h-337v-638zM936 0h-505v1319h-340v124h476v-558h368q207 -1 335 -123t129 -320q-1 -198 -129 -320t-334 -122z" />
    <glyph glyph-name="Yericyrillic" unicode="&#x42b;" horiz-adv-x="1727" 
d="M342 124h336q168 0 262 84t94 234t-94 235t-262 85h-336v-638zM205 0v1443h137v-558h367q207 -1 335 -123t129 -320q0 -198 -128 -320t-334 -122h-506zM1532 0h-137v1443h137v-1443z" />
    <glyph glyph-name="Softsigncyrillic" unicode="&#x42c;" horiz-adv-x="1285" 
d="M332 124h336q168 0 262 84t94 234t-94 235t-262 85h-336v-638zM195 0v1443h137v-558h367q207 -1 335 -123t129 -320q0 -198 -128 -320t-334 -122h-506z" />
    <glyph glyph-name="Ereversedcyrillic" unicode="&#x42d;" horiz-adv-x="1491" 
d="M718 -30q-236 0 -398 121t-193 320h139q30 -142 154 -228t298 -86q218 -1 351 155t143 425h-683v124h681q-18 253 -150 399t-341 146q-169 0 -295 -96t-158 -248h-139q19 135 101 243t212 168q128 60 279 60q292 0 463 -202t171 -549q-1 -348 -171 -550t-464 -202z" />
    <glyph glyph-name="IUcyrillic" unicode="&#x42e;" horiz-adv-x="2033" 
d="M1256 1346q-230 0 -365 -168t-135 -456q0 -286 134 -456t366 -169q231 -1 365 169t134 456t-134 456q-135 168 -365 168zM1261 -30q-293 0 -463 190t-181 517h-285v-677h-137v1443h137v-642h287q20 313 190 493t457 179q287 0 458 -202t171 -549q-1 -348 -171 -550
t-463 -202z" />
    <glyph glyph-name="IAcyrillic" unicode="&#x42f;" horiz-adv-x="1342" 
d="M181 1027q-1 178 127 297t336 119h502v-1443h-136v579h-327l-406 -579h-161l418 596q-160 31 -256 142t-97 289zM1010 703v616h-334q-168 0 -262 -81q-94 -80 -93 -226q0 -146 94 -228t261 -81h334z" />
    <glyph glyph-name="acyrillic" unicode="&#x430;" horiz-adv-x="1166" 
d="M119 296q0 142 100 222t288 94l337 22v104q0 116 -68 178t-190 62q-120 0 -196 -44t-95 -123h-133q20 128 134 206t294 78q180 1 282 -93q104 -94 104 -263v-739h-126v185h-12q-104 -203 -376 -203q-140 0 -242 86t-101 228zM522 98q128 0 224 88q98 88 98 215v126
l-319 -23q-271 -19 -271 -204q0 -92 70 -147t198 -55z" />
    <glyph glyph-name="becyrillic" unicode="&#x431;" horiz-adv-x="1235" 
d="M617 99q167 0 263 115t95 313q1 198 -95 308t-263 110t-262 -110t-95 -308t95 -313t262 -115zM1045 1388q-1 0 -7 -4t-14 -7q-8 -4 -21 -9q-98 -38 -344 -42q-210 -3 -303 -127t-118 -368h12q52 108 151 170t234 62q215 1 345 -143t130 -394t-133 -398t-364 -147
t-359 159t-129 477q0 503 165 683q131 143 385 150q245 0 370 55v-117z" />
    <glyph glyph-name="vecyrillic" unicode="&#x432;" horiz-adv-x="1118" 
d="M178 0v1077h436q151 0 237 -73t86 -198q0 -88 -53 -154t-136 -82v-13q106 -13 174 -81t67 -170q1 -144 -97 -225t-274 -81h-440zM589 501h-280v-390h306q119 1 181 51t63 146q0 193 -270 193zM599 966h-290v-354h269q112 0 171 48t59 130q0 84 -54 130t-155 46z" />
    <glyph glyph-name="gecyrillic" unicode="&#x433;" horiz-adv-x="956" 
d="M861 966h-552v-966h-131v1077h683v-111z" />
    <glyph glyph-name="decyrillic" unicode="&#x434;" horiz-adv-x="1257" 
d="M168 -285h-124v396h87q108 70 131 357q6 59 43 609h715v-966h174v-396h-124v285h-902v-285zM889 111v855h-467q-9 -202 -33 -477q-25 -275 -101 -366v-12h601z" />
    <glyph glyph-name="iecyrillic" unicode="&#x435;" horiz-adv-x="1194" 
d="M607 -18q-222 0 -352 150t-130 406q1 254 131 406t348 151q218 0 341 -143q124 -143 124 -390v-58h-809v-6q6 -183 100 -291t250 -108q114 -1 194 43t115 124h133q-40 -132 -158 -208t-287 -76zM604 979q-146 -1 -240 -101t-103 -266h671q-2 167 -92 267t-236 100z" />
    <glyph glyph-name="zhecyrillic" unicode="&#x436;" horiz-adv-x="1602" 
d="M735 603v474h129v-474h47l426 474h160l-480 -515l505 -562h-168l-443 502h-47v-502h-129v502h-48l-442 -502h-166l503 559l-482 518h161l426 -474h48z" />
    <glyph glyph-name="zecyrillic" unicode="&#x437;" horiz-adv-x="1062" 
d="M539 -19q-178 1 -291 81t-132 213h135q19 -83 93 -133t196 -49t196 57t73 151q0 201 -278 201h-168v111h168q115 1 177 49t61 134q0 86 -61 136t-173 50q-111 0 -183 -50t-87 -132h-130q20 133 126 214q105 81 275 81t266 -78t96 -209q0 -86 -54 -152t-138 -84v-12
q108 -18 170 -84t63 -168q0 -149 -111 -238t-289 -89z" />
    <glyph glyph-name="iicyrillic" unicode="&#x438;" horiz-adv-x="1236" 
d="M178 0v1077h131v-868h13l605 868h131v-1077h-131v868h-12l-606 -868h-131z" />
    <glyph glyph-name="iishortcyrillic" unicode="&#x439;" horiz-adv-x="1236" 
d="M178 0v1077h131v-868h13l605 868h131v-1077h-131v868h-12l-606 -868h-131zM288 1538h120q0 -88 54 -147t142 -59t142 59t53 147h120q0 -132 -87 -215t-229 -83q-143 0 -229 83t-86 215z" />
    <glyph glyph-name="kacyrillic" unicode="&#x43a;" horiz-adv-x="1092" 
d="M309 605h42l479 472h162l-531 -517l555 -560h-173l-492 500h-42v-500h-131v1077h131v-472z" />
    <glyph glyph-name="elcyrillic" unicode="&#x43b;" horiz-adv-x="1181" 
d="M131 -9q-54 0 -81 10v121q24 -8 60 -8q77 0 113 95q37 95 50 251t41 617h689v-1077h-131v966h-439q-30 -542 -54 -658q-24 -118 -56 -184t-85 -100t-107 -33z" />
    <glyph glyph-name="emcyrillic" unicode="&#x43c;" horiz-adv-x="1522" 
d="M309 0h-131v1077h158l423 -895h12l421 895h152v-1077h-131v837h-15l-384 -816h-103l-388 816h-14v-837z" />
    <glyph glyph-name="encyrillic" unicode="&#x43d;" horiz-adv-x="1223" 
d="M178 0v1077h131v-462h605v462h131v-1077h-131v504h-605v-504h-131z" />
    <glyph glyph-name="ocyrillic" unicode="&#x43e;" horiz-adv-x="1228" 
d="M614 -18q-226 0 -358 150t-131 407q-1 258 131 407t358 149t358 -149t132 -407q0 -257 -132 -407t-358 -150zM614 101q166 1 260 117t94 321t-94 321t-260 117q-166 -1 -260 -117t-94 -321t94 -321t260 -117z" />
    <glyph glyph-name="pecyrillic" unicode="&#x43f;" horiz-adv-x="1213" 
d="M904 0v966h-595v-966h-131v1077h857v-1077h-131z" />
    <glyph glyph-name="ercyrillic" unicode="&#x440;" horiz-adv-x="1262" 
d="M656 101q158 0 252 118q94 117 94 319t-94 320t-252 119q-158 0 -254 -120t-97 -318q0 -198 96 -318t255 -120zM684 1095q205 -1 329 -153t124 -403q-1 -251 -125 -404t-328 -153q-126 0 -222 60t-141 163h-12v-556h-131v1428h125v-220h12q50 111 148 175t221 63z" />
    <glyph glyph-name="escyrillic" unicode="&#x441;" horiz-adv-x="1165" 
d="M610 977q-162 0 -256 -118q-94 -119 -94 -319t95 -320t255 -119q120 0 202 55t106 154h133q-25 -148 -142 -238t-298 -90q-223 0 -355 152t-131 406q-1 255 131 405t354 150q180 -1 298 -95t144 -240h-133q-25 96 -107 156t-202 61z" />
    <glyph glyph-name="tecyrillic" unicode="&#x442;" horiz-adv-x="1033" 
d="M950 1077v-111h-368v-966h-131v966h-368v111h867z" />
    <glyph glyph-name="ucyrillic" unicode="&#x443;" horiz-adv-x="1099" 
d="M257 -375q-40 0 -61 4v113q22 -3 78 -3t102 42t83 145l22 67l-404 1084h142l326 -934h12l325 934h140l-419 -1129q-71 -190 -142 -256t-204 -67z" />
    <glyph glyph-name="efcyrillic" unicode="&#x444;" horiz-adv-x="1507" 
d="M125 538q0 250 154 398q154 149 411 154v363h128v-363q256 -5 410 -154q154 -148 154 -398t-154 -399t-410 -154v-356h-128v356q-257 5 -411 154t-154 399zM1249 538q0 199 -117 316t-314 122v-877q197 5 314 123t117 316zM258 537q0 -199 117 -315t315 -123v877
q-198 -4 -315 -122t-117 -317z" />
    <glyph glyph-name="hacyrillic" unicode="&#x445;" horiz-adv-x="1069" 
d="M539 440h-12l-294 -440h-150l380 542l-383 535h158l293 -430h12l291 430h151l-378 -530l382 -547h-157z" />
    <glyph glyph-name="tsecyrillic" unicode="&#x446;" horiz-adv-x="1265" 
d="M1202 -285h-124v285h-900v1077h131v-966h588v966h131v-966h174v-396z" />
    <glyph glyph-name="checyrillic" unicode="&#x447;" horiz-adv-x="1151" 
d="M973 0h-131v509h-14q-116 -116 -294 -116t-277 105t-99 281v298h131v-293q0 -127 66 -200q65 -73 181 -73t192 46t114 103v417h131v-1077z" />
    <glyph glyph-name="shacyrillic" unicode="&#x448;" horiz-adv-x="1678" 
d="M178 0v1077h131v-966h465v966h131v-966h464v966h131v-1077h-1322z" />
    <glyph glyph-name="shchacyrillic" unicode="&#x449;" horiz-adv-x="1737" 
d="M1675 -285h-124v285h-1373v1077h131v-966h465v966h131v-966h464v966h131v-966h175v-396z" />
    <glyph glyph-name="hardsigncyrillic" unicode="&#x44a;" horiz-adv-x="1224" 
d="M732 599h-234v-488h234q118 0 188 67q70 68 71 178q0 110 -71 176t-188 67zM732 0h-365v966h-290v111h421v-366h234q178 -1 284 -97t106 -259t-106 -259t-284 -96z" />
    <glyph glyph-name="yericyrillic" unicode="&#x44b;" horiz-adv-x="1406" 
d="M185 0v1077h131v-366h234q178 -1 284 -97t106 -259t-106 -259t-284 -96h-365zM550 599h-234v-488h234q118 1 188 67t71 178q-1 112 -71 177q-70 66 -188 66zM1097 0v1077h131v-1077h-131z" />
    <glyph glyph-name="softsigncyrillic" unicode="&#x44c;" horiz-adv-x="1042" 
d="M178 0v1077h131v-366h234q179 -1 285 -97t105 -259q1 -163 -105 -259t-285 -96h-365zM543 599h-234v-488h234q119 1 189 67t70 178t-70 177q-70 66 -189 66z" />
    <glyph glyph-name="ereversedcyrillic" unicode="&#x44d;" horiz-adv-x="1174" 
d="M561 -19q-185 0 -302 91t-142 237h133q24 -97 106 -153t220 -56t234 109t103 292h-530v112h528q-13 167 -109 265t-230 98t-216 -61t-107 -156h-133q24 144 143 240t302 96q222 0 355 -150q133 -151 133 -405q-1 -254 -133 -406t-355 -153z" />
    <glyph glyph-name="iucyrillic" unicode="&#x44e;" horiz-adv-x="1622" 
d="M1018 99q160 1 252 117t92 322t-92 322t-252 116t-252 -116t-92 -322t92 -322t252 -117zM1022 -19q-218 -1 -346 139t-137 384h-230v-504h-131v1077h131v-462h233q20 224 146 352t339 128q212 1 341 -149t129 -408t-129 -408q-128 -149 -346 -149z" />
    <glyph glyph-name="iacyrillic" unicode="&#x44f;" horiz-adv-x="1081" 
d="M772 0v407h-219l-293 -407h-157l311 429q-124 27 -196 107t-72 198q0 159 106 251t284 92h367v-1077h-131zM536 518h236v448h-236q-119 0 -189 -62t-70 -163q0 -103 71 -163t188 -60z" />
    <glyph glyph-name="iocyrillic" unicode="&#x451;" horiz-adv-x="1194" 
d="M788 1228q-42 0 -73 30q-30 30 -30 72t30 72q31 30 73 30t72 -30t29 -72q1 -42 -29 -72t-72 -30zM424 1228q-42 0 -73 30q-30 30 -30 72t30 72q31 30 73 30t72 -30t29 -72q1 -42 -29 -72t-72 -30zM607 -18q-222 0 -352 150t-130 406q1 254 131 406t348 151
q218 0 341 -143q124 -143 124 -390v-58h-809v-6q6 -183 100 -291t250 -108q114 -1 194 43t115 124h133q-40 -132 -158 -208t-287 -76zM604 979q-146 -1 -240 -101t-103 -266h671q-2 167 -92 267t-236 100z" />
    <glyph glyph-name="djecyrillic" unicode="&#x452;" horiz-adv-x="1255" 
d="M1081 -83q0 -156 -75 -226t-233 -70h-30v113h27q98 0 139 42t41 140v753q0 148 -78 228t-222 80t-237 -93t-93 -244v-640h-131v1285h-132v98h132v153h131v-153h272v-98h-272v-402h12q40 99 136 155t222 57q182 -1 286 -105t105 -290v-783z" />
    <glyph glyph-name="gjecyrillic" unicode="&#x453;" horiz-adv-x="956" 
d="M868 966h-552v-966h-131v1077h683v-111zM410 1267l250 327h168l-269 -327h-149z" />
    <glyph glyph-name="ecyrillic" unicode="&#x454;" horiz-adv-x="1165" 
d="M611 -17q-223 -1 -355 151t-131 406q-1 254 131 405q132 150 354 150q182 1 300 -95t142 -240h-133q-25 95 -106 156t-215 61q-134 1 -228 -97t-107 -265h522v-111h-525q6 -184 102 -294t232 -109q138 1 219 57t105 153h133q-25 -147 -141 -237t-299 -91z" />
    <glyph glyph-name="dzecyrillic" unicode="&#x455;" horiz-adv-x="1078" 
d="M154 800q0 120 112 208q112 87 276 87q164 1 271 -75t125 -204h-129q-17 76 -89 122t-178 45q-106 0 -182 -53q-74 -53 -74 -126t52 -114t162 -67l148 -35q159 -38 234 -106t75 -196q0 -126 -119 -215t-296 -89t-291 78t-130 210h136q22 -82 97 -129q74 -47 192 -47
t197 55t79 132t-51 121t-160 69l-163 39q-152 38 -223 104t-71 186z" />
    <glyph glyph-name="icyrillic" unicode="&#x456;" horiz-adv-x="509" 
d="M250 1317q-40 0 -68 29t-29 69q1 41 29 69t68 28t69 -28t29 -70q0 -40 -29 -68t-69 -29zM185 0v1077h131v-1077h-131z" />
    <glyph glyph-name="yicyrillic" unicode="&#x457;" horiz-adv-x="509" 
d="M436 1228q-42 0 -72 30t-30 72t30 72t72 30t72 -30t30 -72t-30 -72t-72 -30zM72 1228q-42 0 -72 30t-30 72t30 72t72 30t72 -30t30 -72t-30 -72t-72 -30zM189 0v1077h131v-1077h-131z" />
    <glyph glyph-name="jecyrillic" unicode="&#x458;" horiz-adv-x="509" 
d="M250 1317q-40 0 -68 29t-29 69q1 41 29 69t68 28t69 -28t29 -70q0 -40 -29 -68t-69 -29zM316 1077v-1158q0 -156 -75 -227t-233 -71h-30v113h27q98 0 139 42t41 140v1161h131z" />
    <glyph glyph-name="ljecyrillic" unicode="&#x459;" horiz-adv-x="1742" 
d="M1243 599h-233v-488h233q119 1 189 67t70 178t-70 177q-70 66 -189 66zM138 -9q-54 0 -81 10v121q24 -8 54 -8q79 0 117 91t51 251t42 621h689v-366h233q179 -1 285 -97t105 -259q1 -163 -105 -259t-285 -96h-364v966h-439q-23 -364 -34 -489q-12 -126 -28 -206
q-16 -81 -48 -147t-85 -100t-107 -33z" />
    <glyph glyph-name="njecyrillic" unicode="&#x45a;" horiz-adv-x="1764" 
d="M894 0v519h-585v-519h-131v1077h131v-447h585v447h131v-446h240q176 1 280 -85t104 -231t-104 -230t-280 -85h-371zM1265 519h-240v-408h240q115 -1 183 55t69 150q-1 94 -69 148q-68 55 -183 55z" />
    <glyph glyph-name="tshecyrillic" unicode="&#x45b;" horiz-adv-x="1255" 
d="M320 883h12q40 99 136 155t222 57q182 -1 286 -105t105 -290v-700h-131v669q0 148 -78 228t-222 80t-237 -93t-93 -244v-640h-131v1285h-132v98h132v163h131v-163h272v-98h-272v-402z" />
    <glyph glyph-name="kjecyrillic" unicode="&#x45c;" horiz-adv-x="1092" 
d="M309 605h42l479 472h162l-531 -517l555 -560h-173l-492 500h-42v-500h-131v1077h131v-472zM454 1267l250 327h168l-269 -327h-149z" />
    <glyph glyph-name="ushortcyrillic" unicode="&#x45e;" horiz-adv-x="1099" 
d="M257 -375q-40 0 -61 4v113q22 -3 78 -3t102 42t83 145l22 67l-404 1084h142l326 -934h12l325 934h140l-419 -1129q-71 -190 -142 -256t-204 -67zM240 1538h120q0 -88 54 -147t142 -59t142 59t53 147h120q0 -132 -87 -215t-229 -83q-143 0 -229 83t-86 215z" />
    <glyph glyph-name="dzhecyrillic" unicode="&#x45f;" horiz-adv-x="1213" 
d="M1035 0h-366v-285h-125v285h-366v1077h131v-966h595v966h131v-1077z" />
    <glyph glyph-name="Geupturncyrillic" unicode="&#x490;" horiz-adv-x="1153" 
d="M333 1318v-1318h-138v1443h715v273h128v-398h-705z" />
    <glyph glyph-name="geupturncyrillic" unicode="&#x491;" horiz-adv-x="956" 
d="M861 966h-552v-966h-131v1077h559v274h124v-385z" />
    <glyph glyph-name="baht" unicode="&#xe3f;" horiz-adv-x="1321" 
d="M1149 399q1 -189 -129 -294t-364 -105h-16v-150h-104v150h-365v1443h365v156h104v-156h5q199 0 315 -96t115 -260q-1 -121 -75 -209t-190 -109v-13q153 -18 246 -114t93 -243zM937 1066q0 116 -79 183q-79 68 -218 73v-513q143 11 220 76t77 181zM308 1322v-515h228v515
h-228zM308 121h228v567h-228v-567zM1009 404q0 136 -95 208t-274 76v-567q180 1 274 74t95 209z" />
    <glyph glyph-name="Aringbelow" unicode="&#x1e00;" horiz-adv-x="1363" 
d="M682 -464q53 0 89 36t36 90q0 53 -36 89t-89 36t-89 -36t-36 -89q0 -54 36 -90t89 -36zM682 -549q-89 0 -151 61q-62 62 -62 150t62 149t151 61t151 -61t62 -149t-62 -150q-62 -61 -151 -61zM675 1264l-255 -704h524l-256 704h-13zM1145 0l-160 442h-606l-160 -442h-145
l540 1443h136l539 -1443h-144z" />
    <glyph glyph-name="aringbelow" unicode="&#x1e01;" horiz-adv-x="1125" 
d="M544 -464q53 0 89 36t36 90q0 53 -36 89t-89 36t-89 -36t-36 -89q0 -54 36 -90t89 -36zM544 -549q-89 0 -151 61q-62 62 -62 150t62 149t151 61t151 -61t62 -149t-62 -150q-62 -61 -151 -61zM106 296q0 142 100 222t288 94l337 22v104q-1 116 -69 178t-189 62t-197 -44
t-94 -123h-133q19 128 133 206t294 78q180 1 284 -93t103 -263v-739h-126v185h-12q-105 -203 -377 -203q-140 0 -240 86q-102 86 -102 228zM508 98q128 0 226 88t97 215v126l-319 -23q-271 -19 -271 -204q0 -92 70 -147q69 -55 197 -55z" />
    <glyph glyph-name="Bdotaccent" unicode="&#x1e02;" horiz-adv-x="1319" 
d="M322 121h374q181 0 276 73t95 211q0 139 -100 211t-288 72h-357v-567zM322 1322v-515h323q168 1 259 67t91 189q-1 123 -85 191t-232 68h-356zM715 0h-530v1443h519q199 1 314 -95t115 -261q0 -121 -74 -209t-190 -109v-13q153 -17 245 -113t93 -244q0 -189 -129 -294
t-363 -105zM601 1577q-45 1 -75 31t-30 73t31 74t74 31t74 -31t31 -74t-30 -73t-75 -31z" />
    <glyph glyph-name="bdotaccent" unicode="&#x1e03;" horiz-adv-x="1252" 
d="M658 977q-159 1 -255 -119t-96 -319t96 -319t255 -119t252 119t93 320t-93 319q-93 118 -252 118zM685 -18q-124 0 -222 62t-146 171h-13v-215h-125v1506h131v-638h12q45 105 143 166t220 61q205 0 329 -152q124 -151 124 -403t-124 -405t-329 -153zM244 1640
q-44 0 -74 30t-31 74q1 44 31 74t74 31q44 -1 74 -31t31 -74q-1 -44 -31 -74t-74 -30z" />
    <glyph glyph-name="Bdotbelow" unicode="&#x1e04;" horiz-adv-x="1319" 
d="M322 121h374q181 0 276 73t95 211q0 139 -100 211t-288 72h-357v-567zM322 1322v-515h323q168 1 259 67t91 189q-1 123 -85 191t-232 68h-356zM715 0h-530v1443h519q199 1 314 -95t115 -261q0 -121 -74 -209t-190 -109v-13q153 -17 245 -113t93 -244q0 -189 -129 -294
t-363 -105zM601 -364q-43 0 -74 31t-31 74t31 73t74 31q43 -1 74 -31t31 -73t-31 -74t-74 -31z" />
    <glyph glyph-name="bdotbelow" unicode="&#x1e05;" horiz-adv-x="1252" 
d="M658 977q-159 1 -255 -119t-96 -319t96 -319t255 -119t252 119t93 320t-93 319q-93 118 -252 118zM685 -18q-124 0 -222 62t-146 171h-13v-215h-125v1506h131v-638h12q45 105 143 166t220 61q205 0 329 -152q124 -151 124 -403t-124 -405t-329 -153zM659 -364
q-43 0 -74 31t-31 74t31 73t74 31q43 -1 74 -31t31 -73t-31 -74t-74 -31z" />
    <glyph glyph-name="Blinebelow" unicode="&#x1e06;" horiz-adv-x="1319" 
d="M923 -309h-644v105h644v-105zM322 121h374q181 0 276 73t95 211q0 139 -100 211t-288 72h-357v-567zM322 1322v-515h323q168 1 259 67t91 189q-1 123 -85 191t-232 68h-356zM715 0h-530v1443h519q199 1 314 -95t115 -261q0 -121 -74 -209t-190 -109v-13q153 -17 245 -113
t93 -244q0 -189 -129 -294t-363 -105z" />
    <glyph glyph-name="blinebelow" unicode="&#x1e07;" horiz-adv-x="1252" 
d="M658 977q-159 1 -255 -119t-96 -319t96 -319t255 -119t252 119t93 320t-93 319q-93 118 -252 118zM685 -18q-124 0 -222 62t-146 171h-13v-215h-125v1506h131v-638h12q45 105 143 166t220 61q205 0 329 -152q124 -151 124 -403t-124 -405t-329 -153zM981 -309h-644v105
h644v-105z" />
    <glyph glyph-name="Ccedillaacute" unicode="&#x1e08;" horiz-adv-x="1455" 
d="M762 1346q-227 0 -361 -170t-134 -456t134 -454t362 -169q167 0 287 86t149 228h139q-28 -187 -170 -306t-352 -133l-46 -114q100 0 156 -42t57 -120q0 -80 -63 -130q-62 -50 -154 -50t-157 20v87q51 -18 119 -18t104 24t36 66q0 81 -155 81h-56v67l53 129
q-271 18 -427 218t-156 539t171 541t464 203q148 -1 272 -61t204 -168t100 -242h-139q-31 152 -153 248t-284 96zM1159 1875l-326 -297h-158l310 297h174z" />
    <glyph glyph-name="ccedillaacute" unicode="&#x1e09;" horiz-adv-x="1145" 
d="M600 977q-162 0 -256 -118q-94 -119 -94 -319t95 -320t255 -119q120 0 202 55t106 154h133q-23 -134 -123 -222t-258 -103l-51 -127q101 0 157 -42t56 -120q0 -80 -63 -130t-155 -50t-156 20v87q50 -18 118 -18t105 24q36 24 36 66q0 81 -155 81h-56v67l57 141
q-202 16 -320 166t-118 398q-1 248 131 397q132 150 354 150q180 -1 298 -95t144 -240h-133q-25 96 -107 156t-202 61zM927 1594l-269 -327h-149l250 327h168z" />
    <glyph glyph-name="Ddotaccent" unicode="&#x1e0a;" horiz-adv-x="1471" 
d="M322 1319v-1195h330q263 0 408 158t145 439t-145 439t-408 159h-330zM185 1443h475q327 0 506 -191q179 -190 179 -530q-1 -340 -179 -531t-506 -191h-475v1443zM591 1577q-45 1 -75 31t-30 73t31 74t74 31t74 -31t31 -74t-30 -73t-75 -31z" />
    <glyph glyph-name="ddotaccent" unicode="&#x1e0b;" horiz-adv-x="1256" 
d="M598 977q-160 0 -254 -119q-94 -120 -94 -320t94 -318t254 -119q160 0 255 119t95 318t-96 319t-254 120zM571 -18q-206 0 -331 152t-125 404q-1 250 125 404t331 153q123 0 220 -61t143 -167h12v639h131v-1506h-126v215h-12q-49 -109 -147 -171t-221 -62zM1011 1640
q-45 0 -75 30t-30 74t31 74t74 31q43 -1 74 -31t31 -74t-30 -74t-75 -30z" />
    <glyph glyph-name="Ddotbelow" unicode="&#x1e0c;" horiz-adv-x="1471" 
d="M322 1319v-1195h330q263 0 408 158t145 439t-145 439t-408 159h-330zM185 1443h475q327 0 506 -191q179 -190 179 -530q-1 -340 -179 -531t-506 -191h-475v1443zM591 -364q-43 0 -74 31t-31 74t31 73t74 31q43 -1 74 -31t31 -73t-31 -74t-74 -31z" />
    <glyph glyph-name="ddotbelow" unicode="&#x1e0d;" horiz-adv-x="1256" 
d="M598 977q-160 0 -254 -119q-94 -120 -94 -320t94 -318t254 -119q160 0 255 119t95 318t-96 319t-254 120zM571 -18q-206 0 -331 152t-125 404q-1 250 125 404t331 153q123 0 220 -61t143 -167h12v639h131v-1506h-126v215h-12q-49 -109 -147 -171t-221 -62zM648 -364
q-44 0 -74 31t-31 74q0 43 31 73t74 31q43 -1 74 -31t31 -73q-1 -43 -31 -74t-74 -31z" />
    <glyph glyph-name="Dlinebelow" unicode="&#x1e0e;" horiz-adv-x="1471" 
d="M322 1319v-1195h330q263 0 408 158t145 439t-145 439t-408 159h-330zM185 1443h475q327 0 506 -191q179 -190 179 -530q-1 -340 -179 -531t-506 -191h-475v1443zM913 -309h-644v105h644v-105z" />
    <glyph glyph-name="dlinebelow" unicode="&#x1e0f;" horiz-adv-x="1256" 
d="M598 977q-160 0 -254 -119q-94 -120 -94 -320t94 -318t254 -119q160 0 255 119t95 318t-96 319t-254 120zM571 -18q-206 0 -331 152t-125 404q-1 250 125 404t331 153q123 0 220 -61t143 -167h12v639h131v-1506h-126v215h-12q-49 -109 -147 -171t-221 -62zM970 -309h-644
v105h644v-105z" />
    <glyph glyph-name="Dcommaaccent" unicode="&#x1e10;" horiz-adv-x="1471" 
d="M322 1319v-1195h330q263 0 408 158t145 439t-145 439t-408 159h-330zM185 1443h475q327 0 506 -191q179 -190 179 -530q-1 -340 -179 -531t-506 -191h-475v1443zM570 -506h-127l102 364h141z" />
    <glyph glyph-name="dcommaaccent" unicode="&#x1e11;" horiz-adv-x="1256" 
d="M598 977q-160 0 -254 -119q-94 -120 -94 -320t94 -318t254 -119q160 0 255 119t95 318t-96 319t-254 120zM571 -18q-206 0 -331 152t-125 404q-1 250 125 404t331 153q123 0 220 -61t143 -167h12v639h131v-1506h-126v215h-12q-49 -109 -147 -171t-221 -62zM627 -506h-127
l102 364h141z" />
    <glyph glyph-name="Dcircumflexbelow" unicode="&#x1e12;" horiz-adv-x="1471" 
d="M653 -143l289 -289h-155l-190 197h-12l-190 -197h-155l289 289h124zM322 1319v-1195h330q263 0 408 158t145 439t-145 439t-408 159h-330zM185 1443h475q327 0 506 -191q179 -190 179 -530q-1 -340 -179 -531t-506 -191h-475v1443z" />
    <glyph glyph-name="dcircumflexbelow" unicode="&#x1e13;" horiz-adv-x="1256" 
d="M710 -143l289 -289h-155l-190 197h-12l-190 -197h-155l289 289h124zM598 977q-160 0 -254 -119q-94 -120 -94 -320t94 -318t254 -119q160 0 255 119t95 318t-96 319t-254 120zM571 -18q-206 0 -331 152t-125 404q-1 250 125 404t331 153q123 0 220 -61t143 -167h12v639
h131v-1506h-126v215h-12q-49 -109 -147 -171t-221 -62z" />
    <glyph glyph-name="Emacrongrave" unicode="&#x1e14;" horiz-adv-x="1197" 
d="M1057 124v-124h-872v1443h872v-124h-735v-519h698v-122h-698v-554h735zM706 1839h-149l-243 217h168zM943 1619h-644v101h644v-101z" />
    <glyph glyph-name="emacrongrave" unicode="&#x1e15;" horiz-adv-x="1174" 
d="M928 1276h-662v106h662v-106zM692 1540h-147l-235 290h168zM597 -18q-222 0 -352 150t-130 406q1 254 131 406t348 151q218 0 341 -143q124 -143 124 -390v-58h-809v-6q6 -183 100 -291t250 -108q114 -1 194 43t115 124h133q-40 -132 -158 -208t-287 -76zM594 979
q-146 -1 -240 -101t-103 -266h671q-2 167 -92 267t-236 100z" />
    <glyph glyph-name="Emacronacute" unicode="&#x1e16;" horiz-adv-x="1197" 
d="M1057 124v-124h-872v1443h872v-124h-735v-519h698v-122h-698v-554h735zM536 1838l224 217h168l-243 -217h-149zM943 1618h-644v101h644v-101z" />
    <glyph glyph-name="emacronacute" unicode="&#x1e17;" horiz-adv-x="1174" 
d="M928 1276h-662v106h662v-106zM498 1540l214 290h167l-234 -290h-147zM597 -18q-222 0 -352 150t-130 406q1 254 131 406t348 151q218 0 341 -143q124 -143 124 -390v-58h-809v-6q6 -183 100 -291t250 -108q114 -1 194 43t115 124h133q-40 -132 -158 -208t-287 -76z
M594 979q-146 -1 -240 -101t-103 -266h671q-2 167 -92 267t-236 100z" />
    <glyph glyph-name="Ecircumflexbelow" unicode="&#x1e18;" horiz-adv-x="1197" 
d="M683 -143l289 -289h-155l-190 197h-12l-190 -197h-155l289 289h124zM1057 124v-124h-872v1443h872v-124h-735v-519h698v-122h-698v-554h735z" />
    <glyph glyph-name="ecircumflexbelow" unicode="&#x1e19;" horiz-adv-x="1174" 
d="M660 -143l289 -289h-155l-190 197h-12l-190 -197h-155l289 289h124zM597 -18q-222 0 -352 150t-130 406q1 254 131 406t348 151q218 0 341 -143q124 -143 124 -390v-58h-809v-6q6 -183 100 -291t250 -108q114 -1 194 43t115 124h133q-40 -132 -158 -208t-287 -76z
M594 979q-146 -1 -240 -101t-103 -266h671q-2 167 -92 267t-236 100z" />
    <glyph glyph-name="Etildebelow" unicode="&#x1e1a;" horiz-adv-x="1197" 
d="M1057 124v-124h-872v1443h872v-124h-735v-519h698v-122h-698v-554h735zM272 -386q0 119 56 187t144 68q89 0 149 -58q25 -25 47 -49q53 -58 95 -58q43 0 71 38t31 115h105q0 -115 -56 -185t-142 -70t-144 58q-24 24 -46 50q-51 58 -103 58q-97 0 -101 -154h-106z" />
    <glyph glyph-name="etildebelow" unicode="&#x1e1b;" horiz-adv-x="1174" 
d="M597 -18q-222 0 -352 150t-130 406q1 254 131 406t348 151q218 0 341 -143q124 -143 124 -390v-58h-809v-6q6 -183 100 -291t250 -108q114 -1 194 43t115 124h133q-40 -132 -158 -208t-287 -76zM594 979q-146 -1 -240 -101t-103 -266h671q-2 167 -92 267t-236 100z
M249 -386q-1 119 55 187t145 68t149 -58q25 -25 47 -49q53 -58 95 -58q43 0 71 38t31 115h105q0 -115 -56 -185t-142 -70t-144 58q-23 24 -45 50q-51 59 -104 58q-97 0 -101 -154h-106z" />
    <glyph glyph-name="Ecedillabreve" unicode="&#x1e1c;" horiz-adv-x="1197" 
d="M1057 1319h-735v-519h698v-122h-698v-554h735v-124h-371l-57 -142q101 0 157 -42t56 -120q0 -80 -63 -130t-155 -50t-156 20v87q50 -18 118 -18t105 24q36 24 36 66q0 81 -155 81h-56v67l64 157h-395v1443h872v-124zM833 1851h118q0 -126 -89 -200t-241 -74t-241 74
t-89 200h118q-1 -81 57 -129t155 -47q97 -1 155 47t57 129z" />
    <glyph glyph-name="ecedillabreve" unicode="&#x1e1d;" horiz-adv-x="1174" 
d="M1059 504h-809v-6q6 -183 100 -291t250 -108q114 -1 194 43t115 124h133q-36 -120 -138 -194t-247 -87l-51 -127q100 0 156 -42t57 -120q0 -80 -63 -130q-62 -50 -154 -50t-157 20v87q51 -18 119 -18t104 24t36 66q0 81 -155 81h-56v67l57 141q-201 16 -318 164t-117 396
q1 248 131 400t348 151q218 0 341 -143q124 -143 124 -390v-58zM594 979q-146 -1 -240 -101t-103 -266h671q-2 167 -92 267t-236 100zM805 1538h119q0 -134 -88 -216t-242 -82t-242 82t-88 216h119q-1 -90 55 -144t156 -54t156 54t55 144z" />
    <glyph glyph-name="Fdotaccent" unicode="&#x1e1e;" horiz-adv-x="1155" 
d="M322 0h-137v1443h856v-124h-719v-542h661v-122h-661v-655zM613 1577q-45 1 -75 31t-30 73t31 74t74 31t74 -31t31 -74t-30 -73t-75 -31z" />
    <glyph glyph-name="fdotaccent" unicode="&#x1e1f;" horiz-adv-x="708" 
d="M545 1381q-173 0 -173 -188v-116h254v-111h-254v-966h-131v966h-174v111h174v119q0 297 297 297q45 0 98 -10v-111q-38 9 -91 9zM424 1618q-44 0 -74 30t-31 74q1 44 31 74t74 31q44 -1 74 -31t31 -74q-1 -44 -31 -74t-74 -30z" />
    <glyph glyph-name="Gmacron" unicode="&#x1e20;" horiz-adv-x="1506" 
d="M1092 1619h-644v105h644v-105zM1375 559q0 -269 -164 -429q-163 -160 -447 -160t-460 206t-177 545q0 340 176 546t467 206q232 0 392 -123t199 -329h-139q-45 155 -163 240t-289 85q-229 0 -366 -170t-137 -454q-1 -284 137 -455q138 -170 360 -170q222 -1 348 123
q127 124 127 328v50h-440v121h576v-160z" />
    <glyph glyph-name="gmacron" unicode="&#x1e21;" horiz-adv-x="1242" 
d="M620 -404q-198 0 -315 76t-138 202h139q18 -75 98 -119t219 -44t229 76t91 207v242h-13q-48 -107 -142 -166t-219 -59q-207 1 -331 149t-123 392q0 244 124 394t330 149q123 0 223 -63t144 -168h12v213h126v-1093q0 -176 -128 -282t-326 -106zM945 550q1 192 -95 310
q-96 117 -256 117q-160 1 -252 -115t-92 -310t92 -308q92 -116 254 -116q160 0 254 115t95 307zM936 1292h-662v106h662v-106z" />
    <glyph glyph-name="Hdotaccent" unicode="&#x1e22;" horiz-adv-x="1488" 
d="M744 1577q-44 1 -74 31t-31 73q1 43 31 74t74 31t74 -31t31 -74q-1 -43 -31 -73t-74 -31zM1303 0h-137v677h-844v-677h-137v1443h137v-642h844v642h137v-1443z" />
    <glyph glyph-name="hdotaccent" unicode="&#x1e23;" horiz-adv-x="1224" 
d="M244 1640q-44 0 -74 30t-31 74q1 44 31 74t74 31q44 -1 74 -31t31 -74q-1 -44 -31 -74t-74 -30zM933 667q0 310 -285 310q-152 0 -245 -94t-93 -243v-640h-131v1506h131v-623h12q44 100 138 156t222 56q182 0 282 -104t100 -291v-700h-131v667z" />
    <glyph glyph-name="Hdotbelow" unicode="&#x1e24;" horiz-adv-x="1488" 
d="M744 -364q-44 0 -74 31t-31 74q0 43 31 73t74 31q43 -1 74 -31t31 -73q-1 -43 -31 -74t-74 -31zM1303 0h-137v677h-844v-677h-137v1443h137v-642h844v642h137v-1443z" />
    <glyph glyph-name="hdotbelow" unicode="&#x1e25;" horiz-adv-x="1224" 
d="M625 -364q-43 0 -74 31t-31 74t31 73t74 31q43 -1 74 -31t31 -73t-31 -74t-74 -31zM933 667q0 310 -285 310q-152 0 -245 -94t-93 -243v-640h-131v1506h131v-623h12q44 100 138 156t222 56q182 0 282 -104t100 -291v-700h-131v667z" />
    <glyph glyph-name="Hdieresis" unicode="&#x1e26;" horiz-adv-x="1488" 
d="M926 1568q-42 0 -72 30t-30 72t30 72t72 30t72 -30t30 -72t-30 -72t-72 -30zM562 1568q-42 0 -72 30t-30 72t30 72t72 30t72 -30t30 -72t-30 -72t-72 -30zM1303 0h-137v677h-844v-677h-137v1443h137v-642h844v642h137v-1443z" />
    <glyph glyph-name="hdieresis" unicode="&#x1e27;" horiz-adv-x="1224" 
d="M426 1631q-42 -1 -72 29t-30 73t30 73t72 29q42 1 72 -29t30 -73t-30 -73t-72 -29zM62 1631q-42 -1 -72 29t-30 73t30 73t72 29q42 1 72 -29t30 -73t-30 -73t-72 -29zM933 667q0 310 -285 310q-152 0 -245 -94t-93 -243v-640h-131v1506h131v-623h12q44 100 138 156
t222 56q182 0 282 -104t100 -291v-700h-131v667z" />
    <glyph glyph-name="Hcedilla" unicode="&#x1e28;" horiz-adv-x="1488" 
d="M185 1443h137v-642h844v642h137v-1443h-137v677h-844v-677l-57 -142q101 0 158 -42t57 -120q0 -80 -64 -130t-154 -50q-91 0 -156 20v87q50 -18 118 -18t105 24q36 24 36 66q0 81 -155 81h-56v67l64 157h-33v1443z" />
    <glyph glyph-name="hcedilla" unicode="&#x1e29;" horiz-adv-x="1224" 
d="M933 667q0 310 -285 310q-152 0 -245 -94t-93 -243v-640l-57 -142q101 0 157 -42t57 -120q0 -78 -63 -130q-63 -50 -156 -50t-155 20v87q50 -18 119 -18q68 1 104 25t36 65q0 81 -155 81h-56v67l64 157h-26v1506h131v-623h12q44 100 138 156t222 56q182 0 282 -104
t100 -291v-700h-131v667z" />
    <glyph glyph-name="Hbrevebelow" unicode="&#x1e2a;" horiz-adv-x="1488" 
d="M1303 0h-137v677h-844v-677h-137v1443h137v-642h844v642h137v-1443zM414 -131h118q0 -81 58 -129t154 -47q96 -1 154 47t58 129h118q0 -126 -89 -200t-241 -74t-241 74t-89 200z" />
    <glyph glyph-name="hbrevebelow" unicode="&#x1e2b;" horiz-adv-x="1224" 
d="M933 667q0 310 -285 310q-152 0 -245 -94t-93 -243v-640h-131v1506h131v-623h12q44 100 138 156t222 56q182 0 282 -104t100 -291v-700h-131v667zM295 -131h118q-1 -81 57 -129t155 -47q97 -1 155 47t57 129h118q0 -126 -89 -200t-241 -74t-241 74t-89 200z" />
    <glyph glyph-name="Itildebelow" unicode="&#x1e2c;" horiz-adv-x="507" 
d="M-95 -386q-1 119 55 187t145 68t149 -58q25 -25 47 -49q53 -58 95 -58q43 0 71 38t31 115h105q0 -115 -56 -185t-142 -70t-144 58q-23 24 -45 50q-51 58 -104 58q-97 0 -101 -154h-106zM322 0h-137v1443h137v-1443z" />
    <glyph glyph-name="itildebelow" unicode="&#x1e2d;" horiz-adv-x="480" 
d="M98 -232q-97 0 -101 -154h-106q-1 119 55 187t145 68t149 -58q25 -25 47 -49q53 -58 95 -58q43 0 71 38t31 115h105q0 -115 -56 -185t-142 -70t-144 58q-23 24 -45 50q-52 58 -104 58zM240 1317q-40 0 -68 29t-29 69q1 41 29 69t68 28t69 -28t29 -70q0 -40 -29 -68
t-69 -29zM175 0v1077h131v-1077h-131z" />
    <glyph glyph-name="Idieresisacute" unicode="&#x1e2e;" horiz-adv-x="507" 
d="M436 1568q-42 0 -72 30t-30 72t30 72t72 30t72 -30t30 -72t-30 -72t-72 -30zM72 1568q-42 0 -72 30t-30 72t30 72t72 30t72 -30t30 -72t-30 -72t-72 -30zM180 1839l231 217h174l-267 -217h-138zM322 0h-137v1443h137v-1443z" />
    <glyph glyph-name="idieresisacute" unicode="&#x1e2f;" horiz-adv-x="489" 
d="M179 0v1077h131v-1077h-131zM426 1228q-42 0 -72 30t-30 72t30 72t72 30t72 -30t30 -72t-30 -72t-72 -30zM62 1228q-42 0 -72 30t-30 72t30 72t72 30t72 -30t30 -72t-30 -72t-72 -30zM162 1554l207 296h154l-229 -296h-132z" />
    <glyph glyph-name="Kacute" unicode="&#x1e30;" horiz-adv-x="1311" 
d="M322 0h-137v1443h137v-746h12l683 746h171l-578 -623l637 -820h-177l-555 725l-193 -210v-515zM550 1577l310 297h174l-326 -297h-158z" />
    <glyph glyph-name="kacute" unicode="&#x1e31;" horiz-adv-x="1092" 
d="M310 0h-131v1506h131v-933h12l526 504h164l-481 -462l503 -615h-168l-434 531l-122 -113v-418zM157 1640l310 297h174l-326 -297h-158z" />
    <glyph glyph-name="Kdotbelow" unicode="&#x1e32;" horiz-adv-x="1311" 
d="M322 0h-137v1443h137v-746h12l683 746h171l-578 -623l637 -820h-177l-555 725l-193 -210v-515zM637 -364q-43 0 -74 31t-31 74t31 73t74 31q43 -1 74 -31t31 -73t-31 -74t-74 -31z" />
    <glyph glyph-name="kdotbelow" unicode="&#x1e33;" horiz-adv-x="1092" 
d="M310 0h-131v1506h131v-933h12l526 504h164l-481 -462l503 -615h-168l-434 531l-122 -113v-418zM582 -364q-44 0 -74 31t-31 74q0 43 31 73t74 31q43 -1 74 -31t31 -73q-1 -43 -31 -74t-74 -31z" />
    <glyph glyph-name="Klinebelow" unicode="&#x1e34;" horiz-adv-x="1311" 
d="M959 -309h-644v105h644v-105zM322 0h-137v1443h137v-746h12l683 746h171l-578 -623l637 -820h-177l-555 725l-193 -210v-515z" />
    <glyph glyph-name="klinebelow" unicode="&#x1e35;" horiz-adv-x="1092" 
d="M904 -309h-644v105h644v-105zM310 0h-131v1506h131v-933h12l526 504h164l-481 -462l503 -615h-168l-434 531l-122 -113v-418z" />
    <glyph glyph-name="Ldotbelow" unicode="&#x1e36;" horiz-adv-x="1139" 
d="M1044 124v-124h-859v1443h137v-1319h722zM615 -364q-43 0 -74 31t-31 74t31 73t74 31q43 -1 74 -31t31 -73t-31 -74t-74 -31z" />
    <glyph glyph-name="ldotbelow" unicode="&#x1e37;" horiz-adv-x="489" 
d="M179 0v1506h131v-1506h-131zM244 -364q-44 0 -74 31t-31 74q0 43 31 73t74 31q43 -1 74 -31t31 -73q-1 -43 -31 -74t-74 -31z" />
    <glyph glyph-name="Ldotbelowmacron" unicode="&#x1e38;" horiz-adv-x="1139" 
d="M576 1619h-644v105h644v-105zM1044 124v-124h-859v1443h137v-1319h722zM615 -364q-43 0 -74 31t-31 74t31 73t74 31q43 -1 74 -31t31 -73t-31 -74t-74 -31z" />
    <glyph glyph-name="ldotbelowmacron" unicode="&#x1e39;" horiz-adv-x="489" 
d="M566 1682h-644v105h644v-105zM179 0v1506h131v-1506h-131zM244 -364q-44 0 -74 31t-31 74q0 43 31 73t74 31q43 -1 74 -31t31 -73q-1 -43 -31 -74t-74 -31z" />
    <glyph glyph-name="Llinebelow" unicode="&#x1e3a;" horiz-adv-x="1139" 
d="M1044 124v-124h-859v1443h137v-1319h722zM937 -309h-644v105h644v-105z" />
    <glyph glyph-name="llinebelow" unicode="&#x1e3b;" horiz-adv-x="489" 
d="M179 0v1506h131v-1506h-131zM566 -309h-644v105h644v-105z" />
    <glyph glyph-name="Lcircumflexbelow" unicode="&#x1e3c;" horiz-adv-x="1139" 
d="M677 -143l289 -289h-155l-190 197h-12l-190 -197h-155l289 289h124zM1044 124v-124h-859v1443h137v-1319h722z" />
    <glyph glyph-name="lcircumflexbelow" unicode="&#x1e3d;" horiz-adv-x="489" 
d="M306 -143l289 -289h-155l-190 197h-12l-190 -197h-155l289 289h124zM179 0v1506h131v-1506h-131z" />
    <glyph glyph-name="Macute" unicode="&#x1e3e;" horiz-adv-x="1761" 
d="M314 0h-129v1443h157l533 -1256h12l531 1256h158v-1443h-128v1177h-10l-498 -1170h-119l-498 1170h-9v-1177zM794 1577l310 297h174l-326 -297h-158z" />
    <glyph glyph-name="macute" unicode="&#x1e3f;" horiz-adv-x="1777" 
d="M169 0v1077h125v-194h13q35 99 117 155t194 57q110 -1 190 -57t115 -155h13q42 98 132 155t204 57q162 1 252 -93t89 -265v-737h-131v707q0 132 -64 201t-186 69q-122 1 -199 -83t-77 -211v-683h-131v721q0 116 -68 186q-69 70 -183 70t-194 -92t-80 -224v-661h-131z
M802 1267l250 327h168l-269 -327h-149z" />
    <glyph glyph-name="Mdotaccent" unicode="&#x1e40;" horiz-adv-x="1761" 
d="M314 0h-129v1443h157l533 -1256h12l531 1256h158v-1443h-128v1177h-10l-498 -1170h-119l-498 1170h-9v-1177zM881 1577q-45 1 -75 31t-30 73t31 74t74 31t74 -31t31 -74t-30 -73t-75 -31z" />
    <glyph glyph-name="mdotaccent" unicode="&#x1e41;" horiz-adv-x="1777" 
d="M169 0v1077h125v-194h13q35 99 117 155t194 57q110 -1 190 -57t115 -155h13q42 98 132 155t204 57q162 1 252 -93t89 -265v-737h-131v707q0 132 -64 201t-186 69q-122 1 -199 -83t-77 -211v-683h-131v721q0 116 -68 186q-69 70 -183 70t-194 -92t-80 -224v-661h-131z
M891 1280q-45 0 -77 32t-32 78q0 45 32 77t77 32t77 -32t32 -77q0 -46 -32 -78t-77 -32z" />
    <glyph glyph-name="Mdotbelow" unicode="&#x1e42;" horiz-adv-x="1761" 
d="M314 0h-129v1443h157l533 -1256h12l531 1256h158v-1443h-128v1177h-10l-498 -1170h-119l-498 1170h-9v-1177zM881 -364q-43 0 -74 31t-31 74t31 73t74 31q43 -1 74 -31t31 -73t-31 -74t-74 -31z" />
    <glyph glyph-name="mdotbelow" unicode="&#x1e43;" horiz-adv-x="1777" 
d="M169 0v1077h125v-194h13q35 99 117 155t194 57q110 -1 190 -57t115 -155h13q42 98 132 155t204 57q162 1 252 -93t89 -265v-737h-131v707q0 132 -64 201t-186 69q-122 1 -199 -83t-77 -211v-683h-131v721q0 116 -68 186q-69 70 -183 70t-194 -92t-80 -224v-661h-131z
M891 -364q-43 0 -74 31t-31 74t31 73t74 31q43 -1 74 -31t31 -73t-31 -74t-74 -31z" />
    <glyph glyph-name="Ndotaccent" unicode="&#x1e44;" horiz-adv-x="1494" 
d="M320 0h-135v1443h135l841 -1198h13v1198h135v-1443h-132l-844 1199h-13v-1199zM747 1577q-45 1 -75 31t-30 73t31 74t74 31t74 -31t31 -74t-30 -73t-75 -31z" />
    <glyph glyph-name="ndotaccent" unicode="&#x1e45;" horiz-adv-x="1206" 
d="M169 0v1077h125v-194h13q43 100 138 156t223 56q180 1 279 -103t99 -292v-700h-131v667q0 310 -281 310q-150 -1 -242 -93t-92 -244v-640h-131zM628 1280q-45 0 -77 32t-32 78q0 45 32 77t77 32t77 -32t32 -77q0 -46 -32 -78t-77 -32z" />
    <glyph glyph-name="Ndotbelow" unicode="&#x1e46;" horiz-adv-x="1494" 
d="M320 0h-135v1443h135l841 -1198h13v1198h135v-1443h-132l-844 1199h-13v-1199zM747 -364q-43 0 -74 31t-31 74t31 73t74 31q43 -1 74 -31t31 -73t-31 -74t-74 -31z" />
    <glyph glyph-name="ndotbelow" unicode="&#x1e47;" horiz-adv-x="1206" 
d="M169 0v1077h125v-194h13q43 100 138 156t223 56q180 1 279 -103t99 -292v-700h-131v667q0 310 -281 310q-150 -1 -242 -93t-92 -244v-640h-131zM602 -364q-44 0 -74 31t-31 74q0 43 31 73t74 31q43 -1 74 -31t31 -73q-1 -43 -31 -74t-74 -31z" />
    <glyph glyph-name="Nlinebelow" unicode="&#x1e48;" horiz-adv-x="1494" 
d="M320 0h-135v1443h135l841 -1198h13v1198h135v-1443h-132l-844 1199h-13v-1199zM1069 -309h-644v105h644v-105z" />
    <glyph glyph-name="nlinebelow" unicode="&#x1e49;" horiz-adv-x="1206" 
d="M169 0v1077h125v-194h13q43 100 138 156t223 56q180 1 279 -103t99 -292v-700h-131v667q0 310 -281 310q-150 -1 -242 -93t-92 -244v-640h-131zM924 -309h-644v105h644v-105z" />
    <glyph glyph-name="Ncircumflexbelow" unicode="&#x1e4a;" horiz-adv-x="1494" 
d="M809 -143l289 -289h-155l-190 197h-12l-190 -197h-155l289 289h124zM320 0h-135v1443h135l841 -1198h13v1198h135v-1443h-132l-844 1199h-13v-1199z" />
    <glyph glyph-name="ncircumflexbelow" unicode="&#x1e4b;" horiz-adv-x="1206" 
d="M664 -143l289 -289h-155l-190 197h-12l-190 -197h-155l289 289h124zM169 0v1077h125v-194h13q43 100 138 156t223 56q180 1 279 -103t99 -292v-700h-131v667q0 310 -281 310q-150 -1 -242 -93t-92 -244v-640h-131z" />
    <glyph glyph-name="Otildeacute" unicode="&#x1e4c;" horiz-adv-x="1561" 
d="M648 1710q-96 0 -100 -122h-106q0 98 56 160t142 62t138 -48q22 -20 40 -40q46 -48 92 -48t74 32t31 90h105q0 -96 -56 -160t-143 -63t-137 49q-22 20 -40 40q-46 48 -96 48zM762 1845l212 211h169l-234 -211h-147zM782 1346q-236 0 -376 -168q-139 -168 -139 -456
q0 -286 138 -456q137 -170 375 -169q238 -1 376 169t137 456q1 286 -137 456q-138 168 -374 168zM782 1473q302 0 476 -202t175 -549q-1 -348 -175 -550t-478 -202t-478 202q-175 202 -175 550q0 346 176 548q177 202 479 203z" />
    <glyph glyph-name="otildeacute" unicode="&#x1e4d;" horiz-adv-x="1208" 
d="M604 -18q-226 0 -358 150t-131 407q-1 258 131 407t358 149t358 -149t132 -407q0 -257 -132 -407t-358 -150zM604 101q166 1 260 117t94 321t-94 321t-260 117q-166 -1 -260 -117t-94 -321t94 -321t260 -117zM467 1374q-104 0 -104 -158h-111q0 122 56 192t144 70
t148 -56q24 -23 47 -46q54 -56 93 -56q104 0 104 158h110q0 -122 -56 -192t-145 -70t-147 56q-24 23 -46 46q-54 56 -93 56zM531 1611l189 239h164l-212 -239h-141z" />
    <glyph glyph-name="Otildedieresis" unicode="&#x1e4e;" horiz-adv-x="1561" 
d="M782 1346q-236 0 -376 -168q-139 -168 -139 -456q0 -286 138 -456q137 -170 375 -169q238 -1 376 169t137 456q1 286 -137 456q-138 168 -374 168zM782 1473q302 0 476 -202t175 -549q-1 -348 -175 -550t-478 -202t-478 202q-175 202 -175 550q0 346 176 548
q177 202 479 203zM963 1879q-43 -1 -71 25t-28 64t28 64t71 26t71 -26t28 -64t-28 -64t-71 -25zM599 1879q-43 -1 -71 25t-28 64t28 64t71 26t71 -26t28 -64t-28 -64t-71 -25zM648 1703q-95 0 -100 -121h-106q0 98 56 160t142 62t138 -48q22 -20 40 -40q46 -48 92 -48t74 31
t31 90h105q0 -95 -56 -159t-142 -63q-86 0 -138 48q-22 20 -40 40q-46 48 -96 48z" />
    <glyph glyph-name="otildedieresis" unicode="&#x1e4f;" horiz-adv-x="1208" 
d="M604 -18q-226 0 -358 150t-131 407q-1 258 131 407t358 149t358 -149t132 -407q0 -257 -132 -407t-358 -150zM604 101q166 1 260 117t94 321t-94 321t-260 117q-166 -1 -260 -117t-94 -321t94 -321t260 -117zM467 1388q-104 0 -104 -158h-111q0 122 56 192t144 70
t148 -56q24 -23 47 -46q54 -56 93 -56q104 0 104 158h110q0 -122 -56 -192t-145 -70t-147 56q-24 23 -46 46q-54 56 -93 56zM786 1618q-41 0 -70 29t-29 71t29 70q29 29 70 29t70 -29q29 -28 29 -70t-29 -71t-70 -29zM422 1618q-41 0 -70 29t-29 71t29 70q29 29 70 29
t70 -29q29 -28 29 -70t-29 -71t-70 -29z" />
    <glyph glyph-name="Omacrongrave" unicode="&#x1e50;" horiz-adv-x="1561" 
d="M782 1346q-236 0 -376 -168q-139 -168 -139 -456q0 -286 138 -456q137 -170 375 -169q238 -1 376 169t137 456q1 286 -137 456q-138 168 -374 168zM782 1473q302 0 476 -202t175 -549q-1 -348 -175 -550t-478 -202t-478 202q-175 202 -175 550q0 346 176 548
q177 202 479 203zM866 1839h-149l-243 217h168zM1103 1619h-644v101h644v-101z" />
    <glyph glyph-name="omacrongrave" unicode="&#x1e51;" horiz-adv-x="1208" 
d="M937 1260h-662v106h662v-106zM701 1524h-147l-235 290h168zM604 -18q-226 0 -358 150t-131 407q-1 258 131 407t358 149t358 -149t132 -407q0 -257 -132 -407t-358 -150zM604 101q166 1 260 117t94 321t-94 321t-260 117q-166 -1 -260 -117t-94 -321t94 -321t260 -117z
" />
    <glyph glyph-name="Omacronacute" unicode="&#x1e52;" horiz-adv-x="1561" 
d="M782 1346q-236 0 -376 -168q-139 -168 -139 -456q0 -286 138 -456q137 -170 375 -169q238 -1 376 169t137 456q1 286 -137 456q-138 168 -374 168zM782 1473q302 0 476 -202t175 -549q-1 -348 -175 -550t-478 -202t-478 202q-175 202 -175 550q0 346 176 548
q177 202 479 203zM696 1838l224 217h168l-243 -217h-149zM1103 1618h-644v101h644v-101z" />
    <glyph glyph-name="omacronacute" unicode="&#x1e53;" horiz-adv-x="1208" 
d="M937 1260h-662v106h662v-106zM507 1524l214 290h167l-234 -290h-147zM604 -18q-226 0 -358 150t-131 407q-1 258 131 407t358 149t358 -149t132 -407q0 -257 -132 -407t-358 -150zM604 101q166 1 260 117t94 321t-94 321t-260 117q-166 -1 -260 -117t-94 -321t94 -321
t260 -117z" />
    <glyph glyph-name="Pacute" unicode="&#x1e54;" horiz-adv-x="1272" 
d="M322 1321v-655h343q167 0 261 86t95 241q1 154 -93 241t-263 87h-343zM185 1443h513q206 0 334 -125q128 -126 128 -326t-129 -324t-335 -124h-374v-544h-137v1443zM483 1577l310 297h174l-326 -297h-158z" />
    <glyph glyph-name="pacute" unicode="&#x1e55;" horiz-adv-x="1242" 
d="M561 1267l250 327h168l-269 -327h-149zM647 101q159 0 253 118q94 117 93 319q1 202 -93 320t-252 119q-158 0 -256 -120q-96 -120 -96 -318t96 -318t255 -120zM675 1095q205 -1 329 -153t124 -403t-124 -404t-329 -153q-125 0 -221 60t-142 163h-12v-556h-131v1428h125
v-220h12q50 111 148 175t221 63z" />
    <glyph glyph-name="Pdotaccent" unicode="&#x1e56;" horiz-adv-x="1272" 
d="M570 1577q-44 1 -74 31t-31 73q1 43 31 74t74 31t74 -31t31 -74q-1 -43 -31 -73t-74 -31zM322 1321v-655h343q167 0 261 86t95 241q1 154 -93 241t-263 87h-343zM185 1443h513q206 0 334 -125q128 -126 128 -326t-129 -324t-335 -124h-374v-544h-137v1443z" />
    <glyph glyph-name="pdotaccent" unicode="&#x1e57;" horiz-adv-x="1242" 
d="M650 1280q-45 0 -77 32t-32 78q0 45 32 77t77 32t77 -32t32 -77q0 -46 -32 -78t-77 -32zM647 101q159 0 253 118q94 117 93 319q1 202 -93 320t-252 119q-158 0 -256 -120q-96 -120 -96 -318t96 -318t255 -120zM675 1095q205 -1 329 -153t124 -403t-124 -404t-329 -153
q-125 0 -221 60t-142 163h-12v-556h-131v1428h125v-220h12q50 111 148 175t221 63z" />
    </font>
</defs>
</svg>
