<?xml version="1.0" standalone="no"?>
<!DOCTYPE svg PUBLIC "-//W3C//DTD SVG 1.1//EN" "http://www.w3.org/Graphics/SVG/1.1/DTD/svg11.dtd" >
<svg xmlns="http://www.w3.org/2000/svg">
<metadata>
Created by FontPrep 20130207 at Sun Dec 11 02:40:13 2016
 By Maxim Tarasenko
(c) 2015 Apple Inc. All rights reserved.
</metadata>
<defs>
<font id="6188496bb28b677c6553880f12f8c828" horiz-adv-x='1024' >
  <font-face 
    font-family="SFUIText-BoldItalicG3"
    font-weight="700"
    font-style="italic"
    font-stretch="normal"
    units-per-em="2048"
    panose-1="0 0 8 0 0 0 0 0 0 0"
    ascent="1638"
    descent="-410"
    x-height="1110"
    cap-height="1443"
    bbox="-622 -569 3013 2243"
    underline-thickness="50"
    underline-position="-25"
    slope="-12"
    unicode-range="U+000D-FB02"
  />
<missing-glyph horiz-adv-x="1293" 
d="M757 1031q61 0 100 -31t39 -74t-28 -71q-28 -29 -122 -81q-93 -52 -131 -100t-49 -121l-6 -42h150l7 39q7 42 33 68t123 80t141 110q44 54 44 121q0 107 -82 171t-214 64q-133 0 -216 -69t-92 -187h152q10 57 50 90t101 33zM499 304q0 -46 31 -73q32 -28 82 -28
q50 1 82 29t33 74t-31 74t-82 29t-83 -29q-32 -30 -32 -76zM40 0l290 1365h1053l-290 -1365h-1053z" />
    <glyph glyph-name=".notdef" horiz-adv-x="1293" 
d="M757 1031q61 0 100 -31t39 -74t-28 -71q-28 -29 -122 -81q-93 -52 -131 -100t-49 -121l-6 -42h150l7 39q7 42 33 68t123 80t141 110q44 54 44 121q0 107 -82 171t-214 64q-133 0 -216 -69t-92 -187h152q10 57 50 90t101 33zM499 304q0 -46 31 -73q32 -28 82 -28
q50 1 82 29t33 74t-31 74t-82 29t-83 -29q-32 -30 -32 -76zM40 0l290 1365h1053l-290 -1365h-1053z" />
    <glyph glyph-name=".null" 
 />
    <glyph glyph-name="nonmarkingreturn" horiz-adv-x="682" 
 />
    <glyph glyph-name="CR" unicode="&#xd;" 
 />
    <glyph glyph-name="space" unicode=" " horiz-adv-x="528" 
 />
    <glyph glyph-name="exclam" unicode="!" horiz-adv-x="729" 
d="M314 -33q-90 -1 -144 49t-53 126q-1 76 53 129q54 52 144 52t143 -50q54 -51 54 -127t-53 -128q-54 -52 -144 -51zM415 1443h363l-236 -969h-303z" />
    <glyph glyph-name="quotedbl" unicode="&#x22;" horiz-adv-x="1016" 
d="M988 812h-283l134 631h283zM495 812h-283l134 631h283z" />
    <glyph glyph-name="numbersign" unicode="#" horiz-adv-x="1360" 
d="M686 869l-115 -276h242l117 276h-244zM1361 846h-205l-96 -229h202l-96 -243h-204l-154 -374h-256l155 374h-205l-155 -374h-255l155 374h-199l98 243h199l95 229h-196l96 240h199l147 358h255l-147 -358h204l148 358h256l-147 -358h202z" />
    <glyph glyph-name="dollar" unicode="$" horiz-adv-x="1415" 
d="M1291 452q0 -212 -158 -335t-422 -123h-15l-28 -130h-142l30 143q-188 33 -299 143t-115 274h321q12 -119 148 -161l71 337l-64 20q-162 51 -250 153t-88 235q0 198 152 320t400 121q21 0 31 -1l29 138h142l-33 -156q169 -39 269 -149t103 -260h-311q-11 106 -116 152
l-68 -322l59 -18q181 -56 267 -150t87 -231zM616 1039q0 -89 129 -144l64 301q-87 -4 -140 -48t-53 -109zM958 402q0 58 -32 92t-111 62l-65 -308q96 4 152 50t56 104z" />
    <glyph glyph-name="percent" unicode="%" horiz-adv-x="1806" 
d="M1374 -36q-154 0 -240 89t-87 253q1 164 111 282q110 120 264 120t242 -89q87 -89 87 -252t-111 -283q-112 -120 -266 -120zM1507 380q0 120 -90 120q-47 0 -86 -60t-39 -132q0 -134 83 -134q55 0 93 60t39 146zM534 735q-154 0 -240 89q-86 88 -87 252q1 164 111 283
t264 119t242 -88q87 -88 87 -252q0 -163 -111 -283q-112 -120 -266 -120zM516 0h-358l737 764l552 679h360l-752 -771zM667 1151q0 120 -90 120q-47 -1 -86 -61t-39 -130q0 -134 83 -135q55 1 93 61t39 145z" />
    <glyph glyph-name="ampersand" unicode="&#x26;" horiz-adv-x="1525" 
d="M592 -28q-216 0 -364 112t-148 281q0 280 351 419l76 30q-116 166 -116 306t126 242q125 102 309 101q184 0 304 -89t119 -222q0 -269 -374 -418l192 -281q95 130 105 282l2 27h272l-3 -32q-27 -278 -232 -492l160 -238h-336l-47 71q-180 -99 -396 -99zM640 206
q118 0 222 60l-240 361q-4 -1 -14 -5t-18 -6q-96 -30 -150 -91q-53 -61 -53 -137t67 -129q68 -53 186 -53zM671 1080q0 -70 87 -180q213 79 213 223q0 55 -38 89t-102 33q-64 1 -112 -47t-48 -118z" />
    <glyph glyph-name="quotesingle" unicode="'" horiz-adv-x="553" 
d="M511 812h-283l134 631h283z" />
    <glyph glyph-name="parenleft" unicode="(" horiz-adv-x="803" 
d="M163 291q0 325 126 628t355 523h349q-217 -214 -351 -526t-134 -655q0 -274 87 -538h-312q-55 106 -87 260t-33 308z" />
    <glyph glyph-name="parenright" unicode=")" horiz-adv-x="802" 
d="M699 874q1 -326 -125 -628t-356 -523h-349q217 214 351 526t134 656q0 273 -87 537h312q55 -106 87 -260t33 -308z" />
    <glyph glyph-name="asterisk" unicode="*" horiz-adv-x="1032" 
d="M886 695l-191 214l-17 -290l-223 4l110 300l-271 -168l-70 210l303 79l-257 135l153 187l191 -218l17 298l223 -4l-113 -307l274 171l70 -210l-303 -78l257 -136z" />
    <glyph glyph-name="plus" unicode="+" horiz-adv-x="1415" 
d="M866 443l-86 -404h-300l86 404h-396l61 286h395l85 401h300l-85 -401h407l-61 -286h-406z" />
    <glyph glyph-name="comma" unicode="," horiz-adv-x="722" 
d="M272 -394h-263l211 653h319z" />
    <glyph glyph-name="hyphen" unicode="-" horiz-adv-x="992" 
d="M836 432h-658l65 302h657z" />
    <glyph glyph-name="period" unicode="." horiz-adv-x="712" 
d="M300 -31q-88 0 -140 52q-54 53 -54 131t53 132t141 54t140 -52q54 -52 54 -130t-53 -133q-53 -54 -141 -54z" />
    <glyph glyph-name="slash" unicode="/" horiz-adv-x="772" 
d="M196 -279h-311l771 1722h318z" />
    <glyph glyph-name="zero" unicode="0" horiz-adv-x="1401" 
d="M1049 907q1 302 -189 302q-90 -1 -174 -97q-82 -96 -132 -258t-50 -318q0 -302 188 -302q90 0 174 96t133 259q50 162 50 318zM682 -38q-244 0 -386 153t-141 417q1 203 55 380q54 178 148 302t226 196t283 71q246 0 388 -153t142 -416q-1 -203 -55 -380t-148 -302
q-94 -124 -228 -196q-133 -72 -284 -72z" />
    <glyph glyph-name="one" unicode="1" horiz-adv-x="1051" 
d="M394 0l237 1112h-19l-401 -237l67 315l423 253h346l-307 -1443h-346z" />
    <glyph glyph-name="two" unicode="2" horiz-adv-x="1318" 
d="M812 1481q228 1 370 -113t143 -287q0 -95 -44 -177q-43 -82 -135 -168t-275 -227l-277 -219l-4 -19h604l-57 -271h-1077l53 246l535 423q207 163 272 235t65 146t-54 118q-54 46 -140 46t-153 -58t-80 -147l-316 1q16 205 180 338q162 133 390 133z" />
    <glyph glyph-name="three" unicode="3" horiz-adv-x="1366" 
d="M782 865q112 -1 178 51t65 132q1 80 -57 125t-145 45t-149 -43t-84 -116h-315q40 194 194 308t377 114q223 -1 366 -109t143 -276q-1 -138 -99 -242t-244 -119l-3 -19q121 -28 187 -106t66 -200q0 -124 -76 -228t-209 -162q-134 -58 -301 -58q-250 0 -404 118t-155 309
q0 25 6 67h323v-3q-12 -91 54 -153t176 -61q108 0 176 59t68 144q0 86 -60 132t-156 46h-159l51 245h186z" />
    <glyph glyph-name="four" unicode="4" horiz-adv-x="1413" 
d="M430 520l-3 -18h416l147 688h-18q-276 -318 -542 -670zM728 0l51 240h-711l58 307q231 314 738 896h499l-198 -929h183l-58 -274h-183l-51 -240h-328z" />
    <glyph glyph-name="five" unicode="5" horiz-adv-x="1361" 
d="M690 -38q-232 0 -386 124t-153 311q0 11 2 41h315v-2q4 -90 70 -146t176 -56q109 0 184 78t75 187q1 109 -61 169t-162 60q-61 0 -121 -28t-97 -74h-313l242 817h935l-59 -273h-660l-103 -325l18 -1q112 118 290 118t298 -120q118 -120 118 -292q0 -173 -76 -306
q-76 -134 -216 -208q-139 -74 -316 -74z" />
    <glyph glyph-name="six" unicode="6" horiz-adv-x="1406" 
d="M762 704q-104 0 -180 -74t-76 -176t64 -163t168 -61t180 76q74 76 74 176q0 102 -62 162q-64 60 -168 60zM895 948q188 0 309 -120t121 -292t-78 -300q-77 -128 -213 -201t-300 -73q-265 0 -415 158t-150 435q0 383 199 651q98 132 234 204t294 71q225 0 372 -123
t150 -313h-334q-11 76 -66 120t-138 44q-130 0 -228 -119t-130 -319h19q129 177 354 177z" />
    <glyph glyph-name="seven" unicode="7" horiz-adv-x="1239" 
d="M97 0l850 1154l4 18h-691l58 271h1050l-57 -272l-839 -1171h-375z" />
    <glyph glyph-name="eight" unicode="8" horiz-adv-x="1416" 
d="M645 1039q0 -80 54 -127t142 -47q88 -1 153 59t65 138t-55 127q-56 48 -144 48t-152 -59t-63 -139zM725 628q-106 0 -179 -64t-73 -156t64 -144q65 -52 171 -53q106 0 179 64q73 65 73 155t-64 144t-171 54zM1311 407q0 -193 -175 -319q-174 -126 -438 -126t-426 114
t-162 282t111 282t293 142l4 18q-92 36 -147 109t-55 160q0 178 158 295t391 117q232 1 384 -109t152 -259t-92 -247t-243 -121l-4 -19q117 -40 183 -124t66 -195z" />
    <glyph glyph-name="nine" unicode="9" horiz-adv-x="1404" 
d="M227 906q0 172 77 302q78 128 214 200t304 73q263 0 411 -158t148 -440q1 -376 -201 -647q-96 -130 -231 -202q-134 -72 -289 -72q-221 0 -371 120t-158 301h335q6 -68 64 -109t147 -41q135 -1 235 119t126 315l-18 1q-128 -177 -352 -177q-191 -1 -316 121t-125 294z
M790 734q104 0 178 74q76 74 76 178q0 102 -62 162t-167 60t-179 -75t-74 -177t62 -162t166 -60z" />
    <glyph glyph-name="colon" unicode=":" horiz-adv-x="712" 
d="M454 699q-88 0 -140 52q-54 53 -54 131t53 132t141 54t140 -52q54 -52 54 -130t-53 -133q-53 -54 -141 -54zM300 -31q-88 0 -140 52q-54 53 -54 131t53 132t141 54t140 -52q54 -52 54 -130t-53 -133q-53 -54 -141 -54z" />
    <glyph glyph-name="semicolon" unicode=";" horiz-adv-x="712" 
d="M456 699q-88 0 -142 52q-54 53 -53 131q0 78 53 132q52 54 140 54t142 -52t53 -130q0 -78 -53 -133q-52 -54 -140 -54zM234 -394h-263l211 653h319z" />
    <glyph glyph-name="less" unicode="&#x3c;" horiz-adv-x="1415" 
d="M1177 275l-66 -318l-876 516l54 258l1086 469l-72 -337l-699 -266l-3 -19z" />
    <glyph glyph-name="equal" unicode="=" horiz-adv-x="1416" 
d="M1324 693h-1097l61 287h1096zM1217 191h-1096l60 287h1097z" />
    <glyph glyph-name="greater" unicode="&#x3e;" horiz-adv-x="1415" 
d="M322 881l67 319l876 -516l-55 -258l-1085 -469l71 336l699 267l4 18z" />
    <glyph glyph-name="question" unicode="?" horiz-adv-x="1141" 
d="M490 -32q-88 0 -144 47t-57 125q1 78 57 133q56 54 144 54t144 -47q58 -46 58 -124t-56 -133q-58 -55 -146 -55zM726 1456q216 0 351 -102q134 -102 134 -265q0 -129 -73 -233q-72 -104 -198 -159t-172 -97t-59 -110l-8 -38h-303l10 58q20 134 74 205t174 124t168 105
t48 114q0 63 -44 100t-117 37q-71 0 -123 -41t-69 -111h-309q24 183 162 298t354 115z" />
    <glyph glyph-name="at" unicode="@" horiz-adv-x="1899" 
d="M850 558q0 -180 142 -179q70 -1 124 77t55 172q-1 182 -141 182q-70 0 -124 -80q-56 -80 -56 -172zM1130 1445q206 -1 378 -87t268 -241t95 -341q0 -186 -62 -328t-171 -224q-109 -81 -231 -81q-121 1 -191 45t-70 116v14t1 14l-19 -4q-82 -144 -224 -144t-224 95
q-80 95 -80 252q0 203 115 345t279 141q88 1 152 -43t80 -116l19 -2l25 126h224l-117 -546q-5 -26 -5 -52t21 -46t67 -21t98 61t83 164t31 215q0 229 -157 373t-408 143q-150 0 -285 -58q-136 -58 -232 -157q-96 -98 -153 -236t-57 -292q0 -272 184 -432t496 -160
q89 0 130 12l-36 -173q-75 -12 -155 -12q-180 0 -332 55t-258 153q-106 99 -165 239t-59 321q-1 181 71 353t196 294q124 123 298 194t380 71z" />
    <glyph glyph-name="A" unicode="A" horiz-adv-x="1501" 
d="M907 1126l-284 -546h348l-45 546h-19zM1010 0l-27 326h-484l-170 -326h-358l810 1443h415l173 -1443h-359z" />
    <glyph glyph-name="B" unicode="B" horiz-adv-x="1420" 
d="M738 256q117 0 192 62t75 151q0 174 -213 174h-231l-82 -387h259zM827 859q109 0 179 56t69 134q0 153 -190 153h-203l-74 -343h219zM805 0h-727l307 1443h621q186 1 301 -85t115 -227t-94 -245t-238 -122l-1 -19q121 -23 191 -101t71 -188q1 -200 -153 -328t-393 -128z
" />
    <glyph glyph-name="C" unicode="C" horiz-adv-x="1532" 
d="M959 1187q-198 0 -323 -170q-124 -170 -124 -424q0 -157 77 -247t201 -91t216 63t125 167h337q-44 -237 -234 -380t-466 -143q-275 0 -442 166t-167 436t103 478q102 208 286 324t416 115q166 0 302 -67q136 -66 215 -184q78 -118 78 -261q0 -34 -3 -53h-334q1 3 1 17
q-4 114 -81 184t-183 70z" />
    <glyph glyph-name="D" unicode="D" horiz-adv-x="1535" 
d="M721 281q194 0 317 150t123 396q1 155 -81 245t-227 90h-174l-187 -881h229zM940 1443q268 0 422 -153t155 -412t-95 -457q-96 -197 -269 -309t-392 -112h-678l306 1443h551z" />
    <glyph glyph-name="E" unicode="E" horiz-adv-x="1273" 
d="M1119 282l-59 -282h-979l307 1443h978l-60 -282h-631l-65 -305h594l-55 -259h-594l-68 -315h632z" />
    <glyph glyph-name="F" unicode="F" horiz-adv-x="1235" 
d="M427 0h-347l307 1443h970l-60 -282h-623l-74 -346h567l-58 -269h-566z" />
    <glyph glyph-name="G" unicode="G" horiz-adv-x="1566" 
d="M792 -38q-286 0 -455 168q-170 168 -170 447q-1 197 59 365t165 288q105 118 254 184t317 67q168 0 303 -63q136 -63 224 -183t75 -262h-334q-4 93 -84 153t-199 60q-183 0 -305 -166t-122 -422q0 -157 80 -249t213 -92t225 68t114 181l4 17h-274l51 243h609l-35 -181
q-57 -303 -243 -463t-472 -160z" />
    <glyph glyph-name="H" unicode="H" horiz-adv-x="1605" 
d="M1368 0h-348l126 589h-598l-126 -589h-346l307 1443h347l-122 -572h598l122 572h347z" />
    <glyph glyph-name="I" unicode="I" horiz-adv-x="653" 
d="M419 0h-347l307 1443h347z" />
    <glyph glyph-name="J" unicode="J" horiz-adv-x="1229" 
d="M392 433v-12q1 -73 45 -115t120 -43q151 0 193 193l210 987h346l-219 -1032q-46 -217 -184 -333q-139 -116 -359 -116t-355 119t-132 313q0 13 2 39h333z" />
    <glyph glyph-name="K" unicode="K" horiz-adv-x="1454" 
d="M418 0h-346l307 1443h346l-132 -618h18l619 618h402l-659 -658l359 -785h-387l-261 582l-179 -175z" />
    <glyph glyph-name="L" unicode="L" horiz-adv-x="1219" 
d="M1111 289l-62 -289h-968l307 1443h347l-246 -1154h622z" />
    <glyph glyph-name="M" unicode="M" horiz-adv-x="1879" 
d="M398 0h-322l307 1443h400l169 -912h18l559 912h421l-307 -1443h-321l198 930h-18l-512 -829h-219l-158 829h-17z" />
    <glyph glyph-name="N" unicode="N" horiz-adv-x="1573" 
d="M416 0h-334l307 1443h251l459 -872h18l187 872h334l-307 -1443h-248l-464 864h-19z" />
    <glyph glyph-name="O" unicode="O" horiz-adv-x="1617" 
d="M1243 836q-1 159 -81 253t-205 94q-125 -1 -223 -77t-156 -210t-58 -292t80 -252t206 -94t224 76t156 210q57 134 57 292zM816 -38q-304 0 -477 175q-172 175 -172 443q0 196 61 364t167 286t252 184t327 67t327 -81q147 -82 221 -221t74 -326t-61 -355t-167 -286
t-251 -184t-301 -66z" />
    <glyph glyph-name="P" unicode="P" horiz-adv-x="1368" 
d="M772 698q132 0 212 78t81 188q0 110 -57 160q-57 49 -162 49h-170l-102 -475h198zM920 1443q228 1 361 -117t133 -314q0 -268 -175 -424t-465 -156h-255l-92 -432h-347l306 1443h534z" />
    <glyph glyph-name="Q" unicode="Q" horiz-adv-x="1617" 
d="M814 252q34 0 72 8l-105 238h302l31 -58q133 154 133 400q1 159 -81 254t-208 95q-126 1 -226 -77t-158 -213t-58 -295t82 -256t216 -96zM784 -38q-124 0 -244 47t-202 129q-171 174 -171 442q0 196 61 364t167 286t252 184t303 67q307 0 476 -175q170 -175 170 -428
q0 -254 -88 -447t-243 -313l113 -253h-323l-55 122q-92 -25 -216 -25z" />
    <glyph glyph-name="R" unicode="R" horiz-adv-x="1418" 
d="M818 761q123 0 198 66q75 65 75 161q0 188 -202 189h-214l-90 -416h233zM981 1443q202 0 331 -117q129 -118 129 -288t-94 -302t-253 -189l196 -547h-372l-167 511h-218l-109 -511h-347l307 1443h597z" />
    <glyph glyph-name="S" unicode="S" horiz-adv-x="1362" 
d="M694 228q110 0 180 48t71 114q0 66 -45 104t-154 72l-155 46q-163 50 -253 154t-90 247q0 202 168 335t418 133q252 0 408 -126t159 -328h-322q-9 83 -79 135t-172 53q-100 0 -166 -46t-65 -109q0 -63 43 -104t137 -70l155 -47q186 -55 272 -149t86 -243
q0 -219 -171 -352t-451 -133q-169 0 -298 54t-203 156t-79 242h331q12 -82 89 -134q76 -52 186 -52z" />
    <glyph glyph-name="T" unicode="T" horiz-adv-x="1349" 
d="M769 0h-348l247 1161h-421l60 282h1189l-60 -282h-421z" />
    <glyph glyph-name="U" unicode="U" horiz-adv-x="1564" 
d="M776 -38q-262 0 -421 132t-160 344q0 63 13 125l186 880h348l-185 -874q-33 -171 59 -251q68 -58 180 -58q114 0 191 67t104 192l195 924h348l-211 -1000q-49 -227 -217 -354t-430 -127z" />
    <glyph glyph-name="V" unicode="V" horiz-adv-x="1477" 
d="M880 0h-432l-167 1443h376l70 -1074h19l511 1074h391z" />
    <glyph glyph-name="W" unicode="W" horiz-adv-x="2067" 
d="M1131 909l-437 -909h-323l-73 1443h352l1 -978h18l449 978h275l46 -978h18l410 978h356l-683 -1443h-332l-60 909h-17z" />
    <glyph glyph-name="X" unicode="X" horiz-adv-x="1494" 
d="M-11 0l618 742l-304 701h388l197 -473h19l360 473h385l-630 -734l320 -709h-384l-204 460h-18l-370 -460h-377z" />
    <glyph glyph-name="Y" unicode="Y" horiz-adv-x="1451" 
d="M820 0h-347l108 508l-301 935h362l171 -597h19l417 597h375l-698 -943z" />
    <glyph glyph-name="Z" unicode="Z" horiz-adv-x="1384" 
d="M47 0l47 223l868 919l1 19h-657l60 282h1096l-47 -223l-866 -919l-1 -19h688l-59 -282h-1130z" />
    <glyph glyph-name="bracketleft" unicode="[" horiz-adv-x="848" 
d="M402 1444h618l-52 -245h-297l-255 -1194h311l-52 -245h-631z" />
    <glyph glyph-name="backslash" unicode="\" horiz-adv-x="771" 
d="M284 -279l-21 1722h312l20 -1722h-311z" />
    <glyph glyph-name="bracketright" unicode="]" horiz-adv-x="848" 
d="M900 1444l-358 -1684h-628l52 245h306l255 1194h-301l52 245h622z" />
    <glyph glyph-name="asciicircum" unicode="^" horiz-adv-x="988" 
d="M663 1175l-239 -350h-301l452 600h282l197 -600h-282l-90 350h-19z" />
    <glyph glyph-name="underscore" unicode="_" horiz-adv-x="945" 
d="M793 -359h-953l52 252h954z" />
    <glyph glyph-name="grave" unicode="`" horiz-adv-x="1071" 
d="M1019 1286h-293l-266 356h336z" />
    <glyph glyph-name="a" unicode="a" horiz-adv-x="1202" 
d="M389 -17q-139 0 -233 86t-94 216q0 170 132 270t368 107l263 7l14 68q5 23 5 36q0 52 -44 82t-121 30q-133 0 -175 -88h-308q34 154 172 246t342 92t332 -91q129 -91 129 -240q0 -46 -9 -89l-152 -715h-324l29 135h-19q-44 -70 -128 -111t-179 -41zM544 220q74 0 140 48
q64 48 80 119l19 88l-206 -8q-89 -3 -140 -39t-51 -90t42 -86t116 -32z" />
    <glyph glyph-name="b" unicode="b" horiz-adv-x="1340" 
d="M679 253q118 0 201 114t83 281q0 103 -52 160t-135 57q-118 -1 -202 -117t-85 -275q0 -104 53 -162t137 -58zM777 -17q-135 0 -226 60t-117 157h-19l-43 -200h-325l325 1528h334l-122 -575l20 2q112 172 330 172q168 -1 272 -115t103 -314t-73 -364q-72 -166 -198 -258
t-261 -93z" />
    <glyph glyph-name="c" unicode="c" horiz-adv-x="1208" 
d="M1205 716h-312q-3 74 -53 116t-126 42q-120 0 -196 -117t-76 -293q0 -112 53 -170t131 -57q161 0 209 153h314q-27 -176 -168 -295q-142 -120 -371 -120q-230 1 -364 127t-134 332t76 362q76 157 220 248q143 91 340 91t323 -115q125 -115 133 -261q1 -13 1 -43z" />
    <glyph glyph-name="d" unicode="d" horiz-adv-x="1342" 
d="M642 245q118 1 202 117t84 275q0 103 -53 161t-137 58q-120 0 -203 -111t-83 -277q0 -104 54 -164t136 -59zM485 -17q-169 -1 -274 115t-105 317t74 365t202 256t266 91t219 -57t108 -146h20l128 604h335l-325 -1528h-325l33 155h-19q-124 -172 -337 -172z" />
    <glyph glyph-name="e" unicode="e" horiz-adv-x="1251" 
d="M903 713q1 78 -51 129t-140 51t-158 -59q-69 -59 -95 -157h441q3 18 3 36zM610 -25q-218 1 -356 129t-139 350q-1 304 169 492t441 189q211 1 348 -129t137 -340q0 -80 -19 -185h-767v-24q0 -113 61 -175t146 -62q164 0 209 108h316q-40 -161 -184 -257t-362 -96z" />
    <glyph glyph-name="f" unicode="f" horiz-adv-x="836" 
d="M797 1519q116 0 205 -25l-48 -220q-40 12 -112 12q-114 0 -135 -104l-18 -86h224l-53 -251h-217l-179 -845h-336l180 845h-172l53 251h169l27 130q31 153 131 223t281 70z" />
    <glyph glyph-name="g" unicode="g" horiz-adv-x="1327" 
d="M640 255q118 -1 200 111t82 271q0 99 -52 159t-140 60q-119 0 -199 -108t-80 -271q-1 -102 51 -162t138 -60zM530 -419q-238 0 -384 96q-144 96 -139 246h328q5 -51 61 -83t150 -31q203 0 241 174l42 193l-18 1q-107 -154 -324 -154q-167 0 -273 114q-106 113 -105 301
q0 188 73 347q74 159 200 251t258 91q132 0 220 -57q87 -57 117 -151h18l42 191h325l-246 -1152q-38 -177 -193 -277t-393 -100z" />
    <glyph glyph-name="h" unicode="h" horiz-adv-x="1321" 
d="M945 1131q155 0 249 -89t94 -226q0 -62 -15 -133l-143 -683h-333l133 630q9 49 9 79q-1 72 -51 115t-132 43t-149 -58q-66 -58 -86 -150l-140 -659h-334l324 1518h333l-124 -576h19q119 189 346 189z" />
    <glyph glyph-name="i" unicode="i" horiz-adv-x="599" 
d="M517 1247q-87 -1 -139 41t-51 110q-1 68 51 112q52 45 140 45q88 1 138 -41q52 -42 52 -109t-52 -113t-139 -45zM51 0l237 1110h335l-236 -1110h-336z" />
    <glyph glyph-name="j" unicode="j" horiz-adv-x="599" 
d="M517 1247q-87 -1 -139 41t-51 110q-1 68 51 112q52 45 140 45q88 1 138 -41q52 -42 52 -109t-52 -113t-139 -45zM-83 -116q110 0 134 109l237 1117h334l-245 -1151q-33 -155 -147 -241t-284 -86q-73 0 -149 14l53 244q32 -6 67 -6z" />
    <glyph glyph-name="k" unicode="k" horiz-adv-x="1210" 
d="M544 704l412 406h380l-515 -487l315 -623h-365l-220 442l-103 -94l-73 -348h-335l325 1528h334l-174 -824h19z" />
    <glyph glyph-name="l" unicode="l" horiz-adv-x="593" 
d="M48 0l325 1528h335l-324 -1528h-336z" />
    <glyph glyph-name="m" unicode="m" horiz-adv-x="1893" 
d="M902 1135q104 -1 178 -57t99 -141h19q129 198 358 198q136 0 222 -88t87 -222q0 -58 -14 -133l-146 -692h-333l135 643q9 47 9 96t-38 89t-108 39q-68 0 -124 -53t-74 -145l-141 -669h-320l135 643q9 47 9 96q-1 49 -39 89t-106 39t-124 -53t-75 -142l-142 -672h-334
l238 1121h324l-40 -186h18q55 93 139 147t188 53z" />
    <glyph glyph-name="n" unicode="n" horiz-adv-x="1305" 
d="M952 1135q132 1 226 -89t94 -230q0 -62 -15 -133l-144 -683h-332l132 630q9 45 9 79q0 70 -48 114t-130 44t-146 -58t-85 -150l-140 -659h-334l238 1121h324l-39 -179h19q118 193 371 193z" />
    <glyph glyph-name="o" unicode="o" horiz-adv-x="1298" 
d="M623 -25q-232 0 -372 135q-140 134 -140 338q-1 204 81 356t230 242q148 89 330 89q231 0 370 -135t139 -358q-1 -184 -81 -336t-226 -242t-331 -89zM458 471q0 -109 48 -173t132 -63q111 0 193 116t82 281q-1 116 -47 180t-129 64q-119 0 -199 -118t-80 -287z" />
    <glyph glyph-name="p" unicode="p" horiz-adv-x="1334" 
d="M928 1127q168 -1 272 -115t104 -314t-73 -364q-73 -166 -200 -258t-263 -93t-220 59q-82 60 -109 158h-19l-116 -541h-334l309 1451h325l-33 -155h18q127 172 339 172zM673 253q119 0 202 114t83 281q0 103 -52 160t-135 57q-119 -1 -203 -117t-85 -275q-1 -104 53 -162
t137 -58z" />
    <glyph glyph-name="q" unicode="q" horiz-adv-x="1336" 
d="M480 -17q-168 -1 -272 115t-103 313q-1 151 43 285t118 228t178 148t222 55q120 1 208 -57t114 -146h19l39 186h325l-308 -1451h-334l105 496h-17q-123 -172 -337 -172zM638 245q118 1 202 117t85 275q0 103 -53 161t-137 58q-119 0 -201 -112t-83 -277q0 -106 52 -164
t135 -58z" />
    <glyph glyph-name="r" unicode="r" horiz-adv-x="908" 
d="M850 1127q87 0 145 -26l-64 -294q-81 33 -179 33q-206 0 -257 -239l-129 -601h-335l237 1110h326l-32 -156h18q42 82 112 128t158 45z" />
    <glyph glyph-name="s" unicode="s" horiz-adv-x="1150" 
d="M566 205q76 0 120 28q45 27 45 67q1 40 -23 62t-82 43l-175 61q-263 92 -263 303q0 165 131 265t343 101q212 -1 340 -93t137 -244h-303q-8 48 -55 77t-117 29t-113 -28q-44 -28 -44 -68q0 -38 26 -62t86 -44l191 -67q134 -47 194 -115t61 -174q1 -167 -137 -269
t-362 -102q-224 1 -364 97t-143 253h318q9 -53 61 -87t128 -33z" />
    <glyph glyph-name="t" unicode="t" horiz-adv-x="846" 
d="M580 -15q-394 0 -394 239q0 44 11 97l109 513h-173l54 251h172l57 268h334l-57 -268h230l-54 -251h-228l-97 -455q-7 -33 -7 -55q1 -49 39 -71t92 -22t73 3l-52 -242q-49 -7 -109 -7z" />
    <glyph glyph-name="u" unicode="u" horiz-adv-x="1305" 
d="M456 -25q-154 0 -250 88t-96 237q0 55 15 140l141 670h335l-131 -616q-8 -42 -8 -77q0 -81 44 -123t130 -42t149 58t84 157l137 643h334l-235 -1110h-324l37 172h-19q-52 -93 -141 -145t-202 -52z" />
    <glyph glyph-name="v" unicode="v" horiz-adv-x="1184" 
d="M188 1110h337l40 -796h19l368 796h356l-607 -1110h-385z" />
    <glyph glyph-name="w" unicode="w" horiz-adv-x="1735" 
d="M1859 1110l-526 -1110h-361l-22 741h-19l-336 -741h-352l-56 1110h329l-11 -770h19l335 770h322l14 -773h18l311 773h335z" />
    <glyph glyph-name="x" unicode="x" horiz-adv-x="1191" 
d="M596 341h-19l-255 -341h-359l455 554l-222 556h366l110 -348h19l246 348h368l-460 -558l227 -552h-353z" />
    <glyph glyph-name="y" unicode="y" horiz-adv-x="1208" 
d="M104 -406q-101 0 -137 4l53 257q8 -4 73 -4q168 0 214 107l15 36l-132 1116h342l41 -814h18l381 814h357l-610 -1131q-111 -209 -253 -297t-362 -88z" />
    <glyph glyph-name="z" unicode="z" horiz-adv-x="1160" 
d="M24 0l39 183l662 654l1 18h-509l54 255h924l-45 -209l-613 -628l-1 -19h493l-54 -254h-951z" />
    <glyph glyph-name="braceleft" unicode="{" horiz-adv-x="926" 
d="M601 420q0 -38 -9 -81l-51 -240q-12 -51 -12 -101q0 -100 176 -100h45l-51 -238h-116q-179 0 -283 72t-105 190q0 54 16 132l43 200q12 56 12 106q0 100 -133 100l63 298q92 0 138 46t71 161l37 174q44 207 170 292t365 85h117l-51 -239h-45q-112 -1 -168 -45t-81 -155
l-47 -222q-24 -111 -89 -169t-180 -68l-4 -19q83 -10 127 -56t45 -123z" />
    <glyph glyph-name="bar" unicode="|" horiz-adv-x="749" 
d="M390 -280h-310l366 1723h310z" />
    <glyph glyph-name="braceright" unicode="}" horiz-adv-x="926" 
d="M415 757q0 38 9 80l51 241q12 50 12 100q0 100 -176 101h-45l50 237h117q179 0 283 -71t104 -190q0 -59 -15 -132l-44 -200q-12 -57 -12 -107q0 -100 134 -99l-63 -298q-92 1 -138 -45t-71 -162l-38 -174q-43 -206 -169 -292t-365 -86h-118l51 240h45q112 0 169 44
t81 156l47 222q24 112 89 170t180 67l4 19q-83 10 -127 56t-45 123z" />
    <glyph glyph-name="asciitilde" unicode="~" horiz-adv-x="1225" 
d="M785 471q-109 -1 -193 83q-34 34 -66 70q-74 84 -129 83q-91 0 -122 -157h-250q35 214 131 326t237 112q111 0 193 -84q34 -34 64 -69q73 -84 126 -84q90 0 122 159h251q-72 -439 -364 -439z" />
    <glyph glyph-name="nonbreakingspace" unicode="&#xa0;" horiz-adv-x="528" 
 />
    <glyph glyph-name="exclamdown" unicode="&#xa1;" horiz-adv-x="729" 
d="M492 1160q90 0 144 -50t54 -126t-53 -128t-143 -52t-144 50t-53 126q0 76 53 128q52 52 142 52zM392 -316h-363l236 969h304z" />
    <glyph glyph-name="cent" unicode="&#xa2;" horiz-adv-x="1415" 
d="M236 594q0 172 67 322t191 246q124 94 287 113l37 175h268l-43 -198q128 -44 204 -140t82 -208v-43h-312q-1 73 -51 115t-127 42q-121 0 -197 -118t-75 -294q-1 -112 53 -170t132 -59q78 0 131 40q54 40 77 114h314q-25 -165 -150 -279t-322 -133l-38 -184h-268l45 211
q-143 47 -224 162q-81 114 -81 286z" />
    <glyph glyph-name="sterling" unicode="&#xa3;" horiz-adv-x="1415" 
d="M461 1046q1 202 147 318t404 117q126 0 254 -25t194 -55l-55 -259q-49 26 -141 46t-204 20t-188 -56t-77 -171q0 -50 8 -116h370l-48 -231h-303v-18q-6 -120 -66 -198t-162 -109l-4 -18h678l-60 -284h-1146l60 283q142 6 248 92t125 225q0 5 -2 27h-309l48 231h250
q-21 132 -21 181z" />
    <glyph glyph-name="currency" unicode="&#xa4;" horiz-adv-x="1415" 
d="M1218 625q0 -123 -79 -241l97 -122l-225 -186l-101 127q-76 -30 -164 -30q-153 0 -276 90l-212 -175l-149 190l208 171q-43 92 -43 216t79 243l-99 123l226 186l102 -128q76 30 164 30q151 0 275 -89l212 175l149 -190l-207 -171q43 -96 43 -219zM522 646q0 -92 66 -158
t158 -66t158 66t66 158t-66 158t-158 67q-92 -1 -158 -67t-66 -158z" />
    <glyph glyph-name="yen" unicode="&#xa5;" horiz-adv-x="1415" 
d="M1109 190h-267l-40 -190h-348l41 190h-269l38 178h269l26 124h-269l38 178h185l-251 773h361l171 -597h19l418 597h375l-575 -773h180l-38 -178h-268l-26 -124h268z" />
    <glyph glyph-name="brokenbar" unicode="&#xa6;" horiz-adv-x="749" 
d="M390 -280h-310l142 670h310zM613 773h-309l142 670h310z" />
    <glyph glyph-name="section" unicode="&#xa7;" horiz-adv-x="1032" 
d="M444 -296q-192 0 -318 97q-124 97 -127 254h280q5 -53 51 -88t111 -35q66 0 110 33t44 83q0 73 -94 115l-175 86q-226 111 -226 296q0 109 72 186t198 104l1 19q-77 55 -109 109t-33 129q-1 156 125 254t318 98t308 -96q118 -96 127 -257h-277q-4 56 -48 90t-108 34
t-106 -32t-42 -80q0 -69 98 -116l162 -83q235 -117 235 -299q1 -106 -73 -187t-195 -104l-1 -18q76 -54 108 -108t31 -129q1 -155 -127 -255t-320 -100zM731 551q0 79 -99 126l-110 57q-57 -14 -94 -52t-37 -83q0 -76 104 -126l111 -59q56 16 90 54t35 83z" />
    <glyph glyph-name="dieresis" unicode="&#xa8;" horiz-adv-x="1071" 
d="M1004 1268q-74 0 -121 44t-47 115q0 70 47 115t121 45q74 -1 120 -45q47 -44 47 -114t-47 -116q-46 -44 -120 -44zM512 1268q-74 0 -120 44q-47 44 -47 115q0 70 47 115t121 45q75 0 121 -45t46 -115q0 -71 -47 -115t-121 -44z" />
    <glyph glyph-name="copyright" unicode="&#xa9;" horiz-adv-x="1743" 
d="M1102 749q0 61 -33 96t-89 35q-80 0 -134 -80t-54 -177q0 -180 130 -180q91 0 132 87h213q-31 -124 -125 -192t-234 -68q-142 0 -234 94t-93 243q0 193 115 319q114 126 276 126t254 -86t82 -217h-206zM914 40q174 0 324 88t236 238q88 150 88 325q0 253 -168 420
t-423 167q-173 0 -323 -88t-238 -238t-87 -325q0 -251 169 -419t422 -168zM914 -125q-164 -1 -304 57t-242 157t-160 238t-58 301t65 314t175 262t264 175t318 65t305 -57t241 -156t160 -237q58 -138 58 -302t-66 -316t-176 -262t-263 -174q-153 -65 -317 -65z" />
    <glyph glyph-name="ordfeminine" unicode="&#xaa;" horiz-adv-x="1030" 
d="M277 1179q75 286 425 286q176 -1 287 -81q112 -80 112 -213q0 -37 -7 -72l-126 -590h-291l19 101l-18 2q-38 -56 -100 -86t-135 -30q-125 0 -203 73t-77 203q0 130 105 212t292 84l226 3q2 8 10 39t8 59t-32 51t-88 23q-96 0 -125 -64h-282zM460 802q0 -44 32 -70t86 -26
q56 0 101 37t57 95l15 67l-145 -3q-68 0 -107 -28t-39 -72z" />
    <glyph glyph-name="guillemotleft" unicode="&#xab;" horiz-adv-x="1447" 
d="M908 979l-431 -423l-1 -9l246 -394h-290l-262 409l2 8l410 409h326zM1431 979l-437 -429l-2 -10l253 -387h-290l-262 409l2 8l423 409h313z" />
    <glyph glyph-name="logicalnot" unicode="&#xac;" horiz-adv-x="1415" 
d="M1321 729l-145 -686h-293l85 400h-787l60 286h1080z" />
    <glyph glyph-name="registered" unicode="&#xae;" horiz-adv-x="1261" 
d="M1130 905q0 167 -108 275t-276 108t-281 -114q-114 -114 -114 -280q1 -168 109 -276t275 -108t281 114t114 281zM208 899q0 143 71 265t193 192t269 70q233 0 383 -148t150 -379q0 -144 -71 -265t-193 -191t-269 -70q-233 1 -383 149t-150 377zM851 991q0 51 -62 51h-90
l-25 -116h96q81 0 81 65zM837 1150q67 0 113 -44t46 -104t-36 -104t-96 -59l79 -173h-152l-71 160h-68l-33 -160h-135l103 484h250z" />
    <glyph glyph-name="macron" unicode="&#xaf;" horiz-adv-x="1071" 
d="M1115 1323h-757l40 192h757z" />
    <glyph glyph-name="degree" unicode="&#xb0;" horiz-adv-x="806" 
d="M572 1048q52 0 89 36t37 89q0 52 -37 89t-89 37t-90 -37q-37 -37 -37 -89q0 -53 37 -89q38 -36 90 -36zM571 865q-127 1 -217 91t-91 218q1 128 91 218t217 90t217 -90t91 -218q-1 -128 -91 -218t-217 -91z" />
    <glyph glyph-name="plusminus" unicode="&#xb1;" horiz-adv-x="1415" 
d="M908 647l-47 -220h-288l47 220h-352l52 246h352l48 220h287l-47 -220h353l-53 -246h-352zM1133 60h-989l51 245h990z" />
    <glyph glyph-name="two.sups" unicode="&#xb2;" horiz-adv-x="917" 
d="M775 1548q0 83 -92 83q-45 1 -77 -29t-41 -80v-1h-270q9 146 127 240t283 94q167 1 265 -77t98 -200q0 -86 -54 -159t-188 -166q-9 -6 -80 -54t-106 -66l-2 -13h346l-49 -226h-746l45 209l310 217q135 92 183 140t48 88z" />
    <glyph glyph-name="three.sups" unicode="&#xb3;" horiz-adv-x="944" 
d="M693 1639q-86 0 -111 -76h-270q26 134 136 213t268 79q158 -1 260 -73q100 -72 100 -174t-65 -166t-163 -69l-2 -14q80 -19 124 -69t43 -126q-1 -131 -113 -214t-292 -83t-291 98t-93 244h279q-4 -47 25 -77q30 -30 80 -30t80 27t31 67q-1 40 -29 62q-28 23 -73 23h-99
l42 190h109q53 -1 87 25t33 63t-27 59t-69 21z" />
    <glyph glyph-name="acute" unicode="&#xb4;" horiz-adv-x="1071" 
d="M433 1286l322 356h343l-365 -356h-300z" />
    <glyph glyph-name="paragraph" unicode="&#xb6;" horiz-adv-x="1538" 
d="M971 -268l364 1711h316l-364 -1711h-316zM226 862q0 250 167 410t444 170l322 1l-364 -1711h-316l149 698q-186 23 -294 141t-108 291z" />
    <glyph glyph-name="periodcentered" unicode="&#xb7;" horiz-adv-x="723" 
d="M438 544q-90 0 -145 52q-54 52 -54 134q-1 82 53 136t144 54t144 -52t54 -134t-53 -136t-143 -54z" />
    <glyph glyph-name="cedilla" unicode="&#xb8;" horiz-adv-x="1071" 
d="M603 -277q0 -99 -73 -157t-190 -59q-117 0 -195 35l30 139q65 -26 146 -26t81 54q0 59 -110 59h-57l18 123l89 136h200l-90 -138q151 -29 151 -166z" />
    <glyph glyph-name="one.sups" unicode="&#xb9;" horiz-adv-x="759" 
d="M396 894l143 668h-14l-249 -141l54 255l265 152h301l-199 -934h-301z" />
    <glyph glyph-name="ordmasculine" unicode="&#xba;" horiz-adv-x="1106" 
d="M646 479q-218 0 -334 116t-116 316q0 244 151 402t368 158q217 -1 333 -117t115 -320q1 -243 -149 -399t-368 -156zM719 1233q-88 0 -150 -96q-62 -95 -62 -207q0 -212 133 -212q88 0 150 96t62 207q0 212 -133 212z" />
    <glyph glyph-name="guillemotright" unicode="&#xbb;" horiz-adv-x="1448" 
d="M1053 585l-246 394h290l262 -409l-2 -8l-410 -409h-326l431 423zM536 592l-253 387h290l262 -409l-2 -8l-423 -409h-313l438 430z" />
    <glyph glyph-name="onequarter" unicode="&#xbc;" horiz-adv-x="2292" 
d="M478 0l572 756l457 687h313l-587 -756l-441 -687h-314zM372 509l143 668h-14l-249 -141l54 255l265 152h301l-199 -934h-301zM1615 359l-3 -14h221l83 386h-14q-134 -159 -287 -372zM1751 0l27 129h-464l51 260q148 208 441 545h428l-124 -577h108l-48 -228h-108
l-28 -129h-283z" />
    <glyph glyph-name="onehalf" unicode="&#xbd;" horiz-adv-x="2287" 
d="M478 0l572 756l457 687h313l-587 -756l-441 -687h-314zM372 509l143 668h-14l-249 -141l54 255l265 152h301l-199 -934h-301zM1983 654q0 83 -92 83q-45 1 -77 -29t-41 -80v-1h-270q9 146 127 240t283 94q167 1 265 -77t98 -200q0 -86 -54 -159t-188 -166q-9 -6 -80 -54
t-106 -66l-2 -13h346l-49 -226h-746l45 209l310 217q135 92 183 140t48 88z" />
    <glyph glyph-name="threequarters" unicode="&#xbe;" horiz-adv-x="2426" 
d="M611 0l572 756l457 687h313l-587 -756l-441 -687h-314zM1748 359l-3 -14h221l83 386h-14q-134 -159 -287 -372zM1884 0l27 129h-464l51 260q148 208 441 545h428l-124 -577h108l-48 -228h-108l-28 -129h-283zM642 1254q-86 0 -111 -76h-270q26 134 136 213q111 79 269 79
t258 -72t101 -175q0 -101 -65 -165t-163 -70l-2 -14q79 -18 123 -68t44 -127q0 -131 -112 -214t-293 -83q-180 0 -291 98t-93 244h279q-4 -47 25 -77t79 -30t82 27q30 26 30 66t-28 63t-74 23h-99l42 190h109q52 0 86 26t34 62t-26 58t-70 22z" />
    <glyph glyph-name="questiondown" unicode="&#xbf;" horiz-adv-x="1140" 
d="M492 -329q-216 1 -350 103t-133 264q1 128 73 232t198 160q126 54 171 96q46 42 60 111l7 38h304l-10 -58q-21 -135 -75 -206q-53 -71 -173 -123t-168 -104t-49 -115q1 -63 45 -100t116 -37t124 41t69 110h308q-22 -183 -161 -297q-140 -114 -356 -115zM729 1160
q89 0 145 -47t56 -125t-56 -133q-56 -54 -144 -54t-145 47q-57 46 -57 124t56 133t145 55z" />
    <glyph glyph-name="Agrave" unicode="&#xc0;" horiz-adv-x="1501" 
d="M1002 1917l175 -323h-296l-219 323h340zM886 1126l-284 -546h348l-45 546h-19zM989 0l-27 326h-484l-170 -326h-358l810 1443h415l173 -1443h-359z" />
    <glyph glyph-name="Aacute" unicode="&#xc1;" horiz-adv-x="1501" 
d="M852 1594l333 323h347l-376 -323h-304zM886 1126l-284 -546h348l-45 546h-19zM989 0l-27 326h-484l-170 -326h-358l810 1443h415l173 -1443h-359z" />
    <glyph glyph-name="Acircumflex" unicode="&#xc2;" horiz-adv-x="1501" 
d="M1243 1938l188 -344h-272l-87 192h-19l-168 -192h-299l334 344h323zM886 1126l-284 -546h348l-45 546h-19zM989 0l-27 326h-484l-170 -326h-358l810 1443h415l173 -1443h-359z" />
    <glyph glyph-name="Atilde" unicode="&#xc3;" horiz-adv-x="1501" 
d="M712 1824q74 76 169 77t165 -49q28 -20 72 -56q44 -34 81 -34q79 0 91 100h195q-17 -132 -91 -208t-170 -76t-164 50q-28 20 -72 54q-43 34 -81 35q-79 0 -91 -100h-195q17 131 91 207zM886 1126l-284 -546h348l-45 546h-19zM989 0l-27 326h-484l-170 -326h-358l810 1443
h415l173 -1443h-359z" />
    <glyph glyph-name="Adieresis" unicode="&#xc4;" horiz-adv-x="1501" 
d="M1302 1581q-74 1 -120 45q-47 44 -47 114t47 115q46 45 120 45t121 -44t47 -116q0 -70 -47 -114t-121 -45zM812 1581q-74 1 -121 45t-47 114t47 115t121 45t120 -45t47 -115q0 -70 -47 -114q-46 -44 -120 -45zM886 1126l-284 -546h348l-45 546h-19zM989 0l-27 326h-484
l-170 -326h-358l810 1443h415l173 -1443h-359z" />
    <glyph glyph-name="Aring" unicode="&#xc5;" horiz-adv-x="1501" 
d="M1074 1722q43 0 71 28t28 71t-28 71t-71 28q-44 0 -72 -29t-28 -71t28 -70t72 -28zM1074 1579q-108 0 -180 69t-71 174q0 105 71 173t180 68q110 1 180 -67t70 -174t-71 -174t-179 -69zM886 1126l-284 -546h348l-45 546h-19zM989 0l-27 326h-484l-170 -326h-358l810 1443
h415l173 -1443h-359z" />
    <glyph glyph-name="AE" unicode="&#xc6;" horiz-adv-x="2059" 
d="M901 0l73 340h-442l-207 -340h-350l883 1443h1311l-60 -282h-647l-66 -308h611l-55 -260h-611l-67 -311h648l-60 -282h-961zM1153 1180h-124l-351 -586h350z" />
    <glyph glyph-name="Ccedilla" unicode="&#xc7;" horiz-adv-x="1534" 
d="M947 1187q-198 0 -323 -170q-124 -170 -124 -424q0 -157 77 -247t201 -91t216 63t125 167h337q-40 -211 -197 -349t-387 -167l-54 -83q151 -29 151 -166q0 -100 -73 -158t-190 -58t-195 35l30 139q65 -26 146 -26t81 54q0 59 -110 59h-57l18 123l52 79q-242 26 -383 188
t-141 421q0 258 103 466q102 208 286 324t416 115q166 0 302 -67q136 -66 215 -184q78 -118 78 -261q0 -34 -3 -53h-334q1 3 1 17q-4 114 -81 184t-183 70z" />
    <glyph glyph-name="Egrave" unicode="&#xc8;" horiz-adv-x="1274" 
d="M1109 282l-59 -282h-979l307 1443h978l-60 -282h-631l-65 -305h594l-55 -259h-594l-68 -315h632zM891 1917l175 -323h-296l-219 323h340z" />
    <glyph glyph-name="Eacute" unicode="&#xc9;" horiz-adv-x="1274" 
d="M1109 282l-59 -282h-979l307 1443h978l-60 -282h-631l-65 -305h594l-55 -259h-594l-68 -315h632zM741 1594l333 323h347l-376 -323h-304z" />
    <glyph glyph-name="Ecircumflex" unicode="&#xca;" horiz-adv-x="1274" 
d="M1109 282l-59 -282h-979l307 1443h978l-60 -282h-631l-65 -305h594l-55 -259h-594l-68 -315h632zM1132 1938l188 -344h-272l-87 192h-19l-168 -192h-299l334 344h323z" />
    <glyph glyph-name="Edieresis" unicode="&#xcb;" horiz-adv-x="1274" 
d="M1109 282l-59 -282h-979l307 1443h978l-60 -282h-631l-65 -305h594l-55 -259h-594l-68 -315h632zM1192 1581q-74 1 -121 45t-47 114t47 115t121 45t120 -44q47 -44 47 -116q0 -70 -47 -114q-46 -44 -120 -45zM700 1581q-74 1 -120 45q-47 44 -47 114t47 115t121 45
q75 0 121 -45t46 -115t-47 -114t-121 -45z" />
    <glyph glyph-name="Igrave" unicode="&#xcc;" horiz-adv-x="653" 
d="M566 1917l175 -323h-296l-219 323h340zM400 0h-347l307 1443h347z" />
    <glyph glyph-name="Iacute" unicode="&#xcd;" horiz-adv-x="653" 
d="M416 1594l333 323h347l-376 -323h-304zM400 0h-347l307 1443h347z" />
    <glyph glyph-name="Icircumflex" unicode="&#xce;" horiz-adv-x="653" 
d="M807 1938l188 -344h-272l-87 192h-19l-168 -192h-299l334 344h323zM400 0h-347l307 1443h347z" />
    <glyph glyph-name="Idieresis" unicode="&#xcf;" horiz-adv-x="653" 
d="M866 1581q-74 1 -120 45q-47 44 -47 114t47 115q46 45 120 45t121 -44t47 -116q0 -70 -47 -114t-121 -45zM376 1581q-74 1 -121 45t-47 114t47 115t121 45t120 -45t47 -115q0 -70 -47 -114q-46 -44 -120 -45zM400 0h-347l307 1443h347z" />
    <glyph glyph-name="Eth" unicode="&#xd0;" horiz-adv-x="1516" 
d="M935 1443q269 0 423 -153t154 -412t-96 -457q-96 -197 -268 -309q-173 -112 -392 -112h-678l129 606h-156l51 243h156l126 594h551zM716 281q194 0 317 150t123 396q0 155 -82 245t-226 90h-174l-66 -313h173l-51 -243h-174l-69 -325h229z" />
    <glyph glyph-name="Ntilde" unicode="&#xd1;" horiz-adv-x="1573" 
d="M407 0h-334l307 1443h251l459 -872h18l187 872h334l-307 -1443h-248l-464 864h-19zM904 1717q-78 0 -91 -100h-195q16 131 90 207t170 77q94 1 164 -49q28 -20 73 -56q44 -34 81 -34q78 0 91 100h195q-16 -132 -90 -208t-171 -76t-165 50q-28 20 -71 54t-81 35z" />
    <glyph glyph-name="Ograve" unicode="&#xd2;" horiz-adv-x="1617" 
d="M1236 836q0 159 -80 253t-206 94q-126 -1 -224 -77t-156 -210t-57 -292t81 -252t206 -94t224 76t155 210t57 292zM808 -38q-304 0 -476 175t-172 443q0 196 61 364t167 286t252 184t327 67t327 -81t220 -221t75 -326q0 -187 -61 -355q-60 -168 -166 -286t-252 -184
t-302 -66zM977 1916l175 -323h-296l-219 323h340z" />
    <glyph glyph-name="Oacute" unicode="&#xd3;" horiz-adv-x="1617" 
d="M1236 836q0 159 -80 253t-206 94q-126 -1 -224 -77t-156 -210t-57 -292t81 -252t206 -94t224 76t155 210t57 292zM808 -38q-304 0 -476 175t-172 443q0 196 61 364t167 286t252 184t327 67t327 -81t220 -221t75 -326q0 -187 -61 -355q-60 -168 -166 -286t-252 -184
t-302 -66zM827 1593l333 323h347l-376 -323h-304z" />
    <glyph glyph-name="Ocircumflex" unicode="&#xd4;" horiz-adv-x="1617" 
d="M1236 836q0 159 -80 253t-206 94q-126 -1 -224 -77t-156 -210t-57 -292t81 -252t206 -94t224 76t155 210t57 292zM808 -38q-304 0 -476 175t-172 443q0 196 61 364t167 286t252 184t327 67t327 -81t220 -221t75 -326q0 -187 -61 -355q-60 -168 -166 -286t-252 -184
t-302 -66zM1218 1937l188 -344h-272l-87 192h-19l-168 -192h-299l334 344h323z" />
    <glyph glyph-name="Otilde" unicode="&#xd5;" horiz-adv-x="1617" 
d="M686 1824q74 76 170 76q94 0 164 -50q28 -20 73 -54q44 -35 81 -35q78 0 91 100h195q-16 -131 -90 -207t-171 -77t-165 49q-28 20 -71 56q-43 34 -81 34q-78 0 -91 -100h-195q16 132 90 208zM1236 836q0 159 -80 253t-206 94q-126 -1 -224 -77t-156 -210t-57 -292
t81 -252t206 -94t224 76t155 210t57 292zM808 -38q-304 0 -476 175t-172 443q0 196 61 364t167 286t252 184t327 67t327 -81t220 -221t75 -326q0 -187 -61 -355q-60 -168 -166 -286t-252 -184t-302 -66z" />
    <glyph glyph-name="Odieresis" unicode="&#xd6;" horiz-adv-x="1617" 
d="M1236 836q0 159 -80 253t-206 94q-126 -1 -224 -77t-156 -210t-57 -292t81 -252t206 -94t224 76t155 210t57 292zM808 -38q-304 0 -476 175t-172 443q0 196 61 364t167 286t252 184t327 67t327 -81t220 -221t75 -326q0 -187 -61 -355q-60 -168 -166 -286t-252 -184
t-302 -66zM1278 1580q-74 0 -121 44t-47 115q0 70 47 115t121 45q74 -1 120 -45q47 -44 47 -114t-47 -116q-46 -44 -120 -44zM786 1580q-74 0 -120 44q-47 44 -47 115q0 70 47 115t121 45q75 0 121 -45t46 -115q0 -71 -47 -115t-121 -44z" />
    <glyph glyph-name="multiply" unicode="&#xd7;" horiz-adv-x="1415" 
d="M942 60l-230 319l-354 -272l-162 228l355 273l-232 322l241 170l225 -311l357 272l162 -229l-357 -272l236 -330z" />
    <glyph glyph-name="Oslash" unicode="&#xd8;" horiz-adv-x="1592" 
d="M415 70q-255 171 -255 527q0 179 61 347t167 286t252 184t315 67q169 0 305 -64l59 95l112 -56l-65 -103q223 -171 223 -512q0 -175 -61 -343q-60 -168 -166 -286t-252 -184t-305 -66t-283 51l-55 -87l-102 64zM925 1183q-101 -1 -199 -77t-156 -210t-57 -291
q0 -158 80 -252l496 792q-64 38 -164 38zM808 258q118 0 216 76t155 210t57 278q0 146 -57 234l-488 -775q54 -23 117 -23z" />
    <glyph glyph-name="Ugrave" unicode="&#xd9;" horiz-adv-x="1564" 
d="M769 -38q-262 0 -421 132t-160 344q0 63 13 125l186 880h348l-185 -874q-34 -171 58 -251q68 -58 182 -58t190 67q77 67 104 192l195 924h348l-211 -1000q-48 -227 -216 -354t-431 -127zM1022 1917l175 -323h-296l-219 323h340z" />
    <glyph glyph-name="Uacute" unicode="&#xda;" horiz-adv-x="1564" 
d="M769 -38q-262 0 -421 132t-160 344q0 63 13 125l186 880h348l-185 -874q-34 -171 58 -251q68 -58 182 -58t190 67q77 67 104 192l195 924h348l-211 -1000q-48 -227 -216 -354t-431 -127zM872 1594l333 323h347l-376 -323h-304z" />
    <glyph glyph-name="Ucircumflex" unicode="&#xdb;" horiz-adv-x="1564" 
d="M769 -38q-262 0 -421 132t-160 344q0 63 13 125l186 880h348l-185 -874q-34 -171 58 -251q68 -58 182 -58t190 67q77 67 104 192l195 924h348l-211 -1000q-48 -227 -216 -354t-431 -127zM1263 1938l188 -344h-272l-87 192h-19l-168 -192h-299l334 344h323z" />
    <glyph glyph-name="Udieresis" unicode="&#xdc;" horiz-adv-x="1564" 
d="M769 -38q-262 0 -421 132t-160 344q0 63 13 125l186 880h348l-185 -874q-34 -171 58 -251q68 -58 182 -58t190 67q77 67 104 192l195 924h348l-211 -1000q-48 -227 -216 -354t-431 -127zM1322 1581q-74 1 -120 45q-47 44 -47 114t47 115q46 45 120 45t121 -44t47 -116
q0 -70 -47 -114t-121 -45zM832 1581q-74 1 -121 45t-47 114t47 115t121 45t120 -45t47 -115q0 -70 -47 -114q-46 -44 -120 -45z" />
    <glyph glyph-name="Yacute" unicode="&#xdd;" horiz-adv-x="1451" 
d="M812 1594l333 323h347l-376 -323h-304zM801 0h-347l108 508l-301 935h362l171 -597h19l417 597h375l-698 -943z" />
    <glyph glyph-name="Thorn" unicode="&#xde;" horiz-adv-x="1382" 
d="M750 543q126 0 202 63t76 158q0 185 -207 185h-201l-87 -406h217zM928 1220q194 0 320 -115t125 -293q1 -112 -43 -211t-121 -171t-187 -114t-239 -42h-305l-59 -274h-345l307 1443h347l-48 -223h248z" />
    <glyph glyph-name="germandbls" unicode="&#xdf;" horiz-adv-x="1405" 
d="M848 1455q218 0 360 -107t143 -276q0 -128 -82 -223t-209 -116l-4 -20q131 -27 203 -105t72 -196q0 -195 -140 -312t-368 -117q-152 0 -268 42l56 255q69 -34 165 -34t158 52t63 130t-61 119q-62 40 -171 40h-77l56 264h73q85 1 143 49t58 122t-52 119t-135 45t-141 -54
t-80 -154l-208 -978h-334l236 1092q37 167 182 265q144 98 362 98z" />
    <glyph glyph-name="agrave" unicode="&#xe0;" horiz-adv-x="1202" 
d="M935 1286h-293l-266 356h336zM376 -17q-140 0 -234 86t-93 216q1 170 133 270t367 107l263 7l14 68q5 23 5 36q-1 52 -45 82t-120 30q-133 0 -175 -88h-308q35 154 173 246t340 92q204 0 333 -91t129 -240q0 -46 -9 -89l-152 -715h-324l29 135h-19q-43 -70 -127 -111
t-180 -41zM532 220q74 0 138 48t81 119l19 88l-206 -8q-89 -3 -140 -39t-51 -90t42 -86q43 -32 117 -32z" />
    <glyph glyph-name="aacute" unicode="&#xe1;" horiz-adv-x="1202" 
d="M616 1286l322 356h343l-365 -356h-300zM376 -17q-140 0 -234 86t-93 216q1 170 133 270t367 107l263 7l14 68q5 23 5 36q-1 52 -45 82t-120 30q-133 0 -175 -88h-308q35 154 173 246t340 92q204 0 333 -91t129 -240q0 -46 -9 -89l-152 -715h-324l29 135h-19
q-43 -70 -127 -111t-180 -41zM532 220q74 0 138 48t81 119l19 88l-206 -8q-89 -3 -140 -39t-51 -90t42 -86q43 -32 117 -32z" />
    <glyph glyph-name="acircumflex" unicode="&#xe2;" horiz-adv-x="1202" 
d="M971 1614l196 -357h-273l-95 204h-18l-182 -204h-300l349 357h323zM376 -17q-140 0 -234 86t-93 216q1 170 133 270t367 107l263 7l14 68q5 23 5 36q-1 52 -45 82t-120 30q-133 0 -175 -88h-308q35 154 173 246t340 92q204 0 333 -91t129 -240q0 -46 -9 -89l-152 -715
h-324l29 135h-19q-43 -70 -127 -111t-180 -41zM532 220q74 0 138 48t81 119l19 88l-206 -8q-89 -3 -140 -39t-51 -90t42 -86q43 -32 117 -32z" />
    <glyph glyph-name="atilde" unicode="&#xe3;" horiz-adv-x="1202" 
d="M632 1596q56 0 104 -25t76 -55q77 -79 124 -79q72 0 88 120h198q-15 -137 -90 -221t-172 -83t-164 57q-28 24 -52 46q-59 57 -99 57q-72 0 -88 -121h-198q15 136 90 220t183 84zM376 -17q-140 0 -234 86t-93 216q1 170 133 270t367 107l263 7l14 68q5 23 5 36
q-1 52 -45 82t-120 30q-133 0 -175 -88h-308q35 154 173 246t340 92q204 0 333 -91t129 -240q0 -46 -9 -89l-152 -715h-324l29 135h-19q-43 -70 -127 -111t-180 -41zM532 220q74 0 138 48t81 119l19 88l-206 -8q-89 -3 -140 -39t-51 -90t42 -86q43 -32 117 -32z" />
    <glyph glyph-name="adieresis" unicode="&#xe4;" horiz-adv-x="1202" 
d="M1026 1257q-74 1 -120 45q-47 44 -47 114t47 115q46 45 120 45t121 -44t47 -116q0 -70 -47 -114t-121 -45zM536 1257q-74 1 -121 45t-47 114t47 115t121 45t120 -45t47 -115q0 -70 -47 -114q-46 -44 -120 -45zM376 -17q-140 0 -234 86t-93 216q1 170 133 270t367 107
l263 7l14 68q5 23 5 36q-1 52 -45 82t-120 30q-133 0 -175 -88h-308q35 154 173 246t340 92q204 0 333 -91t129 -240q0 -46 -9 -89l-152 -715h-324l29 135h-19q-43 -70 -127 -111t-180 -41zM532 220q74 0 138 48t81 119l19 88l-206 -8q-89 -3 -140 -39t-51 -90t42 -86
q43 -32 117 -32z" />
    <glyph glyph-name="aring" unicode="&#xe5;" horiz-adv-x="1202" 
d="M847 1400q43 0 71 28t28 71t-28 71t-71 28t-71 -29t-29 -71q1 -42 29 -70t71 -28zM847 1257q-107 0 -179 69t-72 174t71 173t180 68q109 1 179 -67t71 -174q0 -106 -71 -174t-179 -69zM376 -17q-140 0 -234 86t-93 216q1 170 133 270t367 107l263 7l14 68q5 23 5 36
q-1 52 -45 82t-120 30q-133 0 -175 -88h-308q35 154 173 246t340 92q204 0 333 -91t129 -240q0 -46 -9 -89l-152 -715h-324l29 135h-19q-43 -70 -127 -111t-180 -41zM532 220q74 0 138 48t81 119l19 88l-206 -8q-89 -3 -140 -39t-51 -90t42 -86q43 -32 117 -32z" />
    <glyph glyph-name="ae" unicode="&#xe6;" horiz-adv-x="1925" 
d="M548 211q74 0 139 51t82 125l18 88l-206 -8q-89 -3 -140 -39t-51 -92t42 -90t116 -35zM1575 713q1 78 -51 129t-140 51t-158 -59q-69 -59 -95 -157h441q3 9 3 36zM1314 220q150 0 197 108h316q-39 -161 -183 -257t-350 -96q-122 0 -232 54t-156 137h-18
q-58 -83 -170 -137t-266 -54q-154 1 -270 91t-116 225q0 177 130 275t371 105l262 7l14 59q5 19 5 36q0 52 -44 82t-121 30q-133 0 -175 -88h-308q35 159 169 249t330 89q114 0 203 -42t131 -111h18q141 153 360 153q131 0 237 -58t170 -166q63 -108 63 -245q0 -80 -19 -185
h-765q-1 -6 -1 -25q0 -114 60 -175t158 -61z" />
    <glyph glyph-name="ccedilla" unicode="&#xe7;" horiz-adv-x="1214" 
d="M1193 716h-312q-3 74 -53 116t-126 42q-120 0 -196 -117t-76 -293q0 -112 53 -170t131 -57q161 0 209 153h314q-24 -158 -143 -272t-306 -137l-62 -95q151 -29 151 -166q0 -100 -73 -158t-190 -58t-195 35l30 139q65 -26 146 -26t81 54q0 59 -110 59h-57l18 123l62 95
q-181 29 -285 151t-104 314t76 348q76 157 220 248q143 91 340 91t323 -115q125 -115 133 -261q1 -13 1 -43z" />
    <glyph glyph-name="egrave" unicode="&#xe8;" horiz-adv-x="1248" 
d="M889 713q1 78 -51 129t-140 51t-158 -59q-69 -59 -95 -157h441q3 18 3 36zM596 -25q-218 1 -356 129t-139 350q-1 304 169 492t441 189q211 1 348 -129t137 -340q0 -80 -19 -185h-767v-24q0 -113 61 -175t146 -62q164 0 209 108h316q-40 -161 -184 -257t-362 -96z
M894 1286h-293l-266 356h336z" />
    <glyph glyph-name="eacute" unicode="&#xe9;" horiz-adv-x="1248" 
d="M889 713q1 78 -51 129t-140 51t-158 -59q-69 -59 -95 -157h441q3 18 3 36zM596 -25q-218 1 -356 129t-139 350q-1 304 169 492t441 189q211 1 348 -129t137 -340q0 -80 -19 -185h-767v-24q0 -113 61 -175t146 -62q164 0 209 108h316q-40 -161 -184 -257t-362 -96z
M575 1286l322 356h343l-365 -356h-300z" />
    <glyph glyph-name="ecircumflex" unicode="&#xea;" horiz-adv-x="1248" 
d="M889 713q1 78 -51 129t-140 51t-158 -59q-69 -59 -95 -157h441q3 18 3 36zM596 -25q-218 1 -356 129t-139 350q-1 304 169 492t441 189q211 1 348 -129t137 -340q0 -80 -19 -185h-767v-24q0 -113 61 -175t146 -62q164 0 209 108h316q-40 -161 -184 -257t-362 -96z
M978 1614l196 -357h-273l-95 204h-18l-182 -204h-300l349 357h323z" />
    <glyph glyph-name="edieresis" unicode="&#xeb;" horiz-adv-x="1248" 
d="M1034 1257q-74 1 -121 45t-47 114t47 115t121 45t120 -44q47 -44 47 -116q0 -70 -47 -114q-46 -44 -120 -45zM542 1257q-74 1 -120 45q-47 44 -47 114t47 115t121 45q75 0 121 -45t46 -115t-47 -114t-121 -45zM889 713q1 78 -51 129t-140 51t-158 -59q-69 -59 -95 -157
h441q3 18 3 36zM596 -25q-218 1 -356 129t-139 350q-1 304 169 492t441 189q211 1 348 -129t137 -340q0 -80 -19 -185h-767v-24q0 -113 61 -175t146 -62q164 0 209 108h316q-40 -161 -184 -257t-362 -96z" />
    <glyph glyph-name="igrave" unicode="&#xec;" horiz-adv-x="599" 
d="M37 0l236 1110h334l-236 -1110h-334zM629 1286h-293l-266 356h336z" />
    <glyph glyph-name="iacute" unicode="&#xed;" horiz-adv-x="599" 
d="M37 0l236 1110h334l-236 -1110h-334zM310 1286l322 356h343l-365 -356h-300z" />
    <glyph glyph-name="icircumflex" unicode="&#xee;" horiz-adv-x="599" 
d="M37 0l236 1110h334l-236 -1110h-334zM713 1614l196 -357h-273l-95 204h-18l-182 -204h-300l349 357h323z" />
    <glyph glyph-name="idieresis" unicode="&#xef;" horiz-adv-x="599" 
d="M768 1257q-74 1 -120 45q-47 44 -47 114t47 115q46 45 120 45t121 -44t47 -116q0 -70 -47 -114t-121 -45zM278 1257q-74 1 -121 45t-47 114t47 115t121 45t120 -45t47 -115q0 -70 -47 -114q-46 -44 -120 -45zM37 0l236 1110h334l-236 -1110h-334z" />
    <glyph glyph-name="eth" unicode="&#xf0;" horiz-adv-x="1301" 
d="M926 609q0 99 -56 160t-158 61q-101 0 -182 -108t-81 -256q1 -100 55 -160t154 -60t184 110t84 253zM622 -25q-222 0 -370 137t-149 347q0 171 68 311q69 140 189 222q120 80 244 80t211 -40q86 -40 121 -106l19 -2q-8 144 -99 296l-298 -91l-29 158l226 70
q-72 79 -173 159h379q51 -49 70 -73l259 83l32 -159l-190 -59q153 -249 153 -530q0 -162 -43 -303q-70 -233 -234 -367t-386 -133z" />
    <glyph glyph-name="ntilde" unicode="&#xf1;" horiz-adv-x="1304" 
d="M1256 816q0 -62 -15 -133l-144 -683h-332l132 630q9 45 9 79q0 70 -48 114t-130 44t-146 -58t-85 -150l-140 -659h-334l238 1121h324l-39 -179h19q118 193 371 193q132 1 226 -89t94 -230zM649 1420q-72 0 -88 -121h-198q15 137 90 221t183 83q56 0 104 -25
q48 -24 76 -54q77 -80 124 -80q72 0 88 120h198q-15 -136 -90 -220t-172 -84t-164 56q-28 24 -52 48q-58 56 -99 56z" />
    <glyph glyph-name="ograve" unicode="&#xf2;" horiz-adv-x="1289" 
d="M609 -25q-232 0 -372 135q-140 134 -140 338q-1 204 81 356t230 242q148 89 330 89q231 0 370 -135t139 -358q-1 -184 -81 -336t-226 -242t-331 -89zM444 471q0 -109 48 -173t132 -63q111 0 193 116t82 281q-1 116 -47 180t-129 64q-119 0 -199 -118t-80 -287zM918 1286
h-293l-266 356h336z" />
    <glyph glyph-name="oacute" unicode="&#xf3;" horiz-adv-x="1289" 
d="M609 -25q-232 0 -372 135q-140 134 -140 338q-1 204 81 356t230 242q148 89 330 89q231 0 370 -135t139 -358q-1 -184 -81 -336t-226 -242t-331 -89zM444 471q0 -109 48 -173t132 -63q111 0 193 116t82 281q-1 116 -47 180t-129 64q-119 0 -199 -118t-80 -287zM599 1286
l322 356h343l-365 -356h-300z" />
    <glyph glyph-name="ocircumflex" unicode="&#xf4;" horiz-adv-x="1289" 
d="M609 -25q-232 0 -372 135q-140 134 -140 338q-1 204 81 356t230 242q148 89 330 89q231 0 370 -135t139 -358q-1 -184 -81 -336t-226 -242t-331 -89zM444 471q0 -109 48 -173t132 -63q111 0 193 116t82 281q-1 116 -47 180t-129 64q-119 0 -199 -118t-80 -287zM1002 1614
l196 -357h-273l-95 204h-18l-182 -204h-300l349 357h323z" />
    <glyph glyph-name="otilde" unicode="&#xf5;" horiz-adv-x="1289" 
d="M609 -25q-232 0 -372 135q-140 134 -140 338q-1 204 81 356t230 242q148 89 330 89q231 0 370 -135t139 -358q-1 -184 -81 -336t-226 -242t-331 -89zM444 471q0 -109 48 -173t132 -63q111 0 193 116t82 281q-1 116 -47 180t-129 64q-119 0 -199 -118t-80 -287zM663 1596
q55 0 103 -25t78 -55q77 -79 123 -79q72 0 88 120h198q-15 -137 -90 -221t-172 -83t-164 57q-29 24 -53 46q-59 57 -98 57q-72 0 -88 -121h-198q15 136 90 220t183 84z" />
    <glyph glyph-name="odieresis" unicode="&#xf6;" horiz-adv-x="1289" 
d="M609 -25q-232 0 -372 135q-140 134 -140 338q-1 204 81 356t230 242q148 89 330 89q231 0 370 -135t139 -358q-1 -184 -81 -336t-226 -242t-331 -89zM444 471q0 -109 48 -173t132 -63q111 0 193 116t82 281q-1 116 -47 180t-129 64q-119 0 -199 -118t-80 -287zM1058 1257
q-74 1 -121 45t-47 114t47 115t121 45t120 -44q47 -44 47 -116q0 -70 -47 -114q-46 -44 -120 -45zM566 1257q-74 1 -120 45q-47 44 -47 114t47 115t121 45q75 0 121 -45t46 -115t-47 -114t-121 -45z" />
    <glyph glyph-name="divide" unicode="&#xf7;" horiz-adv-x="1416" 
d="M658 13q-82 0 -132 48q-50 47 -49 121q0 74 49 124t131 50q81 0 131 -48t50 -122t-49 -123q-49 -50 -131 -50zM828 815q-82 -1 -131 47t-49 122t48 124t131 50q81 0 131 -48t50 -122t-48 -124q-50 -50 -132 -49zM1278 463h-1102l52 245h1102z" />
    <glyph glyph-name="oslash" unicode="&#xf8;" horiz-adv-x="1298" 
d="M1245 660q-1 -202 -81 -354t-226 -242t-318 -89q-172 0 -294 67l-102 -124l-89 62l104 126q-144 135 -144 360q-1 186 81 338t230 242q148 89 320 89q174 0 298 -72l101 123l96 -57l-110 -134q134 -133 134 -335zM721 876q-119 0 -199 -118t-80 -287q0 -58 13 -101
l379 461q-45 45 -113 45zM622 235q111 0 193 116t82 281q0 52 -9 92l-373 -452q43 -37 107 -37z" />
    <glyph glyph-name="ugrave" unicode="&#xf9;" horiz-adv-x="1305" 
d="M440 -25q-154 0 -250 88t-96 237q0 55 15 140l141 670h335l-131 -616q-8 -42 -8 -77q0 -81 44 -123t130 -42t149 58t84 157l137 643h334l-235 -1110h-324l37 172h-19q-52 -93 -141 -145t-202 -52zM976 1286h-293l-266 356h336z" />
    <glyph glyph-name="uacute" unicode="&#xfa;" horiz-adv-x="1305" 
d="M440 -25q-154 0 -250 88t-96 237q0 55 15 140l141 670h335l-131 -616q-8 -42 -8 -77q0 -81 44 -123t130 -42t149 58t84 157l137 643h334l-235 -1110h-324l37 172h-19q-52 -93 -141 -145t-202 -52zM657 1286l322 356h343l-365 -356h-300z" />
    <glyph glyph-name="ucircumflex" unicode="&#xfb;" horiz-adv-x="1305" 
d="M440 -25q-154 0 -250 88t-96 237q0 55 15 140l141 670h335l-131 -616q-8 -42 -8 -77q0 -81 44 -123t130 -42t149 58t84 157l137 643h334l-235 -1110h-324l37 172h-19q-52 -93 -141 -145t-202 -52zM1060 1614l196 -357h-273l-95 204h-18l-182 -204h-300l349 357h323z" />
    <glyph glyph-name="udieresis" unicode="&#xfc;" horiz-adv-x="1305" 
d="M1116 1257q-74 1 -121 45t-47 114t47 115t121 45t120 -44q47 -44 47 -116q0 -70 -47 -114q-46 -44 -120 -45zM624 1257q-74 1 -120 45q-47 44 -47 114t47 115t121 45q75 0 121 -45t46 -115t-47 -114t-121 -45zM440 -25q-154 0 -250 88t-96 237q0 55 15 140l141 670h335
l-131 -616q-8 -42 -8 -77q0 -81 44 -123t130 -42t149 58t84 157l137 643h334l-235 -1110h-324l37 172h-19q-52 -93 -141 -145t-202 -52z" />
    <glyph glyph-name="yacute" unicode="&#xfd;" horiz-adv-x="1208" 
d="M611 1286l322 356h343l-365 -356h-300zM87 -406q-101 0 -137 4l53 257q8 -4 73 -4q168 0 214 107l15 36l-132 1116h342l41 -814h18l381 814h357l-610 -1131q-110 -209 -252 -297t-363 -88z" />
    <glyph glyph-name="thorn" unicode="&#xfe;" horiz-adv-x="1337" 
d="M930 1128q166 0 270 -116t105 -314q0 -198 -73 -364t-200 -258q-128 -92 -264 -93t-218 59t-109 158h-19l-116 -541h-335l394 1848h334l-117 -552h18q120 173 330 173zM675 253q118 0 201 114t83 281q0 103 -52 160t-135 57q-118 -1 -202 -117t-85 -275q0 -104 53 -162
t137 -58z" />
    <glyph glyph-name="ydieresis" unicode="&#xff;" horiz-adv-x="1208" 
d="M1070 1257q-74 1 -121 45t-47 114t47 115t121 45t120 -44q47 -44 47 -116q0 -70 -47 -114q-46 -44 -120 -45zM578 1257q-74 1 -120 45q-47 44 -47 114t47 115t121 45q75 0 121 -45t46 -115t-47 -114t-121 -45zM87 -406q-101 0 -137 4l53 257q8 -4 73 -4q168 0 214 107
l15 36l-132 1116h342l41 -814h18l381 814h357l-610 -1131q-110 -209 -252 -297t-363 -88z" />
    <glyph glyph-name="Amacron" unicode="&#x100;" horiz-adv-x="1501" 
d="M1415 1635h-770l40 192h771zM886 1126l-284 -546h348l-45 546h-19zM989 0l-27 326h-484l-170 -326h-358l810 1443h415l173 -1443h-359z" />
    <glyph glyph-name="amacron" unicode="&#x101;" horiz-adv-x="1202" 
d="M1141 1323h-757l40 192h757zM376 -17q-140 0 -234 86t-93 216q1 170 133 270t367 107l263 7l14 68q5 23 5 36q-1 52 -45 82t-120 30q-133 0 -175 -88h-308q35 154 173 246t340 92q204 0 333 -91t129 -240q0 -46 -9 -89l-152 -715h-324l29 135h-19q-43 -70 -127 -111
t-180 -41zM532 220q74 0 138 48t81 119l19 88l-206 -8q-89 -3 -140 -39t-51 -90t42 -86q43 -32 117 -32z" />
    <glyph glyph-name="Abreve" unicode="&#x102;" horiz-adv-x="1501" 
d="M643 1889q0 21 3 37h224q-1 -8 -1 -23q0 -62 50 -102t126 -40q165 0 199 165h224q-22 -157 -136 -251t-290 -94q-176 -1 -288 87t-111 221zM886 1126l-284 -546h348l-45 546h-19zM989 0l-27 326h-484l-170 -326h-358l810 1443h415l173 -1443h-359z" />
    <glyph glyph-name="abreve" unicode="&#x103;" horiz-adv-x="1202" 
d="M616 1585q0 -65 49 -106t127 -41q176 0 205 176h224q-16 -164 -132 -260t-298 -97q-182 0 -292 88t-110 222q0 27 4 47h224q-1 -9 -1 -29zM376 -17q-140 0 -234 86t-93 216q1 170 133 270t367 107l263 7l14 68q5 23 5 36q-1 52 -45 82t-120 30q-133 0 -175 -88h-308
q35 154 173 246t340 92q204 0 333 -91t129 -240q0 -46 -9 -89l-152 -715h-324l29 135h-19q-43 -70 -127 -111t-180 -41zM532 220q74 0 138 48t81 119l19 88l-206 -8q-89 -3 -140 -39t-51 -90t42 -86q43 -32 117 -32z" />
    <glyph glyph-name="Aogonek" unicode="&#x104;" horiz-adv-x="1501" 
d="M1164 -464q-121 0 -194 56t-73 148q0 148 182 255l2 14h-72l-26 317h-484l-170 -326h-358l810 1443h415l170 -1410q-111 -46 -171 -104t-60 -110q0 -101 127 -101q35 0 51 4l-36 -173q-54 -13 -113 -13zM907 1126l-284 -546h348l-45 546h-19z" />
    <glyph glyph-name="aogonek" unicode="&#x105;" horiz-adv-x="1202" 
d="M544 220q74 0 140 48q64 48 80 119l19 88l-206 -8q-89 -3 -140 -39t-51 -90t42 -86t116 -32zM813 -464q-123 0 -197 60t-66 158q9 139 184 236l3 14h-49l27 131h-19q-45 -70 -128 -111t-179 -41q-139 0 -233 86t-94 216q0 170 132 270t368 107l263 7l14 68q5 25 5 36
q0 52 -44 82t-121 30q-133 0 -175 -88h-308q34 154 172 246t342 92t332 -91q129 -91 129 -240q0 -46 -9 -89l-144 -682q-108 -43 -167 -99t-63 -108t30 -80t84 -28t63 4l-37 -173q-54 -13 -115 -13z" />
    <glyph glyph-name="Cacute" unicode="&#x106;" horiz-adv-x="1534" 
d="M947 1187q-198 0 -323 -170q-124 -170 -124 -424q0 -157 77 -247t201 -91t216 63t125 167h337q-44 -237 -234 -380t-466 -143q-275 0 -442 166t-167 436t103 478q102 208 286 324t416 115q166 0 302 -67q136 -66 215 -184q78 -118 78 -261q0 -34 -3 -53h-334q1 3 1 17
q-4 114 -81 184t-183 70zM817 1595l333 323h347l-376 -323h-304z" />
    <glyph glyph-name="cacute" unicode="&#x107;" horiz-adv-x="1218" 
d="M597 1286l322 356h343l-365 -356h-300zM1192 716h-312q-2 74 -52 116t-127 42q-121 0 -197 -117t-75 -293q0 -112 53 -170t131 -57q161 0 209 153h314q-27 -176 -168 -295q-142 -120 -371 -120q-229 1 -363 127t-135 332q1 206 77 362q76 157 219 248t340 91t323 -115
q125 -115 133 -261q1 -13 1 -43z" />
    <glyph glyph-name="Ccircumflex" unicode="&#x108;" horiz-adv-x="1534" 
d="M1208 1939l188 -344h-272l-87 192h-19l-168 -192h-299l334 344h323zM947 1187q-198 0 -323 -170q-124 -170 -124 -424q0 -157 77 -247t201 -91t216 63t125 167h337q-44 -237 -234 -380t-466 -143q-275 0 -442 166t-167 436t103 478q102 208 286 324t416 115
q166 0 302 -67q136 -66 215 -184q78 -118 78 -261q0 -34 -3 -53h-334q1 3 1 17q-4 114 -81 184t-183 70z" />
    <glyph glyph-name="ccircumflex" unicode="&#x109;" horiz-adv-x="1218" 
d="M1192 716h-312q-2 74 -52 116t-127 42q-121 0 -197 -117t-75 -293q0 -112 53 -170t131 -57q161 0 209 153h314q-27 -176 -168 -295q-142 -120 -371 -120q-229 1 -363 127t-135 332q1 206 77 362q76 157 219 248t340 91t323 -115q125 -115 133 -261q1 -13 1 -43z
M1000 1614l196 -357h-273l-95 204h-18l-182 -204h-300l349 357h323z" />
    <glyph glyph-name="Cdotaccent" unicode="&#x10a;" horiz-adv-x="1534" 
d="M947 1187q-198 0 -323 -170q-124 -170 -124 -424q0 -157 77 -247t201 -91t216 63t125 167h337q-44 -237 -234 -380t-466 -143q-275 0 -442 166t-167 436t103 478q102 208 286 324t416 115q166 0 302 -67q136 -66 215 -184q78 -118 78 -261q0 -34 -3 -53h-334q1 3 1 17
q-4 114 -81 184t-183 70zM1022 1582q-76 0 -124 47t-47 119q-1 72 47 120t124 48t122 -48q47 -48 47 -120t-47 -119q-46 -47 -122 -47z" />
    <glyph glyph-name="cdotaccent" unicode="&#x10b;" horiz-adv-x="1218" 
d="M817 1270q-73 0 -123 50t-50 124t50 124t123 49q73 1 123 -49t50 -124t-50 -124t-123 -50zM1192 716h-312q-2 74 -52 116t-127 42q-121 0 -197 -117t-75 -293q0 -112 53 -170t131 -57q161 0 209 153h314q-27 -176 -168 -295q-142 -120 -371 -120q-229 1 -363 127
t-135 332q1 206 77 362q76 157 219 248t340 91t323 -115q125 -115 133 -261q1 -13 1 -43z" />
    <glyph glyph-name="Ccaron" unicode="&#x10c;" horiz-adv-x="1534" 
d="M838 1595l-188 344h272l87 -192h19l168 192h299l-334 -344h-323zM947 1187q-198 0 -323 -170q-124 -170 -124 -424q0 -157 77 -247t201 -91t216 63t125 167h337q-44 -237 -234 -380t-466 -143q-275 0 -442 166t-167 436t103 478q102 208 286 324t416 115q166 0 302 -67
q136 -66 215 -184q78 -118 78 -261q0 -34 -3 -53h-334q1 3 1 17q-4 114 -81 184t-183 70z" />
    <glyph glyph-name="ccaron" unicode="&#x10d;" horiz-adv-x="1218" 
d="M1192 716h-312q-2 74 -52 116t-127 42q-121 0 -197 -117t-75 -293q0 -112 53 -170t131 -57q161 0 209 153h314q-27 -176 -168 -295q-142 -120 -371 -120q-229 1 -363 127t-135 332q1 206 77 362q76 157 219 248t340 91t323 -115q125 -115 133 -261q1 -13 1 -43zM954 1257
h-323l-197 357h272l95 -204h18l182 204h301z" />
    <glyph glyph-name="Dcaron" unicode="&#x10e;" horiz-adv-x="1535" 
d="M712 281q194 0 317 150t123 396q0 155 -82 245t-226 90h-174l-187 -881h229zM931 1443q269 0 423 -153t154 -412t-96 -457q-96 -197 -268 -309q-173 -112 -392 -112h-678l306 1443h551zM733 1594l-188 344h272l87 -192h19l168 192h299l-334 -344h-323z" />
    <glyph glyph-name="dcaron" unicode="&#x10f;" horiz-adv-x="1559" 
d="M606 245q118 1 202 117t84 275q0 103 -53 161t-137 58q-120 0 -203 -111t-83 -277q0 -104 54 -164t136 -59zM449 -17q-169 -1 -274 115t-105 317t74 365t202 256t266 91t219 -57t108 -146h20l128 604h335l-325 -1528h-325l33 155h-19q-124 -172 -337 -172zM1570 1528h280
l-158 -509h-231z" />
    <glyph glyph-name="Dcroat" unicode="&#x110;" horiz-adv-x="1518" 
d="M928 1443q268 0 422 -153t155 -412t-95 -457q-96 -197 -269 -309t-392 -112h-678l129 606h-115l52 243h114l126 594h551zM709 281q194 0 317 150t123 396q1 155 -81 245t-227 90h-174l-66 -313h215l-52 -243h-215l-69 -325h229z" />
    <glyph glyph-name="dcroat" unicode="&#x111;" horiz-adv-x="1343" 
d="M470 -17q-169 -1 -274 115t-105 317t74 365t202 256t266 91t219 -57t108 -146h20l70 329h-151l33 159h151l25 116h335l-25 -116h141l-34 -159h-140l-267 -1253h-325l33 155h-19q-124 -172 -337 -172zM627 245q118 1 202 117t84 275q0 103 -53 161t-137 58
q-120 0 -203 -111t-83 -277q0 -104 54 -164t136 -59z" />
    <glyph glyph-name="Emacron" unicode="&#x112;" horiz-adv-x="1274" 
d="M1304 1635h-770l40 192h771zM1109 282l-59 -282h-979l307 1443h978l-60 -282h-631l-65 -305h594l-55 -259h-594l-68 -315h632z" />
    <glyph glyph-name="emacron" unicode="&#x113;" horiz-adv-x="1248" 
d="M1148 1323h-757l40 192h757zM889 713q1 78 -51 129t-140 51t-158 -59q-69 -59 -95 -157h441q3 18 3 36zM596 -25q-218 1 -356 129t-139 350q-1 304 169 492t441 189q211 1 348 -129t137 -340q0 -80 -19 -185h-767v-24q0 -113 61 -175t146 -62q164 0 209 108h316
q-40 -161 -184 -257t-362 -96z" />
    <glyph glyph-name="Ebreve" unicode="&#x114;" horiz-adv-x="1274" 
d="M532 1889q0 21 3 37h224q-1 -8 -1 -23q0 -62 50 -102t126 -40q165 0 199 165h224q-21 -157 -135 -251t-291 -94q-175 -1 -287 87t-112 221zM1109 282l-59 -282h-979l307 1443h978l-60 -282h-631l-65 -305h594l-55 -259h-594l-68 -315h632z" />
    <glyph glyph-name="ebreve" unicode="&#x115;" horiz-adv-x="1248" 
d="M623 1585q0 -65 49 -106t127 -41q176 0 205 176h224q-16 -164 -132 -260t-298 -97q-182 0 -292 88t-110 222q0 27 4 47h224q-1 -9 -1 -29zM889 713q1 78 -51 129t-140 51t-158 -59q-69 -59 -95 -157h441q3 18 3 36zM596 -25q-218 1 -356 129t-139 350q-1 304 169 492
t441 189q211 1 348 -129t137 -340q0 -80 -19 -185h-767v-24q0 -113 61 -175t146 -62q164 0 209 108h316q-40 -161 -184 -257t-362 -96z" />
    <glyph glyph-name="Edotaccent" unicode="&#x116;" horiz-adv-x="1274" 
d="M1109 282l-59 -282h-979l307 1443h978l-60 -282h-631l-65 -305h594l-55 -259h-594l-68 -315h632zM946 1581q-76 0 -124 47q-48 48 -47 120q-1 72 47 120t124 47q76 1 122 -47q47 -48 47 -120t-47 -120q-46 -47 -122 -47z" />
    <glyph glyph-name="edotaccent" unicode="&#x117;" horiz-adv-x="1248" 
d="M889 713q1 78 -51 129t-140 51t-158 -59q-69 -59 -95 -157h441q3 18 3 36zM596 -25q-218 1 -356 129t-139 350q-1 304 169 492t441 189q211 1 348 -129t137 -340q0 -80 -19 -185h-767v-24q0 -113 61 -175t146 -62q164 0 209 108h316q-40 -161 -184 -257t-362 -96z
M795 1270q-73 0 -123 50t-50 124t50 124t123 49q73 1 123 -49t50 -124t-50 -124t-123 -50z" />
    <glyph glyph-name="Eogonek" unicode="&#x118;" horiz-adv-x="1274" 
d="M851 -464q-121 0 -194 56t-73 148q0 141 168 246l2 14h-673l307 1443h978l-60 -282h-631l-65 -305h594l-55 -259h-594l-68 -315h632l-51 -242q-118 -44 -182 -104t-64 -114q0 -104 126 -104q34 0 52 4l-36 -173q-54 -13 -113 -13z" />
    <glyph glyph-name="eogonek" unicode="&#x119;" horiz-adv-x="1251" 
d="M903 713q-1 80 -53 130t-139 50t-157 -59t-95 -157h441q3 18 3 36zM692 -193q0 -90 132 -90q29 0 43 2l-36 -171q-52 -12 -107 -12q-120 0 -195 56t-75 134q0 153 154 233l-3 17h-12q-220 8 -349 137t-129 341q-1 303 169 492t441 189q213 0 349 -131t136 -338
q0 -80 -19 -185h-767v-24q0 -109 58 -173t160 -64q150 0 198 108h316q-43 -171 -244 -296q-122 -73 -171 -123t-49 -102z" />
    <glyph glyph-name="Ecaron" unicode="&#x11a;" horiz-adv-x="1274" 
d="M1109 282l-59 -282h-979l307 1443h978l-60 -282h-631l-65 -305h594l-55 -259h-594l-68 -315h632zM762 1594l-188 344h272l87 -192h19l168 192h299l-334 -344h-323z" />
    <glyph glyph-name="ecaron" unicode="&#x11b;" horiz-adv-x="1248" 
d="M889 713q1 78 -51 129t-140 51t-158 -59q-69 -59 -95 -157h441q3 18 3 36zM596 -25q-218 1 -356 129t-139 350q-1 304 169 492t441 189q211 1 348 -129t137 -340q0 -80 -19 -185h-767v-24q0 -113 61 -175t146 -62q164 0 209 108h316q-40 -161 -184 -257t-362 -96z
M932 1257h-323l-197 357h272l95 -204h18l182 204h301z" />
    <glyph glyph-name="Gcircumflex" unicode="&#x11c;" horiz-adv-x="1567" 
d="M786 -38q-286 0 -456 168t-170 447q0 197 60 365t164 288q105 118 254 184q148 66 316 67q168 0 304 -63t224 -183t75 -262h-334q-4 93 -84 153t-199 60q-184 0 -306 -166t-121 -422q0 -157 80 -249t213 -92t225 68t114 181l4 17h-274l51 243h609l-35 -181
q-58 -303 -244 -463q-184 -160 -470 -160zM1211 1939l188 -344h-272l-87 192h-19l-168 -192h-299l334 344h323z" />
    <glyph glyph-name="gcircumflex" unicode="&#x11d;" horiz-adv-x="1327" 
d="M626 255q118 -1 200 111t82 271q0 99 -52 159t-140 60q-119 0 -199 -108t-80 -271q-1 -102 51 -162t138 -60zM516 -419q-238 0 -384 96q-144 96 -139 246h328q5 -51 61 -83t150 -31q203 0 241 174l42 193l-18 1q-107 -154 -324 -154q-167 0 -273 114q-106 113 -105 301
q0 188 73 347q74 159 200 251t258 91q132 0 220 -57q87 -57 117 -151h18l42 191h325l-246 -1152q-38 -177 -193 -277t-393 -100zM986 1615l196 -357h-273l-95 204h-18l-182 -204h-300l349 357h323z" />
    <glyph glyph-name="Gbreve" unicode="&#x11e;" horiz-adv-x="1567" 
d="M611 1890q0 20 3 37h224q-1 -8 -1 -23q0 -62 50 -102t126 -40q165 0 199 165h224q-22 -157 -136 -251t-290 -94t-288 88t-111 220zM786 -38q-286 0 -456 168t-170 447q0 197 60 365t164 288q105 118 254 184q148 66 316 67q168 0 304 -63t224 -183t75 -262h-334
q-4 93 -84 153t-199 60q-184 0 -306 -166t-121 -422q0 -157 80 -249t213 -92t225 68t114 181l4 17h-274l51 243h609l-35 -181q-58 -303 -244 -463q-184 -160 -470 -160z" />
    <glyph glyph-name="gbreve" unicode="&#x11f;" horiz-adv-x="1327" 
d="M626 255q118 -1 200 111t82 271q0 99 -52 159t-140 60q-119 0 -199 -108t-80 -271q-1 -102 51 -162t138 -60zM516 -419q-238 0 -384 96q-144 96 -139 246h328q5 -51 61 -83t150 -31q203 0 241 174l42 193l-18 1q-107 -154 -324 -154q-167 0 -273 114q-106 113 -105 301
q0 188 73 347q74 159 200 251t258 91q132 0 220 -57q87 -57 117 -151h18l42 191h325l-246 -1152q-38 -177 -193 -277t-393 -100zM631 1586q0 -65 49 -106t127 -41q176 0 205 176h224q-16 -165 -132 -261t-298 -96t-292 88t-110 222q0 27 4 47h224q-1 -9 -1 -29z" />
    <glyph glyph-name="Gdotaccent" unicode="&#x120;" horiz-adv-x="1567" 
d="M786 -38q-286 0 -456 168t-170 447q0 197 60 365t164 288q105 118 254 184q148 66 316 67q168 0 304 -63t224 -183t75 -262h-334q-4 93 -84 153t-199 60q-184 0 -306 -166t-121 -422q0 -157 80 -249t213 -92t225 68t114 181l4 17h-274l51 243h609l-35 -181
q-58 -303 -244 -463q-184 -160 -470 -160zM1024 1582q-76 0 -122 47q-48 47 -48 119t48 120t122 48q76 0 123 -48t47 -120t-47 -119t-123 -47z" />
    <glyph glyph-name="gdotaccent" unicode="&#x121;" horiz-adv-x="1327" 
d="M626 255q118 -1 200 111t82 271q0 99 -52 159t-140 60q-119 0 -199 -108t-80 -271q-1 -102 51 -162t138 -60zM516 -419q-238 0 -384 96q-144 96 -139 246h328q5 -51 61 -83t150 -31q203 0 241 174l42 193l-18 1q-107 -154 -324 -154q-167 0 -273 114q-106 113 -105 301
q0 188 73 347q74 159 200 251t258 91q132 0 220 -57q87 -57 117 -151h18l42 191h325l-246 -1152q-38 -177 -193 -277t-393 -100zM803 1271q-73 0 -123 50t-50 124q0 73 50 123t123 50t123 -50t50 -123q0 -74 -50 -124t-123 -50z" />
    <glyph glyph-name="Gcommaaccent" unicode="&#x122;" horiz-adv-x="1567" 
d="M786 -38q-286 0 -456 168t-170 447q0 197 60 365t164 288q105 118 254 184q148 66 316 67q168 0 304 -63t224 -183t75 -262h-334q-4 93 -84 153t-199 60q-184 0 -306 -166t-121 -422q0 -157 80 -249t213 -92t225 68t114 181l4 17h-274l51 243h609l-35 -181
q-58 -303 -244 -463q-184 -160 -470 -160zM749 -507h-291l169 352h331z" />
    <glyph glyph-name="gcommaaccent" unicode="&#x123;" horiz-adv-x="1328" 
d="M626 255q118 -1 200 111t82 271q0 99 -52 159t-140 60q-119 0 -199 -108t-80 -271q-1 -102 51 -162t138 -60zM516 -419q-238 0 -384 96q-144 96 -139 246h328q5 -51 61 -83t150 -31q203 0 241 174l42 193l-18 1q-107 -154 -324 -154q-167 0 -273 114q-106 113 -105 301
q0 188 73 347q74 159 200 251t258 91q132 0 220 -57q87 -57 117 -151h18l42 191h325l-246 -1152q-38 -177 -193 -277t-393 -100zM1079 1646h291l-169 -352h-331z" />
    <glyph glyph-name="Hcircumflex" unicode="&#x124;" horiz-adv-x="1606" 
d="M1284 1938l188 -344h-272l-87 192h-19l-168 -192h-299l334 344h323zM1353 0h-348l126 589h-598l-126 -589h-346l307 1443h347l-122 -572h598l122 572h347z" />
    <glyph glyph-name="hcircumflex" unicode="&#x125;" horiz-adv-x="1321" 
d="M789 2013l188 -344h-272l-87 192h-19l-168 -192h-299l334 344h323zM930 1131q155 0 249 -89t94 -226q0 -62 -15 -133l-143 -683h-333l133 630q9 49 9 79q0 72 -50 115t-134 43q-82 0 -148 -58t-86 -150l-140 -659h-334l324 1518h333l-124 -576h19q119 189 346 189z" />
    <glyph glyph-name="Hbar" unicode="&#x126;" horiz-adv-x="1557" 
d="M1739 1273l-47 -224h-140l-223 -1049h-348l126 589h-598l-126 -589h-346l223 1049h-109l47 224h110l36 170h347l-36 -170h598l36 170h347l-36 -170h139zM1167 871l38 178h-598l-38 -178h598z" />
    <glyph glyph-name="hbar" unicode="&#x127;" horiz-adv-x="1339" 
d="M1272 816q0 -62 -15 -133l-143 -683h-333l133 630q9 49 9 79q-1 72 -51 115t-132 43t-149 -58q-66 -58 -86 -150l-140 -659h-334l267 1253h-166l35 167h167l21 98h333l-21 -98h227l-36 -167h-227l-67 -311h19q119 189 346 189q155 0 249 -89t94 -226z" />
    <glyph glyph-name="Itilde" unicode="&#x128;" horiz-adv-x="653" 
d="M471 1717q-79 0 -91 -100h-195q17 131 91 207t169 77t165 -49q28 -20 72 -56q44 -34 81 -34q79 0 91 100h195q-17 -132 -91 -208t-170 -76t-164 50q-28 20 -72 54q-43 34 -81 35zM400 0h-347l307 1443h347z" />
    <glyph glyph-name="itilde" unicode="&#x129;" horiz-adv-x="599" 
d="M387 1413q-72 0 -88 -121h-198q15 136 90 220t183 84q56 0 104 -25t76 -55q77 -80 124 -79q72 0 88 120h198q-15 -137 -90 -221t-172 -83t-164 57q-28 24 -52 46q-58 56 -99 57zM37 0l236 1110h334l-236 -1110h-334z" />
    <glyph glyph-name="Imacron" unicode="&#x12a;" horiz-adv-x="653" 
d="M979 1635h-770l40 192h771zM400 0h-347l307 1443h347z" />
    <glyph glyph-name="imacron" unicode="&#x12b;" horiz-adv-x="599" 
d="M883 1323h-757l40 192h757zM37 0l236 1110h334l-236 -1110h-334z" />
    <glyph glyph-name="Ibreve" unicode="&#x12c;" horiz-adv-x="653" 
d="M207 1889q0 21 3 37h224q-1 -8 -1 -23q0 -62 50 -102t126 -40q165 0 199 165h224q-22 -157 -136 -251t-290 -94q-176 -1 -288 87t-111 221zM400 0h-347l307 1443h347z" />
    <glyph glyph-name="ibreve" unicode="&#x12d;" horiz-adv-x="599" 
d="M358 1585q0 -65 49 -106t127 -41q176 0 205 176h224q-16 -164 -132 -260t-298 -97q-182 0 -292 88t-110 222q0 27 4 47h224q-1 -9 -1 -29zM37 0l236 1110h334l-236 -1110h-334z" />
    <glyph glyph-name="Iogonek" unicode="&#x12e;" horiz-adv-x="653" 
d="M193 -186q-1 -44 33 -70t81 -26t63 4l-36 -173q-54 -13 -112 -13q-120 0 -194 57t-74 142t44 148t142 121l3 14h-67l303 1425h347l-298 -1403q-235 -98 -235 -226z" />
    <glyph glyph-name="iogonek" unicode="&#x12f;" horiz-adv-x="599" 
d="M199 -464q-120 0 -194 57t-74 142q-1 85 45 147t143 122l3 14h-67l233 1092h335l-227 -1070q-226 -94 -226 -226q0 -44 34 -70t80 -26t63 4l-36 -173q-57 -13 -112 -13zM517 1247q-85 -1 -137 41t-53 110q1 68 53 113q52 44 138 44t138 -41q52 -42 52 -110t-53 -112
t-138 -45z" />
    <glyph glyph-name="Idotaccent" unicode="&#x130;" horiz-adv-x="654" 
d="M622 1581q-76 0 -124 47q-48 48 -47 120q-1 72 47 120t124 47q76 1 122 -47q47 -48 47 -120t-47 -120q-46 -47 -122 -47zM401 0h-347l307 1443h347z" />
    <glyph glyph-name="dotlessi" unicode="&#x131;" horiz-adv-x="599" 
d="M52 0l236 1110h334l-236 -1110h-334z" />
    <glyph glyph-name="u0132" unicode="&#x132;" horiz-adv-x="1881" 
d="M1040 433v-12q1 -73 45 -115t120 -43q151 0 193 193l210 987h346l-219 -1032q-46 -217 -184 -333q-139 -116 -359 -116t-355 119t-132 313q0 13 2 39h333zM377 0h-347l307 1443h347z" />
    <glyph glyph-name="u0133" unicode="&#x133;" horiz-adv-x="1199" 
d="M1117 1247q-87 -1 -139 41t-51 110q-1 68 51 112q52 45 140 45q88 1 138 -41q52 -42 52 -109t-52 -113t-139 -45zM517 -116q110 0 134 109l237 1117h334l-245 -1151q-33 -155 -147 -241t-284 -86q-73 0 -149 14l53 244q32 -6 67 -6zM487 1247q-87 -1 -139 41t-51 110
q-1 68 51 112q52 45 140 45q88 1 138 -41q52 -42 52 -109t-52 -113t-139 -45zM21 0l237 1110h335l-236 -1110h-336z" />
    <glyph glyph-name="Jcircumflex" unicode="&#x134;" horiz-adv-x="1229" 
d="M1387 1938l188 -344h-272l-87 192h-19l-168 -192h-299l334 344h323zM369 433v-12q1 -73 45 -115t120 -43q151 0 193 193l210 987h346l-219 -1032q-46 -217 -184 -333t-358 -116t-356 119q-135 119 -132 313q0 13 2 39h333z" />
    <glyph glyph-name="jcircumflex" unicode="&#x135;" horiz-adv-x="599" 
d="M713 1614l196 -357h-273l-95 204h-18l-182 -204h-300l349 357h323zM-98 -116q110 0 134 109l237 1117h334l-245 -1151q-32 -155 -146 -241t-285 -86q-73 0 -149 14l53 244q32 -6 67 -6z" />
    <glyph glyph-name="Kcommaaccent" unicode="&#x136;" horiz-adv-x="1454" 
d="M619 -507h-291l169 352h331zM399 0h-346l307 1443h346l-132 -618h18l619 618h402l-659 -658l359 -785h-387l-261 582l-179 -175z" />
    <glyph glyph-name="kcommaaccent" unicode="&#x137;" horiz-adv-x="1223" 
d="M514 -507h-291l169 352h331zM524 704l412 406h380l-515 -487l315 -623h-365l-220 442l-103 -94l-73 -348h-335l325 1528h334l-174 -824h19z" />
    <glyph glyph-name="Lacute" unicode="&#x139;" horiz-adv-x="1219" 
d="M1101 289l-62 -289h-968l307 1443h347l-246 -1154h622zM425 1594l333 323h347l-376 -323h-304z" />
    <glyph glyph-name="lacute" unicode="&#x13a;" horiz-adv-x="594" 
d="M34 0l325 1528h335l-324 -1528h-336zM404 1678l333 323h347l-376 -323h-304z" />
    <glyph glyph-name="Lcommaaccent" unicode="&#x13b;" horiz-adv-x="1219" 
d="M1101 289l-62 -289h-968l307 1443h347l-246 -1154h622zM512 -507h-291l169 352h331z" />
    <glyph glyph-name="lcommaaccent" unicode="&#x13c;" horiz-adv-x="594" 
d="M34 0l325 1528h335l-324 -1528h-336zM163 -507h-291l169 352h331z" />
    <glyph glyph-name="Lcaron" unicode="&#x13d;" horiz-adv-x="1219" 
d="M1101 289l-62 -289h-968l307 1443h347l-246 -1154h622zM969 1443h273l-158 -509h-223z" />
    <glyph glyph-name="lcaron" unicode="&#x13e;" horiz-adv-x="814" 
d="M12 0l325 1528h335l-324 -1528h-336zM821 1528h280l-158 -509h-230z" />
    <glyph glyph-name="Lslash" unicode="&#x141;" horiz-adv-x="1223" 
d="M509 289h622l-62 -289h-968l138 648l-170 -80l46 221l171 80l122 574h347l-84 -394l234 110l-47 -221l-234 -110z" />
    <glyph glyph-name="lslash" unicode="&#x142;" horiz-adv-x="593" 
d="M736 1114l-47 -221l-144 -69l-175 -824h-336l137 644l-111 -53l46 221l112 54l141 662h335l-102 -483z" />
    <glyph glyph-name="Nacute" unicode="&#x143;" horiz-adv-x="1573" 
d="M407 0h-334l307 1443h251l459 -872h18l187 872h334l-307 -1443h-248l-464 864h-19zM849 1594l333 323h347l-376 -323h-304z" />
    <glyph glyph-name="nacute" unicode="&#x144;" horiz-adv-x="1304" 
d="M1256 816q0 -62 -15 -133l-144 -683h-332l132 630q9 45 9 79q0 70 -48 114t-130 44t-146 -58t-85 -150l-140 -659h-334l238 1121h324l-39 -179h19q118 193 371 193q132 1 226 -89t94 -230zM572 1293l322 356h343l-365 -356h-300z" />
    <glyph glyph-name="Ncommaaccent" unicode="&#x145;" horiz-adv-x="1573" 
d="M407 0h-334l307 1443h251l459 -872h18l187 872h334l-307 -1443h-248l-464 864h-19zM685 -507h-291l169 352h331z" />
    <glyph glyph-name="ncommaaccent" unicode="&#x146;" horiz-adv-x="1304" 
d="M1256 816q0 -62 -15 -133l-144 -683h-332l132 630q9 45 9 79q0 70 -48 114t-130 44t-146 -58t-85 -150l-140 -659h-334l238 1121h324l-39 -179h19q118 193 371 193q132 1 226 -89t94 -230zM522 -507h-291l169 352h331z" />
    <glyph glyph-name="Ncaron" unicode="&#x147;" horiz-adv-x="1573" 
d="M407 0h-334l307 1443h251l459 -872h18l187 872h334l-307 -1443h-248l-464 864h-19zM870 1594l-188 344h272l87 -192h19l168 192h299l-334 -344h-323z" />
    <glyph glyph-name="ncaron" unicode="&#x148;" horiz-adv-x="1304" 
d="M1256 816q0 -62 -15 -133l-144 -683h-332l132 630q9 45 9 79q0 70 -48 114t-130 44t-146 -58t-85 -150l-140 -659h-334l238 1121h324l-39 -179h19q118 193 371 193q132 1 226 -89t94 -230zM929 1264h-323l-197 357h272l95 -204h18l182 204h301z" />
    <glyph glyph-name="Omacron" unicode="&#x14c;" horiz-adv-x="1617" 
d="M1390 1634h-770l40 192h771zM1236 836q0 159 -80 253t-206 94q-126 -1 -224 -77t-156 -210t-57 -292t81 -252t206 -94t224 76t155 210t57 292zM808 -38q-304 0 -476 175t-172 443q0 196 61 364t167 286t252 184t327 67t327 -81t220 -221t75 -326q0 -187 -61 -355
q-60 -168 -166 -286t-252 -184t-302 -66z" />
    <glyph glyph-name="omacron" unicode="&#x14d;" horiz-adv-x="1289" 
d="M609 -25q-232 0 -372 135q-140 134 -140 338q-1 204 81 356t230 242q148 89 330 89q231 0 370 -135t139 -358q-1 -184 -81 -336t-226 -242t-331 -89zM444 471q0 -109 48 -173t132 -63q111 0 193 116t82 281q-1 116 -47 180t-129 64q-119 0 -199 -118t-80 -287zM1172 1323
h-757l40 192h757z" />
    <glyph glyph-name="Obreve" unicode="&#x14e;" horiz-adv-x="1617" 
d="M618 1888q0 20 3 37h224q-1 -8 -1 -23q0 -62 50 -102t126 -40q165 0 199 165h224q-21 -157 -135 -251t-291 -94q-175 0 -287 88t-112 220zM1236 836q0 159 -80 253t-206 94q-126 -1 -224 -77t-156 -210t-57 -292t81 -252t206 -94t224 76t155 210t57 292zM808 -38
q-304 0 -476 175t-172 443q0 196 61 364t167 286t252 184t327 67t327 -81t220 -221t75 -326q0 -187 -61 -355q-60 -168 -166 -286t-252 -184t-302 -66z" />
    <glyph glyph-name="obreve" unicode="&#x14f;" horiz-adv-x="1289" 
d="M609 -25q-232 0 -372 135q-140 134 -140 338q-1 204 81 356t230 242q148 89 330 89q231 0 370 -135t139 -358q-1 -184 -81 -336t-226 -242t-331 -89zM444 471q0 -109 48 -173t132 -63q111 0 193 116t82 281q-1 116 -47 180t-129 64q-119 0 -199 -118t-80 -287zM647 1585
q0 -65 49 -106t127 -41q176 0 205 176h224q-16 -164 -132 -260t-298 -97q-182 0 -292 88t-110 222q0 27 4 47h224q-1 -9 -1 -29z" />
    <glyph glyph-name="Ohungarumlaut" unicode="&#x150;" horiz-adv-x="1617" 
d="M1236 836q0 159 -80 253t-206 94q-126 -1 -224 -77t-156 -210t-57 -292t81 -252t206 -94t224 76t155 210t57 292zM808 -38q-304 0 -476 175t-172 443q0 196 61 364t167 286t252 184t327 67t327 -81t220 -221t75 -326q0 -187 -61 -355q-60 -168 -166 -286t-252 -184
t-302 -66zM566 1593l299 323h286l-326 -323h-259zM1011 1593l299 323h286l-326 -323h-259z" />
    <glyph glyph-name="ohungarumlaut" unicode="&#x151;" horiz-adv-x="1289" 
d="M609 -25q-232 0 -372 135q-140 134 -140 338q-1 204 81 356t230 242q148 89 330 89q231 0 370 -135t139 -358q-1 -184 -81 -336t-226 -242t-331 -89zM444 471q0 -109 48 -173t132 -63q111 0 193 116t82 281q-1 116 -47 180t-129 64q-119 0 -199 -118t-80 -287zM430 1286
l274 356h279l-304 -356h-249zM879 1286l274 356h279l-304 -356h-249z" />
    <glyph glyph-name="OE" unicode="&#x152;" horiz-adv-x="2312" 
d="M820 -38q-284 0 -461 172t-177 437q0 266 102 472t284 322q181 116 407 116q151 1 270 -59t184 -165h19l40 186h903l-61 -282h-630l-66 -305h594l-55 -259h-593l-68 -315h631l-59 -282h-903l20 92h-15q-54 -58 -154 -94t-212 -36zM1262 840q0 160 -82 256t-208 95
t-226 -79t-157 -214q-58 -136 -58 -294q-1 -160 81 -256t210 -96t226 78q100 78 157 214t57 296z" />
    <glyph glyph-name="oe" unicode="&#x153;" horiz-adv-x="2048" 
d="M464 470q0 -110 48 -173t132 -63q112 0 194 118t81 256q0 268 -176 268q-119 0 -199 -118t-80 -288zM1697 713q-1 80 -53 130t-139 50t-157 -59t-95 -157h441q3 9 3 36zM1416 -25q-117 1 -215 47t-159 131h-18q-146 -178 -387 -178t-381 134q-140 133 -139 339t83 360
t228 240q146 87 326 87q116 0 212 -47t153 -133h19q148 180 372 180t358 -131q136 -131 136 -338q0 -90 -19 -185h-767v-25q0 -108 58 -172t160 -64q151 0 198 108h316q-40 -163 -184 -258t-350 -95z" />
    <glyph glyph-name="Racute" unicode="&#x154;" horiz-adv-x="1418" 
d="M804 761q123 0 198 66q75 65 75 161q0 188 -202 189h-214l-90 -416h233zM967 1443q202 0 331 -117q129 -118 129 -288t-94 -302t-253 -189l196 -547h-372l-167 511h-218l-109 -511h-347l307 1443h597zM680 1594l333 323h347l-376 -323h-304z" />
    <glyph glyph-name="racute" unicode="&#x155;" horiz-adv-x="875" 
d="M831 1127q87 0 145 -26l-64 -294q-81 33 -179 33q-206 0 -257 -239l-129 -601h-335l237 1110h326l-32 -156h18q43 82 113 128t157 45zM451 1286l322 356h343l-365 -356h-300z" />
    <glyph glyph-name="Rcommaaccent" unicode="&#x156;" horiz-adv-x="1418" 
d="M604 -507h-291l169 352h331zM804 761q123 0 198 66q75 65 75 161q0 188 -202 189h-214l-90 -416h233zM967 1443q202 0 331 -117q129 -118 129 -288t-94 -302t-253 -189l196 -547h-372l-167 511h-218l-109 -511h-347l307 1443h597z" />
    <glyph glyph-name="rcommaaccent" unicode="&#x157;" horiz-adv-x="875" 
d="M151 -507h-291l169 352h331zM831 1127q87 0 145 -26l-64 -294q-81 33 -179 33q-206 0 -257 -239l-129 -601h-335l237 1110h326l-32 -156h18q43 82 113 128t157 45z" />
    <glyph glyph-name="Rcaron" unicode="&#x158;" horiz-adv-x="1418" 
d="M701 1594l-188 344h272l87 -192h19l168 192h299l-334 -344h-323zM804 761q123 0 198 66q75 65 75 161q0 188 -202 189h-214l-90 -416h233zM967 1443q202 0 331 -117q129 -118 129 -288t-94 -302t-253 -189l196 -547h-372l-167 511h-218l-109 -511h-347l307 1443h597z" />
    <glyph glyph-name="rcaron" unicode="&#x159;" horiz-adv-x="875" 
d="M831 1127q87 0 145 -26l-64 -294q-81 33 -179 33q-206 0 -257 -239l-129 -601h-335l237 1110h326l-32 -156h18q43 82 113 128t157 45zM808 1257h-323l-197 357h272l95 -204h18l182 204h301z" />
    <glyph glyph-name="Sacute" unicode="&#x15a;" horiz-adv-x="1362" 
d="M680 228q110 0 180 48t70 114t-45 104t-154 72l-155 46q-164 50 -254 154t-89 247q-1 202 167 335t420 133t407 -126q156 -126 159 -328h-322q-10 83 -80 135t-170 53q-100 0 -166 -46t-66 -109t43 -104t137 -70l155 -47q186 -55 272 -149t86 -243q0 -219 -171 -352
t-451 -133q-169 0 -298 54t-203 156t-79 242h331q12 -82 89 -134t187 -52zM704 1594l333 323h347l-376 -323h-304z" />
    <glyph glyph-name="sacute" unicode="&#x15b;" horiz-adv-x="1150" 
d="M512 1286l322 356h343l-365 -356h-300zM548 205q76 0 121 28q45 27 45 67t-24 62t-81 43l-175 61q-263 92 -263 303q0 165 131 265t343 101q213 -1 341 -93t136 -244h-303q-8 48 -55 77q-46 29 -116 29t-114 -28t-44 -68q0 -38 26 -62t86 -44l191 -67q135 -47 195 -115
t60 -174q0 -167 -138 -269t-361 -102q-223 1 -363 97t-144 253h318q9 -53 61 -87q51 -34 127 -33z" />
    <glyph glyph-name="Scircumflex" unicode="&#x15c;" horiz-adv-x="1362" 
d="M1095 1938l188 -344h-272l-87 192h-19l-168 -192h-299l334 344h323zM680 228q110 0 180 48t70 114t-45 104t-154 72l-155 46q-164 50 -254 154t-89 247q-1 202 167 335t420 133t407 -126q156 -126 159 -328h-322q-10 83 -80 135t-170 53q-100 0 -166 -46t-66 -109
t43 -104t137 -70l155 -47q186 -55 272 -149t86 -243q0 -219 -171 -352t-451 -133q-169 0 -298 54t-203 156t-79 242h331q12 -82 89 -134t187 -52z" />
    <glyph glyph-name="scircumflex" unicode="&#x15d;" horiz-adv-x="1150" 
d="M548 205q76 0 121 28q45 27 45 67t-24 62t-81 43l-175 61q-263 92 -263 303q0 165 131 265t343 101q213 -1 341 -93t136 -244h-303q-8 48 -55 77q-46 29 -116 29t-114 -28t-44 -68q0 -38 26 -62t86 -44l191 -67q135 -47 195 -115t60 -174q0 -167 -138 -269t-361 -102
q-223 1 -363 97t-144 253h318q9 -53 61 -87q51 -34 127 -33zM915 1614l196 -357h-273l-95 204h-18l-182 -204h-300l349 357h323z" />
    <glyph glyph-name="Scedilla" unicode="&#x15e;" horiz-adv-x="1362" 
d="M1275 447q1 -193 -135 -321t-366 -157l-54 -83q151 -29 151 -166q0 -100 -73 -158t-190 -58t-195 35l30 139q65 -26 146 -26t81 54q0 59 -110 59h-57l18 123l51 77q-224 21 -358 139t-141 310h331q12 -82 89 -134t187 -52t180 48t70 114t-45 104t-154 72l-155 46
q-164 50 -254 154t-89 247q-1 202 167 335t420 133t407 -126q156 -126 159 -328h-322q-10 83 -80 135t-170 53q-100 0 -166 -46t-66 -109t43 -104t137 -70l155 -47q186 -55 272 -149t86 -243z" />
    <glyph glyph-name="scedilla" unicode="&#x15f;" horiz-adv-x="1150" 
d="M1048 346q0 -146 -107 -244t-290 -121l-62 -95q151 -29 151 -166q0 -100 -73 -158t-190 -58t-195 35l30 139q65 -26 146 -26t81 54q0 59 -110 59h-57l18 123l60 92q-184 21 -294 114t-114 231h318q9 -53 61 -87q51 -34 127 -33q76 0 121 28q45 27 45 67t-24 62t-81 43
l-175 61q-263 92 -263 303q0 165 131 265t343 101q213 -1 341 -93t136 -244h-303q-8 48 -55 77q-46 29 -116 29t-114 -28t-44 -68q0 -38 26 -62t86 -44l191 -67q135 -47 195 -115t60 -174z" />
    <glyph glyph-name="Scaron" unicode="&#x160;" horiz-adv-x="1362" 
d="M725 1594l-188 344h272l87 -192h19l168 192h299l-334 -344h-323zM680 228q110 0 180 48t70 114t-45 104t-154 72l-155 46q-164 50 -254 154t-89 247q-1 202 167 335t420 133t407 -126q156 -126 159 -328h-322q-10 83 -80 135t-170 53q-100 0 -166 -46t-66 -109t43 -104
t137 -70l155 -47q186 -55 272 -149t86 -243q0 -219 -171 -352t-451 -133q-169 0 -298 54t-203 156t-79 242h331q12 -82 89 -134t187 -52z" />
    <glyph glyph-name="scaron" unicode="&#x161;" horiz-adv-x="1150" 
d="M548 205q76 0 121 28q45 27 45 67t-24 62t-81 43l-175 61q-263 92 -263 303q0 165 131 265t343 101q213 -1 341 -93t136 -244h-303q-8 48 -55 77q-46 29 -116 29t-114 -28t-44 -68q0 -38 26 -62t86 -44l191 -67q135 -47 195 -115t60 -174q0 -167 -138 -269t-361 -102
q-223 1 -363 97t-144 253h318q9 -53 61 -87q51 -34 127 -33zM869 1257h-323l-197 357h272l95 -204h18l182 204h301z" />
    <glyph glyph-name="Tcedilla" unicode="&#x162;" horiz-adv-x="1352" 
d="M777 -280q0 -100 -73 -158t-190 -58t-195 35l30 139q65 -26 146 -26t81 54q0 59 -110 59h-57l18 123l73 112h-89l247 1161h-421l60 282h1189l-60 -282h-421l-246 -1161h-59l-74 -114q151 -29 151 -166z" />
    <glyph glyph-name="tcedilla" unicode="&#x163;" horiz-adv-x="846" 
d="M519 324q1 -49 39 -71t92 -22t73 3l-52 -242q-49 -7 -91 -7t-53 1l-65 -100q151 -29 151 -166q0 -100 -73 -158t-190 -58t-195 35l30 139q65 -26 146 -26t81 54q0 59 -110 59h-57l18 123l81 124q-176 55 -176 212q0 44 11 97l109 513h-173l54 251h172l57 268h334
l-57 -268h230l-54 -251h-228l-97 -455q-7 -33 -7 -55z" />
    <glyph glyph-name="Tcaron" unicode="&#x164;" horiz-adv-x="1352" 
d="M759 0h-348l247 1161h-421l60 282h1189l-60 -282h-421zM788 1594l-188 344h272l87 -192h19l168 192h299l-334 -344h-323z" />
    <glyph glyph-name="tcaron" unicode="&#x165;" horiz-adv-x="846" 
d="M562 -15q-394 0 -394 239q0 44 11 97l109 513h-173l54 251h172l57 268h334l-57 -268h230l-54 -251h-228l-97 -455q-7 -33 -7 -55q1 -49 39 -71t92 -22t73 3l-52 -242q-49 -7 -109 -7zM1084 1231h-230l108 508h280z" />
    <glyph glyph-name="Tbar" unicode="&#x166;" horiz-adv-x="1352" 
d="M1426 1161h-421l-76 -358h287l-50 -237h-287l-120 -566h-348l120 566h-262l50 237h263l76 358h-421l60 282h1189z" />
    <glyph glyph-name="tbar" unicode="&#x167;" horiz-adv-x="843" 
d="M561 -15q-394 0 -394 239q0 44 11 97l36 171h-155l35 166h156l37 176h-173l54 251h172l57 268h334l-57 -268h230l-54 -251h-228l-38 -176h253l-35 -166h-253l-24 -113q-7 -33 -7 -55q0 -49 38 -71t94 -22q54 0 72 3l-52 -242q-49 -7 -109 -7z" />
    <glyph glyph-name="Utilde" unicode="&#x168;" horiz-adv-x="1564" 
d="M732 1824q74 76 169 77t165 -49q28 -20 72 -56q44 -34 81 -34q79 0 91 100h195q-17 -132 -91 -208t-170 -76t-164 50q-28 20 -72 54q-43 34 -81 35q-79 0 -91 -100h-195q17 131 91 207zM769 -38q-262 0 -421 132t-160 344q0 63 13 125l186 880h348l-185 -874
q-34 -171 58 -251q68 -58 182 -58t190 67q77 67 104 192l195 924h348l-211 -1000q-48 -227 -216 -354t-431 -127z" />
    <glyph glyph-name="utilde" unicode="&#x169;" horiz-adv-x="1305" 
d="M721 1596q55 0 103 -25t78 -55q77 -79 123 -79q72 0 88 120h198q-15 -137 -90 -221t-172 -83t-164 57q-29 24 -53 46q-59 56 -98 57q-72 0 -88 -121h-198q15 136 90 220t183 84zM440 -25q-154 0 -250 88t-96 237q0 55 15 140l141 670h335l-131 -616q-8 -42 -8 -77
q0 -81 44 -123t130 -42t149 58t84 157l137 643h334l-235 -1110h-324l37 172h-19q-52 -93 -141 -145t-202 -52z" />
    <glyph glyph-name="Umacron" unicode="&#x16a;" horiz-adv-x="1564" 
d="M1435 1635h-770l40 192h771zM769 -38q-262 0 -421 132t-160 344q0 63 13 125l186 880h348l-185 -874q-34 -171 58 -251q68 -58 182 -58t190 67q77 67 104 192l195 924h348l-211 -1000q-48 -227 -216 -354t-431 -127z" />
    <glyph glyph-name="umacron" unicode="&#x16b;" horiz-adv-x="1305" 
d="M1230 1323h-757l40 192h757zM440 -25q-154 0 -250 88t-96 237q0 55 15 140l141 670h335l-131 -616q-8 -42 -8 -77q0 -81 44 -123t130 -42t149 58t84 157l137 643h334l-235 -1110h-324l37 172h-19q-52 -93 -141 -145t-202 -52z" />
    <glyph glyph-name="Ubreve" unicode="&#x16c;" horiz-adv-x="1564" 
d="M663 1889q0 21 3 37h224q-1 -8 -1 -23q0 -62 50 -102t126 -40q165 0 199 165h224q-22 -157 -136 -251t-290 -94q-176 -1 -288 87t-111 221zM769 -38q-262 0 -421 132t-160 344q0 63 13 125l186 880h348l-185 -874q-34 -171 58 -251q68 -58 182 -58t190 67q77 67 104 192
l195 924h348l-211 -1000q-48 -227 -216 -354t-431 -127z" />
    <glyph glyph-name="ubreve" unicode="&#x16d;" horiz-adv-x="1305" 
d="M705 1585q0 -65 49 -106t127 -41q176 0 205 176h224q-16 -164 -132 -260t-298 -97q-182 0 -292 88t-110 222q0 27 4 47h224q-1 -9 -1 -29zM440 -25q-154 0 -250 88t-96 237q0 55 15 140l141 670h335l-131 -616q-8 -42 -8 -77q0 -81 44 -123t130 -42t149 58t84 157
l137 643h334l-235 -1110h-324l37 172h-19q-52 -93 -141 -145t-202 -52z" />
    <glyph glyph-name="Uring" unicode="&#x16e;" horiz-adv-x="1564" 
d="M769 -38q-262 0 -421 132t-160 344q0 63 13 125l186 880h348l-185 -874q-34 -171 58 -251q68 -58 182 -58t190 67q77 67 104 192l195 924h348l-211 -1000q-48 -227 -216 -354t-431 -127zM1094 1722q43 0 71 28t28 71t-28 71t-71 28q-44 0 -72 -29t-28 -71t28 -70t72 -28z
M1094 1579q-108 0 -180 69t-71 174q0 105 71 173t180 68q110 1 180 -67t70 -174t-71 -174t-179 -69z" />
    <glyph glyph-name="uring" unicode="&#x16f;" horiz-adv-x="1305" 
d="M888 1400q43 0 71 28t28 71t-28 71t-71 28q-44 0 -72 -29t-28 -71t28 -70t72 -28zM888 1257q-108 0 -180 69t-71 174q0 105 71 173t180 68q110 1 180 -67t70 -174t-71 -174t-179 -69zM440 -25q-154 0 -250 88t-96 237q0 55 15 140l141 670h335l-131 -616q-8 -42 -8 -77
q0 -81 44 -123t130 -42t149 58t84 157l137 643h334l-235 -1110h-324l37 172h-19q-52 -93 -141 -145t-202 -52z" />
    <glyph glyph-name="Uhungarumlaut" unicode="&#x170;" horiz-adv-x="1564" 
d="M612 1594l299 323h286l-326 -323h-259zM1057 1594l299 323h286l-326 -323h-259zM769 -38q-262 0 -421 132t-160 344q0 63 13 125l186 880h348l-185 -874q-34 -171 58 -251q68 -58 182 -58t190 67q77 67 104 192l195 924h348l-211 -1000q-48 -227 -216 -354t-431 -127z
" />
    <glyph glyph-name="uhungarumlaut" unicode="&#x171;" horiz-adv-x="1305" 
d="M440 -25q-154 0 -250 88t-96 237q0 55 15 140l141 670h335l-131 -616q-8 -42 -8 -77q0 -81 44 -123t130 -42t149 58t84 157l137 643h334l-235 -1110h-324l37 172h-19q-52 -93 -141 -145t-202 -52zM488 1286l274 356h279l-304 -356h-249zM937 1286l274 356h279l-304 -356
h-249z" />
    <glyph glyph-name="Uogonek" unicode="&#x172;" horiz-adv-x="1564" 
d="M907 -191q0 -92 133 -92q29 0 43 2l-37 -171q-49 -12 -107 -12q-125 0 -197 58t-72 155q0 57 38 113t100 91l7 18q-6 -2 -41 -2q-263 1 -421 129t-158 339q0 69 13 126l186 880h348l-185 -874q-10 -47 -10 -94q1 -101 69 -158t182 -57t190 68t103 191l195 924h348
l-211 -1000q-57 -265 -276 -392q-187 -115 -223 -179q-18 -30 -17 -63z" />
    <glyph glyph-name="uogonek" unicode="&#x173;" horiz-adv-x="1305" 
d="M908 -464q-119 0 -192 56t-73 146q0 148 185 252l3 14h-49l36 168h-19q-52 -94 -142 -146t-201 -51q-156 0 -251 89t-95 236q0 53 15 140l141 670h335l-131 -616q-8 -46 -8 -77q0 -81 44 -123t130 -42t148 58q64 58 85 157l137 643h334l-227 -1077q-111 -46 -171 -104
t-60 -110q0 -101 124 -101q41 0 53 4l-36 -173q-57 -13 -115 -13z" />
    <glyph glyph-name="Wcircumflex" unicode="&#x174;" horiz-adv-x="2067" 
d="M1116 909l-437 -909h-323l-73 1443h352l1 -978h18l449 978h275l46 -978h18l410 978h356l-683 -1443h-332l-60 909h-17zM1514 1938l188 -344h-272l-87 192h-19l-168 -192h-299l334 344h323z" />
    <glyph glyph-name="wcircumflex" unicode="&#x175;" horiz-adv-x="1735" 
d="M1832 1110l-526 -1110h-361l-22 741h-19l-336 -741h-352l-56 1110h329l-11 -770h19l335 770h322l14 -773h18l311 773h335zM1278 1614l196 -357h-273l-95 204h-18l-182 -204h-300l349 357h323z" />
    <glyph glyph-name="Ycircumflex" unicode="&#x176;" horiz-adv-x="1451" 
d="M1203 1938l188 -344h-272l-87 192h-19l-168 -192h-299l334 344h323zM801 0h-347l108 508l-301 935h362l171 -597h19l417 597h375l-698 -943z" />
    <glyph glyph-name="ycircumflex" unicode="&#x177;" horiz-adv-x="1208" 
d="M1014 1614l196 -357h-273l-95 204h-18l-182 -204h-300l349 357h323zM87 -406q-101 0 -137 4l53 257q8 -4 73 -4q168 0 214 107l15 36l-132 1116h342l41 -814h18l381 814h357l-610 -1131q-110 -209 -252 -297t-363 -88z" />
    <glyph glyph-name="Ydieresis" unicode="&#x178;" horiz-adv-x="1451" 
d="M1262 1581q-74 1 -120 45q-47 44 -47 114t47 115q46 45 120 45t121 -44t47 -116q0 -70 -47 -114t-121 -45zM772 1581q-74 1 -121 45t-47 114t47 115t121 45t120 -45t47 -115q0 -70 -47 -114q-46 -44 -120 -45zM801 0h-347l108 508l-301 935h362l171 -597h19l417 597h375
l-698 -943z" />
    <glyph glyph-name="Zacute" unicode="&#x179;" horiz-adv-x="1384" 
d="M42 0l47 223l868 919l1 19h-657l60 282h1096l-47 -223l-866 -919l-1 -19h688l-59 -282h-1130zM774 1594l333 323h347l-376 -323h-304z" />
    <glyph glyph-name="zacute" unicode="&#x17a;" horiz-adv-x="1160" 
d="M14 0l39 183l662 654l1 18h-509l54 255h924l-45 -209l-613 -628l-1 -19h493l-54 -254h-951zM589 1286l322 356h343l-365 -356h-300z" />
    <glyph glyph-name="Zdotaccent" unicode="&#x17b;" horiz-adv-x="1384" 
d="M42 0l47 223l868 919l1 19h-657l60 282h1096l-47 -223l-866 -919l-1 -19h688l-59 -282h-1130zM978 1581q-76 0 -122 47q-48 48 -48 120t48 120t122 47q76 1 123 -47t47 -120t-47 -120q-47 -47 -123 -47z" />
    <glyph glyph-name="zdotaccent" unicode="&#x17c;" horiz-adv-x="1160" 
d="M14 0l39 183l662 654l1 18h-509l54 255h924l-45 -209l-613 -628l-1 -19h493l-54 -254h-951zM809 1270q-73 0 -123 50t-50 124t50 124t123 49q73 1 123 -49t50 -124t-50 -124t-123 -50z" />
    <glyph glyph-name="Zcaron" unicode="&#x17d;" horiz-adv-x="1384" 
d="M795 1594l-188 344h272l87 -192h19l168 192h299l-334 -344h-323zM42 0l47 223l868 919l1 19h-657l60 282h1096l-47 -223l-866 -919l-1 -19h688l-59 -282h-1130z" />
    <glyph glyph-name="zcaron" unicode="&#x17e;" horiz-adv-x="1160" 
d="M14 0l39 183l662 654l1 18h-509l54 255h924l-45 -209l-613 -628l-1 -19h493l-54 -254h-951zM946 1257h-323l-197 357h272l95 -204h18l182 204h301z" />
    <glyph glyph-name="florin" unicode="&#x192;" horiz-adv-x="1415" 
d="M241 -22q-109 0 -214 35l56 260q77 -31 169 -31q174 0 239 175l82 221h-323l50 235h360l66 178q151 407 608 407q110 0 198 -27l-58 -260q-62 24 -159 24q-97 -1 -157 -45t-96 -137l-51 -140h328l-50 -235h-366l-88 -236q-81 -220 -225 -322t-369 -102z" />
    <glyph glyph-name="Ohorn" unicode="&#x1a0;" horiz-adv-x="1698" 
d="M1253 833q-1 159 -79 255t-204 97q-126 -1 -225 -77t-157 -208t-58 -290q0 -160 78 -256t205 -96q125 0 225 76t158 208t57 291zM802 -38q-282 0 -454 176t-171 464q-1 184 61 348t168 280q106 117 252 185q147 68 319 68q171 0 289 -62q50 -26 114 -70t88 -44
q100 0 123 105l36 167h255l-52 -245q-24 -110 -83 -164t-137 -54q-35 0 -67 16l-8 -14q67 -121 67 -291q0 -169 -60 -333t-166 -281t-255 -184t-319 -67z" />
    <glyph glyph-name="ohorn" unicode="&#x1a1;" horiz-adv-x="1441" 
d="M1258 642q0 -184 -80 -336t-228 -242q-146 -89 -330 -89q-232 0 -372 135t-140 356q0 138 48 262t132 214t204 141q120 52 255 52t232 -51q40 -21 96 -57t85 -36q91 0 114 107l35 167h255l-53 -253q-23 -107 -81 -159t-137 -52q-34 0 -61 17l-7 -14q33 -77 33 -162z
M455 471q-1 -109 47 -173t133 -63q111 0 193 116t82 281q0 116 -46 180t-130 64q-119 0 -199 -118t-80 -287z" />
    <glyph glyph-name="Uhorn" unicode="&#x1af;" horiz-adv-x="1812" 
d="M1656 1292q71 0 92 104l36 167h255l-48 -224q-30 -137 -111 -209t-186 -72t-143 24l47 225q24 -15 58 -15zM768 -38q-262 0 -421 132t-160 344q0 63 13 125l186 880h348l-185 -874q-33 -171 59 -251q68 -58 180 -58q114 0 191 67t104 192l195 924h348l-211 -1000
q-49 -227 -217 -354t-430 -127z" />
    <glyph glyph-name="uhorn" unicode="&#x1b0;" horiz-adv-x="1571" 
d="M1372 1066q71 0 93 104l36 167h255l-48 -224q-30 -137 -111 -209t-186 -72t-143 24l47 225q23 -15 57 -15zM436 -25q-154 0 -250 88t-96 237q0 55 15 140l141 670h335l-131 -616q-8 -42 -8 -77q0 -81 44 -123t130 -42t149 58t84 157l137 643h334l-235 -1110h-324l37 172
h-19q-52 -93 -141 -145t-202 -52z" />
    <glyph glyph-name="u01C4" unicode="&#x1c4;" horiz-adv-x="2930" 
d="M2346 1594l-188 344h272l87 -192h19l168 192h299l-334 -344h-323zM1593 0l47 223l868 919l1 19h-657l60 282h1096l-47 -223l-866 -919l-1 -19h688l-59 -282h-1130zM705 281q194 0 317 150t123 396q1 155 -81 245t-227 90h-174l-187 -881h229zM924 1443q268 0 422 -153
t155 -412t-95 -457q-96 -197 -269 -309t-392 -112h-678l306 1443h551z" />
    <glyph glyph-name="u01C5" unicode="&#x1c5;" horiz-adv-x="2706" 
d="M1561 0l39 183l662 654l1 18h-509l54 255h924l-45 -209l-613 -628l-1 -19h493l-54 -254h-951zM2493 1257h-323l-197 357h272l95 -204h18l182 204h301zM701 281q194 0 317 150t123 396q1 155 -81 245t-227 90h-174l-187 -881h229zM920 1443q268 0 422 -153t155 -412
t-95 -457q-96 -197 -269 -309t-392 -112h-678l306 1443h551z" />
    <glyph glyph-name="u01C6" unicode="&#x1c6;" horiz-adv-x="2497" 
d="M1355 0l39 183l662 654l1 18h-509l54 255h924l-45 -209l-613 -628l-1 -19h493l-54 -254h-951zM2287 1257h-323l-197 357h272l95 -204h18l182 204h301zM618 245q118 1 202 117t84 275q0 103 -53 161t-137 58q-120 0 -203 -111t-83 -277q0 -104 54 -164t136 -59zM461 -17
q-169 -1 -274 115t-105 317t74 365t202 256t266 91t219 -57t108 -146h20l128 604h335l-325 -1528h-325l33 155h-19q-124 -172 -337 -172z" />
    <glyph glyph-name="u01C7" unicode="&#x1c7;" horiz-adv-x="2447" 
d="M1078 289l-62 -289h-968l307 1443h347l-246 -1154h622zM1597 433v-12q1 -73 45 -115t120 -43q151 0 193 193l210 987h346l-219 -1032q-46 -217 -184 -333t-358 -116t-356 119q-135 119 -132 313q0 13 2 39h333z" />
    <glyph glyph-name="u01C8" unicode="&#x1c8;" horiz-adv-x="1818" 
d="M1086 289l-62 -289h-968l307 1443h347l-246 -1154h622zM1730 1247q-86 -1 -138 41t-52 110t52 112q52 45 138 45q88 1 140 -41t51 -109q0 -67 -52 -113t-139 -45zM1130 -116q110 0 134 109l237 1117h334l-245 -1151q-32 -155 -146 -241t-285 -86q-73 0 -149 14l53 244
q32 -6 67 -6z" />
    <glyph glyph-name="u01C9" unicode="&#x1c9;" horiz-adv-x="1192" 
d="M19 0l325 1528h335l-324 -1528h-336zM1109 1247q-87 -1 -139 41t-51 110q-1 68 51 112q52 45 140 45q88 1 138 -41q52 -42 52 -109t-52 -113t-139 -45zM509 -116q110 0 134 109l237 1117h334l-245 -1151q-33 -155 -147 -241t-284 -86q-73 0 -149 14l53 244q32 -6 67 -6z
" />
    <glyph glyph-name="u01CA" unicode="&#x1ca;" horiz-adv-x="2802" 
d="M384 0h-334l307 1443h251l459 -872h18l187 872h334l-307 -1443h-248l-464 864h-19zM1953 433v-12q1 -73 45 -115t120 -43q151 0 193 193l210 987h346l-219 -1032q-46 -217 -184 -333t-358 -116t-356 119q-135 119 -132 313q0 13 2 39h333z" />
    <glyph glyph-name="u01CB" unicode="&#x1cb;" horiz-adv-x="2173" 
d="M392 0h-334l307 1443h251l459 -872h18l187 872h334l-307 -1443h-248l-464 864h-19zM2086 1247q-86 -1 -138 41t-52 110t52 112q52 45 138 45q88 1 140 -41t51 -109q0 -67 -52 -113t-139 -45zM1486 -116q110 0 134 109l237 1117h334l-245 -1151q-32 -155 -146 -241
t-285 -86q-73 0 -149 14l53 244q32 -6 67 -6z" />
    <glyph glyph-name="u01CC" unicode="&#x1cc;" horiz-adv-x="1906" 
d="M922 1135q132 1 226 -89t94 -230q0 -62 -15 -133l-144 -683h-332l132 630q9 45 9 79q0 70 -48 114t-130 44t-146 -58t-85 -150l-140 -659h-334l238 1121h324l-39 -179h19q118 193 371 193zM1824 1247q-86 -1 -138 41t-52 110t52 112q52 45 138 45q88 1 140 -41t51 -109
q0 -67 -52 -113t-139 -45zM1224 -116q110 0 134 109l237 1117h334l-245 -1151q-32 -155 -146 -241t-285 -86q-73 0 -149 14l53 244q32 -6 67 -6z" />
    <glyph glyph-name="Acaron" unicode="&#x1cd;" horiz-adv-x="1501" 
d="M873 1594l-188 344h272l87 -192h19l168 192h299l-334 -344h-323zM886 1126l-284 -546h348l-45 546h-19zM989 0l-27 326h-484l-170 -326h-358l810 1443h415l173 -1443h-359z" />
    <glyph glyph-name="acaron" unicode="&#x1ce;" horiz-adv-x="1202" 
d="M925 1257h-323l-197 357h272l95 -204h18l182 204h301zM376 -17q-140 0 -234 86t-93 216q1 170 133 270t367 107l263 7l14 68q5 23 5 36q-1 52 -45 82t-120 30q-133 0 -175 -88h-308q35 154 173 246t340 92q204 0 333 -91t129 -240q0 -46 -9 -89l-152 -715h-324l29 135
h-19q-43 -70 -127 -111t-180 -41zM532 220q74 0 138 48t81 119l19 88l-206 -8q-89 -3 -140 -39t-51 -90t42 -86q43 -32 117 -32z" />
    <glyph glyph-name="Icaron" unicode="&#x1cf;" horiz-adv-x="653" 
d="M437 1594l-188 344h272l87 -192h19l168 192h299l-334 -344h-323zM400 0h-347l307 1443h347z" />
    <glyph glyph-name="icaron" unicode="&#x1d0;" horiz-adv-x="599" 
d="M37 0l236 1110h334l-236 -1110h-334zM667 1257h-323l-197 357h272l95 -204h18l182 204h301z" />
    <glyph glyph-name="Ocaron" unicode="&#x1d1;" horiz-adv-x="1617" 
d="M1236 836q0 159 -80 253t-206 94q-126 -1 -224 -77t-156 -210t-57 -292t81 -252t206 -94t224 76t155 210t57 292zM808 -38q-304 0 -476 175t-172 443q0 196 61 364t167 286t252 184t327 67t327 -81t220 -221t75 -326q0 -187 -61 -355q-60 -168 -166 -286t-252 -184
t-302 -66zM848 1593l-188 344h272l87 -192h19l168 192h299l-334 -344h-323z" />
    <glyph glyph-name="ocaron" unicode="&#x1d2;" horiz-adv-x="1289" 
d="M609 -25q-232 0 -372 135q-140 134 -140 338q-1 204 81 356t230 242q148 89 330 89q231 0 370 -135t139 -358q-1 -184 -81 -336t-226 -242t-331 -89zM444 471q0 -109 48 -173t132 -63q111 0 193 116t82 281q-1 116 -47 180t-129 64q-119 0 -199 -118t-80 -287zM956 1257
h-323l-197 357h272l95 -204h18l182 204h301z" />
    <glyph glyph-name="Ucaron" unicode="&#x1d3;" horiz-adv-x="1564" 
d="M769 -38q-262 0 -421 132t-160 344q0 63 13 125l186 880h348l-185 -874q-34 -171 58 -251q68 -58 182 -58t190 67q77 67 104 192l195 924h348l-211 -1000q-48 -227 -216 -354t-431 -127zM893 1594l-188 344h272l87 -192h19l168 192h299l-334 -344h-323z" />
    <glyph glyph-name="ucaron" unicode="&#x1d4;" horiz-adv-x="1305" 
d="M440 -25q-154 0 -250 88t-96 237q0 55 15 140l141 670h335l-131 -616q-8 -42 -8 -77q0 -81 44 -123t130 -42t149 58t84 157l137 643h334l-235 -1110h-324l37 172h-19q-52 -93 -141 -145t-202 -52zM1014 1257h-323l-197 357h272l95 -204h18l182 204h301z" />
    <glyph glyph-name="Udieresismacron" unicode="&#x1d5;" horiz-adv-x="1564" 
d="M1318 1581q-74 0 -120 44t-46 114t46 114t120 44t120 -44t47 -114q-1 -70 -47 -114t-120 -44zM826 1581q-74 0 -120 44t-46 114t46 114t120 44t120 -44t47 -114q-1 -70 -47 -114t-120 -44zM744 2012l39 178h770l-38 -178h-771zM769 -38q-262 0 -421 132t-160 344
q0 63 13 125l186 880h348l-185 -874q-34 -171 58 -251q68 -58 182 -58t190 67q77 67 104 192l195 924h348l-211 -1000q-48 -227 -216 -354t-431 -127z" />
    <glyph glyph-name="udieresismacron" unicode="&#x1d6;" horiz-adv-x="1305" 
d="M1308 1692h-757l40 192h757zM1091 1257q-69 0 -112 43t-43 109t43 109t112 43q69 1 113 -43t44 -110t-44 -108q-44 -43 -113 -43zM636 1257q-69 0 -113 43q-44 42 -44 108t44 110t113 43q69 0 112 -43t43 -109t-43 -109t-112 -43zM440 -25q-154 0 -250 88t-96 237
q0 55 15 140l141 670h335l-131 -616q-8 -42 -8 -77q0 -81 44 -123t130 -42t149 58t84 157l137 643h334l-235 -1110h-324l37 172h-19q-52 -93 -141 -145t-202 -52z" />
    <glyph glyph-name="Udieresisacute" unicode="&#x1d7;" horiz-adv-x="1564" 
d="M769 -38q-262 0 -421 132t-160 344q0 63 13 125l186 880h348l-185 -874q-34 -171 58 -251q68 -58 182 -58t190 67q77 67 104 192l195 924h348l-211 -1000q-48 -227 -216 -354t-431 -127zM1322 1581q-74 1 -120 45q-47 44 -47 114t47 115q46 45 120 45t121 -44t47 -116
q0 -70 -47 -114t-121 -45zM832 1581q-74 1 -121 45t-47 114t47 115t121 45t120 -45t47 -115q0 -70 -47 -114q-46 -44 -120 -45zM948 1954l195 247h316l-248 -247h-263z" />
    <glyph glyph-name="udieresisacute" unicode="&#x1d8;" horiz-adv-x="1305" 
d="M440 -25q-154 0 -250 88t-96 237q0 55 15 140l141 670h335l-131 -616q-8 -42 -8 -77q0 -81 44 -123t130 -42t149 58t84 157l137 643h334l-235 -1110h-324l37 172h-19q-52 -93 -141 -145t-202 -52zM1116 1265q-74 1 -121 45t-47 114t47 115t121 45t120 -44q47 -44 47 -116
q0 -70 -47 -114q-46 -44 -120 -45zM624 1265q-74 1 -120 45q-47 44 -47 114t47 115t121 45q75 0 121 -45t46 -115t-47 -114t-121 -45zM731 1678l281 303h310l-325 -303h-266z" />
    <glyph glyph-name="Udieresiscaron" unicode="&#x1d9;" horiz-adv-x="1564" 
d="M769 -38q-262 0 -421 132t-160 344q0 63 13 125l186 880h348l-185 -874q-34 -171 58 -251q68 -58 182 -58t190 67q77 67 104 192l195 924h348l-211 -1000q-48 -227 -216 -354t-431 -127zM960 1923l-207 316h280l97 -176h19l171 176h308l-345 -316h-323zM1312 1561
q-72 0 -118 43t-46 109q0 67 46 109t118 42t118 -42t45 -109q1 -66 -45 -109t-118 -43zM820 1561q-72 0 -118 43t-45 109q-1 67 45 109t118 42t118 -42t46 -109q0 -66 -46 -109t-118 -43z" />
    <glyph glyph-name="udieresiscaron" unicode="&#x1da;" horiz-adv-x="1305" 
d="M440 -25q-154 0 -250 88t-96 237q0 55 15 140l141 670h335l-131 -616q-8 -42 -8 -77q0 -81 44 -123t130 -42t149 58t84 157l137 643h334l-235 -1110h-324l37 172h-19q-52 -93 -141 -145t-202 -52zM747 1634l-193 351h272l91 -198h19l175 198h301l-342 -351h-323z
M1093 1257q-69 0 -113 43t-43 109q-1 66 43 109t113 43q69 1 113 -43t44 -110t-44 -108q-44 -43 -113 -43zM637 1257q-69 0 -113 43q-44 42 -44 108t44 110t113 43q69 0 113 -43t43 -109q1 -66 -43 -109t-113 -43z" />
    <glyph glyph-name="Udieresisgrave" unicode="&#x1db;" horiz-adv-x="1564" 
d="M769 -38q-262 0 -421 132t-160 344q0 63 13 125l186 880h348l-185 -874q-34 -171 58 -251q68 -58 182 -58t190 67q77 67 104 192l195 924h348l-211 -1000q-48 -227 -216 -354t-431 -127zM1322 1581q-74 1 -120 45q-47 44 -47 114t47 115q46 45 120 45t121 -44t47 -116
q0 -70 -47 -114t-121 -45zM832 1581q-74 1 -121 45t-47 114t47 115t121 45t120 -45t47 -115q0 -70 -47 -114q-46 -44 -120 -45zM1214 1954h-263l-143 247h316z" />
    <glyph glyph-name="udieresisgrave" unicode="&#x1dc;" horiz-adv-x="1305" 
d="M440 -25q-154 0 -250 88t-96 237q0 55 15 140l141 670h335l-131 -616q-8 -42 -8 -77q0 -81 44 -123t130 -42t149 58t84 157l137 643h334l-235 -1110h-324l37 172h-19q-52 -93 -141 -145t-202 -52zM1116 1265q-74 1 -121 45t-47 114t47 115t121 45t120 -44q47 -44 47 -116
q0 -70 -47 -114q-46 -44 -120 -45zM624 1265q-74 1 -120 45q-47 44 -47 114t47 115t121 45q75 0 121 -45t46 -115t-47 -114t-121 -45zM1024 1678h-265l-189 303h310z" />
    <glyph glyph-name="Adieresismacron" unicode="&#x1de;" horiz-adv-x="1501" 
d="M1298 1581q-74 0 -120 44t-46 114t46 114t120 44t120 -44t47 -114q-1 -70 -47 -114t-120 -44zM806 1581q-74 0 -120 44t-46 114t46 114t120 44t120 -44t47 -114q-1 -70 -47 -114t-120 -44zM724 2012l39 178h770l-38 -178h-771zM886 1126l-284 -546h348l-45 546h-19z
M989 0l-27 326h-484l-170 -326h-358l810 1443h415l173 -1443h-359z" />
    <glyph glyph-name="adieresismacron" unicode="&#x1df;" horiz-adv-x="1202" 
d="M1219 1692h-757l40 192h757zM1002 1257q-69 0 -112 43t-43 109t43 109t112 43q69 1 113 -43t44 -110t-44 -108q-44 -43 -113 -43zM547 1257q-69 0 -113 43q-44 42 -44 108t44 110t113 43q69 0 112 -43t43 -109t-43 -109t-112 -43zM376 -17q-140 0 -234 86t-93 216
q1 170 133 270t367 107l263 7l14 68q5 23 5 36q-1 52 -45 82t-120 30q-133 0 -175 -88h-308q35 154 173 246t340 92q204 0 333 -91t129 -240q0 -46 -9 -89l-152 -715h-324l29 135h-19q-43 -70 -127 -111t-180 -41zM532 220q74 0 138 48t81 119l19 88l-206 -8
q-89 -3 -140 -39t-51 -90t42 -86q43 -32 117 -32z" />
    <glyph glyph-name="Adotmacron" unicode="&#x1e0;" horiz-adv-x="1501" 
d="M1052 1575q-74 1 -122 45t-48 112t47 112t122 44t123 -44t47 -112q1 -68 -47 -112t-122 -45zM1496 2012h-771l38 178h770zM886 1126l-284 -546h348l-45 546h-19zM989 0l-27 326h-484l-170 -326h-358l810 1443h415l173 -1443h-359z" />
    <glyph glyph-name="adotmacron" unicode="&#x1e1;" horiz-adv-x="1202" 
d="M1219 1692h-757l40 192h757zM777 1257q-71 0 -117 45q-46 44 -45 112q-1 68 45 113t117 45t117 -45t45 -113q1 -68 -45 -112q-46 -45 -117 -45zM376 -17q-140 0 -234 86t-93 216q1 170 133 270t367 107l263 7l14 68q5 23 5 36q-1 52 -45 82t-120 30q-133 0 -175 -88h-308
q35 154 173 246t340 92q204 0 333 -91t129 -240q0 -46 -9 -89l-152 -715h-324l29 135h-19q-43 -70 -127 -111t-180 -41zM532 220q74 0 138 48t81 119l19 88l-206 -8q-89 -3 -140 -39t-51 -90t42 -86q43 -32 117 -32z" />
    <glyph glyph-name="AEmacron" unicode="&#x1e2;" horiz-adv-x="2059" 
d="M2089 1635h-770l40 192h771zM884 0l73 340h-442l-207 -340h-350l883 1443h1311l-60 -282h-647l-66 -308h611l-55 -260h-611l-67 -311h648l-60 -282h-961zM1136 1180h-124l-351 -586h350z" />
    <glyph glyph-name="aemacron" unicode="&#x1e3;" horiz-adv-x="1927" 
d="M1397 1323h-757l40 192h757zM538 211q74 0 139 51t82 125l18 88l-206 -8q-89 -3 -140 -39t-51 -92t42 -90t116 -35zM1565 713q1 78 -51 129t-140 51t-158 -59q-69 -59 -95 -157h441q3 9 3 36zM1304 220q150 0 197 108h316q-39 -161 -183 -257t-350 -96q-122 0 -232 54
t-156 137h-18q-58 -83 -170 -137t-266 -54q-154 1 -270 91t-116 225q0 177 130 275t371 105l262 7l14 59q5 19 5 36q0 52 -44 82t-121 30q-133 0 -175 -88h-308q36 159 170 249t329 89q114 0 203 -42t131 -111h18q141 153 360 153q131 0 237 -58t170 -166q63 -108 63 -245
q0 -80 -19 -185h-765q-1 -6 -1 -25q0 -114 60 -175t158 -61z" />
    <glyph glyph-name="Gcaron" unicode="&#x1e6;" horiz-adv-x="1567" 
d="M786 -38q-286 0 -456 168t-170 447q0 197 60 365t164 288q105 118 254 184q148 66 316 67q168 0 304 -63t224 -183t75 -262h-334q-4 93 -84 153t-199 60q-184 0 -306 -166t-121 -422q0 -157 80 -249t213 -92t225 68t114 181l4 17h-274l51 243h609l-35 -181
q-58 -303 -244 -463q-184 -160 -470 -160zM841 1595l-188 344h272l87 -192h19l168 192h299l-334 -344h-323z" />
    <glyph glyph-name="gcaron" unicode="&#x1e7;" horiz-adv-x="1327" 
d="M626 255q118 -1 200 111t82 271q0 99 -52 159t-140 60q-119 0 -199 -108t-80 -271q-1 -102 51 -162t138 -60zM516 -419q-238 0 -384 96q-144 96 -139 246h328q5 -51 61 -83t150 -31q203 0 241 174l42 193l-18 1q-107 -154 -324 -154q-167 0 -273 114q-106 113 -105 301
q0 188 73 347q74 159 200 251t258 91q132 0 220 -57q87 -57 117 -151h18l42 191h325l-246 -1152q-38 -177 -193 -277t-393 -100zM940 1258h-323l-197 357h272l95 -204h18l182 204h301z" />
    <glyph glyph-name="Kcaron" unicode="&#x1e8;" horiz-adv-x="1454" 
d="M835 1594l-188 344h272l87 -192h19l168 192h299l-334 -344h-323zM399 0h-346l307 1443h346l-132 -618h18l619 618h402l-659 -658l359 -785h-387l-261 582l-179 -175z" />
    <glyph glyph-name="kcaron" unicode="&#x1e9;" horiz-adv-x="1223" 
d="M401 1679l-188 344h272l87 -192h19l168 192h299l-334 -344h-323zM524 704l412 406h380l-515 -487l315 -623h-365l-220 442l-103 -94l-73 -348h-335l325 1528h334l-174 -824h19z" />
    <glyph glyph-name="Oogonek" unicode="&#x1ea;" horiz-adv-x="1627" 
d="M1247 838q-1 158 -81 252t-206 95t-224 -77t-155 -212t-57 -292t81 -252t207 -94t224 77t154 211t57 292zM916 -191q0 -92 132 -92q29 0 43 2l-36 -171q-49 -12 -107 -12q-124 0 -197 58t-73 155q0 58 38 114t100 89l-4 17q-16 -2 -37 -2q-267 7 -435 178t-169 431
q0 260 102 468q101 206 283 322t408 117q286 0 462 -170t175 -447q0 -499 -377 -773q-38 -28 -94 -66q-112 -76 -163 -119q-51 -44 -51 -99z" />
    <glyph glyph-name="oogonek" unicode="&#x1eb;" horiz-adv-x="1289" 
d="M460 471q0 -110 48 -173t132 -63q112 -1 194 117t81 256q0 268 -176 268q-119 0 -199 -118t-80 -287zM722 -464q-123 0 -196 58t-73 155q1 63 45 119t109 91l-3 17h-12q-217 10 -348 143t-131 335q-1 202 83 354q84 153 230 240t328 87q231 -1 370 -135t139 -344
t-92 -369t-248 -241q-232 -133 -232 -239q0 -90 132 -90q29 0 43 2l-36 -171q-49 -12 -108 -12z" />
    <glyph glyph-name="Oogonekmacron" unicode="&#x1ec;" horiz-adv-x="1627" 
d="M1388 1634h-770l40 192h771zM1238 838q0 158 -80 252t-206 95t-224 -77t-156 -212q-57 -134 -57 -292t81 -252q80 -94 206 -94t224 77t156 211q56 134 56 292zM907 -191q0 -92 132 -92q29 0 43 2l-36 -171q-49 -12 -107 -12q-124 0 -197 58t-73 155q0 58 38 114t100 89
l-4 17q-16 -2 -37 -2q-268 7 -436 178t-168 431t102 468q102 206 284 322t407 117q285 0 461 -170t176 -447q0 -499 -377 -773q-38 -28 -94 -66q-112 -76 -163 -119q-51 -44 -51 -99z" />
    <glyph glyph-name="oogonekmacron" unicode="&#x1ed;" horiz-adv-x="1289" 
d="M446 471q0 -110 48 -173t132 -63q112 -1 194 117t81 256q0 268 -176 268q-119 0 -199 -118t-80 -287zM708 -464q-123 0 -196 58t-73 155q1 63 45 119t109 91l-3 17h-12q-217 10 -348 143t-131 335q-1 202 83 354q84 153 230 240t328 87q231 -1 370 -135t139 -344
t-92 -369t-248 -241q-232 -133 -232 -239q0 -90 132 -90q29 0 43 2l-36 -171q-50 -12 -108 -12zM1172 1323h-757l40 192h757z" />
    <glyph glyph-name="u01F1" unicode="&#x1f1;" horiz-adv-x="2930" 
d="M705 281q194 0 317 150t123 396q1 155 -81 245t-227 90h-174l-187 -881h229zM924 1443q268 0 422 -153t155 -412t-95 -457q-96 -197 -269 -309t-392 -112h-678l306 1443h551zM1598 0l47 223l868 919l1 19h-657l60 282h1096l-47 -223l-866 -919l-1 -19h688l-59 -282h-1130
z" />
    <glyph glyph-name="u01F2" unicode="&#x1f2;" horiz-adv-x="2706" 
d="M701 281q194 0 317 150t123 396q1 155 -81 245t-227 90h-174l-187 -881h229zM920 1443q268 0 422 -153t155 -412t-95 -457q-96 -197 -269 -309t-392 -112h-678l306 1443h551zM1571 0l39 183l662 654l1 18h-509l54 255h924l-45 -209l-613 -628l-1 -19h493l-54 -254h-951z
" />
    <glyph glyph-name="u01F3" unicode="&#x1f3;" horiz-adv-x="2497" 
d="M618 245q118 1 202 117t84 275q0 103 -53 161t-137 58q-120 0 -203 -111t-83 -277q0 -104 54 -164t136 -59zM461 -17q-169 -1 -274 115t-105 317t74 365t202 256t266 91t219 -57t108 -146h20l128 604h335l-325 -1528h-325l33 155h-19q-124 -172 -337 -172zM1365 0l39 183
l662 654l1 18h-509l54 255h924l-45 -209l-613 -628l-1 -19h493l-54 -254h-951z" />
    <glyph glyph-name="Gacute" unicode="&#x1f4;" horiz-adv-x="1567" 
d="M786 -38q-286 0 -456 168t-170 447q0 197 60 365t164 288q105 118 254 184q148 66 316 67q168 0 304 -63t224 -183t75 -262h-334q-4 93 -84 153t-199 60q-184 0 -306 -166t-121 -422q0 -157 80 -249t213 -92t225 68t114 181l4 17h-274l51 243h609l-35 -181
q-58 -303 -244 -463q-184 -160 -470 -160zM820 1595l333 323h347l-376 -323h-304z" />
    <glyph glyph-name="gacute" unicode="&#x1f5;" horiz-adv-x="1327" 
d="M626 255q118 -1 200 111t82 271q0 99 -52 159t-140 60q-119 0 -199 -108t-80 -271q-1 -102 51 -162t138 -60zM516 -419q-238 0 -384 96q-144 96 -139 246h328q5 -51 61 -83t150 -31q203 0 241 174l42 193l-18 1q-107 -154 -324 -154q-167 0 -273 114q-106 113 -105 301
q0 188 73 347q74 159 200 251t258 91q132 0 220 -57q87 -57 117 -151h18l42 191h325l-246 -1152q-38 -177 -193 -277t-393 -100zM583 1287l322 356h343l-365 -356h-300z" />
    <glyph glyph-name="Ngrave" unicode="&#x1f8;" horiz-adv-x="1573" 
d="M407 0h-334l307 1443h251l459 -872h18l187 872h334l-307 -1443h-248l-464 864h-19zM999 1917l175 -323h-296l-219 323h340z" />
    <glyph glyph-name="ngrave" unicode="&#x1f9;" horiz-adv-x="1304" 
d="M1256 816q0 -62 -15 -133l-144 -683h-332l132 630q9 45 9 79q0 70 -48 114t-130 44t-146 -58t-85 -150l-140 -659h-334l238 1121h324l-39 -179h19q118 193 371 193q132 1 226 -89t94 -230zM891 1293h-293l-266 356h336z" />
    <glyph glyph-name="Aringacute" unicode="&#x1fa;" horiz-adv-x="1501" 
d="M1078 2225h291l-150 -194h-263zM1053 1531q-95 1 -158 61t-63 152t63 152t158 60t157 -60t63 -152q-1 -92 -63 -152t-157 -61zM1064 1801q-24 5 -44 -9q-22 -14 -26 -36q-4 -24 10 -46t36 -26t44 10t27 36t-9 44t-38 27zM886 1126l-284 -546h348l-45 546h-19zM989 0
l-27 326h-484l-170 -326h-358l810 1443h415l173 -1443h-359z" />
    <glyph glyph-name="aringacute" unicode="&#x1fb;" horiz-adv-x="1202" 
d="M738 1753l208 239h270l-251 -239h-227zM743 1447q0 -38 25 -63t63 -25q37 0 63 25t26 63q0 37 -26 63t-63 26q-38 0 -63 -26t-25 -63zM832 1219q-102 0 -170 65q-67 66 -67 164t67 163q68 65 170 65t168 -65t67 -163q-1 -98 -67 -164q-66 -65 -168 -65zM376 -17
q-140 0 -234 86t-93 216q1 170 133 270t367 107l263 7l14 68q5 23 5 36q-1 52 -45 82t-120 30q-133 0 -175 -88h-308q35 154 173 246t340 92q204 0 333 -91t129 -240q0 -46 -9 -89l-152 -715h-324l29 135h-19q-43 -70 -127 -111t-180 -41zM532 220q74 0 138 48t81 119l19 88
l-206 -8q-89 -3 -140 -39t-51 -90t42 -86q43 -32 117 -32z" />
    <glyph glyph-name="AEacute" unicode="&#x1fc;" horiz-adv-x="2059" 
d="M884 0l73 340h-442l-207 -340h-350l883 1443h1311l-60 -282h-647l-66 -308h611l-55 -260h-611l-67 -311h648l-60 -282h-961zM1136 1180h-124l-351 -586h350zM1526 1594l333 323h347l-376 -323h-304z" />
    <glyph glyph-name="aeacute" unicode="&#x1fd;" horiz-adv-x="1927" 
d="M538 211q74 0 139 51t82 125l18 88l-206 -8q-89 -3 -140 -39t-51 -92t42 -90t116 -35zM1565 713q1 78 -51 129t-140 51t-158 -59q-69 -59 -95 -157h441q3 9 3 36zM1304 220q150 0 197 108h316q-39 -161 -183 -257t-350 -96q-122 0 -232 54t-156 137h-18
q-58 -83 -170 -137t-266 -54q-154 1 -270 91t-116 225q0 177 130 275t371 105l262 7l14 59q5 19 5 36q0 52 -44 82t-121 30q-133 0 -175 -88h-308q36 159 170 249t329 89q114 0 203 -42t131 -111h18q141 153 360 153q131 0 237 -58t170 -166q63 -108 63 -245q0 -80 -19 -185
h-765q-1 -6 -1 -25q0 -114 60 -175t158 -61zM824 1286l322 356h343l-365 -356h-300z" />
    <glyph glyph-name="Oslashacute" unicode="&#x1fe;" horiz-adv-x="1592" 
d="M408 70q-255 171 -255 527q0 179 61 347t167 286t252 184t315 67q169 0 305 -64l59 95l112 -56l-65 -103q223 -171 223 -512q0 -175 -61 -343t-167 -286t-251 -184q-146 -66 -305 -66t-283 51l-55 -87l-102 64zM918 1183q-100 -1 -198 -77t-156 -210t-58 -291
q0 -158 80 -252l496 792q-64 38 -164 38zM801 258q117 0 215 76t156 210q57 134 57 278q0 146 -57 234l-488 -775q54 -23 117 -23zM1374 1916l-376 -323h-304l333 323h347z" />
    <glyph glyph-name="oslashacute" unicode="&#x1ff;" horiz-adv-x="1270" 
d="M1235 660q-1 -202 -81 -354t-226 -242t-318 -89q-172 0 -294 67l-102 -124l-89 62l104 126q-144 135 -144 360q-1 186 81 338t230 242q148 89 320 89q174 0 298 -72l101 123l96 -57l-110 -134q134 -133 134 -335zM711 876q-119 0 -199 -118t-80 -287q0 -58 13 -101
l379 461q-45 45 -113 45zM612 235q111 0 193 116t82 281q0 52 -9 92l-373 -452q43 -37 107 -37zM1134 1642l-365 -356h-300l322 356h343z" />
    <glyph glyph-name="Adblgrave" unicode="&#x200;" horiz-adv-x="1501" 
d="M1452 1594h-259l-169 323h286zM1006 1594h-258l-169 323h285zM886 1126l-284 -546h348l-45 546h-19zM989 0l-27 326h-484l-170 -326h-358l810 1443h415l173 -1443h-359z" />
    <glyph glyph-name="adblgrave" unicode="&#x201;" horiz-adv-x="1202" 
d="M1093 1286h-242l-152 356h272zM644 1286h-242l-151 356h271zM376 -17q-140 0 -234 86t-93 216q1 170 133 270t367 107l263 7l14 68q5 23 5 36q-1 52 -45 82t-120 30q-133 0 -175 -88h-308q35 154 173 246t340 92q204 0 333 -91t129 -240q0 -46 -9 -89l-152 -715h-324
l29 135h-19q-43 -70 -127 -111t-180 -41zM532 220q74 0 138 48t81 119l19 88l-206 -8q-89 -3 -140 -39t-51 -90t42 -86q43 -32 117 -32z" />
    <glyph glyph-name="Ainvertedbreve" unicode="&#x202;" horiz-adv-x="1501" 
d="M1453 1617q0 -25 -2 -36h-224v23q1 62 -49 102t-127 39q-77 0 -130 -43t-69 -121h-223q21 153 136 249t291 96t286 -88q111 -88 111 -221zM886 1126l-284 -546h348l-45 546h-19zM989 0l-27 326h-484l-170 -326h-358l810 1443h415l173 -1443h-359z" />
    <glyph glyph-name="ainvertedbreve" unicode="&#x203;" horiz-adv-x="1202" 
d="M974 1286q0 65 -48 106t-128 41q-174 0 -205 -176h-224q17 165 133 261t296 96q181 0 292 -88t111 -222q0 -27 -4 -47h-225q2 14 2 29zM376 -17q-140 0 -234 86t-93 216q1 170 133 270t367 107l263 7l14 68q5 23 5 36q-1 52 -45 82t-120 30q-133 0 -175 -88h-308
q35 154 173 246t340 92q204 0 333 -91t129 -240q0 -46 -9 -89l-152 -715h-324l29 135h-19q-43 -70 -127 -111t-180 -41zM532 220q74 0 138 48t81 119l19 88l-206 -8q-89 -3 -140 -39t-51 -90t42 -86q43 -32 117 -32z" />
    <glyph glyph-name="Edblgrave" unicode="&#x204;" horiz-adv-x="1274" 
d="M1109 282l-59 -282h-979l307 1443h978l-60 -282h-631l-65 -305h594l-55 -259h-594l-68 -315h632zM1341 1594h-259l-169 323h286zM895 1594h-258l-169 323h285z" />
    <glyph glyph-name="edblgrave" unicode="&#x205;" horiz-adv-x="1248" 
d="M1100 1286h-242l-152 356h272zM651 1286h-242l-151 356h271zM889 713q1 78 -51 129t-140 51t-158 -59q-69 -59 -95 -157h441q3 18 3 36zM596 -25q-218 1 -356 129t-139 350q-1 304 169 492t441 189q211 1 348 -129t137 -340q0 -80 -19 -185h-767v-24q0 -113 61 -175
t146 -62q164 0 209 108h316q-40 -161 -184 -257t-362 -96z" />
    <glyph glyph-name="Einvertedbreve" unicode="&#x206;" horiz-adv-x="1274" 
d="M1342 1617q0 -25 -2 -36h-224v23q0 62 -50 102t-126 39q-77 0 -130 -43t-69 -121h-223q22 153 136 249t290 96t287 -88t111 -221zM1109 282l-59 -282h-979l307 1443h978l-60 -282h-631l-65 -305h594l-55 -259h-594l-68 -315h632z" />
    <glyph glyph-name="einvertedbreve" unicode="&#x207;" horiz-adv-x="1248" 
d="M981 1286q-1 65 -49 106t-127 41q-174 0 -205 -176h-224q16 165 132 261t297 96t292 -88t111 -222q0 -27 -4 -47h-225q2 14 2 29zM889 713q1 78 -51 129t-140 51t-158 -59q-69 -59 -95 -157h441q3 18 3 36zM596 -25q-218 1 -356 129t-139 350q-1 304 169 492t441 189
q211 1 348 -129t137 -340q0 -80 -19 -185h-767v-24q0 -113 61 -175t146 -62q164 0 209 108h316q-40 -161 -184 -257t-362 -96z" />
    <glyph glyph-name="Idblgrave" unicode="&#x208;" horiz-adv-x="653" 
d="M1016 1594h-259l-169 323h286zM570 1594h-258l-169 323h285zM400 0h-347l307 1443h347z" />
    <glyph glyph-name="idblgrave" unicode="&#x209;" horiz-adv-x="599" 
d="M835 1286h-242l-152 356h272zM386 1286h-242l-151 356h271zM37 0l236 1110h334l-236 -1110h-334z" />
    <glyph glyph-name="Iinvertedbreve" unicode="&#x20a;" horiz-adv-x="653" 
d="M1017 1617q0 -25 -2 -36h-224v23q1 62 -49 102t-127 39q-77 0 -130 -43t-69 -121h-223q21 153 136 249t291 96t286 -88q111 -88 111 -221zM400 0h-347l307 1443h347z" />
    <glyph glyph-name="iinvertedbreve" unicode="&#x20b;" horiz-adv-x="599" 
d="M716 1286q0 65 -48 106t-128 41q-174 0 -205 -176h-224q17 165 133 261t296 96q181 0 292 -88t111 -222q0 -27 -4 -47h-225q2 14 2 29zM37 0l236 1110h334l-236 -1110h-334z" />
    <glyph glyph-name="Odblgrave" unicode="&#x20c;" horiz-adv-x="1617" 
d="M1236 836q0 159 -80 253t-206 94q-126 -1 -224 -77t-156 -210t-57 -292t81 -252t206 -94t224 76t155 210t57 292zM808 -38q-304 0 -476 175t-172 443q0 196 61 364t167 286t252 184t327 67t327 -81t220 -221t75 -326q0 -187 -61 -355q-60 -168 -166 -286t-252 -184
t-302 -66zM1427 1593h-259l-169 323h286zM981 1593h-258l-169 323h285z" />
    <glyph glyph-name="odblgrave" unicode="&#x20d;" horiz-adv-x="1289" 
d="M1124 1286h-242l-152 356h272zM675 1286h-242l-151 356h271zM609 -25q-232 0 -372 135q-140 134 -140 338q-1 204 81 356t230 242q148 89 330 89q231 0 370 -135t139 -358q-1 -184 -81 -336t-226 -242t-331 -89zM444 471q0 -109 48 -173t132 -63q111 0 193 116t82 281
q-1 116 -47 180t-129 64q-119 0 -199 -118t-80 -287z" />
    <glyph glyph-name="Oinvertedbreve" unicode="&#x20e;" horiz-adv-x="1617" 
d="M1236 836q0 159 -80 253t-206 94q-126 -1 -224 -77t-156 -210t-57 -292t81 -252t206 -94t224 76t155 210t57 292zM808 -38q-304 0 -476 175t-172 443q0 196 61 364t167 286t252 184t327 67t327 -81t220 -221t75 -326q0 -187 -61 -355q-60 -168 -166 -286t-252 -184
t-302 -66zM1428 1616q0 -25 -2 -36h-224v23q0 61 -50 101t-126 40q-77 0 -130 -43t-69 -121h-223q22 154 136 250t290 95q176 0 287 -88t111 -221z" />
    <glyph glyph-name="oinvertedbreve" unicode="&#x20f;" horiz-adv-x="1289" 
d="M1005 1286q-1 65 -49 106t-127 41q-174 0 -205 -176h-224q16 165 132 261t297 96t292 -88t111 -222q0 -27 -4 -47h-225q2 14 2 29zM609 -25q-232 0 -372 135q-140 134 -140 338q-1 204 81 356t230 242q148 89 330 89q231 0 370 -135t139 -358q-1 -184 -81 -336t-226 -242
t-331 -89zM444 471q0 -109 48 -173t132 -63q111 0 193 116t82 281q-1 116 -47 180t-129 64q-119 0 -199 -118t-80 -287z" />
    <glyph glyph-name="Rdblgrave" unicode="&#x210;" horiz-adv-x="1418" 
d="M804 761q123 0 198 66q75 65 75 161q0 188 -202 189h-214l-90 -416h233zM967 1443q202 0 331 -117q129 -118 129 -288t-94 -302t-253 -189l196 -547h-372l-167 511h-218l-109 -511h-347l307 1443h597zM1280 1594h-259l-169 323h286zM834 1594h-258l-169 323h285z" />
    <glyph glyph-name="rdblgrave" unicode="&#x211;" horiz-adv-x="875" 
d="M976 1286h-242l-152 356h272zM527 1286h-242l-151 356h271zM831 1127q87 0 145 -26l-64 -294q-81 33 -179 33q-206 0 -257 -239l-129 -601h-335l237 1110h326l-32 -156h18q43 82 113 128t157 45z" />
    <glyph glyph-name="Rinvertedbreve" unicode="&#x212;" horiz-adv-x="1418" 
d="M1281 1617q0 -25 -2 -36h-224v23q1 62 -49 102t-127 39q-77 0 -130 -43t-69 -121h-223q21 153 136 249t291 96t286 -88q111 -88 111 -221zM804 761q123 0 198 66q75 65 75 161q0 188 -202 189h-214l-90 -416h233zM967 1443q202 0 331 -117q129 -118 129 -288t-94 -302
t-253 -189l196 -547h-372l-167 511h-218l-109 -511h-347l307 1443h597z" />
    <glyph glyph-name="rinvertedbreve" unicode="&#x213;" horiz-adv-x="875" 
d="M857 1286q-1 65 -49 106t-127 41q-174 0 -205 -176h-224q16 165 132 261t297 96t292 -88t111 -222q0 -27 -4 -47h-225q2 14 2 29zM831 1127q87 0 145 -26l-64 -294q-81 33 -179 33q-206 0 -257 -239l-129 -601h-335l237 1110h326l-32 -156h18q43 82 113 128t157 45z" />
    <glyph glyph-name="Udblgrave" unicode="&#x214;" horiz-adv-x="1564" 
d="M769 -38q-262 0 -421 132t-160 344q0 63 13 125l186 880h348l-185 -874q-34 -171 58 -251q68 -58 182 -58t190 67q77 67 104 192l195 924h348l-211 -1000q-48 -227 -216 -354t-431 -127zM1472 1594h-259l-169 323h286zM1026 1594h-258l-169 323h285z" />
    <glyph glyph-name="udblgrave" unicode="&#x215;" horiz-adv-x="1305" 
d="M1182 1286h-242l-152 356h272zM733 1286h-242l-151 356h271zM440 -25q-154 0 -250 88t-96 237q0 55 15 140l141 670h335l-131 -616q-8 -42 -8 -77q0 -81 44 -123t130 -42t149 58t84 157l137 643h334l-235 -1110h-324l37 172h-19q-52 -93 -141 -145t-202 -52z" />
    <glyph glyph-name="Uinvertedbreve" unicode="&#x216;" horiz-adv-x="1564" 
d="M1473 1617q0 -25 -2 -36h-224v23q1 62 -49 102t-127 39q-77 0 -130 -43t-69 -121h-223q21 153 136 249t291 96t286 -88q111 -88 111 -221zM769 -38q-262 0 -421 132t-160 344q0 63 13 125l186 880h348l-185 -874q-34 -171 58 -251q68 -58 182 -58t190 67q77 67 104 192
l195 924h348l-211 -1000q-48 -227 -216 -354t-431 -127z" />
    <glyph glyph-name="uinvertedbreve" unicode="&#x217;" horiz-adv-x="1305" 
d="M1063 1286q-1 65 -49 106t-127 41q-174 0 -205 -176h-224q16 165 132 261t297 96t292 -88t111 -222q0 -27 -4 -47h-225q2 14 2 29zM440 -25q-154 0 -250 88t-96 237q0 55 15 140l141 670h335l-131 -616q-8 -42 -8 -77q0 -81 44 -123t130 -42t149 58t84 157l137 643h334
l-235 -1110h-324l37 172h-19q-52 -93 -141 -145t-202 -52z" />
    <glyph glyph-name="Scommaaccent" unicode="&#x218;" horiz-adv-x="1362" 
d="M633 -507h-291l169 352h331zM680 228q110 0 180 48t70 114t-45 104t-154 72l-155 46q-164 50 -254 154t-89 247q-1 202 167 335t420 133t407 -126q156 -126 159 -328h-322q-10 83 -80 135t-170 53q-100 0 -166 -46t-66 -109t43 -104t137 -70l155 -47q186 -55 272 -149
t86 -243q0 -219 -171 -352t-451 -133q-169 0 -298 54t-203 156t-79 242h331q12 -82 89 -134t187 -52z" />
    <glyph glyph-name="scommaaccent" unicode="&#x219;" horiz-adv-x="1150" 
d="M502 -507h-291l169 352h331zM548 205q76 0 121 28q45 27 45 67t-24 62t-81 43l-175 61q-263 92 -263 303q0 165 131 265t343 101q213 -1 341 -93t136 -244h-303q-8 48 -55 77q-46 29 -116 29t-114 -28t-44 -68q0 -38 26 -62t86 -44l191 -67q135 -47 195 -115t60 -174
q0 -167 -138 -269t-361 -102q-223 1 -363 97t-144 253h318q9 -53 61 -87q51 -34 127 -33z" />
    <glyph glyph-name="Tcommaaccent" unicode="&#x21a;" horiz-adv-x="1352" 
d="M759 0h-348l247 1161h-421l60 282h1189l-60 -282h-421zM542 -507h-291l169 352h331z" />
    <glyph glyph-name="tcommaaccent" unicode="&#x21b;" horiz-adv-x="846" 
d="M562 -15q-394 0 -394 239q0 44 11 97l109 513h-173l54 251h172l57 268h334l-57 -268h230l-54 -251h-228l-97 -455q-7 -33 -7 -55q1 -49 39 -71t92 -22t73 3l-52 -242q-49 -7 -109 -7zM429 -507h-291l169 352h331z" />
    <glyph glyph-name="Hcaron" unicode="&#x21e;" horiz-adv-x="1606" 
d="M914 1594l-188 344h272l87 -192h19l168 192h299l-334 -344h-323zM1353 0h-348l126 589h-598l-126 -589h-346l307 1443h347l-122 -572h598l122 572h347z" />
    <glyph glyph-name="hcaron" unicode="&#x21f;" horiz-adv-x="1321" 
d="M419 1669l-188 344h272l87 -192h19l168 192h299l-334 -344h-323zM930 1131q155 0 249 -89t94 -226q0 -62 -15 -133l-143 -683h-333l133 630q9 49 9 79q0 72 -50 115t-134 43q-82 0 -148 -58t-86 -150l-140 -659h-334l324 1518h333l-124 -576h19q119 189 346 189z" />
    <glyph glyph-name="Adotaccent" unicode="&#x226;" horiz-adv-x="1501" 
d="M1056 1581q-76 0 -122 47q-48 48 -48 120t48 120t122 47q76 1 123 -47t47 -120t-47 -120q-47 -47 -123 -47zM886 1126l-284 -546h348l-45 546h-19zM989 0l-27 326h-484l-170 -326h-358l810 1443h415l173 -1443h-359z" />
    <glyph glyph-name="adotaccent" unicode="&#x227;" horiz-adv-x="1202" 
d="M788 1270q-74 0 -124 50t-49 124q-1 74 49 124t124 49q74 1 124 -49t49 -124q1 -74 -49 -124t-124 -50zM376 -17q-140 0 -234 86t-93 216q1 170 133 270t367 107l263 7l14 68q5 23 5 36q-1 52 -45 82t-120 30q-133 0 -175 -88h-308q35 154 173 246t340 92q204 0 333 -91
t129 -240q0 -46 -9 -89l-152 -715h-324l29 135h-19q-43 -70 -127 -111t-180 -41zM532 220q74 0 138 48t81 119l19 88l-206 -8q-89 -3 -140 -39t-51 -90t42 -86q43 -32 117 -32z" />
    <glyph glyph-name="Ecedilla" unicode="&#x228;" horiz-adv-x="1273" 
d="M769 -280q0 -100 -73 -158t-190 -58t-195 35l30 139q65 -26 146 -26t81 54q0 59 -110 59h-57l18 123l73 112h-421l307 1443h978l-60 -282h-631l-65 -305h594l-55 -259h-594l-68 -315h632l-59 -282h-358l-74 -114q151 -29 151 -166z" />
    <glyph glyph-name="ecedilla" unicode="&#x229;" horiz-adv-x="1248" 
d="M410 481v-24q0 -113 61 -175t146 -62q164 0 209 108h316q-35 -138 -147 -230t-278 -115l-63 -97q151 -29 151 -166q0 -100 -73 -158t-190 -58t-195 35l30 139q65 -26 146 -26t81 54q0 59 -110 59h-57l18 123l61 93q-191 25 -303 149t-112 324q-1 304 169 492t441 189
q211 1 348 -129t137 -340q0 -80 -19 -185h-767zM889 713q1 78 -51 129t-140 51t-158 -59q-69 -59 -95 -157h441q3 18 3 36z" />
    <glyph glyph-name="Odieresismacron" unicode="&#x22a;" horiz-adv-x="1617" 
d="M1274 1580q-74 0 -120 44t-47 114q1 70 47 114t120 44t120 -44t46 -114t-46 -114t-120 -44zM782 1580q-74 0 -120 44t-47 114q1 70 47 114t120 44t120 -44t46 -114t-46 -114t-120 -44zM699 2011l39 178h770l-38 -178h-771zM1236 836q0 159 -80 253t-206 94
q-126 -1 -224 -77t-156 -210t-57 -292t81 -252t206 -94t224 76t155 210t57 292zM808 -38q-304 0 -476 175t-172 443q0 196 61 364t167 286t252 184t327 67t327 -81t220 -221t75 -326q0 -187 -61 -355q-60 -168 -166 -286t-252 -184t-302 -66z" />
    <glyph glyph-name="odieresismacron" unicode="&#x22b;" horiz-adv-x="1289" 
d="M609 -25q-232 0 -372 135q-140 134 -140 338q-1 204 81 356t230 242q148 89 330 89q231 0 370 -135t139 -358q-1 -184 -81 -336t-226 -242t-331 -89zM444 471q0 -109 48 -173t132 -63q111 0 193 116t82 281q-1 116 -47 180t-129 64q-119 0 -199 -118t-80 -287zM1250 1692
h-757l40 192h757zM1033 1257q-69 0 -112 43t-43 109t43 109t112 43q69 1 113 -43t44 -110t-44 -108q-44 -43 -113 -43zM578 1257q-69 0 -113 43q-44 42 -44 108t44 110t113 43q69 0 112 -43t43 -109t-43 -109t-112 -43z" />
    <glyph glyph-name="Otildemacron" unicode="&#x22c;" horiz-adv-x="1617" 
d="M1236 836q0 159 -80 253t-206 94q-126 -1 -224 -77t-156 -210t-57 -292t81 -252t206 -94t224 76t155 210t57 292zM808 -38q-304 0 -476 175t-172 443q0 196 61 364t167 286t252 184t327 67t327 -81t220 -221t75 -326q0 -187 -61 -355q-60 -168 -166 -286t-252 -184
t-302 -66zM889 1704q-77 0 -92 -94h-194q17 129 91 203t174 74q100 1 176 -63t120 -64q77 0 92 94h194q-16 -129 -90 -203t-175 -74q-100 -1 -176 63t-120 64zM1467 1999h-770l40 190h770z" />
    <glyph glyph-name="otildemacron" unicode="&#x22d;" horiz-adv-x="1289" 
d="M609 -25q-232 0 -372 135q-140 134 -140 338q-1 204 81 356t230 242q148 89 330 89q231 0 370 -135t139 -358q-1 -184 -81 -336t-226 -242t-331 -89zM444 471q0 -109 48 -173t132 -63q111 0 193 116t82 281q-1 116 -47 180t-129 64q-119 0 -199 -118t-80 -287zM1247 1693
h-757l40 192h757zM660 1596q56 0 104 -25t76 -55q77 -80 124 -79q72 0 88 120h198q-15 -137 -90 -221t-172 -83t-164 57q-28 24 -52 46q-59 56 -99 57q-72 0 -88 -121h-198q15 136 90 220t183 84z" />
    <glyph glyph-name="Odotaccent" unicode="&#x22e;" horiz-adv-x="1617" 
d="M1236 836q0 159 -80 253t-206 94q-126 -1 -224 -77t-156 -210t-57 -292t81 -252t206 -94t224 76t155 210t57 292zM808 -38q-304 0 -476 175t-172 443q0 196 61 364t167 286t252 184t327 67t327 -81t220 -221t75 -326q0 -187 -61 -355q-60 -168 -166 -286t-252 -184
t-302 -66zM1032 1580q-76 0 -124 47t-47 119q-1 72 47 120t124 48t122 -48q47 -48 47 -120t-47 -119q-46 -47 -122 -47z" />
    <glyph glyph-name="odotaccent" unicode="&#x22f;" horiz-adv-x="1289" 
d="M609 -25q-232 0 -372 135q-140 134 -140 338q-1 204 81 356t230 242q148 89 330 89q231 0 370 -135t139 -358q-1 -184 -81 -336t-226 -242t-331 -89zM444 471q0 -109 48 -173t132 -63q111 0 193 116t82 281q-1 116 -47 180t-129 64q-119 0 -199 -118t-80 -287zM819 1270
q-73 0 -123 50t-50 124t50 124t123 49q73 1 123 -49t50 -124t-50 -124t-123 -50z" />
    <glyph glyph-name="Odotaccentmacron" unicode="&#x230;" horiz-adv-x="1617" 
d="M1236 836q0 159 -80 253t-206 94q-126 -1 -224 -77t-156 -210t-57 -292t81 -252t206 -94t224 76t155 210t57 292zM808 -38q-304 0 -476 175t-172 443q0 196 61 364t167 286t252 184t327 67t327 -81t220 -221t75 -326q0 -187 -61 -355q-60 -168 -166 -286t-252 -184
t-302 -66zM1026 1574q-74 0 -122 44t-47 113q0 68 47 112t122 44q74 0 122 -44t48 -112q0 -69 -48 -113t-122 -44zM1471 2011h-771l38 178h770z" />
    <glyph glyph-name="odotaccentmacron" unicode="&#x231;" horiz-adv-x="1289" 
d="M1250 1692h-757l40 192h757zM808 1257q-70 0 -116 45q-46 44 -46 112t46 113t116 45t116 -45t46 -113t-46 -112q-46 -45 -116 -45zM609 -25q-232 0 -372 135q-140 134 -140 338q-1 204 81 356t230 242q148 89 330 89q231 0 370 -135t139 -358q-1 -184 -81 -336t-226 -242
t-331 -89zM444 471q0 -109 48 -173t132 -63q111 0 193 116t82 281q-1 116 -47 180t-129 64q-119 0 -199 -118t-80 -287z" />
    <glyph glyph-name="Ymacron" unicode="&#x232;" horiz-adv-x="1451" 
d="M1375 1635h-770l40 192h771zM801 0h-347l108 508l-301 935h362l171 -597h19l417 597h375l-698 -943z" />
    <glyph glyph-name="ymacron" unicode="&#x233;" horiz-adv-x="1208" 
d="M1184 1323h-757l40 192h757zM87 -406q-101 0 -137 4l53 257q8 -4 73 -4q168 0 214 107l15 36l-132 1116h342l41 -814h18l381 814h357l-610 -1131q-110 -209 -252 -297t-363 -88z" />
    <glyph glyph-name="dotlessj" unicode="&#x237;" horiz-adv-x="599" 
d="M-83 -116q110 0 134 109l237 1117h334l-245 -1151q-33 -155 -147 -241t-284 -86q-73 0 -149 14l53 244q32 -6 67 -6z" />
    <glyph glyph-name="circumflex" unicode="&#x2c6;" horiz-adv-x="1071" 
d="M960 1614l196 -357h-273l-95 204h-18l-182 -204h-300l349 357h323z" />
    <glyph glyph-name="caron" unicode="&#x2c7;" horiz-adv-x="1071" 
d="M884 1257h-323l-197 357h272l95 -204h18l182 204h301z" />
    <glyph glyph-name="breve" unicode="&#x2d8;" horiz-adv-x="1072" 
d="M617 1585q0 -65 49 -106t127 -41q176 0 205 176h224q-16 -164 -132 -260t-298 -97q-182 0 -292 88t-110 222q0 27 4 47h224q-1 -9 -1 -29z" />
    <glyph glyph-name="dotaccent" unicode="&#x2d9;" horiz-adv-x="1071" 
d="M762 1270q-74 0 -124 50t-49 124q-1 74 49 124t124 49q74 1 124 -49t49 -124q1 -74 -49 -124t-124 -50z" />
    <glyph glyph-name="ring" unicode="&#x2da;" horiz-adv-x="1071" 
d="M774 1400q43 0 71 28t28 71t-28 71t-71 28q-44 0 -72 -29t-28 -71t28 -70t72 -28zM774 1257q-108 0 -180 69t-71 174q0 105 71 173t180 68q110 1 180 -67t70 -174t-71 -174t-179 -69z" />
    <glyph glyph-name="ogonek" unicode="&#x2db;" horiz-adv-x="1071" 
d="M443 -188q0 -92 132 -92q29 0 43 2l-36 -171q-40 -12 -107 -12q-122 1 -196 57t-74 146q-1 90 67 176t186 134l181 -23q-196 -100 -196 -217z" />
    <glyph glyph-name="tilde" unicode="&#x2dc;" horiz-adv-x="1071" 
d="M607 1606q55 0 103 -25t78 -55q77 -79 123 -79q72 0 88 120h198q-15 -137 -90 -221t-172 -83t-164 57q-29 24 -53 46q-59 56 -98 57q-72 0 -88 -121h-198q15 136 90 220t183 84z" />
    <glyph glyph-name="hungarumlaut" unicode="&#x2dd;" horiz-adv-x="1071" 
d="M265 1286l274 356h279l-304 -356h-249zM714 1286l274 356h279l-304 -356h-249z" />
    <glyph glyph-name="gravecmb" unicode="&#x300;" 
d="M330 1286h-293l-266 356h336z" />
    <glyph glyph-name="acutecmb" unicode="&#x301;" 
d="M11 1286l322 356h343l-365 -356h-300z" />
    <glyph glyph-name="circumflexcmb" unicode="&#x302;" 
d="M414 1614l196 -357h-273l-95 204h-18l-182 -204h-300l349 357h323z" />
    <glyph glyph-name="tildecmb" unicode="&#x303;" 
d="M88 1413q-72 0 -88 -121h-198q15 136 90 220t183 84q55 0 103 -25t78 -55q77 -80 123 -79q72 0 88 120h198q-15 -137 -90 -221t-172 -83t-164 57q-29 24 -53 46q-58 56 -98 57z" />
    <glyph glyph-name="macroncmb" unicode="&#x304;" 
d="M584 1323h-757l40 192h757z" />
    <glyph glyph-name="brevecmb" unicode="&#x306;" 
d="M59 1585q0 -65 49 -106t127 -41q176 0 205 176h224q-16 -164 -132 -260t-298 -97q-182 0 -292 88t-110 222q0 27 4 47h224q-1 -9 -1 -29z" />
    <glyph glyph-name="dotaccentcmb" unicode="&#x307;" 
d="M231 1270q-73 0 -123 50t-50 124t50 124t123 49q73 1 123 -49t50 -124t-50 -124t-123 -50z" />
    <glyph glyph-name="dieresiscmb" unicode="&#x308;" 
d="M470 1257q-74 1 -121 45t-47 114t47 115t121 45t120 -44q47 -44 47 -116q0 -70 -47 -114q-46 -44 -120 -45zM-22 1257q-74 1 -120 45q-47 44 -47 114t47 115t121 45q75 0 121 -45t46 -115t-47 -114t-121 -45z" />
    <glyph glyph-name="hookabovecmb" unicode="&#x309;" 
d="M226 1698q100 0 172 -60q73 -60 73 -156q0 -181 -221 -263l-93 123q113 38 113 107q0 35 -30 57t-86 22t-103 -15l8 162q67 23 167 23z" />
    <glyph glyph-name="ringcmb" unicode="&#x30a;" 
d="M242 1400q43 0 71 28t28 71t-28 71t-71 28q-44 0 -72 -29t-28 -71t28 -70t72 -28zM242 1257q-108 0 -180 69t-71 174q0 105 71 173t180 68q110 1 180 -67t70 -174t-71 -174t-179 -69z" />
    <glyph glyph-name="hungarumlautcmb" unicode="&#x30b;" 
d="M-158 1286l274 356h279l-304 -356h-249zM291 1286l274 356h279l-304 -356h-249z" />
    <glyph glyph-name="caroncmb" unicode="&#x30c;" 
d="M368 1257h-323l-197 357h272l95 -204h18l182 204h301z" />
    <glyph glyph-name="dblgravecmb" unicode="&#x30f;" 
d="M536 1286h-242l-152 356h272zM87 1286h-242l-151 356h271z" />
    <glyph glyph-name="invertedbrevecmb" unicode="&#x311;" 
d="M417 1286q-1 65 -49 106t-127 41q-174 0 -205 -176h-224q16 165 132 261t297 96t292 -88t111 -222q0 -27 -4 -47h-225q2 14 2 29z" />
    <glyph glyph-name="horncmb" unicode="&#x31b;" 
d="M30 1105q71 0 92 104l36 167h255l-48 -224q-30 -138 -111 -210t-186 -71q-105 0 -143 24l47 225q24 -15 58 -15z" />
    <glyph glyph-name="dotbelowcmb" unicode="&#x323;" 
d="M-140 -423q-78 0 -124 40t-46 104t46 104t124 40t123 -40q46 -40 46 -104t-46 -104q-45 -40 -123 -40z" />
    <glyph glyph-name="dieresisbelowcmb" unicode="&#x324;" 
d="M104 -432q-78 0 -124 40t-46 104t46 104t124 40t122 -40q46 -40 46 -104t-46 -104q-44 -40 -122 -40zM-386 -432q-78 0 -124 40t-46 104t46 104t124 40t123 -40q46 -40 46 -104t-46 -104q-45 -40 -123 -40z" />
    <glyph glyph-name="ringbelowcmb" unicode="&#x325;" 
d="M-144 -426q43 0 71 28t28 71t-28 71t-71 28q-44 0 -72 -29t-28 -71t28 -70t72 -28zM-144 -569q-108 0 -180 69t-71 174q0 105 71 173t180 68q110 1 180 -67t70 -174t-71 -174t-179 -69z" />
    <glyph glyph-name="commabelowcmb" unicode="&#x326;" 
d="M-134 -507h-291l169 352h331z" />
    <glyph glyph-name="cedillacmb" unicode="&#x327;" 
d="M104 -280q0 -100 -73 -158t-190 -58t-195 35l30 139q65 -26 146 -26t81 54q0 59 -110 59h-57l18 123l89 136h200l-90 -138q151 -29 151 -166z" />
    <glyph glyph-name="ogonekcmb" unicode="&#x328;" 
d="M-141 -191q0 -92 132 -92q29 0 43 2l-36 -171q-41 -12 -107 -12q-122 0 -196 56t-74 148q-1 90 67 176t186 133l181 -23q-196 -100 -196 -217z" />
    <glyph glyph-name="circumflexbelowcmb" unicode="&#x32d;" 
d="M65 -154l183 -278h-285l-92 155h-18l-165 -155h-310l317 278h370z" />
    <glyph glyph-name="brevebelowcmb" unicode="&#x32e;" 
d="M-122 -432q-174 0 -285 88t-111 221v16h227q3 -64 51 -104t124 -40q76 -1 126 37q52 38 68 107h226q-20 -149 -136 -237t-290 -88z" />
    <glyph glyph-name="tildebelowcmb" unicode="&#x330;" 
d="M-284 -306q-79 0 -91 -94h-195q17 130 91 202t176 72q103 0 183 -64q80 -63 127 -63q80 0 92 102h195q-16 -133 -90 -207t-179 -74t-181 63t-128 63z" />
    <glyph glyph-name="macronbelowcmb" unicode="&#x331;" 
d="M217 -415h-770l40 192h771z" />
    <glyph glyph-name="greekquestionmark" unicode="&#x37e;" horiz-adv-x="712" 
d="M436 699q-88 0 -140 52q-54 53 -54 131t53 132t141 54t140 -52q54 -52 54 -130t-53 -133q-53 -54 -141 -54zM215 -394h-263l211 653h319z" />
    <glyph glyph-name="tonosgreek" unicode="&#x384;" horiz-adv-x="939" 
d="M728 1268h-279l166 388h333z" />
    <glyph glyph-name="dieresistonosgreek" unicode="&#x385;" horiz-adv-x="1448" 
d="M1320 1268q-68 0 -110 40t-42 103q0 64 44 107t114 43q68 1 110 -39t41 -104t-45 -107t-112 -43zM548 1268q-68 0 -110 40t-41 103q1 64 45 107t112 43q68 1 110 -39t42 -104t-44 -107q-46 -43 -114 -43zM1011 1268h-245l90 388h303z" />
    <glyph glyph-name="Alphatonosgreek" unicode="&#x386;" horiz-adv-x="1586" 
d="M458 1055h-278l166 388h333zM965 1126l-284 -546h348l-45 546h-19zM1068 0l-27 326h-484l-170 -326h-358l810 1443h415l173 -1443h-359z" />
    <glyph glyph-name="anoteleia" unicode="&#x387;" horiz-adv-x="723" 
d="M480 744q-90 0 -144 52t-54 134q0 81 54 136t143 55q90 0 144 -53t54 -134q1 -82 -53 -136t-144 -54z" />
    <glyph glyph-name="Epsilontonosgreek" unicode="&#x388;" horiz-adv-x="1749" 
d="M1594 282l-59 -282h-979l307 1443h978l-60 -282h-631l-65 -305h594l-55 -259h-594l-68 -315h632zM487 1055h-278l166 388h333z" />
    <glyph glyph-name="Etatonosgreek" unicode="&#x389;" horiz-adv-x="2080" 
d="M1833 0h-348l126 589h-598l-126 -589h-346l307 1443h347l-122 -572h598l122 572h347zM482 1055h-278l166 388h333z" />
    <glyph glyph-name="Iotatonosgreek" unicode="&#x38a;" horiz-adv-x="1128" 
d="M478 1055h-278l166 388h333zM877 0h-347l307 1443h347z" />
    <glyph glyph-name="Omicrontonosgreek" unicode="&#x38c;" horiz-adv-x="1995" 
d="M489 1055h-278l166 388h333zM1618 836q0 159 -80 253t-206 94q-126 -1 -224 -77t-156 -210t-57 -292t81 -252t206 -94t224 76t155 210t57 292zM1190 -38q-304 0 -476 175t-172 443q0 196 61 364t167 286t252 184t327 67t327 -81t220 -221t75 -326q0 -187 -61 -355
q-60 -168 -166 -286t-252 -184t-302 -66z" />
    <glyph glyph-name="Upsilontonosgreek" unicode="&#x38e;" horiz-adv-x="1919" 
d="M1269 0h-347l108 508l-301 935h362l171 -597h19l417 597h375l-698 -943zM479 1055h-278l166 388h333z" />
    <glyph glyph-name="Omegatonosgreek" unicode="&#x38f;" horiz-adv-x="2063" 
d="M485 1055h-278l166 388h333zM798 288q-209 132 -209 440q0 154 61 298t168 244t257 155q150 56 325 56q288 0 461 -155t173 -412q0 -196 -102 -368t-279 -258l-4 -20h292l-57 -268h-616l72 339q160 73 250 214t89 303q0 162 -84 249q-84 86 -230 86q-191 1 -313 -139
t-121 -368q0 -228 195 -345l-71 -339h-595l57 268h277z" />
    <glyph glyph-name="iotadieresistonosgreek" unicode="&#x390;" horiz-adv-x="679" 
d="M864 1268q-68 0 -110 40t-41 103q1 64 45 107t112 43q68 1 110 -39t42 -104t-44 -107q-46 -43 -114 -43zM94 1268q-68 0 -110 40t-42 103q0 64 44 107t114 43q68 1 110 -39t41 -104t-45 -107t-112 -43zM556 1268h-245l90 388h303zM413 337q0 -89 116 -89q64 0 95 4
l-53 -244q-59 -10 -174 -10q-336 0 -336 238q0 46 11 95l165 779h335l-153 -722q-6 -28 -6 -51z" />
    <glyph glyph-name="Alphagreek" unicode="&#x391;" horiz-adv-x="1501" 
d="M886 1126l-284 -546h348l-45 546h-19zM989 0l-27 326h-484l-170 -326h-358l810 1443h415l173 -1443h-359z" />
    <glyph glyph-name="Betagreek" unicode="&#x392;" horiz-adv-x="1420" 
d="M725 256q117 0 192 62t75 151q0 174 -213 174h-231l-82 -387h259zM814 859q108 0 178 56t70 134q0 153 -190 153h-203l-74 -343h219zM792 0h-727l307 1443h621q186 1 301 -85t115 -227q-1 -141 -95 -245t-237 -122l-1 -19q122 -23 192 -101t70 -188q0 -200 -154 -328
t-392 -128z" />
    <glyph glyph-name="Gammagreek" unicode="&#x393;" horiz-adv-x="1198" 
d="M429 0h-347l307 1443h950l-61 -282h-602z" />
    <glyph glyph-name="Deltagreek" unicode="&#x394;" horiz-adv-x="1454" 
d="M884 1137l-452 -836l-5 -19h556l5 18l-88 837h-16zM1300 0h-1308l40 189l723 1254h416l169 -1256z" />
    <glyph glyph-name="Epsilongreek" unicode="&#x395;" horiz-adv-x="1274" 
d="M1109 282l-59 -282h-979l307 1443h978l-60 -282h-631l-65 -305h594l-55 -259h-594l-68 -315h632z" />
    <glyph glyph-name="Zetagreek" unicode="&#x396;" horiz-adv-x="1384" 
d="M42 0l47 223l868 919l1 19h-657l60 282h1096l-47 -223l-866 -919l-1 -19h688l-59 -282h-1130z" />
    <glyph glyph-name="Etagreek" unicode="&#x397;" horiz-adv-x="1606" 
d="M1353 0h-348l126 589h-598l-126 -589h-346l307 1443h347l-122 -572h598l122 572h347z" />
    <glyph glyph-name="Thetagreek" unicode="&#x398;" horiz-adv-x="1687" 
d="M1320 842q0 170 -86 262t-234 92t-258 -77q-108 -77 -169 -213t-61 -306q0 -168 86 -260t233 -93q147 0 256 77q109 76 171 212t62 306zM812 -38q-302 0 -476 168t-174 444q0 277 107 480t301 315t446 112q307 -1 480 -167t173 -444q1 -278 -107 -482
q-108 -202 -303 -314t-447 -112zM1124 579h-478l57 275h478z" />
    <glyph glyph-name="Iotagreek" unicode="&#x399;" horiz-adv-x="654" 
d="M401 0h-347l307 1443h347z" />
    <glyph glyph-name="Kappagreek" unicode="&#x39a;" horiz-adv-x="1454" 
d="M399 0h-346l307 1443h346l-132 -618h18l619 618h402l-659 -658l359 -785h-387l-261 582l-179 -175z" />
    <glyph glyph-name="Lambdagreek" unicode="&#x39b;" horiz-adv-x="1475" 
d="M893 1126l-557 -1126h-359l791 1443h415l153 -1443h-360l-64 1126h-19z" />
    <glyph glyph-name="Mugreek" unicode="&#x39c;" horiz-adv-x="1880" 
d="M382 0h-322l307 1443h400l169 -912h18l559 912h421l-307 -1443h-321l198 930h-18l-512 -829h-219l-158 829h-17z" />
    <glyph glyph-name="Nugreek" unicode="&#x39d;" horiz-adv-x="1574" 
d="M407 0h-334l307 1443h251l459 -872h18l187 872h334l-307 -1443h-248l-464 864h-19z" />
    <glyph glyph-name="Xigreek" unicode="&#x39e;" horiz-adv-x="1371" 
d="M118 291h1098l-62 -291h-1097zM1193 591h-923l56 268h924zM363 1443h1098l-62 -291h-1098z" />
    <glyph glyph-name="Omicrongreek" unicode="&#x39f;" horiz-adv-x="1626" 
d="M1240 836q0 159 -80 253t-206 94q-126 -1 -224 -77t-156 -210t-57 -292t81 -252t206 -94t224 76t155 210t57 292zM812 -38q-304 0 -476 175t-172 443q0 196 61 364t167 286t252 184t327 67t327 -81t220 -221t75 -326q0 -187 -61 -355q-60 -168 -166 -286t-252 -184
t-302 -66z" />
    <glyph glyph-name="Pigreek" unicode="&#x3a0;" horiz-adv-x="1586" 
d="M1349 0h-348l249 1161h-578l-249 -1161h-346l307 1443h1272z" />
    <glyph glyph-name="Rhogreek" unicode="&#x3a1;" horiz-adv-x="1381" 
d="M758 698q132 0 212 78t81 188q0 110 -57 160q-57 49 -162 49h-170l-102 -475h198zM906 1443q228 1 361 -117t133 -314q0 -268 -175 -424t-465 -156h-255l-92 -432h-347l306 1443h534z" />
    <glyph glyph-name="Sigmagreek" unicode="&#x3a3;" horiz-adv-x="1384" 
d="M546 298l-3 -16h693l-59 -282h-1130l43 205l458 527l-220 474l49 237h1085l-59 -282h-645l-3 -16l163 -379l-12 -54z" />
    <glyph glyph-name="Taugreek" unicode="&#x3a4;" horiz-adv-x="1352" 
d="M759 0h-348l247 1161h-421l60 282h1189l-60 -282h-421z" />
    <glyph glyph-name="Upsilongreek" unicode="&#x3a5;" horiz-adv-x="1451" 
d="M801 0h-347l108 508l-301 935h362l171 -597h19l417 597h375l-698 -943z" />
    <glyph glyph-name="Phigreek" unicode="&#x3a6;" horiz-adv-x="1888" 
d="M1552 795q0 139 -78 224t-213 103l-178 -832q217 24 343 158t126 347zM478 625q0 -138 76 -223t215 -104l177 832q-212 -24 -340 -156t-128 -349zM141 621q0 319 227 535q108 104 272 168t363 75l33 150h315l-34 -157q269 -33 420 -191t151 -405q0 -319 -228 -534
q-109 -102 -272 -166t-361 -74l-31 -146h-316l32 152q-273 34 -422 193t-149 400z" />
    <glyph glyph-name="Chigreek" unicode="&#x3a7;" horiz-adv-x="1494" 
d="M-30 0l618 742l-304 701h388l197 -473h19l360 473h385l-630 -734l320 -709h-384l-204 460h-18l-370 -460h-377z" />
    <glyph glyph-name="Psigreek" unicode="&#x3a8;" horiz-adv-x="1813" 
d="M226 733q0 58 14 126l123 584h327l-116 -551q-18 -80 -18 -123q0 -97 56 -144t173 -52l184 870h326l-187 -880q156 11 233 78t108 210l125 592h328l-133 -627q-55 -259 -225 -386t-494 -143l-61 -287h-326l63 297q-244 21 -372 131t-128 305z" />
    <glyph glyph-name="Omegagreek" unicode="&#x3a9;" horiz-adv-x="1666" 
d="M397 288q-209 132 -209 440q0 154 61 298t168 244t257 155q150 56 325 56q288 0 461 -155t173 -412q0 -196 -102 -368t-279 -258l-4 -20h292l-57 -268h-616l72 339q159 73 249 214t90 303t-84 249q-84 86 -230 86q-190 1 -312 -139t-122 -368t195 -345l-71 -339h-595
l57 268h277z" />
    <glyph glyph-name="Iotadieresisgreek" unicode="&#x3aa;" horiz-adv-x="653" 
d="M848 1581q-74 1 -121 45t-47 114t47 115t121 45t120 -44q47 -44 47 -116q0 -70 -47 -114q-46 -44 -120 -45zM356 1581q-74 1 -120 45q-47 44 -47 114t47 115t121 45q75 0 121 -45t46 -115t-47 -114t-121 -45zM381 0h-347l307 1443h347z" />
    <glyph glyph-name="Upsilondieresisgreek" unicode="&#x3ab;" horiz-adv-x="1451" 
d="M1244 1581q-74 1 -121 45t-47 114t47 115t121 45t120 -44q47 -44 47 -116q0 -70 -47 -114q-46 -44 -120 -45zM752 1581q-74 1 -120 45q-47 44 -47 114t47 115t121 45q75 0 121 -45t46 -115t-47 -114t-121 -45zM782 0h-347l108 508l-301 935h362l171 -597h19l417 597h375
l-698 -943z" />
    <glyph glyph-name="alphatonosgreek" unicode="&#x3ac;" horiz-adv-x="1374" 
d="M887 1268h-279l166 388h333zM585 249q119 -1 201 109t82 273q0 109 -49 169t-137 61q-115 1 -192 -111t-77 -279q1 -102 47 -162t125 -60zM423 -17q-167 1 -265 115t-98 316t70 365q70 164 194 256t264 92q140 1 218 -55q77 -56 115 -172l19 -1l45 211h332l-159 -748
q-8 -35 -8 -64q0 -58 79 -58q22 0 58 9l-52 -240q-67 -19 -183 -19t-178 46q-64 46 -64 149v11h-19q-51 -99 -149 -156t-219 -57z" />
    <glyph glyph-name="epsilontonosgreek" unicode="&#x3ad;" horiz-adv-x="1203" 
d="M521 -26q-231 0 -356 76t-125 227q0 103 66 178t179 105l4 19q-143 68 -143 199q0 166 146 261t398 95t378 -94t141 -281h-331q-11 67 -58 95t-141 28q-95 0 -145 -32t-50 -82q0 -93 164 -93h143l-48 -233h-164q-90 0 -138 -30t-48 -81q0 -107 174 -107q95 0 165 38
t102 111h344q-30 -118 -122 -209q-92 -90 -232 -140t-303 -50zM863 1268h-279l166 388h333z" />
    <glyph glyph-name="etatonosgreek" unicode="&#x3ae;" horiz-adv-x="1372" 
d="M917 1268h-279l166 388h333zM626 908q111 227 384 227q137 1 228 -89t91 -237q0 -58 -14 -130l-216 -1020h-333l206 974q7 36 7 73q-1 72 -47 116t-128 45q-82 0 -145 -58q-64 -58 -86 -157l-138 -652h-334l158 741q8 40 8 60q0 68 -79 68q-37 0 -61 -8l53 240
q64 19 180 19t174 -48t70 -146l3 -18h19z" />
    <glyph glyph-name="iotatonosgreek" unicode="&#x3af;" horiz-adv-x="673" 
d="M592 1268h-279l166 388h333zM412 337q0 -89 116 -89q64 0 95 4l-53 -244q-59 -10 -174 -10q-336 0 -336 238q0 46 11 95l165 779h335l-153 -722q-6 -28 -6 -51z" />
    <glyph glyph-name="upsilondieresistonosgreek" unicode="&#x3b0;" horiz-adv-x="1231" 
d="M1202 829q0 -419 -170 -637t-488 -217q-212 1 -330 97t-118 269q0 69 27 197l120 572h313l-127 -607q-14 -60 -14 -111q1 -140 161 -140q228 0 288 352q18 101 18 241t-27 265h313q34 -117 34 -281zM1128 1268q-68 0 -110 40t-41 103q1 64 45 107t112 43q68 1 110 -39
t42 -104t-44 -107q-46 -43 -114 -43zM358 1268q-68 0 -110 40t-42 103q0 64 44 107t114 43q68 1 110 -39t41 -104t-45 -107t-112 -43zM820 1268h-245l90 388h303z" />
    <glyph glyph-name="alphagreek" unicode="&#x3b1;" horiz-adv-x="1374" 
d="M605 249q119 -1 201 109t82 273q0 109 -49 169t-137 61q-115 1 -192 -111t-77 -279q1 -102 47 -162t125 -60zM443 -17q-167 1 -265 115t-98 316t70 365q70 164 194 256t264 92q140 1 218 -55q77 -56 115 -172l19 -1l45 211h332l-159 -748q-8 -35 -8 -64q0 -58 79 -58
q22 0 58 9l-52 -240q-67 -19 -183 -19t-178 46q-64 46 -64 149v11h-19q-51 -99 -149 -156t-219 -57z" />
    <glyph glyph-name="betagreek" unicode="&#x3b2;" horiz-adv-x="1329" 
d="M750 927q108 0 170 58q62 59 62 145q0 164 -164 164q-88 0 -143 -57t-81 -178l-108 -497q-11 -53 -11 -92q1 -105 61 -163t168 -58t176 66q68 65 68 165t-62 154t-175 53h-79l51 240h67zM777 -17q-264 0 -346 217h-19l-115 -541h-334l285 1343q62 290 200 420t370 131
q230 -1 354 -101t123 -270q-1 -118 -67 -208t-193 -141l-4 -19q258 -75 258 -334q-1 -219 -143 -358t-369 -139z" />
    <glyph glyph-name="gammagreek" unicode="&#x3b3;" horiz-adv-x="1211" 
d="M1261 1057q0 -235 -145 -493t-470 -610l-62 -292h-334l55 256l-142 1192h340l65 -815h20q167 207 262 408t95 356q0 44 -1 51h314q3 -15 3 -53z" />
    <glyph glyph-name="deltagreek" unicode="&#x3b4;" horiz-adv-x="1235" 
d="M587 213q119 -1 195 107t76 272q0 101 -47 159t-129 58q-115 -1 -193 -109t-78 -275q1 -100 47 -156t129 -56zM573 -25q-232 1 -369 121t-137 330t130 366t344 192l5 20q-152 88 -152 232t120 230t326 87q126 0 244 -29t186 -78l-60 -225q-172 94 -333 94q-65 -1 -97 -25
t-32 -60t23 -64q23 -27 84 -65q199 -136 278 -255t79 -279t-84 -297t-230 -216t-325 -79z" />
    <glyph glyph-name="epsilongreek" unicode="&#x3b5;" horiz-adv-x="1202" 
d="M538 -25q-231 1 -356 77t-125 226q0 103 66 178t179 105l4 19q-143 68 -143 199q1 166 147 261t397 95t377 -94t142 -281h-331q-11 66 -58 94t-141 29q-94 0 -144 -32t-51 -82q0 -93 164 -93h143l-48 -233h-164q-90 1 -138 -29t-48 -82q0 -107 174 -107q95 0 165 38
t102 111h344q-29 -118 -121 -209t-232 -141t-304 -49z" />
    <glyph glyph-name="zetagreek" unicode="&#x3b6;" horiz-adv-x="1011" 
d="M620 -105q0 49 -30 81t-119 75q-221 110 -307 212t-86 252q0 409 550 727l4 18h-363l58 268h824l12 -218q-359 -182 -551 -368t-193 -350q1 -92 47 -146t201 -130t215 -144t61 -175q0 -186 -209 -401l-226 86q64 68 88 116t24 97z" />
    <glyph glyph-name="etagreek" unicode="&#x3b7;" horiz-adv-x="1372" 
d="M644 908q111 227 384 227q137 1 228 -89t91 -237q0 -58 -14 -130l-216 -1020h-333l206 974q7 36 7 73q-1 72 -47 116t-128 45q-82 0 -145 -58q-64 -58 -86 -157l-138 -652h-334l158 741q8 40 8 60q0 68 -79 68q-37 0 -61 -8l53 240q64 19 180 19t174 -48t70 -146l3 -18
h19z" />
    <glyph glyph-name="thetagreek" unicode="&#x3b8;" horiz-adv-x="1300" 
d="M992 1076q0 102 -46 169q-46 68 -135 68q-226 0 -310 -418h477q14 79 14 181zM439 469q0 -253 182 -253q118 0 194 102t119 322h-477q-18 -104 -18 -171zM624 -25q-509 0 -509 538q0 122 27 274q66 375 242 571t430 195q506 0 506 -540q0 -115 -25 -268
q-65 -381 -239 -575t-432 -195z" />
    <glyph glyph-name="iotagreek" unicode="&#x3b9;" horiz-adv-x="674" 
d="M430 337q0 -89 116 -89q64 0 95 4l-53 -244q-59 -10 -174 -10q-336 0 -336 238q0 46 11 95l165 779h335l-153 -722q-6 -28 -6 -51z" />
    <glyph glyph-name="kappagreek" unicode="&#x3ba;" horiz-adv-x="1237" 
d="M1154 1120q96 0 151 -19l-49 -240q-32 8 -68 8q-36 1 -66 -15q-32 -16 -78 -62l-179 -178l263 -614h-319l-185 443l-230 -210l-47 -233h-327l235 1110h328l-99 -462h19l317 308q102 100 170 132t164 32z" />
    <glyph glyph-name="lambdagreek" unicode="&#x3bb;" horiz-adv-x="1206" 
d="M1110 233q46 0 71 9l-50 -233q-57 -19 -173 -19t-177 54q-60 54 -75 187l-46 366h-18l-356 -597h-349l670 1048l-12 79q-16 106 -54 141q-39 35 -103 35t-91 -9l52 240q55 19 141 19t145 -18q57 -18 99 -67t66 -127t42 -207l109 -776q10 -72 36 -98q27 -26 73 -27z" />
    <glyph glyph-name="mugreek" unicode="&#x3bc;" horiz-adv-x="1375" 
d="M461 422q0 -169 169 -169q84 0 150 63t88 169l133 625h334l-159 -748q-7 -38 -7 -64q0 -58 82 -58q32 0 58 6l-51 -242q-60 -14 -151 -14q-253 0 -253 203v6h-19q-34 -79 -86 -130q-95 -94 -217 -94q-50 -1 -88 19t-52 51h-18l-83 -386h-334l307 1451h335l-126 -593
q-12 -58 -12 -95z" />
    <glyph glyph-name="nugreek" unicode="&#x3bd;" horiz-adv-x="1211" 
d="M1261 1057q0 -227 -136 -473t-437 -584h-392l-133 1110h340l65 -815h20q166 203 262 406t95 358q0 44 -1 51h314q3 -15 3 -53z" />
    <glyph glyph-name="xigreek" unicode="&#x3be;" horiz-adv-x="1033" 
d="M601 -116q1 52 -31 89t-118 78q-230 109 -314 193t-85 202q0 238 299 306l4 18q-137 66 -137 215q1 99 61 164t167 93l3 18h-184l56 268h784l14 -249l-186 -17q-368 -33 -368 -195q0 -129 251 -129h161l-55 -254h-240q-127 0 -201 -41t-73 -106q0 -65 45 -107
q46 -42 198 -116q152 -76 212 -145t60 -172q0 -211 -202 -401l-226 86q105 123 105 202z" />
    <glyph glyph-name="omicrongreek" unicode="&#x3bf;" horiz-adv-x="1253" 
d="M614 234q112 0 194 116t82 282q0 112 -46 178t-127 66q-119 0 -199 -118t-80 -284q0 -112 48 -176t128 -64zM602 -25q-230 -1 -370 133t-140 359q0 185 82 337t229 242q148 90 333 89q228 0 365 -136t137 -355q0 -144 -49 -269t-134 -213t-203 -137q-118 -50 -250 -50z
" />
    <glyph glyph-name="pigreek" unicode="&#x3c0;" horiz-adv-x="1488" 
d="M1166 316q0 -76 98 -76q32 0 59 9l-52 -240q-59 -19 -177 -19t-190 59q-74 59 -74 168q0 37 13 96l111 529h-298l-179 -842h-318l179 842h-210l57 268h1378l-56 -268h-234l-99 -472q-8 -37 -8 -54z" />
    <glyph glyph-name="rhogreek" unicode="&#x3c1;" horiz-adv-x="1287" 
d="M779 1135q230 1 362 -125t132 -326q-1 -200 -75 -360q-74 -158 -202 -250t-261 -91t-217 61t-111 156h-18l-115 -541h-334l177 839q71 342 229 490t433 147zM649 249q119 -1 199 109t79 289q1 109 -49 169t-139 60q-123 0 -201 -114t-79 -292q0 -107 50 -164t140 -57z
" />
    <glyph glyph-name="sigmafinalgreek" unicode="&#x3c2;" horiz-adv-x="1170" 
d="M968 -10q0 -176 -209 -394l-226 86q65 70 89 118t23 96t-31 80q-30 30 -120 75q-219 107 -305 214t-86 275t72 301q73 134 215 214t347 80q205 -1 334 -119t132 -309h-311q-6 76 -54 121t-127 45q-118 0 -188 -82t-70 -189q-1 -108 45 -162t197 -127t212 -140t61 -183z
" />
    <glyph glyph-name="sigmagreek" unicode="&#x3c3;" horiz-adv-x="1369" 
d="M607 228q121 0 197 112t76 278q0 221 -169 221q-121 1 -201 -111t-80 -279q0 -221 177 -221zM584 -25q-230 0 -365 128t-135 352q0 185 80 333t231 235t348 87h715l-56 -268h-261l-4 -19q68 -95 68 -217t-44 -238t-123 -204q-78 -88 -196 -138q-118 -51 -258 -51z" />
    <glyph glyph-name="taugreek" unicode="&#x3c4;" horiz-adv-x="1140" 
d="M655 -2q-336 0 -336 238q0 46 11 95l108 511h-325l58 268h1050l-58 -268h-390l-96 -454q-6 -28 -6 -51q0 -89 116 -89q57 0 99 5l-53 -245q-67 -10 -178 -10z" />
    <glyph glyph-name="upsilongreek" unicode="&#x3c5;" horiz-adv-x="1231" 
d="M1215 829q0 -419 -170 -637t-488 -217q-213 1 -331 97t-117 269q0 69 27 197l120 572h313l-127 -607q-14 -60 -14 -111q1 -140 161 -140q229 0 289 352q18 101 17 241q0 140 -27 265h313q34 -117 34 -281z" />
    <glyph glyph-name="phigreek" unicode="&#x3c6;" horiz-adv-x="1637" 
d="M1306 623q0 111 -61 179t-174 78l-142 -658q173 6 275 114t102 287zM405 483q-1 -113 61 -179t177 -75l142 657q-174 -4 -277 -114t-103 -289zM84 455q0 199 94 355t265 242q170 86 387 86l55 259h304l-57 -266q224 -16 360 -149q136 -134 136 -332t-94 -352t-263 -241
q-169 -86 -385 -86l-66 -312h-304l68 318q-228 17 -364 148t-136 330z" />
    <glyph glyph-name="chigreek" unicode="&#x3c7;" horiz-adv-x="1237" 
d="M892 -351q-102 0 -164 43t-94 139l-85 255h-19l-302 -427h-326l551 724l-131 370q-26 69 -52 93t-68 24q-41 0 -66 -9l52 240q62 19 162 19t158 -43t91 -146l91 -285h16l333 464h331l-575 -756l111 -329q26 -79 54 -103t72 -23q44 0 73 8l-53 -239q-58 -19 -160 -19z" />
    <glyph glyph-name="psigreek" unicode="&#x3c8;" horiz-adv-x="1616" 
d="M95 340q0 64 19 156l129 614h313l-121 -572q-21 -96 -21 -139q0 -77 48 -111t156 -36l245 1145h314l-244 -1147q184 4 273 140t89 426q0 160 -27 294h312q35 -105 35 -270q1 -438 -179 -653t-562 -215l-66 -313h-314l66 315q-229 5 -347 98t-118 268z" />
    <glyph glyph-name="omegagreek" unicode="&#x3c9;" horiz-adv-x="1674" 
d="M991 372q0 -119 112 -119q99 1 158 107t59 289q0 257 -126 461h325q120 -187 120 -464q0 -189 -68 -343t-188 -241t-259 -87q-140 0 -210 53t-94 170h-20q-101 -223 -353 -223q-175 1 -269 109t-94 302t79 390t210 334h323q-137 -157 -213 -338t-76 -353q0 -81 32 -123
t91 -43q131 0 167 166l80 374h297l-76 -360q-7 -31 -7 -61z" />
    <glyph glyph-name="iotadieresisgreek" unicode="&#x3ca;" horiz-adv-x="679" 
d="M413 337q0 -89 116 -89q64 0 95 4l-53 -244q-59 -10 -174 -10q-336 0 -336 238q0 46 11 95l165 779h335l-153 -722q-6 -28 -6 -51zM722 1257q-74 1 -121 45t-47 114t47 115t121 45t120 -44q47 -44 47 -116q0 -70 -47 -114q-46 -44 -120 -45zM230 1257q-74 1 -120 45
q-47 44 -47 114t47 115t121 45q75 0 121 -45t46 -115t-47 -114t-121 -45z" />
    <glyph glyph-name="upsilondieresisgreek" unicode="&#x3cb;" horiz-adv-x="1231" 
d="M1202 829q0 -419 -170 -637t-488 -217q-212 1 -330 97t-118 269q0 69 27 197l120 572h313l-127 -607q-14 -60 -14 -111q1 -140 161 -140q228 0 288 352q18 101 18 241t-27 265h313q34 -117 34 -281zM1012 1257q-74 1 -121 45t-47 114t47 115t121 45t120 -44
q47 -44 47 -116q0 -70 -47 -114q-46 -44 -120 -45zM520 1257q-74 1 -120 45q-47 44 -47 114t47 115t121 45q75 0 121 -45t46 -115t-47 -114t-121 -45z" />
    <glyph glyph-name="omicrontonosgreek" unicode="&#x3cc;" horiz-adv-x="1253" 
d="M885 1268h-279l166 388h333zM601 234q111 0 193 116t83 282q1 112 -45 178t-128 66q-118 0 -198 -118t-81 -284q0 -112 48 -176t128 -64zM589 -25q-229 -1 -369 133t-141 359q-1 185 81 337t230 242t333 89q228 0 365 -136t137 -355q0 -144 -49 -269t-134 -213
q-84 -88 -202 -137q-118 -50 -251 -50z" />
    <glyph glyph-name="upsilontonosgreek" unicode="&#x3cd;" horiz-adv-x="1231" 
d="M1202 829q0 -419 -170 -637t-488 -217q-212 1 -330 97t-118 269q0 69 27 197l120 572h313l-127 -607q-14 -60 -14 -111q1 -140 161 -140q228 0 288 352q18 101 18 241t-27 265h313q34 -117 34 -281zM873 1268h-279l166 388h333z" />
    <glyph glyph-name="omegatonosgreek" unicode="&#x3ce;" horiz-adv-x="1674" 
d="M1101 1267h-279l166 388h333zM975 372q0 -119 112 -119q99 1 158 107t59 289q0 257 -126 461h325q120 -187 120 -464q0 -189 -68 -343t-188 -241t-259 -87q-140 0 -210 53t-94 170h-20q-101 -223 -353 -223q-175 1 -269 109t-94 302t79 390t210 334h323
q-137 -157 -213 -338t-76 -353q0 -81 32 -123t91 -43q131 0 167 166l80 374h297l-76 -360q-7 -31 -7 -61z" />
    <glyph glyph-name="Iocyrillic" unicode="&#x401;" horiz-adv-x="1294" 
d="M1109 282l-59 -282h-979l307 1443h978l-60 -282h-631l-65 -305h594l-55 -259h-594l-68 -315h632zM1192 1581q-74 1 -121 45t-47 114t47 115t121 45t120 -44q47 -44 47 -116q0 -70 -47 -114q-46 -44 -120 -45zM700 1581q-74 1 -120 45q-47 44 -47 114t47 115t121 45
q75 0 121 -45t46 -115t-47 -114t-121 -45z" />
    <glyph glyph-name="Djecyrillic" unicode="&#x402;" horiz-adv-x="1802" 
d="M1724 471q0 -227 -170 -391q-80 -76 -198 -121q-119 -45 -248 -45t-187 17l56 265q34 -11 136 -11q103 0 177 69t74 163t-56 145t-151 51t-173 -42t-120 -102l-100 -469h-347l247 1161h-407l60 282h1162l-61 -282h-407l-78 -367h16q133 112 334 112t321 -120t120 -315z
" />
    <glyph glyph-name="Gjecyrillic" unicode="&#x403;" horiz-adv-x="1224" 
d="M429 0h-347l307 1443h960l-61 -282h-612zM700 1573l333 323h347l-376 -323h-304z" />
    <glyph glyph-name="Ecyrillic" unicode="&#x404;" horiz-adv-x="1558" 
d="M766 -38q-280 0 -438 191q-160 191 -133 524q13 236 113 418t271 284q172 102 365 102q192 1 328 -65t214 -185t79 -269v-26h-339q-6 116 -80 184t-200 67q-126 0 -232 -90t-144 -237h543l-55 -262h-523q-8 -160 70 -252t203 -92q126 0 210 66t123 178h338
q-57 -246 -245 -391t-468 -145z" />
    <glyph glyph-name="Dzecyrillic" unicode="&#x405;" horiz-adv-x="1394" 
d="M692 228q110 0 180 48t71 114q0 66 -45 104t-154 72l-155 46q-163 50 -253 154t-90 247q0 202 168 335t418 133q252 0 408 -126t159 -328h-322q-9 83 -79 135t-172 53q-100 0 -166 -46t-65 -109q0 -63 43 -104t137 -70l155 -47q186 -55 272 -149t86 -243
q0 -219 -171 -352t-451 -133q-169 0 -298 54t-203 156t-79 242h331q12 -82 89 -134q76 -52 186 -52z" />
    <glyph glyph-name="Icyrillic" unicode="&#x406;" horiz-adv-x="673" 
d="M410 0h-347l307 1443h347z" />
    <glyph glyph-name="Yicyrillic" unicode="&#x407;" horiz-adv-x="674" 
d="M858 1581q-74 1 -120 45q-47 44 -47 114t47 115q46 45 120 45t121 -44t47 -116q0 -70 -47 -114t-121 -45zM368 1581q-74 1 -121 45t-47 114t47 115t121 45t120 -45t47 -115q0 -70 -47 -114q-46 -44 -120 -45zM392 0h-347l307 1443h347z" />
    <glyph glyph-name="Jecyrillic" unicode="&#x408;" horiz-adv-x="1251" 
d="M379 433v-12q1 -73 45 -115t120 -43q151 0 193 193l210 987h346l-219 -1032q-46 -217 -184 -333t-358 -116t-356 119q-135 119 -132 313q0 13 2 39h333z" />
    <glyph glyph-name="Ljecyrillic" unicode="&#x409;" horiz-adv-x="2243" 
d="M1610 727h-166l-99 -461h204q127 0 209 73t81 179t-61 158t-168 51zM92 292q94 0 152 82t98 232l217 837h1037l-95 -445h181q236 0 370 -116t134 -326q0 -244 -174 -400t-460 -156h-611l248 1161h-381l-154 -580q-98 -373 -256 -497q-126 -99 -308 -98q-88 0 -132 14
l64 300q40 -8 70 -8z" />
    <glyph glyph-name="Njecyrillic" unicode="&#x40a;" horiz-adv-x="2267" 
d="M1853 469q0 153 -206 153h-197l-76 -355h210q121 0 195 56t74 146zM1711 886q229 0 360 -103t131 -280q0 -223 -170 -363t-452 -140h-610l130 610h-538l-130 -610h-346l307 1443h347l-119 -558h538l118 558h347l-118 -557h205z" />
    <glyph glyph-name="Tshecyrillic" unicode="&#x40b;" horiz-adv-x="1814" 
d="M1163 613q-182 0 -296 -144l-100 -469h-347l247 1161h-407l60 282h1162l-61 -282h-407l-78 -366h17q138 111 327 111q288 0 384 -221q53 -123 17 -319l-78 -366h-347l78 367q24 110 -24 178t-147 68z" />
    <glyph glyph-name="Kjecyrillic" unicode="&#x40c;" horiz-adv-x="1459" 
d="M1618 1443l-713 -731l420 -712h-387l-355 581h-49l-124 -581h-347l307 1443h347l-128 -598h48l579 598h402zM1516 1896l-376 -323h-304l333 323h347z" />
    <glyph glyph-name="Ushortcyrillic" unicode="&#x40e;" horiz-adv-x="1427" 
d="M166 1l58 278q40 -10 86 -10q124 0 202 89l-239 1085h362l123 -750h19l429 750h374l-669 -1043q-205 -322 -421 -388q-86 -26 -190 -26t-134 15zM992 1775q66 1 116 41q48 40 64 109h240q-31 -157 -151 -243t-294 -85t-271 95t-65 233h240q-9 -70 23 -110t98 -40z" />
    <glyph glyph-name="Dzhecyrillic" unicode="&#x40f;" horiz-adv-x="1609" 
d="M562 0h-476l307 1443h346l-248 -1160h585l247 1160h347l-307 -1443h-476l-61 -285h-325z" />
    <glyph glyph-name="Acyrillic" unicode="&#x410;" horiz-adv-x="1521" 
d="M895 1126l-284 -546h348l-45 546h-19zM998 0l-27 326h-484l-170 -326h-358l810 1443h415l173 -1443h-359z" />
    <glyph glyph-name="Becyrillic" unicode="&#x411;" horiz-adv-x="1401" 
d="M696 266q126 0 208 64t82 152q0 175 -217 175h-193l-84 -391h204zM699 0h-611l307 1443h1004l-61 -282h-655l-53 -247h199q236 0 370 -104t134 -287q0 -231 -174 -377t-460 -146z" />
    <glyph glyph-name="Vecyrillic" unicode="&#x412;" horiz-adv-x="1441" 
d="M736 256q117 0 192 62t75 151q0 174 -213 174h-231l-82 -387h259zM825 859q109 0 179 56t69 134q0 153 -190 153h-203l-74 -343h219zM803 0h-727l307 1443h621q186 1 301 -85t115 -227t-94 -245t-238 -122l-1 -19q121 -23 191 -101t71 -188q1 -200 -153 -328t-393 -128z
" />
    <glyph glyph-name="Gecyrillic" unicode="&#x413;" horiz-adv-x="1224" 
d="M439 0h-347l307 1443h960l-61 -282h-612z" />
    <glyph glyph-name="Decyrillic" unicode="&#x414;" horiz-adv-x="1601" 
d="M255 0l-61 -285h-311l120 568h99q82 53 128 137t90 243l214 780h1074l-247 -1160h180l-121 -568h-312l61 285h-914zM631 633q-67 -243 -158 -331l-3 -19h544l187 879h-421z" />
    <glyph glyph-name="Iecyrillic" unicode="&#x415;" horiz-adv-x="1294" 
d="M1119 282l-59 -282h-979l307 1443h978l-60 -282h-631l-65 -305h594l-55 -259h-594l-68 -315h632z" />
    <glyph glyph-name="Zhecyrillic" unicode="&#x416;" horiz-adv-x="2173" 
d="M909 581l-541 -581h-412l697 762l-332 681h358l287 -602h50l129 602h339l-128 -602h50l544 602h402l-677 -741l361 -702h-389l-293 581h-53l-124 -581h-339l124 581h-53z" />
    <glyph glyph-name="Zecyrillic" unicode="&#x417;" horiz-adv-x="1363" 
d="M789 869q109 1 178 53t69 132t-50 122t-147 42t-171 -52t-98 -141h-316q45 212 211 334t407 122q240 -1 372 -105t132 -260t-96 -255t-252 -122l-4 -19q123 -20 192 -94t69 -180t-44 -192q-43 -86 -123 -151t-200 -103t-265 -38q-269 0 -415 130t-132 347h326
q-4 -91 56 -147t178 -55q116 0 190 58t74 144q0 166 -215 166h-186l56 264h204z" />
    <glyph glyph-name="Iicyrillic" unicode="&#x418;" horiz-adv-x="1629" 
d="M1043 0l197 915h-19l-802 -915h-333l307 1443h339l-196 -917h19l802 917h333l-307 -1443h-340z" />
    <glyph glyph-name="Iishortcyrillic" unicode="&#x419;" horiz-adv-x="1629" 
d="M1027 0l197 915h-19l-802 -915h-333l307 1443h339l-196 -917h19l802 917h333l-307 -1443h-340zM1066 1775q66 1 116 41q48 40 64 109h240q-31 -157 -151 -243t-294 -85t-271 95t-65 233h240q-9 -70 23 -110t98 -40z" />
    <glyph glyph-name="Kacyrillic" unicode="&#x41a;" horiz-adv-x="1464" 
d="M1637 1443l-713 -731l420 -712h-387l-355 581h-49l-124 -581h-347l307 1443h347l-128 -598h48l579 598h402z" />
    <glyph glyph-name="Elcyrillic" unicode="&#x41b;" horiz-adv-x="1534" 
d="M99 -14q-100 0 -144 14l64 300q40 -8 70 -8q91 0 151 82t99 232l217 837h1040l-307 -1443h-347l246 1161h-383l-154 -580q-76 -291 -197 -437q-67 -80 -161 -119t-194 -39z" />
    <glyph glyph-name="Emcyrillic" unicode="&#x41c;" horiz-adv-x="1900" 
d="M392 0h-322l307 1443h400l169 -912h18l559 912h421l-307 -1443h-321l198 930h-18l-512 -829h-219l-158 829h-17z" />
    <glyph glyph-name="Encyrillic" unicode="&#x41d;" horiz-adv-x="1626" 
d="M1363 0h-348l126 589h-598l-126 -589h-346l307 1443h347l-122 -572h598l122 572h347z" />
    <glyph glyph-name="Ocyrillic" unicode="&#x41e;" horiz-adv-x="1654" 
d="M1250 836q0 159 -80 253t-206 94q-126 -1 -224 -77t-156 -210t-57 -292t81 -252t206 -94t224 76t155 210t57 292zM822 -38q-304 0 -476 175t-172 443q0 196 61 364t167 286t252 184t327 67t327 -81t220 -221t75 -326q0 -187 -61 -355q-60 -168 -166 -286t-252 -184
t-302 -66z" />
    <glyph glyph-name="Pecyrillic" unicode="&#x41f;" horiz-adv-x="1609" 
d="M1363 0h-346l247 1160h-585l-246 -1160h-347l307 1443h1277z" />
    <glyph glyph-name="Ercyrillic" unicode="&#x420;" horiz-adv-x="1401" 
d="M767 698q133 0 213 78t80 188t-57 160q-57 49 -162 49h-170l-102 -475h198zM915 1443q228 1 361 -117t133 -314q0 -268 -175 -424t-465 -156h-255l-92 -432h-347l306 1443h534z" />
    <glyph glyph-name="Escyrillic" unicode="&#x421;" horiz-adv-x="1561" 
d="M784 -39q-272 1 -435 173t-163 466q0 191 58 355q58 163 160 279t248 182q145 66 314 65q264 0 434 -149t171 -380v-21h-340q-8 119 -83 187q-74 68 -194 68t-216 -74t-150 -205t-55 -295q1 -164 79 -262t204 -97t208 63q83 62 118 174h341q-53 -245 -239 -387
q-188 -142 -460 -142z" />
    <glyph glyph-name="Tecyrillic" unicode="&#x422;" horiz-adv-x="1373" 
d="M769 0h-348l247 1161h-421l60 282h1189l-60 -282h-421z" />
    <glyph glyph-name="Ucyrillic" unicode="&#x423;" horiz-adv-x="1427" 
d="M183 1l58 278q40 -10 86 -10q124 0 202 89l-239 1085h362l123 -750h19l429 750h374l-669 -1043q-206 -322 -422 -388q-86 -26 -190 -26t-133 15z" />
    <glyph glyph-name="Efcyrillic" unicode="&#x424;" horiz-adv-x="1866" 
d="M1510 786q0 120 -69 188t-196 77l-141 -656q178 10 292 120t114 271zM502 653q0 -115 70 -183t195 -75l141 656q-178 -10 -292 -121t-114 -277zM147 640q1 298 223 485t592 200l33 152h342l-32 -152q260 -11 410 -151t150 -370q0 -298 -223 -484t-593 -199l-33 -155h-342
l32 155q-259 9 -409 149t-150 370z" />
    <glyph glyph-name="Xacyrillic" unicode="&#x425;" horiz-adv-x="1514" 
d="M-20 0l618 742l-304 701h388l197 -473h19l360 473h385l-630 -734l320 -709h-384l-204 460h-18l-370 -460h-377z" />
    <glyph glyph-name="Tsecyrillic" unicode="&#x426;" horiz-adv-x="1664" 
d="M1482 -285h-312l61 285h-1146l308 1443h346l-248 -1160h585l247 1160h347l-248 -1161h180z" />
    <glyph glyph-name="Checyrillic" unicode="&#x427;" horiz-adv-x="1520" 
d="M696 484q-240 0 -364 160t-69 414l82 385h346l-83 -387q-27 -130 26 -204q54 -74 168 -74q218 0 324 146l110 519h346l-307 -1443h-346l127 595h-19q-158 -111 -341 -111z" />
    <glyph glyph-name="Shacyrillic" unicode="&#x428;" horiz-adv-x="2098" 
d="M80 0l307 1443h347l-248 -1161h368l248 1161h348l-248 -1161h368l248 1161h347l-307 -1443h-1778z" />
    <glyph glyph-name="Shchacyrillic" unicode="&#x429;" horiz-adv-x="2154" 
d="M1977 -285h-311l61 285h-1647l307 1443h347l-248 -1161h369l248 1161h347l-248 -1161h368l248 1161h347l-247 -1161h180z" />
    <glyph glyph-name="Hardsigncyrillic" unicode="&#x42a;" horiz-adv-x="1605" 
d="M975 727h-166l-99 -461h204q126 0 208 73t81 179q0 209 -228 209zM916 0h-610l248 1162h-337l60 281h683l-95 -445h182q236 0 370 -117t134 -325q-1 -244 -175 -400t-460 -156z" />
    <glyph glyph-name="Yericyrillic" unicode="&#x42b;" horiz-adv-x="1934" 
d="M796 998q236 0 370 -116t134 -326q0 -244 -174 -400t-460 -156h-610l307 1443h347l-95 -445h181zM725 727h-167l-99 -461h204q127 0 209 73t81 179t-61 158t-167 51zM1683 0h-347l307 1443h347z" />
    <glyph glyph-name="Softsigncyrillic" unicode="&#x42c;" horiz-adv-x="1388" 
d="M827 998q236 0 370 -116t134 -326q0 -244 -174 -400t-460 -156h-610l307 1443h347l-95 -445h181zM756 727h-167l-99 -461h204q126 0 208 73t82 179t-60 158t-168 51z" />
    <glyph glyph-name="Ereversedcyrillic" unicode="&#x42d;" horiz-adv-x="1557" 
d="M712 -38q-240 0 -404 147t-169 389h338q10 -112 84 -177q73 -65 201 -65t233 93t143 249h-548l57 262h522q3 154 -73 242t-202 87q-126 0 -211 -67q-84 -67 -124 -186h-339q58 254 246 400t468 145q281 0 441 -191t133 -524q-13 -236 -113 -418t-272 -284
q-171 -102 -411 -102z" />
    <glyph glyph-name="IUcyrillic" unicode="&#x42e;" horiz-adv-x="2210" 
d="M1558 1481q278 -1 448 -173t170 -464q0 -248 -100 -449t-279 -317q-180 -116 -405 -116q-282 0 -450 167t-172 460h-217l-126 -589h-346l307 1443h347l-122 -572h191q72 276 274 443t480 167zM1396 251q120 1 218 79t154 211t57 294t-77 259t-199 98t-218 -77t-153 -209
t-57 -296q0 -163 77 -261t198 -98z" />
    <glyph glyph-name="IAcyrillic" unicode="&#x42f;" horiz-adv-x="1453" 
d="M256 921q0 226 178 374t463 148h617l-307 -1443h-347l107 500h-140l-435 -500h-406l489 561q-219 105 -219 360zM832 750h188l91 427h-218q-127 -1 -209 -69t-81 -166q0 -192 229 -192z" />
    <glyph glyph-name="acyrillic" unicode="&#x430;" horiz-adv-x="1222" 
d="M386 -17q-140 0 -234 86t-93 216q1 170 133 270t367 107l263 7l14 68q5 23 5 36q-1 52 -45 82t-120 30q-133 0 -175 -88h-308q35 154 173 246t340 92q204 0 333 -91t129 -240q0 -46 -9 -89l-152 -715h-324l29 135h-19q-43 -70 -127 -111t-180 -41zM542 220q74 0 138 48
t81 119l19 88l-206 -8q-89 -3 -140 -39t-51 -90t42 -86q43 -32 117 -32z" />
    <glyph glyph-name="becyrillic" unicode="&#x431;" horiz-adv-x="1310" 
d="M462 487q0 -252 200 -252q98 0 176 100q78 101 78 229t-50 192t-137 65q-115 -1 -191 -103t-76 -231zM830 1066q202 0 314 -124t112 -318t-76 -340t-219 -232q-144 -86 -340 -85q-195 0 -325 118t-150 301q-20 184 19 356q40 172 81 274q89 222 247 338t416 124l154 6
q158 6 264 32l37 9l-54 -256q-90 -36 -279 -43l-145 -4q-186 -6 -282 -94t-153 -256h19q128 194 360 194z" />
    <glyph glyph-name="vecyrillic" unicode="&#x432;" horiz-adv-x="1229" 
d="M722 906h-155l-52 -242h149q88 0 138 40t50 101q0 101 -130 101zM643 481h-166l-59 -277h174q94 0 152 45t58 115q0 117 -159 117zM854 1110q161 0 250 -67t89 -175q1 -108 -77 -182q-78 -75 -186 -90l-4 -18q98 -12 156 -68t57 -141q1 -163 -135 -266t-359 -103h-599
l236 1110h572z" />
    <glyph glyph-name="gecyrillic" unicode="&#x433;" horiz-adv-x="998" 
d="M1022 859h-450l-183 -859h-335l236 1110h785z" />
    <glyph glyph-name="decyrillic" unicode="&#x434;" horiz-adv-x="1370" 
d="M181 -285h-303l114 536h83q113 54 186 317l151 542h925l-182 -859h161l-114 -536h-304l61 285h-717zM821 251l130 609h-312l-89 -315q-52 -181 -131 -275l-4 -19h406z" />
    <glyph glyph-name="iecyrillic" unicode="&#x435;" horiz-adv-x="1268" 
d="M896 713q0 78 -52 129t-140 51t-157 -59t-95 -157h441q3 18 3 36zM604 -25q-218 1 -358 129q-138 128 -138 350q0 304 170 492t440 189q211 1 348 -129t137 -340q0 -80 -19 -185h-767v-24q0 -113 61 -175t146 -62q164 0 209 108h316q-39 -161 -183 -257t-362 -96z" />
    <glyph glyph-name="zhecyrillic" unicode="&#x436;" horiz-adv-x="1767" 
d="M1908 1110l-465 -540l236 -570h-364l-184 454h-58l-96 -454h-328l97 454h-59l-368 -454h-390l513 621l-213 489h336l174 -430h55l91 430h327l-91 -430h53l358 430h376z" />
    <glyph glyph-name="zecyrillic" unicode="&#x437;" horiz-adv-x="1190" 
d="M730 1135q210 -1 322 -81t109 -215q-1 -89 -61 -157t-149 -87l-4 -19q158 -48 156 -212t-147 -276q-146 -112 -372 -113t-360 113t-138 299h313q7 -77 56 -115t129 -38t131 36t52 90t-35 78t-109 24h-151l45 209h140q83 0 123 34t40 85q4 93 -126 93q-154 0 -211 -141
h-312q56 182 202 288q147 106 357 105z" />
    <glyph glyph-name="iicyrillic" unicode="&#x438;" horiz-adv-x="1340" 
d="M378 0h-329l236 1110h328l-138 -643h18l545 643h329l-236 -1110h-328l140 653h-18z" />
    <glyph glyph-name="iishortcyrillic" unicode="&#x439;" horiz-adv-x="1340" 
d="M362 0h-329l236 1110h328l-138 -643h18l545 643h329l-236 -1110h-328l140 653h-18zM863 1453q69 -1 121 49t69 129h241q-36 -166 -154 -261t-299 -95q-181 -1 -275 99t-59 257h238q-15 -79 17 -129t101 -49z" />
    <glyph glyph-name="kacyrillic" unicode="&#x43a;" horiz-adv-x="1196" 
d="M1331 1110l-509 -529l279 -581h-366l-207 449h-53l-95 -449h-335l236 1110h335l-91 -425h48l380 425h378z" />
    <glyph glyph-name="elcyrillic" unicode="&#x43b;" horiz-adv-x="1273" 
d="M75 273q127 0 202 283l147 554h875l-236 -1110h-335l182 859h-255l-90 -331q-74 -278 -186 -410q-111 -132 -303 -132q-86 0 -126 14l59 281q30 -8 66 -8z" />
    <glyph glyph-name="emcyrillic" unicode="&#x43c;" horiz-adv-x="1652" 
d="M356 0h-311l236 1110h437l110 -673h19l399 673h435l-235 -1110h-312l153 721h-18l-395 -650h-228l-118 650h-19z" />
    <glyph glyph-name="encyrillic" unicode="&#x43d;" horiz-adv-x="1322" 
d="M47 0l236 1110h335l-89 -418h397l89 418h335l-236 -1110h-335l94 441h-397l-94 -441h-335z" />
    <glyph glyph-name="ocyrillic" unicode="&#x43e;" horiz-adv-x="1320" 
d="M624 -25q-232 0 -372 135q-140 134 -140 338t82 356t228 242q148 89 331 89q231 0 370 -135t139 -358q0 -184 -80 -336t-228 -242q-146 -90 -330 -89zM459 471q-1 -109 47 -173t133 -63q111 0 193 116t82 281q0 116 -46 180t-130 64q-119 0 -199 -118t-80 -287z" />
    <glyph glyph-name="pecyrillic" unicode="&#x43f;" horiz-adv-x="1312" 
d="M769 0l183 859h-387l-183 -859h-335l236 1110h1057l-236 -1110h-335z" />
    <glyph glyph-name="ercyrillic" unicode="&#x440;" horiz-adv-x="1348" 
d="M921 1127q168 -1 272 -115t104 -314t-73 -364q-73 -166 -200 -258q-128 -92 -264 -93t-218 59t-110 158h-19l-116 -541h-334l309 1451h325l-33 -155h18q127 172 339 172zM666 253q119 0 202 114t83 281q0 103 -52 160t-135 57q-120 -1 -204 -117t-84 -275q0 -104 54 -162
t136 -58z" />
    <glyph glyph-name="escyrillic" unicode="&#x441;" horiz-adv-x="1230" 
d="M732 873q-123 1 -200 -111t-77 -254q0 -270 193 -270q66 0 120 41t82 110h312q-53 -196 -192 -305q-140 -109 -364 -109t-350 130t-127 370q1 187 75 337t214 236t337 86t323 -112t137 -302h-311q-8 69 -54 111t-118 42z" />
    <glyph glyph-name="tecyrillic" unicode="&#x442;" horiz-adv-x="1056" 
d="M1171 1110l-53 -251h-320l-183 -859h-335l183 859h-321l53 251h976z" />
    <glyph glyph-name="ucyrillic" unicode="&#x443;" horiz-adv-x="1228" 
d="M97 -406q-101 0 -137 4l53 257q8 -4 73 -4q168 0 214 107l15 36l-132 1116h342l41 -814h18l381 814h357l-610 -1131q-110 -209 -252 -297t-363 -88z" />
    <glyph glyph-name="efcyrillic" unicode="&#x444;" horiz-adv-x="1726" 
d="M443 500q0 -132 59 -200t160 -71l138 652q-84 -4 -154 -40q-70 -37 -114 -93q-90 -116 -89 -248zM1346 610q0 132 -59 200t-161 71l-138 -652q173 8 266 128q92 120 92 253zM102 459q0 283 194 470q94 91 236 143t319 56l70 332h331l-71 -332q230 -8 368 -134t138 -343
q-1 -283 -195 -470q-94 -91 -236 -143q-143 -52 -318 -56l-69 -323h-331l69 323q-229 7 -367 134t-138 343z" />
    <glyph glyph-name="hacyrillic" unicode="&#x445;" horiz-adv-x="1211" 
d="M586 341h-19l-255 -341h-359l455 554l-222 556h366l110 -348h19l246 348h368l-460 -558l227 -552h-353z" />
    <glyph glyph-name="tsecyrillic" unicode="&#x446;" horiz-adv-x="1373" 
d="M1206 -285h-304l61 285h-917l236 1110h335l-183 -859h387l183 859h335l-183 -859h164z" />
    <glyph glyph-name="checyrillic" unicode="&#x447;" horiz-adv-x="1260" 
d="M500 338q-178 0 -267 125t-45 332l66 315h335l-63 -298q-20 -95 17 -146t123 -51q121 0 207 102l83 393h335l-235 -1110h-335l98 462h-19q-122 -124 -300 -124z" />
    <glyph glyph-name="shacyrillic" unicode="&#x448;" horiz-adv-x="1809" 
d="M40 0l236 1110h335l-182 -859h281l182 859h335l-182 -859h281l182 859h335l-236 -1110h-1567z" />
    <glyph glyph-name="shchacyrillic" unicode="&#x449;" horiz-adv-x="1865" 
d="M1703 -285h-304l61 285h-1419l236 1110h335l-182 -859h281l182 859h335l-182 -859h281l182 859h335l-182 -859h155z" />
    <glyph glyph-name="hardsigncyrillic" unicode="&#x44a;" horiz-adv-x="1348" 
d="M823 551h-156l-64 -300h156q86 0 143 53t57 118q0 129 -136 129zM768 0h-553l182 859h-281l53 251h616l-66 -311h188q177 0 283 -91t107 -239q-1 -199 -151 -334t-378 -135z" />
    <glyph glyph-name="yericyrillic" unicode="&#x44b;" horiz-adv-x="1642" 
d="M697 799q177 0 283 -91t106 -239q0 -199 -150 -334t-379 -135h-552l236 1110h335l-66 -311h187zM612 551h-154l-64 -300h154q86 0 143 53t57 118q0 129 -136 129zM1118 0l236 1110h335l-236 -1110h-335z" />
    <glyph glyph-name="softsigncyrillic" unicode="&#x44c;" horiz-adv-x="1175" 
d="M734 799q176 0 282 -91t107 -239q0 -199 -150 -334t-379 -135h-552l236 1110h335l-66 -311h187zM649 551h-154l-64 -300h154q86 0 143 53t57 118q0 129 -136 129z" />
    <glyph glyph-name="ereversedcyrillic" unicode="&#x44d;" horiz-adv-x="1256" 
d="M707 1135q223 0 353 -130t130 -341q0 -212 -75 -364t-216 -238t-342 -87q-201 0 -324 109t-132 304h311q4 -70 50 -111t130 -41t154 64t87 160h-373l44 210h359q0 96 -51 149q-52 53 -132 53q-159 0 -219 -153h-309q51 199 192 307t363 109z" />
    <glyph glyph-name="iucyrillic" unicode="&#x44e;" horiz-adv-x="1820" 
d="M977 510q1 -276 195 -275q96 1 172 109t77 249q-1 141 -49 211t-133 71q-114 0 -188 -112q-74 -113 -74 -253zM1120 -33q-204 -1 -336 121t-145 334q0 13 1 19h-170l-94 -441h-335l236 1110h335l-89 -418h146q59 202 217 322t382 120t359 -136q134 -136 134 -371
q0 -189 -76 -339q-77 -150 -219 -235q-142 -86 -346 -86z" />
    <glyph glyph-name="iacyrillic" unicode="&#x44f;" horiz-adv-x="1211" 
d="M165 680q0 178 139 304t388 126h553l-236 -1110h-335l74 349h-84l-307 -349h-393l374 407q-82 41 -128 113q-46 70 -45 160zM639 576h157l61 284h-157q-88 0 -143 -48t-55 -110q0 -126 137 -126z" />
    <glyph glyph-name="iocyrillic" unicode="&#x451;" horiz-adv-x="1268" 
d="M1026 1257q-74 1 -120 45q-47 44 -47 114t47 115q46 45 120 45t121 -44t47 -116q0 -70 -47 -114t-121 -45zM536 1257q-74 1 -121 45t-47 114t47 115t121 45t120 -45t47 -115q0 -70 -47 -114q-46 -44 -120 -45zM882 713q0 78 -52 129t-140 51t-157 -59t-95 -157h441
q3 18 3 36zM590 -25q-218 1 -358 129q-138 128 -138 350q0 304 170 492t440 189q211 1 348 -129t137 -340q0 -80 -19 -185h-767v-24q0 -113 61 -175t146 -62q164 0 209 108h316q-39 -161 -183 -257t-362 -96z" />
    <glyph glyph-name="djecyrillic" unicode="&#x452;" horiz-adv-x="1362" 
d="M962 1135q152 1 246 -89t94 -236q0 -65 -14 -128l-150 -709q-34 -165 -152 -253t-310 -88q-84 0 -118 4l54 248q8 -2 49 -2q126 0 148 109l135 640q8 38 8 72q1 77 -49 121q-49 44 -131 43q-82 0 -149 -57t-88 -158l-139 -652h-334l267 1253h-188l35 167h189l21 98h332
l-21 -98h213l-36 -167h-213l-66 -307h19q122 189 348 189z" />
    <glyph glyph-name="gjecyrillic" unicode="&#x453;" horiz-adv-x="1006" 
d="M1015 859h-450l-183 -859h-335l236 1110h785zM555 1286l322 356h343l-365 -356h-300z" />
    <glyph glyph-name="ecyrillic" unicode="&#x454;" horiz-adv-x="1233" 
d="M610 -25q-224 1 -354 131q-128 130 -128 369q0 187 76 337t216 236t338 86t324 -111t136 -303h-311q-9 69 -55 111t-128 42t-150 -57t-88 -145h374l-43 -209h-362q-1 -104 50 -164t132 -60q155 0 216 151h312q-53 -196 -192 -305t-363 -109z" />
    <glyph glyph-name="dzecyrillic" unicode="&#x455;" horiz-adv-x="1166" 
d="M560 205q76 0 120 28q45 27 45 67q1 40 -23 62t-82 43l-175 61q-263 92 -263 303q0 165 131 265t343 101q212 -1 340 -93t137 -244h-303q-8 48 -55 77t-117 29t-113 -28q-44 -28 -44 -68q0 -38 26 -62t86 -44l191 -67q134 -47 194 -115t61 -174q1 -167 -137 -269
t-362 -102q-224 1 -364 97t-143 253h318q9 -53 61 -87t128 -33z" />
    <glyph glyph-name="icyrillic" unicode="&#x456;" horiz-adv-x="620" 
d="M512 1247q-86 -1 -138 41t-52 110t52 112q52 45 138 45q88 1 140 -41t51 -109q0 -67 -52 -113t-139 -45zM46 0l237 1110h335l-236 -1110h-336z" />
    <glyph glyph-name="yicyrillic" unicode="&#x457;" horiz-adv-x="608" 
d="M768 1257q-74 1 -121 45t-47 114t47 115t121 45t120 -44q47 -44 47 -116q0 -70 -47 -114q-46 -44 -120 -45zM276 1257q-74 1 -120 45q-47 44 -47 114t47 115t121 45q75 0 121 -45t46 -115t-47 -114t-121 -45zM36 0l236 1110h334l-236 -1110h-334z" />
    <glyph glyph-name="jecyrillic" unicode="&#x458;" horiz-adv-x="604" 
d="M516 1247q-86 -1 -138 41t-52 110t52 112q52 45 138 45q88 1 140 -41t51 -109q0 -67 -52 -113t-139 -45zM-84 -116q110 0 134 109l237 1117h334l-245 -1151q-32 -155 -146 -241t-285 -86q-73 0 -149 14l53 244q32 -6 67 -6z" />
    <glyph glyph-name="ljecyrillic" unicode="&#x459;" horiz-adv-x="1850" 
d="M1325 551h-154l-64 -300h154q86 0 143 53t57 118q0 129 -136 129zM66 273q126 0 200 273l149 564h875l-67 -311h187q177 0 283 -91t106 -239q0 -199 -150 -334t-379 -135h-552l183 859h-255l-91 -332q-74 -281 -185 -411t-303 -130q-86 0 -126 14l59 281q30 -8 66 -8z
" />
    <glyph glyph-name="njecyrillic" unicode="&#x45a;" horiz-adv-x="1899" 
d="M1431 729q191 0 301 -86t109 -225q-1 -176 -147 -297t-379 -121h-552l103 481h-389l-103 -481h-335l236 1110h335l-82 -384h389l82 384h335l-80 -381h177zM1305 245q89 0 143 41q54 42 55 96q0 106 -133 106h-167l-52 -243h154z" />
    <glyph glyph-name="tshecyrillic" unicode="&#x45b;" horiz-adv-x="1356" 
d="M923 1131q155 0 249 -89t94 -226q0 -62 -15 -133l-143 -683h-333l133 630q9 49 9 79q-1 72 -51 115t-132 43t-149 -58q-66 -58 -86 -150l-140 -659h-334l267 1253h-166l35 167h167l21 98h333l-21 -98h227l-36 -167h-227l-67 -311h19q119 189 346 189z" />
    <glyph glyph-name="kjecyrillic" unicode="&#x45c;" horiz-adv-x="1199" 
d="M1310 1110l-509 -529l279 -581h-366l-207 449h-53l-95 -449h-335l236 1110h335l-91 -425h48l380 425h378zM1299 1642l-365 -356h-300l322 356h343z" />
    <glyph glyph-name="ushortcyrillic" unicode="&#x45e;" horiz-adv-x="1228" 
d="M80 -406q-101 0 -137 4l53 257q8 -4 73 -4q168 0 214 107l15 36l-132 1116h342l41 -814h18l381 814h357l-610 -1131q-111 -209 -253 -297t-362 -88zM813 1453q69 -1 121 49t69 129h241q-36 -166 -154 -261t-299 -95q-181 -1 -275 99t-59 257h238q-15 -79 17 -129t101 -49
z" />
    <glyph glyph-name="dzhecyrillic" unicode="&#x45f;" horiz-adv-x="1312" 
d="M1104 0h-377l-61 -285h-303l61 285h-377l236 1110h335l-183 -859h387l183 859h335z" />
    <glyph glyph-name="Geupturncyrillic" unicode="&#x490;" horiz-adv-x="1225" 
d="M686 1161l-247 -1161h-347l307 1443h635l60 285h325l-120 -567h-613z" />
    <glyph glyph-name="geupturncyrillic" unicode="&#x491;" horiz-adv-x="998" 
d="M1022 859h-450l-183 -859h-335l236 1110h482l60 285h303z" />
    <glyph glyph-name="baht" unicode="&#xe3f;" horiz-adv-x="1415" 
d="M1294 456q0 -200 -152 -328t-388 -128h-103l-29 -136h-143l29 136h-461l307 1443h461l30 143h143l-30 -143q182 -1 294 -87t113 -226q-1 -140 -95 -244t-237 -122l-1 -19q118 -23 190 -101t72 -188zM642 1202l-74 -343h122l73 343h-121zM439 256h123l83 387h-123z
M958 466q0 161 -171 175l-82 -385q113 2 183 64t70 146zM1029 1059q0 114 -124 138l-71 -335q89 12 142 66t53 131z" />
    <glyph glyph-name="Aringbelow" unicode="&#x1e00;" horiz-adv-x="1501" 
d="M606 -426q43 0 71 28t28 71t-28 71t-71 28q-44 0 -72 -29t-28 -71t28 -70t72 -28zM606 -569q-108 0 -180 69t-71 174q0 105 71 173t180 68q110 1 180 -67t70 -174t-71 -174t-179 -69zM885 1126l-284 -546h348l-45 546h-19zM988 0l-27 326h-484l-170 -326h-358l810 1443
h415l173 -1443h-359z" />
    <glyph glyph-name="aringbelow" unicode="&#x1e01;" horiz-adv-x="1202" 
d="M500 -426q43 0 71 28t28 71t-28 71t-71 28q-44 0 -72 -29t-28 -71t28 -70t72 -28zM500 -569q-108 0 -180 69t-71 174q0 105 71 173t180 68q110 1 180 -67t70 -174t-71 -174t-179 -69zM376 -17q-140 0 -234 86t-93 216q1 170 133 270t367 107l263 7l14 68q5 23 5 36
q-1 52 -45 82t-120 30q-133 0 -175 -88h-308q35 154 173 246t340 92q204 0 333 -91t129 -240q0 -46 -9 -89l-152 -715h-324l29 135h-19q-43 -70 -127 -111t-180 -41zM532 220q74 0 138 48t81 119l19 88l-206 -8q-89 -3 -140 -39t-51 -90t42 -86q43 -32 117 -32z" />
    <glyph glyph-name="Bdotaccent" unicode="&#x1e02;" horiz-adv-x="1420" 
d="M725 256q117 0 192 62t75 151q0 174 -213 174h-231l-82 -387h259zM814 859q108 0 178 56t70 134q0 153 -190 153h-203l-74 -343h219zM792 0h-727l307 1443h621q186 1 301 -85t115 -227q-1 -141 -95 -245t-237 -122l-1 -19q122 -23 192 -101t70 -188q0 -200 -154 -328
t-392 -128zM910 1581q-76 0 -124 47q-48 48 -47 120q-1 72 47 120t124 47q76 1 122 -47q47 -48 47 -120t-47 -120q-46 -47 -122 -47z" />
    <glyph glyph-name="bdotaccent" unicode="&#x1e03;" horiz-adv-x="1339" 
d="M664 253q118 0 201 114t83 281q0 103 -52 160t-135 57q-119 -1 -203 -117t-84 -275q0 -104 53 -162t137 -58zM762 -17q-135 0 -226 60t-117 157h-19l-43 -200h-325l325 1528h334l-122 -575l20 2q112 172 330 172q167 -1 271 -115t104 -314t-72 -364q-72 -166 -199 -258
q-126 -92 -261 -93zM606 1666q-76 0 -122 47q-48 47 -48 119t48 120t122 48q76 0 123 -48t47 -120t-47 -119t-123 -47z" />
    <glyph glyph-name="Bdotbelow" unicode="&#x1e04;" horiz-adv-x="1420" 
d="M725 256q117 0 192 62t75 151q0 174 -213 174h-231l-82 -387h259zM814 859q108 0 178 56t70 134q0 153 -190 153h-203l-74 -343h219zM792 0h-727l307 1443h621q186 1 301 -85t115 -227q-1 -141 -95 -245t-237 -122l-1 -19q122 -23 192 -101t70 -188q0 -200 -154 -328
t-392 -128zM498 -423q-78 0 -123 40q-46 40 -46 104t46 104q45 40 123 40t124 -40t46 -104t-46 -104t-124 -40z" />
    <glyph glyph-name="bdotbelow" unicode="&#x1e05;" horiz-adv-x="1339" 
d="M664 253q118 0 201 114t83 281q0 103 -52 160t-135 57q-119 -1 -203 -117t-84 -275q0 -104 53 -162t137 -58zM762 -17q-135 0 -226 60t-117 157h-19l-43 -200h-325l325 1528h334l-122 -575l20 2q112 172 330 172q167 -1 271 -115t104 -314t-72 -364q-72 -166 -199 -258
q-126 -92 -261 -93zM492 -419q-78 0 -124 40t-46 104t46 104t124 40t123 -40q46 -40 46 -104t-46 -104q-45 -40 -123 -40z" />
    <glyph glyph-name="Blinebelow" unicode="&#x1e06;" horiz-adv-x="1420" 
d="M856 -415h-770l40 192h771zM725 256q117 0 192 62t75 151q0 174 -213 174h-231l-82 -387h259zM814 859q108 0 178 56t70 134q0 153 -190 153h-203l-74 -343h219zM792 0h-727l307 1443h621q186 1 301 -85t115 -227q-1 -141 -95 -245t-237 -122l-1 -19q122 -23 192 -101
t70 -188q0 -200 -154 -328t-392 -128z" />
    <glyph glyph-name="blinebelow" unicode="&#x1e07;" horiz-adv-x="1339" 
d="M664 253q118 0 201 114t83 281q0 103 -52 160t-135 57q-119 -1 -203 -117t-84 -275q0 -104 53 -162t137 -58zM762 -17q-135 0 -226 60t-117 157h-19l-43 -200h-325l325 1528h334l-122 -575l20 2q112 172 330 172q167 -1 271 -115t104 -314t-72 -364q-72 -166 -199 -258
q-126 -92 -261 -93zM849 -411h-770l40 192h771z" />
    <glyph glyph-name="Ccedillaacute" unicode="&#x1e08;" horiz-adv-x="1534" 
d="M947 1187q-198 0 -323 -170q-124 -170 -124 -424q0 -157 77 -247t201 -91t216 63t125 167h337q-40 -211 -197 -349t-387 -167l-54 -83q151 -29 151 -166q0 -100 -73 -158t-190 -58t-195 35l30 139q65 -26 146 -26t81 54q0 59 -110 59h-57l18 123l52 79q-242 26 -383 188
t-141 421q0 258 103 466q102 208 286 324t416 115q166 0 302 -67q136 -66 215 -184q78 -118 78 -261q0 -34 -3 -53h-334q1 3 1 17q-4 114 -81 184t-183 70zM1497 1918l-376 -323h-304l333 323h347z" />
    <glyph glyph-name="ccedillaacute" unicode="&#x1e09;" horiz-adv-x="1214" 
d="M1193 716h-312q-3 74 -53 116t-126 42q-120 0 -196 -117t-76 -293q0 -112 53 -170t131 -57q161 0 209 153h314q-24 -158 -143 -272t-306 -137l-62 -95q151 -29 151 -166q0 -100 -73 -158t-190 -58t-195 35l30 139q65 -26 146 -26t81 54q0 59 -110 59h-57l18 123l62 95
q-181 29 -285 151t-104 314t76 348q76 157 220 248q143 91 340 91t323 -115q125 -115 133 -261q1 -13 1 -43zM1257 1642l-365 -356h-300l322 356h343z" />
    <glyph glyph-name="Ddotaccent" unicode="&#x1e0a;" horiz-adv-x="1535" 
d="M712 281q194 0 317 150t123 396q0 155 -82 245t-226 90h-174l-187 -881h229zM931 1443q269 0 423 -153t154 -412t-96 -457q-96 -197 -268 -309q-173 -112 -392 -112h-678l306 1443h551zM916 1581q-76 0 -122 47q-48 48 -48 120t48 120t122 47q76 1 123 -47t47 -120
t-47 -120q-47 -47 -123 -47z" />
    <glyph glyph-name="ddotaccent" unicode="&#x1e0b;" horiz-adv-x="1337" 
d="M628 245q118 1 202 117t84 275q0 103 -53 161t-137 58q-120 0 -203 -111t-83 -277q0 -104 54 -164t136 -59zM471 -17q-169 -1 -274 115t-105 317t74 365t202 256t266 91t219 -57t108 -146h20l128 604h335l-325 -1528h-325l33 155h-19q-124 -172 -337 -172zM1354 1666
q-76 0 -122 47q-48 47 -48 119t48 120t122 48q76 0 123 -48t47 -120t-47 -119t-123 -47z" />
    <glyph glyph-name="Ddotbelow" unicode="&#x1e0c;" horiz-adv-x="1535" 
d="M712 281q194 0 317 150t123 396q0 155 -82 245t-226 90h-174l-187 -881h229zM931 1443q269 0 423 -153t154 -412t-96 -457q-96 -197 -268 -309q-173 -112 -392 -112h-678l306 1443h551zM552 -423q-78 0 -124 40t-46 104t46 104t124 40t123 -40q46 -40 46 -104t-46 -104
q-45 -40 -123 -40z" />
    <glyph glyph-name="ddotbelow" unicode="&#x1e0d;" horiz-adv-x="1337" 
d="M628 245q118 1 202 117t84 275q0 103 -53 161t-137 58q-120 0 -203 -111t-83 -277q0 -104 54 -164t136 -59zM471 -17q-169 -1 -274 115t-105 317t74 365t202 256t266 91t219 -57t108 -146h20l128 604h335l-325 -1528h-325l33 155h-19q-124 -172 -337 -172zM608 -423
q-78 0 -124 40t-46 104t46 104t124 40t123 -40q46 -40 46 -104t-46 -104q-45 -40 -123 -40z" />
    <glyph glyph-name="Dlinebelow" unicode="&#x1e0e;" horiz-adv-x="1535" 
d="M712 281q194 0 317 150t123 396q0 155 -82 245t-226 90h-174l-187 -881h229zM931 1443q269 0 423 -153t154 -412t-96 -457q-96 -197 -268 -309q-173 -112 -392 -112h-678l306 1443h551zM909 -415h-770l40 192h771z" />
    <glyph glyph-name="dlinebelow" unicode="&#x1e0f;" horiz-adv-x="1337" 
d="M628 245q118 1 202 117t84 275q0 103 -53 161t-137 58q-120 0 -203 -111t-83 -277q0 -104 54 -164t136 -59zM471 -17q-169 -1 -274 115t-105 317t74 365t202 256t266 91t219 -57t108 -146h20l128 604h335l-325 -1528h-325l33 155h-19q-124 -172 -337 -172zM965 -415h-770
l40 192h771z" />
    <glyph glyph-name="Dcommaaccent" unicode="&#x1e10;" horiz-adv-x="1535" 
d="M712 281q194 0 317 150t123 396q0 155 -82 245t-226 90h-174l-187 -881h229zM931 1443q269 0 423 -153t154 -412t-96 -457q-96 -197 -268 -309q-173 -112 -392 -112h-678l306 1443h551zM558 -507h-291l169 352h331z" />
    <glyph glyph-name="dcommaaccent" unicode="&#x1e11;" horiz-adv-x="1337" 
d="M628 245q118 1 202 117t84 275q0 103 -53 161t-137 58q-120 0 -203 -111t-83 -277q0 -104 54 -164t136 -59zM471 -17q-169 -1 -274 115t-105 317t74 365t202 256t266 91t219 -57t108 -146h20l128 604h335l-325 -1528h-325l33 155h-19q-124 -172 -337 -172zM614 -507h-291
l169 352h331z" />
    <glyph glyph-name="Dcircumflexbelow" unicode="&#x1e12;" horiz-adv-x="1535" 
d="M757 -154l183 -278h-285l-92 155h-18l-165 -155h-310l317 278h370zM712 281q194 0 317 150t123 396q0 155 -82 245t-226 90h-174l-187 -881h229zM931 1443q269 0 423 -153t154 -412t-96 -457q-96 -197 -268 -309q-173 -112 -392 -112h-678l306 1443h551z" />
    <glyph glyph-name="dcircumflexbelow" unicode="&#x1e13;" horiz-adv-x="1337" 
d="M813 -154l183 -278h-285l-92 155h-18l-165 -155h-310l317 278h370zM628 245q118 1 202 117t84 275q0 103 -53 161t-137 58q-120 0 -203 -111t-83 -277q0 -104 54 -164t136 -59zM471 -17q-169 -1 -274 115t-105 317t74 365t202 256t266 91t219 -57t108 -146h20l128 604
h335l-325 -1528h-325l33 155h-19q-124 -172 -337 -172z" />
    <glyph glyph-name="Emacrongrave" unicode="&#x1e14;" horiz-adv-x="1274" 
d="M1109 282l-59 -282h-979l307 1443h978l-60 -282h-631l-65 -305h594l-55 -259h-594l-68 -315h632zM1109 1926h-278l-110 275h309zM1299 1608h-771l41 190h770z" />
    <glyph glyph-name="emacrongrave" unicode="&#x1e15;" horiz-adv-x="1248" 
d="M1147 1316h-757l40 192h757zM996 1658h-269l-240 313h313zM889 713q1 78 -51 129t-140 51t-158 -59q-69 -59 -95 -157h441q3 18 3 36zM596 -25q-218 1 -356 129t-139 350q-1 304 169 492t441 189q211 1 348 -129t137 -340q0 -80 -19 -185h-767v-24q0 -113 61 -175
t146 -62q164 0 209 108h316q-40 -161 -184 -257t-362 -96z" />
    <glyph glyph-name="Emacronacute" unicode="&#x1e16;" horiz-adv-x="1274" 
d="M1109 282l-59 -282h-979l307 1443h978l-60 -282h-631l-65 -305h594l-55 -259h-594l-68 -315h632zM853 1926l195 275h309l-226 -275h-278zM1299 1608h-771l41 190h770z" />
    <glyph glyph-name="emacronacute" unicode="&#x1e17;" horiz-adv-x="1248" 
d="M1148 1316h-757l40 192h757zM687 1658l235 313h316l-279 -313h-272zM889 713q1 78 -51 129t-140 51t-158 -59q-69 -59 -95 -157h441q3 18 3 36zM596 -25q-218 1 -356 129t-139 350q-1 304 169 492t441 189q211 1 348 -129t137 -340q0 -80 -19 -185h-767v-24
q0 -113 61 -175t146 -62q164 0 209 108h316q-40 -161 -184 -257t-362 -96z" />
    <glyph glyph-name="Ecircumflexbelow" unicode="&#x1e18;" horiz-adv-x="1274" 
d="M717 -154l183 -278h-285l-92 155h-18l-165 -155h-310l317 278h370zM1109 282l-59 -282h-979l307 1443h978l-60 -282h-631l-65 -305h594l-55 -259h-594l-68 -315h632z" />
    <glyph glyph-name="ecircumflexbelow" unicode="&#x1e19;" horiz-adv-x="1248" 
d="M766 -154l183 -278h-285l-92 155h-18l-165 -155h-310l317 278h370zM889 713q1 78 -51 129t-140 51t-158 -59q-69 -59 -95 -157h441q3 18 3 36zM596 -25q-218 1 -356 129t-139 350q-1 304 169 492t441 189q211 1 348 -129t137 -340q0 -80 -19 -185h-767v-24
q0 -113 61 -175t146 -62q164 0 209 108h316q-40 -161 -184 -257t-362 -96z" />
    <glyph glyph-name="Etildebelow" unicode="&#x1e1a;" horiz-adv-x="1274" 
d="M1109 282l-59 -282h-979l307 1443h978l-60 -282h-631l-65 -305h594l-55 -259h-594l-68 -315h632zM368 -306q-79 0 -91 -94h-195q17 130 91 202t176 72q103 0 183 -64q80 -63 127 -63q80 0 92 102h195q-16 -133 -90 -207t-179 -74t-181 63t-128 63z" />
    <glyph glyph-name="etildebelow" unicode="&#x1e1b;" horiz-adv-x="1248" 
d="M889 713q1 78 -51 129t-140 51t-158 -59q-69 -59 -95 -157h441q3 18 3 36zM596 -25q-218 1 -356 129t-139 350q-1 304 169 492t441 189q211 1 348 -129t137 -340q0 -80 -19 -185h-767v-24q0 -113 61 -175t146 -62q164 0 209 108h316q-40 -161 -184 -257t-362 -96z
M417 -306q-79 0 -91 -94h-195q17 130 91 202t176 72t182 -64q80 -63 128 -63q80 0 92 102h195q-17 -133 -91 -207t-178 -74q-105 0 -181 63t-128 63z" />
    <glyph glyph-name="Ecedillabreve" unicode="&#x1e1c;" horiz-adv-x="1273" 
d="M769 -280q0 -100 -73 -158t-190 -58t-195 35l30 139q65 -26 146 -26t81 54q0 59 -110 59h-57l18 123l73 112h-421l307 1443h978l-60 -282h-631l-65 -305h594l-55 -259h-594l-68 -315h632l-59 -282h-358l-74 -114q151 -29 151 -166zM931 1581q-175 -1 -287 87t-112 221
q0 21 3 37h224q-1 -8 -1 -23q0 -62 50 -102t126 -40q165 0 199 165h224q-21 -157 -135 -251t-291 -94z" />
    <glyph glyph-name="ecedillabreve" unicode="&#x1e1d;" horiz-adv-x="1248" 
d="M101 454q-1 304 169 492t441 189q211 1 348 -129t137 -340q0 -80 -19 -185h-767v-24q0 -113 61 -175t146 -62q164 0 209 108h316q-35 -138 -147 -230t-278 -115l-63 -97q151 -29 151 -166q0 -100 -73 -158t-190 -58t-195 35l30 139q65 -26 146 -26t81 54q0 59 -110 59
h-57l18 123l61 93q-191 25 -303 149t-112 324zM889 713q1 78 -51 129t-140 51t-158 -59q-69 -59 -95 -157h441q3 18 3 36zM798 1257q-182 0 -292 88t-110 222q0 27 4 47h224q-1 -9 -1 -29q0 -65 49 -106t127 -41q176 0 205 176h224q-16 -164 -132 -260t-298 -97z" />
    <glyph glyph-name="Fdotaccent" unicode="&#x1e1e;" horiz-adv-x="1223" 
d="M418 0h-347l307 1443h970l-60 -282h-623l-74 -346h567l-58 -269h-566zM942 1581q-76 0 -122 47q-48 48 -48 120t48 120t122 47q76 1 123 -47t47 -120t-47 -120q-47 -47 -123 -47z" />
    <glyph glyph-name="fdotaccent" unicode="&#x1e1f;" horiz-adv-x="836" 
d="M780 1519q116 0 205 -25l-48 -220q-40 12 -112 12q-114 0 -135 -104l-18 -86h224l-53 -251h-217l-179 -845h-336l180 845h-172l53 251h169l27 130q32 153 132 223t280 70zM756 1631q-76 0 -124 47q-48 48 -47 120q-1 72 47 120t124 47q76 1 122 -47q47 -48 47 -120
t-47 -120q-46 -47 -122 -47z" />
    <glyph glyph-name="Gmacron" unicode="&#x1e20;" horiz-adv-x="1567" 
d="M1383 1636h-770l40 192h771zM786 -38q-286 0 -456 168t-170 447q0 197 60 365t164 288q105 118 254 184q148 66 316 67q168 0 304 -63t224 -183t75 -262h-334q-4 93 -84 153t-199 60q-184 0 -306 -166t-121 -422q0 -157 80 -249t213 -92t225 68t114 181l4 17h-274l51 243
h609l-35 -181q-58 -303 -244 -463q-184 -160 -470 -160z" />
    <glyph glyph-name="gmacron" unicode="&#x1e21;" horiz-adv-x="1327" 
d="M626 255q118 -1 200 111t82 271q0 99 -52 159t-140 60q-119 0 -199 -108t-80 -271q-1 -102 51 -162t138 -60zM516 -419q-238 0 -384 96q-144 96 -139 246h328q5 -51 61 -83t150 -31q203 0 241 174l42 193l-18 1q-107 -154 -324 -154q-167 0 -273 114q-106 113 -105 301
q0 188 73 347q74 159 200 251t258 91q132 0 220 -57q87 -57 117 -151h18l42 191h325l-246 -1152q-38 -177 -193 -277t-393 -100zM1156 1324h-757l40 192h757z" />
    <glyph glyph-name="Hdotaccent" unicode="&#x1e22;" horiz-adv-x="1606" 
d="M1098 1581q-76 0 -124 47q-48 48 -47 120q-1 72 47 120t124 47q76 1 122 -47q47 -48 47 -120t-47 -120q-46 -47 -122 -47zM1353 0h-348l126 589h-598l-126 -589h-346l307 1443h347l-122 -572h598l122 572h347z" />
    <glyph glyph-name="hdotaccent" unicode="&#x1e23;" horiz-adv-x="1321" 
d="M602 1656q-76 0 -122 47q-48 47 -48 119t48 120t122 48q76 0 123 -48t47 -120t-47 -119t-123 -47zM930 1131q155 0 249 -89t94 -226q0 -62 -15 -133l-143 -683h-333l133 630q9 49 9 79q0 72 -50 115t-134 43q-82 0 -148 -58t-86 -150l-140 -659h-334l324 1518h333
l-124 -576h19q119 189 346 189z" />
    <glyph glyph-name="Hdotbelow" unicode="&#x1e24;" horiz-adv-x="1606" 
d="M662 -423q-78 0 -124 40t-46 104t46 104t124 40t123 -40q46 -40 46 -104t-46 -104q-45 -40 -123 -40zM1353 0h-348l126 589h-598l-126 -589h-346l307 1443h347l-122 -572h598l122 572h347z" />
    <glyph glyph-name="hdotbelow" unicode="&#x1e25;" horiz-adv-x="1321" 
d="M532 -423q-78 0 -124 40t-46 104t46 104t124 40t123 -40q46 -40 46 -104t-46 -104q-45 -40 -123 -40zM930 1131q155 0 249 -89t94 -226q0 -62 -15 -133l-143 -683h-333l133 630q9 49 9 79q0 72 -50 115t-134 43q-82 0 -148 -58t-86 -150l-140 -659h-334l324 1518h333
l-124 -576h19q119 189 346 189z" />
    <glyph glyph-name="Hdieresis" unicode="&#x1e26;" horiz-adv-x="1606" 
d="M1344 1581q-74 1 -121 45t-47 114t47 115t121 45t120 -44q47 -44 47 -116q0 -70 -47 -114q-46 -44 -120 -45zM852 1581q-74 1 -120 45q-47 44 -47 114t47 115t121 45q75 0 121 -45t46 -115t-47 -114t-121 -45zM1353 0h-348l126 589h-598l-126 -589h-346l307 1443h347
l-122 -572h598l122 572h347z" />
    <glyph glyph-name="hdieresis" unicode="&#x1e27;" horiz-adv-x="1321" 
d="M848 1656q-74 0 -120 44q-47 44 -47 115q0 70 47 115q46 45 120 45q74 -1 121 -45t47 -114t-47 -116q-47 -44 -121 -44zM358 1656q-74 0 -121 44t-47 115q0 70 47 115t121 45t120 -45t47 -115q0 -71 -47 -115q-46 -44 -120 -44zM930 1131q155 0 249 -89t94 -226
q0 -62 -15 -133l-143 -683h-333l133 630q9 49 9 79q0 72 -50 115t-134 43q-82 0 -148 -58t-86 -150l-140 -659h-334l324 1518h333l-124 -576h19q119 189 346 189z" />
    <glyph glyph-name="Hcedilla" unicode="&#x1e28;" horiz-adv-x="1605" 
d="M434 -280q0 -100 -73 -158t-190 -58t-195 35l30 139q65 -26 146 -26t81 54q0 59 -110 59h-57l18 123l73 112h-96l307 1443h347l-122 -572h598l122 572h347l-307 -1443h-348l126 589h-598l-126 -589h-50l-74 -114q151 -29 151 -166z" />
    <glyph glyph-name="hcedilla" unicode="&#x1e29;" horiz-adv-x="1321" 
d="M930 1131q155 0 249 -89t94 -226q0 -62 -15 -133l-143 -683h-333l133 630q9 49 9 79q0 72 -50 115t-134 43q-82 0 -148 -58t-86 -150l-140 -659h-44l-74 -114q151 -29 151 -166q0 -100 -73 -158t-190 -58t-195 35l30 139q65 -26 146 -26t81 54q0 59 -110 59h-57l18 123
l73 112h-90l324 1518h333l-124 -576h19q119 189 346 189z" />
    <glyph glyph-name="Hbrevebelow" unicode="&#x1e2a;" horiz-adv-x="1606" 
d="M1353 0h-348l126 589h-598l-126 -589h-346l307 1443h347l-122 -572h598l122 572h347zM679 -430q-174 0 -285 88t-111 221v16h227q4 -64 52 -104t122 -40q76 -1 128 37t67 107h226q-21 -149 -137 -237t-289 -88z" />
    </font>
</defs>
</svg>
