<?xml version="1.0" encoding="UTF-8"?>
<svg width="16px" height="16px" viewBox="0 0 16 16" version="1.1" xmlns="http://www.w3.org/2000/svg" xmlns:xlink="http://www.w3.org/1999/xlink" xmlns:sketch="http://www.bohemiancoding.com/sketch/ns">
    <!-- Generator: Sketch 3.3 (11970) - http://www.bohemiancoding.com/sketch -->
    <title>appointment-document-type__btn-help</title>
    <desc>Created with Sketch.</desc>
    <defs></defs>
    <g id="Page-1" stroke="none" stroke-width="1" fill="none" fill-rule="evenodd" sketch:type="MSPage">
        <g id="appointment-document-type__btn-help" sketch:type="MSLayerGroup">
            <path d="M8,15.5 C12.1421356,15.5 15.5,12.1421356 15.5,8 C15.5,3.85786438 12.1421356,0.5 8,0.5 C3.85786438,0.5 0.5,3.85786438 0.5,8 C0.5,12.1421356 3.85786438,15.5 8,15.5 L8,15.5 Z M8,14.5 C4.41014913,14.5 1.5,11.5898509 1.5,8 C1.5,4.41014913 4.41014913,1.5 8,1.5 C11.5898509,1.5 14.5,4.41014913 14.5,8 C14.5,11.5898509 11.5898509,14.5 8,14.5 L8,14.5 Z" id="Shape" fill="#9AB1C4" sketch:type="MSShapeGroup"></path>
            <path d="M6.693,6.265 C6.70401076,5.98649842 6.83626458,5.72674023 7.055,5.554 C7.30490688,5.36864841 7.61120268,5.27538186 7.922,5.29 C8.22757444,5.27582053 8.52955837,5.36069871 8.783,5.532 C8.98843917,5.66831644 9.11078965,5.89946473 9.108,6.146 C9.11522298,6.37356326 9.03466383,6.59519042 8.883,6.765 C8.64260295,6.99592522 8.3641919,7.18367507 8.06,7.32 C7.6969885,7.48193431 7.38134813,7.73389586 7.143,8.052 C6.9563226,8.36742633 6.88360205,8.73738329 6.937,9.1 L6.949,9.4 L8.6,9.4 L8.6,9.112 C8.59077197,8.88052986 8.66854378,8.65399271 8.818,8.477 C9.06432671,8.24276895 9.34959588,8.0532663 9.661,7.917 C10.4319225,7.63545518 10.9593697,6.91971833 11,6.1 C11.0072441,5.48752416 10.7004653,4.91396483 10.187,4.58 C9.54804124,4.16622011 8.79535485,3.96335853 8.035,4 C7.24502412,3.95552271 6.46296513,4.17735845 5.814,4.63 C5.29884534,5.01516569 4.99683479,5.62178392 5,6.265 L6.69,6.265 L6.693,6.265 Z M7.841,12 C8.13807132,12.0162259 8.43152704,11.9285428 8.671,11.752 C8.87126448,11.5899362 8.98261684,11.3423628 8.971,11.085 C8.9819841,10.8260507 8.87093437,10.5769292 8.671,10.412 C8.43139498,10.2358125 8.13795102,10.1484864 7.841,10.165 C7.54404898,10.1484864 7.25060502,10.2358125 7.011,10.412 C6.8079216,10.5750172 6.6943484,10.824804 6.705,11.085 C6.69299682,11.3437624 6.80702801,11.5923206 7.011,11.752 C7.25047296,11.9285428 7.54392868,12.0162259 7.841,12 L7.841,12 L7.841,12 Z" id="_" opacity="0.8" fill="#73838C" sketch:type="MSShapeGroup"></path>
        </g>
    </g>
</svg>