<svg xmlns="http://www.w3.org/2000/svg" width="12" height="16" viewBox="0 0 12 16">
  <defs>
    <style>
      .cls-1 {
        fill: #9ab1c4;
        fill-rule: evenodd;
      }
    </style>
  </defs>
  <path id="ico_pin.png_копия_2" data-name="ico_pin.png копия 2" class="cls-1" d="M1435.71,71.98a3.787,3.787,0,0,0-.28-0.64A5.9,5.9,0,0,0,1429.92,68,5.71,5.71,0,0,0,1424,72.96v0.683c0,0.029.01,0.286,0.02,0.413,0.22,1.593,1.59,3.285,2.61,4.878,1.1,1.707,2.24,3.386,3.37,5.064,0.7-1.1,1.39-2.205,2.07-3.273,0.19-.312.4-0.625,0.59-0.924,0.12-.2.36-0.4,0.47-0.583,1.1-1.849,2.87-3.712,2.87-5.547V72.919A4.906,4.906,0,0,0,1435.71,71.98Zm-5.74,3.428a2.123,2.123,0,0,1-2.04-1.337,1.5,1.5,0,0,1-.06-0.5v-0.44a1.96,1.96,0,0,1,2.16-1.819,2.107,2.107,0,0,1,2.2,2.048A2.169,2.169,0,0,1,1429.97,75.408Z" transform="translate(-1424 -68)"/>
</svg>
