<svg xmlns="http://www.w3.org/2000/svg" width="14" height="20" viewBox="0 0 14 20">
  <defs>
    <style>
      .cls-1 {
        fill: #9ab1c4;
        fill-rule: evenodd;
      }
    </style>
  </defs>
  <path id="ico_pin.png" class="cls-1" d="M1634.67,771.975a7.143,7.143,0,0,0-.33-0.8A6.987,6.987,0,0,0,1621,773.2v0.853c0,0.036.01,0.356,0.03,0.517,0.25,1.989,1.85,4.106,3.04,6.1,1.28,2.134,2.61,4.233,3.93,6.33,0.82-1.369,1.63-2.756,2.42-4.089,0.22-.391.47-0.781,0.68-1.156,0.15-.249.43-0.5,0.55-0.729,1.28-2.311,3.35-4.64,3.35-6.933v-0.942A6.837,6.837,0,0,0,1634.67,771.975Zm-6.71,4.284a2.49,2.49,0,0,1-2.38-1.67,2.454,2.454,0,0,1-.07-0.624v-0.55a2.34,2.34,0,0,1,2.53-2.274,2.537,2.537,0,0,1,2.56,2.559A2.606,2.606,0,0,1,1627.96,776.259Z" transform="translate(-1621 -767)"/>
</svg>
