<svg xmlns="http://www.w3.org/2000/svg" width="31" height="31" viewBox="0 0 31 31">
  <defs>
    <style>
      .cls-1 {
        fill: #f7f7f7;
      }

      .cls-2 {
        fill: #1a1a1a;
        fill-rule: evenodd;
      }

      .cls-3 {
        fill: none;
        stroke: #9ab1c4;
        stroke-width: 1px;
      }
    </style>
  </defs>
  <rect class="cls-1" x="0.5" y="0.5" width="30" height="30"/>
  <path id="_копия" data-name="? копия" class="cls-2" d="M515.286,41.47H516.7a1.481,1.481,0,0,1,1.613-1.429,1.367,1.367,0,0,1,1.545,1.3,1.719,1.719,0,0,1-1.121,1.579,2.23,2.23,0,0,0-1.319,2.16l0.007,0.52h1.415v-0.41a1.664,1.664,0,0,1,1.135-1.572,2.613,2.613,0,0,0,1.435-2.338c0-1.483-1.217-2.557-3.021-2.557A2.789,2.789,0,0,0,515.286,41.47Zm2.933,7.355a1.046,1.046,0,1,0-1.06-1.039A0.99,0.99,0,0,0,518.219,48.825Z" transform="translate(-502.5 -28.5)"/>
  <circle id="Эллипс_739_копия" data-name="Эллипс 739 копия" class="cls-3" cx="15.5" cy="15.5" r="15"/>
</svg>
