<svg xmlns="http://www.w3.org/2000/svg" viewBox="0 0 211.53 32"><title>Asset 1</title><g id="Layer_2" data-name="Layer 2"><g id="Layer_1-2" data-name="Layer 1"><path d="M13.13,8.55l-2.6,10.91L8,8.55H1.56L0,25.49H4.89l.44-6.06c.1-2.17.14-4.14,0-6.41L8.25,23.77h4.54l3-10.75c-.06,2.42,0,4.23.19,6.4l.47,6.07h4.85L19.68,8.55Z"/><path d="M31.45,8c-5.3,0-8.51,3.57-8.51,9,0,5.71,3.24,9,8.51,9S40,22.46,40,17C40,11.32,36.75,8,31.45,8Zm0,14.32c-2.09,0-3.14-1.56-3.14-5.33s1-5.3,3.14-5.3,3.14,1.56,3.14,5.33S33.54,22.33,31.45,22.33Z"/><path d="M50.16,8C44.89,8,42,12,42,17.1,42,22.39,45,26,50.78,26a10.85,10.85,0,0,0,6.77-2.36l-2.13-2.81a7.15,7.15,0,0,1-4.16,1.5c-2.13,0-3.6-.83-4-3.86H58.07a16.51,16.51,0,0,0,.1-1.82C58.17,11.2,55.13,8,50.16,8Zm2.94,7.46H47.31c.23-3,1.24-4.12,3-4.12,2.06,0,2.78,1.6,2.81,3.89Z"/><path d="M46.43,5a2.55,2.55,0,0,0,2.65-2.52,2.65,2.65,0,0,0-5.3,0A2.57,2.57,0,0,0,46.43,5Z"/><path d="M54,5a2.55,2.55,0,0,0,2.65-2.52,2.65,2.65,0,0,0-5.3,0A2.57,2.57,0,0,0,54,5Z"/><path d="M77.44,16.46c2.52-.64,3.8-1.85,3.8-3.8,0-2.93-3-4.66-6.81-4.66-2.85,0-4.06.26-6.07,1.55l1.52,3.07a6.72,6.72,0,0,1,3.79-1.15c1.37,0,2.32.51,2.32,1.72s-1,1.95-2.65,1.95h-2L71,18.41h2.72c1.9,0,3,.54,3,1.91s-1.11,2.11-2.88,2.11a7.52,7.52,0,0,1-4.42-1.31L67.89,24.3C69.73,25.61,71.09,26,74,26c4.68,0,8-1.79,8-5.42C82.09,18.12,80.45,16.87,77.44,16.46Z"/><path d="M99.19,8.55H86.93l-.49,5.74c-.49,5.81-1.18,6.76-2.19,7.5H83.16v9h3.78l.38-5.3h9.55l.44,5.3H101v-9H99.19ZM94.35,21.79H88.1c1.9-1.05,2.65-2.87,3.08-7.94l.16-2h3Z"/><path d="M110.87,8c-5.3,0-8.51,3.57-8.51,9,0,5.71,3.24,9,8.51,9s8.51-3.57,8.51-9C119.38,11.32,116.17,8,110.87,8Zm0,14.32c-2.09,0-3.14-1.56-3.14-5.33s1-5.3,3.14-5.3S114,13.27,114,17,113,22.33,110.87,22.33Z"/><path d="M149.51,8c-5.3,0-8.51,3.57-8.51,9,0,5.71,3.24,9,8.51,9S158,22.46,158,17C158,11.32,154.81,8,149.51,8Zm0,14.32c-2.09,0-3.14-1.56-3.14-5.33s1-5.3,3.14-5.3,3.14,1.56,3.14,5.33S151.6,22.33,149.51,22.33Z"/><path d="M171.78,16.17c2.55-.51,3.66-1.79,3.66-3.64,0-3-2.91-4.53-7.49-4.53a38.12,38.12,0,0,0-6.87.7V25.49h7.36c4.55,0,7.75-1.53,7.75-5.07C176.2,18,174.83,16.52,171.78,16.17Zm-5.53-4.85a14,14,0,0,1,1.64-.1c1.6,0,2.45.64,2.45,1.95s-.92,2-2.32,2h-1.77Zm1.83,10.85h-1.83V17.83h2.06c1.57,0,2.58.61,2.58,2.17S169.62,22.17,168.09,22.17Z"/><path d="M185.72,13.81h-1.24V8.55h-5.17V25.49h7.16c4.22,0,7.36-1.91,7.36-5.81S191.44,13.81,185.72,13.81Zm.2,8.36h-1.44V17h1.15c2.19,0,2.94.89,2.94,2.55A2.33,2.33,0,0,1,185.91,22.17Z"/><path d="M211.53,16.68c0-5.49-3-8.68-8-8.68-5.27,0-8.11,4-8.11,9.09,0,5.3,2.94,8.93,8.74,8.93a10.85,10.85,0,0,0,6.77-2.36l-2.13-2.81a7.15,7.15,0,0,1-4.16,1.5c-2.13,0-3.6-.83-4-3.86h10.76A16.43,16.43,0,0,0,211.53,16.68Zm-5.07-1.21h-5.79c.23-3,1.24-4.12,3-4.12,2.06,0,2.78,1.6,2.81,3.89Z"/><path d="M132.13,8.12a5.57,5.57,0,0,0-5,2.24c-.76-1.92-4.1-1.61-4.1-1.61-1.85.1-2.31.08-2.31.08v3.35l1.14.09a.59.59,0,0,1,.56.49V32h5.1l.07-7.72A5.49,5.49,0,0,0,131.84,26c4.29,0,6.9-3.83,6.9-9.06S136.82,8.34,132.13,8.12Zm-1.86,14.21a3.09,3.09,0,0,1-2.65-1.5V13.68a3.52,3.52,0,0,1,2.91-2c1.8,0,2.85,1.12,2.85,5.33C133.38,20.83,132.2,22.33,130.27,22.33Z"/></g></g></svg>