<svg xmlns="http://www.w3.org/2000/svg" width="27" height="15" viewBox="0 0 27 15">
  <defs>
    <style>
      .cls-1 {
        fill: #fcfcfc;
        opacity: 0;
      }

      .cls-2 {
        fill: #9ab1c4;
        fill-rule: evenodd;
      }
    </style>
  </defs>
  <rect class="cls-1" width="27" height="15"/>
  <path id="ico_date.png_копия_2" data-name="ico_date.png копия 2" class="cls-2" d="M1151,1457.58h4v4h-4v-4Zm5,0h4v4h-4v-4Zm5,0h4v4h-4v-4Zm-10,5h4v4h-4v-4Zm-5,0h4v4h-4v-4Zm10,0h4v4h-4v-4Zm-5,5h4v4h-4v-4Zm-5,0h4v4h-4v-4Zm10,0h4v4h-4v-4Zm5-5h4v4h-4v-4Z" transform="translate(-1146 -1457)"/>
</svg>
