<?xml version="1.0" encoding="UTF-8"?>
<svg width="52px" height="54px" viewBox="0 0 52 54" version="1.1" xmlns="http://www.w3.org/2000/svg" xmlns:xlink="http://www.w3.org/1999/xlink" xmlns:sketch="http://www.bohemiancoding.com/sketch/ns">
    <!-- Generator: Sketch 3.3 (11970) - http://www.bohemiancoding.com/sketch -->
    <title>registration-login-form__footer-container</title>
    <desc>Created with Sketch.</desc>
    <defs>
        <linearGradient x1="50.0000008%" y1="0.0134584327%" x2="50.0000008%" y2="99.9903868%" id="linearGradient-1">
            <stop stop-color="#5149A1" offset="0%"></stop>
            <stop stop-color="#8479F2" offset="100%"></stop>
        </linearGradient>
    </defs>
    <g id="Page-1" stroke="none" stroke-width="1" fill="none" fill-rule="evenodd" sketch:type="MSPage">
        <g id="registration-login-form__footer-container" sketch:type="MSLayerGroup" transform="translate(-1.000000, 0.000000)">
            <path d="M9.664,0.993 L44.336,0.993 C49.1220326,0.995208567 53.0005527,4.87596697 53,9.662 L53,44.336 C53.0002652,46.6348965 52.0872865,48.8397416 50.4619087,50.4654945 C48.8365309,52.0912474 46.6318965,53.0047348 44.333,53.005 L9.664,53.005 C7.36528724,53.0044697 5.1609637,52.0906641 3.536091,50.4646662 C1.9112183,48.8386682 0.998938913,46.6337126 1,44.335 L1,9.662 C0.999447341,4.87596697 4.87796745,0.995208567 9.664,0.993 L9.664,0.993 Z" id="bg" fill="url(#linearGradient-1)" sketch:type="MSShapeGroup"></path>
            <path d="M8.97568709,34.4585503 C5.95540133,27.1695777 7.62384856,18.7789172 13.2028829,13.1998829 C18.7819172,7.62084856 27.1725777,5.95240133 34.4615503,8.97268709 C41.7505229,11.9929729 46.5020223,19.1070543 46.5,26.997 C46.4867763,37.7610704 37.7640704,46.4837763 27,46.497 C19.1100543,46.4990223 11.9959729,41.7475229 8.97568709,34.4585503 L8.97568709,34.4585503 Z M9.71142644,19.8366837 C6.81489634,26.8287348 8.41622171,34.8771711 13.7685099,40.2280286 C19.1207981,45.5788861 27.1696622,47.1780597 34.1609387,44.2796604 C41.1522151,41.3812611 45.7086406,34.5562661 45.705,26.988 C45.6928719,16.6633512 37.3246517,8.2973679 27,8.288 C19.4317332,8.28638277 12.6079565,12.8446327 9.71142644,19.8366837 L9.71142644,19.8366837 Z" id="circle" fill="#FFFFFF" sketch:type="MSShapeGroup"></path>
            <path d="M26.8829793,45.8921944 L26.8829793,46.497 C30.9309024,46.5038003 34.878831,45.2397077 38.1699793,42.883 C38.3482053,42.7551692 38.441487,42.539529 38.4126093,42.3221093 C38.3837316,42.1046896 38.2373944,41.9208755 38.0319793,41.844 C33.1329793,40.031 32.3419793,38.56 32.3419793,35.737 C32.3097429,35.2162424 32.4770892,34.702761 32.8099793,34.301 C33.5305364,33.268154 33.9877976,32.0748806 34.1419793,30.825 C34.1488623,30.6064961 34.3033999,30.4206389 34.5169793,30.374 C35.2379793,30.028 35.8969793,29.532 36.0639793,27.222 C36.1128395,26.4938834 35.8625566,25.7773448 35.3709793,25.238 C35.5859793,23.823 36.2149793,18.593 34.2409793,16.301 C33.2515614,15.2317781 31.8656635,14.6169486 30.4089793,14.601 C29.3989793,13.538 26.1859793,12.648 22.1639793,14.277 C17.5469793,16.15 17.5709793,20.17 18.1069793,23.45 C18.2099793,24.181 18.3259793,24.857 18.3949793,25.25 C17.8975002,25.798255 17.6469626,26.5267303 17.7019793,27.265 C17.8769793,29.533 18.5339793,30.029 19.2489793,30.375 C19.462953,30.4209888 19.6178074,30.607227 19.6239793,30.826 C19.7785215,32.0761175 20.2364959,33.26946 20.9579793,34.302 C21.2905103,34.7039089 21.4574941,35.2173749 21.4249793,35.738 C21.4249793,38.561 20.6349793,40.032 15.7349793,41.845 C15.5291855,41.9219082 15.3829059,42.1064566 15.3550108,42.3243736 C15.3271158,42.5422906 15.4221933,42.7577347 15.6019793,42.884 C18.8914598,45.2393996 22.8371725,46.5031049 26.8829793,46.497 L26.8829793,45.8921944 L26.8829793,14.0010702 C25.7049039,13.9584176 24.2309572,14.1532043 22.566,14.825 C18.603,16.43 18.596,19.867 19.111,23.017 C19.278,24.191 19.463,25.209 19.463,25.209 C19.5146694,25.485471 19.3721988,25.7617651 19.117,25.88 C18.7880874,26.2005091 18.6339398,26.6599732 18.703,27.114 C18.841,28.914 19.231,29.096 19.613,29.282 C20.1911703,29.4992428 20.5999991,30.0206924 20.673,30.634 C20.8088177,31.7597699 21.2176761,32.8352974 21.864,33.767 C22.3076459,34.4029305 22.5136516,35.1745671 22.446,35.947 C22.446,39.499 20.49,40.794 16.227,42.547 C20.4437314,45.1886477 23.3353261,45.7114454 26.8829792,45.8921721 L26.8829793,14.0010702 C28.5422634,14.0611452 29.6146012,14.5922495 29.807,14.925 C29.9408461,15.0838706 30.1208471,15.1971139 30.322,15.249 C30.3759645,15.2579678 30.4303791,15.2639768 30.485,15.267 C31.6968397,15.2343839 32.8661474,15.7148168 33.705,16.59 C35.343,18.5 34.843,23.586 34.543,25.214 C34.5043921,25.4795223 34.6331591,25.7414282 34.867,25.873 C35.2064272,26.1731804 35.3705682,26.6249446 35.303,27.073 C35.165,28.912 34.772,29.104 34.393,29.284 C33.8165839,29.5047971 33.4076707,30.0239057 33.328,30.636 C33.1939402,31.76308 32.7872034,32.8405037 32.143,33.775 C31.7448607,34.4277617 31.5805318,35.1965103 31.677,35.955 C31.677,39.501 33.285,40.753 37.541,42.509 C34.389852,44.553054 30.7519525,45.7226623 27,45.898 C26.9609131,45.896097 26.9219078,45.8941552 26.8829815,45.8921722 Z M26.8829793,14.0010702 C26.8829793,14.0010702 26.8829793,14.0010702 26.8829793,14.0010702 L26.8829793,8.67 L26.8829793,14.0010702 Z" id="face" fill="#FFFFFF" sketch:type="MSShapeGroup"></path>
        </g>
    </g>
</svg>